<?xml version="1.0" encoding="utf-8"?>
<svg viewBox="-100 -123.984 844.744 757.359" xmlns="http://www.w3.org/2000/svg" style="background-color:none">
  <path d="M 478.902 113.409 C 478.778 113.171 478.57 112.982 478.321 112.882 C 449.137 99.606 418.353 90.139 386.72 84.719 C 386.131 84.61 385.537 84.89 385.249 85.409 C 381.057 92.954 377.25 100.705 373.847 108.634 C 339.749 103.501 305.067 103.501 270.966 108.634 C 267.542 100.687 263.674 92.936 259.385 85.409 C 259.086 84.905 258.499 84.628 257.912 84.719 C 226.28 90.129 195.487 99.594 166.314 112.882 C 166.066 112.987 165.855 113.163 165.712 113.396 C 107.376 199.789 91.393 284.058 99.231 367.286 C 99.281 367.699 99.488 368.074 99.815 368.33 C 133.785 393.272 171.784 412.314 212.184 424.635 C 212.766 424.809 213.398 424.602 213.764 424.12 C 222.441 412.412 230.127 400.013 236.749 387.053 C 237.135 386.299 236.768 385.38 235.97 385.089 C 223.845 380.488 212.106 374.944 200.866 368.503 C 199.984 367.989 199.908 366.745 200.725 366.131 C 203.083 364.381 205.444 362.554 207.696 360.718 C 208.106 360.384 208.669 360.306 209.151 360.521 C 282.794 393.851 362.529 393.851 435.3 360.521 C 435.782 360.292 436.355 360.363 436.777 360.697 C 439.028 362.539 441.386 364.381 443.762 366.131 C 444.581 366.741 444.52 367.983 443.637 368.503 C 432.423 374.998 420.676 380.54 408.519 385.073 C 407.718 385.375 407.358 386.299 407.751 387.053 C 414.481 399.946 422.162 412.328 430.723 424.101 C 431.078 424.597 431.713 424.81 432.298 424.634 C 472.778 412.351 510.837 393.309 544.85 368.33 C 545.185 368.086 545.4 367.715 545.432 367.303 C 554.823 271.085 529.722 187.504 478.902 113.409 Z M 247.747 316.611 C 225.575 316.611 207.304 296.432 207.304 271.649 C 207.304 246.873 225.221 226.692 247.747 226.692 C 270.45 226.692 288.543 247.047 288.188 271.649 C 288.188 296.432 270.277 316.611 247.747 316.611 Z M 397.277 316.611 C 375.103 316.611 356.832 296.432 356.832 271.649 C 356.832 246.873 374.748 226.692 397.277 226.692 C 419.978 226.692 438.069 247.047 437.719 271.649 C 437.719 296.432 419.978 316.611 397.277 316.611 Z" style="" fill="#FFFFFF"/>
</svg>