<?xml version="1.0" encoding="utf-8"?>
<svg viewBox="-100 -123.984 844.744 757.359"
    xmlns="http://www.w3.org/2000/svg" style="background-color:none;">
    <path d="M 499.772 93.228 C 499.631 92.953 499.396 92.738 499.111 92.62 C 466.044 77.449 431.15 66.63 395.301 60.436 C 394.632 60.312 393.96 60.631 393.632 61.225 C 388.881 69.85 384.568 78.707 380.709 87.766 C 342.066 81.901 302.759 81.901 264.114 87.766 C 260.23 78.684 255.848 69.824 250.987 61.225 C 250.646 60.645 249.984 60.331 249.319 60.436 C 213.466 66.618 178.569 77.437 145.507 92.621 C 145.224 92.741 144.986 92.945 144.823 93.208 C 78.707 191.944 60.594 288.254 69.48 383.372 C 69.53 383.842 69.769 384.272 70.144 384.564 C 108.643 413.07 151.705 434.828 197.492 448.911 C 198.153 449.11 198.866 448.875 199.28 448.326 C 209.115 434.945 217.829 420.775 225.333 405.962 C 225.771 405.1 225.357 404.049 224.45 403.717 C 210.709 398.459 197.406 392.122 184.666 384.763 C 183.663 384.174 183.579 382.755 184.506 382.052 C 187.179 380.049 189.854 377.965 192.407 375.862 C 192.869 375.48 193.508 375.395 194.054 375.639 C 277.519 413.731 367.88 413.731 450.356 375.639 C 450.905 375.38 451.555 375.457 452.025 375.842 C 454.578 377.946 457.253 380.049 459.946 382.052 C 460.877 382.748 460.803 384.166 459.805 384.763 C 447.094 392.184 433.78 398.518 420.003 403.697 C 419.095 404.042 418.691 405.099 419.135 405.962 C 426.765 420.693 435.467 434.844 445.167 448.302 C 445.572 448.867 446.292 449.113 446.957 448.908 C 492.826 434.874 535.963 413.113 574.511 384.564 C 574.891 384.286 575.133 383.86 575.175 383.392 C 585.812 273.426 557.366 177.906 499.772 93.228 Z M 237.799 325.454 C 212.669 325.454 191.965 302.395 191.965 274.074 C 191.965 245.754 212.268 222.691 237.799 222.691 C 263.528 222.691 284.033 245.953 283.632 274.072 C 283.632 302.395 263.327 325.454 237.799 325.454 Z M 407.262 325.454 C 382.133 325.454 361.428 302.395 361.428 274.074 C 361.428 245.754 381.732 222.691 407.262 222.691 C 432.993 222.691 453.497 245.953 453.096 274.072 C 453.096 302.395 432.993 325.454 407.262 325.454 Z" style="" fill="#FFFFFF"/>
</svg>