<svg width="279" height="175" viewBox="0 0 279 175" fill="none" xmlns="http://www.w3.org/2000/svg">
<mask id="mask0_102_286" style="mask-type:alpha" maskUnits="userSpaceOnUse" x="0" y="0" width="279" height="175">
<path d="M0 10C0 4.47715 4.47715 0 10 0H269C274.523 0 279 4.47715 279 10V165C279 170.523 274.523 175 269 175H10C4.47715 175 0 170.523 0 165V10Z" fill="url(#paint0_linear_102_286)"/>
</mask>
<g mask="url(#mask0_102_286)">
<rect x="-5" y="-122" width="297" height="298" fill="url(#paint1_linear_102_286)"/>
</g>
<g clip-path="url(#clip0_102_286)">
<path d="M82.45 166.651H62.3367V174.258H82.45V166.651Z" fill="#7196FF"/>
<g style="mix-blend-mode:multiply" opacity="0.2">
<path d="M89.5743 168.41C89.5743 167.318 88.6891 166.433 87.5972 166.433C86.5053 166.433 85.6202 167.318 85.6202 168.41V170.133C85.6202 171.225 86.5053 172.11 87.5972 172.11C88.6891 172.11 89.5743 171.225 89.5743 170.133V168.41Z" fill="#3E70DD"/>
</g>
<g style="mix-blend-mode:multiply" opacity="0.2">
<path d="M87.8463 168.244H87.3429V174.258H87.8463V168.244Z" fill="#3E70DD"/>
</g>
<g style="mix-blend-mode:multiply" opacity="0.2">
<path d="M45.9542 168.41C45.9542 167.318 45.069 166.433 43.9771 166.433C42.8852 166.433 42 167.318 42 168.41V170.133C42 171.225 42.8852 172.11 43.9771 172.11C45.069 172.11 45.9542 171.225 45.9542 170.133V168.41Z" fill="#3E70DD"/>
</g>
<g style="mix-blend-mode:multiply" opacity="0.2">
<path d="M44.2261 168.244H43.7228V174.258H44.2261V168.244Z" fill="#3E70DD"/>
</g>
<g style="mix-blend-mode:multiply" opacity="0.2">
<path d="M93.596 170.559C94.1203 170.559 94.6232 170.767 94.994 171.138C95.3648 171.508 95.5731 172.011 95.5731 172.536V174.258H91.6189V172.541C91.6182 172.281 91.6689 172.023 91.7679 171.783C91.867 171.542 92.0125 171.324 92.1961 171.139C92.3798 170.955 92.598 170.809 92.8382 170.71C93.0784 170.61 93.3359 170.559 93.596 170.559V170.559Z" fill="#3E70DD"/>
</g>
<path d="M78.0803 162.277L73.7111 166.646H82.4496L78.0803 162.277Z" fill="#7196FF"/>
<g style="mix-blend-mode:multiply" opacity="0.2">
<path d="M66.706 162.277L62.3367 166.646H73.7114L78.0807 162.277H66.706Z" fill="#3E70DD"/>
</g>
<path d="M78.0802 168.696C78.478 168.696 78.8594 168.854 79.1407 169.135C79.4219 169.416 79.5799 169.797 79.5799 170.195V174.258H76.5806V170.195C76.5806 169.797 76.7386 169.416 77.0198 169.135C77.3011 168.854 77.6825 168.696 78.0802 168.696V168.696Z" fill="#85A5FF"/>
<path d="M58.9428 156.039H56.7322L55.5179 174.258H60.157L58.9428 156.039Z" fill="#7196FF"/>
<path d="M58.1642 158.639L57.3754 157.845L51.5013 162.822L53.1462 164.477L58.1642 158.639Z" fill="#85A5FF"/>
<path d="M58.5588 159.033L57.7701 158.239L62.7828 152.401L64.4278 154.057L58.5588 159.033Z" fill="#85A5FF"/>
<path d="M57.7648 158.634L58.5588 157.85L53.5823 151.976L51.927 153.621L57.7648 158.634Z" fill="#85A5FF"/>
<path d="M57.3703 159.028L58.1643 158.24L64.0073 163.252L62.3519 164.897L57.3703 159.028Z" fill="#85A5FF"/>
<path d="M70.8002 169.63C71.0011 169.63 71.1938 169.709 71.3359 169.852C71.478 169.994 71.5578 170.186 71.5578 170.387V171.596H70.0425V170.387C70.0425 170.288 70.0621 170.189 70.1002 170.097C70.1383 170.005 70.1941 169.922 70.2644 169.852C70.3348 169.781 70.4183 169.725 70.5102 169.687C70.6022 169.649 70.7007 169.63 70.8002 169.63V169.63Z" fill="#3E70DD"/>
<path d="M66.1451 169.63C66.3461 169.63 66.5388 169.709 66.6809 169.852C66.8229 169.994 66.9028 170.186 66.9028 170.387V171.596H65.3875V170.387C65.3875 170.186 65.4673 169.994 65.6094 169.852C65.7515 169.709 65.9442 169.63 66.1451 169.63V169.63Z" fill="#3E70DD"/>
<g style="mix-blend-mode:multiply" opacity="0.2">
<g style="mix-blend-mode:multiply">
<path d="M96.2376 161.555C95.8478 161.555 95.5319 161.871 95.5319 162.261C95.5319 162.651 95.8478 162.967 96.2376 162.967H96.9485C97.3383 162.967 97.6542 162.651 97.6542 162.261C97.6542 161.871 97.3383 161.555 96.9485 161.555H96.2376Z" fill="#3E70DD"/>
</g>
<g style="mix-blend-mode:multiply">
<path d="M90.5812 161.555C90.1914 161.555 89.8755 161.871 89.8755 162.261C89.8755 162.651 90.1914 162.967 90.5812 162.967H91.2921C91.6819 162.967 91.9978 162.651 91.9978 162.261C91.9978 161.871 91.6819 161.555 91.2921 161.555H90.5812Z" fill="#3E70DD"/>
</g>
<g style="mix-blend-mode:multiply">
<path d="M93.0563 159.786C93.0563 160.175 93.3723 160.491 93.762 160.491C94.1518 160.491 94.4677 160.175 94.4677 159.786V159.075C94.4677 158.685 94.1518 158.369 93.762 158.369C93.3723 158.369 93.0563 158.685 93.0563 159.075V159.786Z" fill="#3E70DD"/>
</g>
<g style="mix-blend-mode:multiply">
<path d="M93.0563 165.442C93.0563 165.831 93.3723 166.147 93.762 166.147C94.1518 166.147 94.4677 165.831 94.4677 165.442V164.731C94.4677 164.341 94.1518 164.025 93.762 164.025C93.3723 164.025 93.0563 164.341 93.0563 164.731V165.442Z" fill="#3E70DD"/>
</g>
</g>
<path opacity="0.8" d="M209.645 157.999H190.314V174.433H209.645V157.999Z" fill="#3E70DD"/>
<path d="M214.181 150.058H201.38L199.305 174.433H216.256L214.181 150.058Z" fill="#85A5FF"/>
<path d="M214.841 164.219H186.295V174.433H214.841V164.219Z" fill="#7196FF"/>
<path d="M214.668 164.224L213.8 174.433H213.055L213.932 164.224H214.668Z" fill="#3E70DD"/>
<path d="M179.42 160.886H186.178L187.335 174.433H178.263L179.42 160.886Z" fill="#7196FF"/>
<path d="M178.263 161.414H187.335V159.709H178.263V161.414Z" fill="#7196FF"/>
<path d="M178.263 159.708H187.335V158.004H178.263V159.708Z" fill="#3E70DD"/>
<path d="M185.296 160.034H187.335V157.999H185.296V160.034Z" fill="#7196FF"/>
<path d="M181.333 160.034H184.357V157.999H181.333V160.034Z" fill="#7196FF"/>
<path d="M178.263 160.034H180.612V157.999H178.263V160.034Z" fill="#7196FF"/>
<path d="M218.336 164.854C218.436 164.85 218.536 164.867 218.629 164.903C218.722 164.939 218.807 164.994 218.878 165.063C218.95 165.133 219.007 165.216 219.045 165.309C219.084 165.401 219.103 165.5 219.103 165.6V166.782H217.58V165.6C217.58 165.501 217.599 165.402 217.637 165.311C217.675 165.219 217.73 165.137 217.801 165.067C217.871 164.997 217.955 164.943 218.047 164.906C218.139 164.869 218.237 164.852 218.336 164.854V164.854Z" fill="#3E70DD"/>
<path d="M182.799 164.853C182.996 164.853 183.184 164.931 183.323 165.07C183.462 165.209 183.54 165.398 183.54 165.594V166.776H182.063V165.599C182.063 165.403 182.141 165.214 182.28 165.075C182.419 164.936 182.608 164.858 182.804 164.858L182.799 164.853Z" fill="#3E70DD"/>
<path d="M221.716 160.886H214.957L213.801 174.433H222.873L221.716 160.886Z" fill="#7196FF"/>
<path d="M222.873 159.704H213.801V161.408H222.873V159.704Z" fill="#7196FF"/>
<path d="M222.873 157.999H213.801V159.703H222.873V157.999Z" fill="#3E70DD"/>
<path d="M216.825 157.999H213.801V160.033H216.825V157.999Z" fill="#7196FF"/>
<path d="M220.787 157.999H217.763V160.033H220.787V157.999Z" fill="#7196FF"/>
<path d="M222.878 157.999H221.508V160.033H222.878V157.999Z" fill="#7196FF"/>
<path d="M202.729 150.053H212.836V141.412H202.729V150.053Z" fill="#7196FF"/>
<path d="M186.468 164.224L187.335 174.433H188.081L187.204 164.224H186.468Z" fill="#3E70DD"/>
<path d="M215.936 147.192H199.624V150.053H215.936V147.192Z" fill="#85A5FF"/>
<path d="M215.936 145.487H199.624V147.191H215.936V145.487Z" fill="#7196FF"/>
<path d="M208.6 145.487H202.724V147.521H208.6V145.487Z" fill="#85A5FF"/>
<path d="M213.79 145.487H210.142V147.521H213.79V145.487Z" fill="#85A5FF"/>
<path d="M215.942 145.487H214.572V147.521H215.942V145.487Z" fill="#85A5FF"/>
<path d="M199.629 147.521H201.471V145.487H199.629V147.521Z" fill="#85A5FF"/>
<path d="M207.783 137.374L204.241 141.418H211.319L207.783 137.374Z" fill="#3E70DD"/>
<path d="M218.336 164.854C218.436 164.85 218.536 164.867 218.629 164.903C218.722 164.939 218.807 164.994 218.878 165.063C218.95 165.133 219.007 165.216 219.045 165.309C219.084 165.401 219.103 165.5 219.103 165.6V166.782H217.58V165.6C217.58 165.501 217.599 165.402 217.637 165.311C217.675 165.219 217.73 165.137 217.801 165.067C217.871 164.997 217.955 164.943 218.047 164.906C218.139 164.869 218.237 164.852 218.336 164.854V164.854Z" fill="#3E70DD"/>
<path d="M200.568 167.665C201.26 167.665 201.923 167.939 202.412 168.428C202.901 168.917 203.176 169.581 203.176 170.272V174.433H197.96V170.278C197.959 169.935 198.026 169.595 198.157 169.278C198.288 168.961 198.48 168.673 198.722 168.43C198.964 168.187 199.252 167.995 199.569 167.864C199.886 167.732 200.225 167.665 200.568 167.665Z" fill="#85A5FF"/>
<path d="M208.057 133.436H207.499V137.693H208.057V133.436Z" fill="#85A5FF"/>
<path d="M207.783 133.619C208.03 133.619 208.229 133.419 208.229 133.173C208.229 132.926 208.03 132.726 207.783 132.726C207.536 132.726 207.336 132.926 207.336 133.173C207.336 133.419 207.536 133.619 207.783 133.619Z" fill="#85A5FF"/>
<path d="M212.649 133.848H208.062V137.298H212.649V133.848Z" fill="#7196FF"/>
<path d="M215.439 134.766H210.853V138.216H215.439V134.766Z" fill="#7196FF"/>
<path d="M210.853 137.293H212.644L210.853 138.216V137.293Z" fill="#3E70DD"/>
<g style="mix-blend-mode:multiply" opacity="0.2">
<path d="M229.129 168.715C229.129 167.647 228.263 166.782 227.196 166.782C226.128 166.782 225.262 167.647 225.262 168.715V170.399C225.262 171.467 226.128 172.333 227.196 172.333C228.263 172.333 229.129 171.467 229.129 170.399V168.715Z" fill="#3E70DD"/>
</g>
<g style="mix-blend-mode:multiply" opacity="0.2">
<path d="M227.444 168.552H226.952V174.433H227.444V168.552Z" fill="#3E70DD"/>
</g>
<g style="mix-blend-mode:multiply" opacity="0.2">
<path d="M231.067 170.815C231.579 170.815 232.071 171.019 232.434 171.382C232.796 171.744 233 172.236 233 172.749V174.433H229.133V172.754C229.133 172.499 229.182 172.247 229.279 172.012C229.376 171.777 229.518 171.563 229.698 171.383C229.877 171.203 230.091 171.061 230.326 170.963C230.561 170.866 230.812 170.815 231.067 170.815V170.815Z" fill="#3E70DD"/>
</g>
<g style="mix-blend-mode:multiply" opacity="0.4">
<path d="M188.771 143.929C188.379 143.929 188.061 144.247 188.061 144.639C188.061 145.032 188.379 145.35 188.771 145.35H189.482C189.874 145.35 190.192 145.032 190.192 144.639C190.192 144.247 189.874 143.929 189.482 143.929H188.771Z" fill="#3E70DD"/>
</g>
<g style="mix-blend-mode:multiply" opacity="0.4">
<path d="M183.088 143.929C182.696 143.929 182.378 144.247 182.378 144.639C182.378 145.032 182.696 145.35 183.088 145.35H183.799C184.191 145.35 184.509 145.032 184.509 144.639C184.509 144.247 184.191 143.929 183.799 143.929H183.088Z" fill="#3E70DD"/>
</g>
<g style="mix-blend-mode:multiply" opacity="0.4">
<path d="M185.57 142.153C185.57 142.546 185.888 142.864 186.28 142.864C186.672 142.864 186.99 142.546 186.99 142.153V141.443C186.99 141.051 186.672 140.733 186.28 140.733C185.888 140.733 185.57 141.051 185.57 141.443V142.153Z" fill="#3E70DD"/>
</g>
<g style="mix-blend-mode:multiply" opacity="0.4">
<path d="M185.57 147.836C185.57 148.228 185.888 148.546 186.28 148.546C186.672 148.546 186.99 148.228 186.99 147.836V147.126C186.99 146.733 186.672 146.415 186.28 146.415C185.888 146.415 185.57 146.733 185.57 147.126V147.836Z" fill="#3E70DD"/>
</g>
<path d="M137.776 130C163.734 130 184.759 108.782 184.759 82.586C184.759 56.3898 163.734 35.1721 137.776 35.1721C111.818 35.1721 90.7928 56.3898 90.7928 82.586C90.7928 108.782 111.818 130 137.776 130Z" fill="#3E70DD" fill-opacity="0.6"/>
<path d="M177.851 61.8614L216.332 55.1077L204.437 70.7478C202.117 73.8284 198.727 75.8427 194.921 76.5536L167.859 81.2931L167.086 77.0868L177.851 61.8614Z" fill="#DAE2ED"/>
<path d="M166.118 58.1103L222.909 48.1081C223.384 48.0489 223.74 48.5815 223.444 48.9366L219.824 53.849C219.408 54.3816 218.815 54.7959 218.103 54.9143L216.263 55.2102L177.868 61.9573L167.245 77.1086L168.017 81.3107L168.551 84.4475L156.563 101.552L149.857 87.7618L148.552 80.4229L162.735 60.2409C163.447 59.1756 164.693 58.4062 166.118 58.1103Z" fill="#ECEFF6"/>
<path d="M167.086 77.0276L177.805 61.8614L216.332 55.1077L213.95 58.2475L179.293 64.3496L169.408 78.3901L169.825 80.9376L167.86 81.2931L167.086 77.0276Z" fill="#C5CEDD"/>
<path d="M215.793 54.1385C216.77 54.1385 217.517 53.3913 217.517 52.4143C217.517 51.4373 216.77 50.6902 215.793 50.6902C214.816 50.6902 214.069 51.4373 214.069 52.4143C214.069 53.3913 214.816 54.1385 215.793 54.1385Z" fill="#DAE2ED"/>
<path d="M170.966 67.0684C171.943 67.0684 172.69 66.3213 172.69 65.3443C172.69 64.3672 171.943 63.6201 170.966 63.6201C169.989 63.6201 169.242 64.3672 169.242 65.3443C169.242 66.3213 169.989 67.0684 170.966 67.0684Z" fill="#DAE2ED"/>
<path d="M167.517 71.3792C168.494 71.3792 169.241 70.6321 169.241 69.655C169.241 68.678 168.494 67.9309 167.517 67.9309C166.54 67.9309 165.793 68.678 165.793 69.655C165.793 70.6321 166.54 71.3792 167.517 71.3792Z" fill="#DAE2ED"/>
<path d="M97.6279 61.9208L59.2735 55.188L71.1295 70.7799C73.4415 73.851 76.8205 75.859 80.6144 76.5677L107.587 81.2926L108.358 77.0993L97.6279 61.9208Z" fill="#DAE2ED"/>
<path d="M109.434 58.0511L52.6426 48.1081C52.1679 48.0489 51.8118 48.5815 52.1085 48.9366L55.7285 53.849C56.1439 54.3816 56.7373 54.7959 57.4494 54.9143L59.2891 55.2102L97.6844 61.9573L108.307 77.1086L107.535 81.3107L107.001 84.4475L118.989 101.552L125.695 87.7618L127 80.4229L112.817 60.2409C112.105 59.1164 110.859 58.347 109.434 58.0511Z" fill="#ECEFF6"/>
<path d="M108.358 77.0402L97.7207 61.9208L59.2735 55.188L61.6504 58.3182L96.1757 64.4014L106.099 78.3986L105.624 80.9382L107.645 81.2926L108.358 77.0402Z" fill="#C5CEDD"/>
<path d="M59.7587 54.1385C60.7358 54.1385 61.4829 53.3913 61.4829 52.4143C61.4829 51.4373 60.7358 50.6902 59.7587 50.6902C58.7817 50.6902 58.0346 51.4373 58.0346 52.4143C58.0346 53.3913 58.7817 54.1385 59.7587 54.1385Z" fill="#DAE2ED"/>
<path d="M104.586 67.0684C105.563 67.0684 106.31 66.3213 106.31 65.3443C106.31 64.3672 105.563 63.6201 104.586 63.6201C103.609 63.6201 102.862 64.3672 102.862 65.3443C102.862 66.3213 103.609 67.0684 104.586 67.0684Z" fill="#DAE2ED"/>
<path d="M108.035 71.3792C109.012 71.3792 109.759 70.6321 109.759 69.655C109.759 68.678 109.012 67.9309 108.035 67.9309C107.058 67.9309 106.31 68.678 106.31 69.655C106.31 70.6321 107.058 71.3792 108.035 71.3792Z" fill="#DAE2ED"/>
<path d="M189.778 35.1266L188.297 38.2673C187.941 38.9784 188.712 39.7487 189.423 39.3932L192.564 37.9117C192.801 37.7932 193.097 37.7932 193.334 37.9117L196.475 39.3932C197.186 39.7487 197.956 38.9784 197.601 38.2673L196.119 35.1266C196.001 34.8895 196.001 34.5932 196.119 34.3562L197.601 31.2155C197.956 30.5044 197.186 29.734 196.475 30.0896L193.334 31.571C193.097 31.6896 192.801 31.6896 192.564 31.571L189.423 30.0896C188.712 29.734 187.941 30.5044 188.297 31.2155L189.778 34.3562C189.897 34.5932 189.897 34.8895 189.778 35.1266Z" fill="#AEC7FF"/>
<path d="M64.5005 97.2412C63.7893 97.2412 63.2074 96.724 63.2074 96.0918V94.9424C63.2074 94.3102 63.7893 93.793 64.5005 93.793C65.2117 93.793 65.7936 94.3102 65.7936 94.9424V96.0918C65.7936 96.724 65.2117 97.2412 64.5005 97.2412Z" fill="#AEC7FF"/>
<path d="M64.5005 106.724C63.7893 106.724 63.2074 106.207 63.2074 105.575V104.426C63.2074 103.793 63.7893 103.276 64.5005 103.276C65.2117 103.276 65.7936 103.793 65.7936 104.426V105.575C65.7936 106.207 65.2117 106.724 64.5005 106.724Z" fill="#AEC7FF"/>
<path d="M67.5172 100.258C67.5172 99.547 68.0344 98.9651 68.6666 98.9651H69.816C70.4482 98.9651 70.9654 99.547 70.9654 100.258C70.9654 100.969 70.4482 101.551 69.816 101.551H68.6666C68.0344 101.551 67.5172 100.969 67.5172 100.258Z" fill="#AEC7FF"/>
<path d="M58.0344 100.258C58.0344 99.547 58.5517 98.9651 59.1839 98.9651H60.3333C60.9655 98.9651 61.4827 99.547 61.4827 100.258C61.4827 100.969 60.9655 101.551 60.3333 101.551H59.1839C58.5517 101.551 58.0344 100.969 58.0344 100.258Z" fill="#AEC7FF"/>
<path d="M137.776 41.2073L113.207 65.4926V99.6807L137.776 123.966L162.345 99.6807V65.4926L137.776 41.2073ZM150.12 94.5525L137.776 106.754L125.491 94.6114V70.444L137.776 58.3603L150.06 70.5029L150.12 94.5525Z" fill="#FA6EF6"/>
<path d="M137.345 41.2073V58.3689L149.845 70.5177L162.345 65.4458L137.345 41.2073Z" fill="#FFADFB"/>
<path d="M125.276 94.6548L113.207 99.6676L137.345 123.965V106.804L125.276 94.6548Z" fill="#E655D4"/>
<path d="M125.276 69.9161V94.3953L137.776 106.725L150.276 94.3953V69.9161L137.776 57.5867L125.276 69.9161Z" fill="#FFCFF9"/>
<path d="M150.276 69.6257V69.6868L125.337 94.6554H125.276V87.879L146.878 66.207L150.276 69.6257Z" fill="white"/>
<path d="M150.276 79.1382V85.8996L133.842 102.414L130.448 99.0035L150.276 79.1382Z" fill="white"/>
</g>
<defs>
<linearGradient id="paint0_linear_102_286" x1="11.6593" y1="190.586" x2="267.732" y2="84.72" gradientUnits="userSpaceOnUse">
<stop stop-color="#FFE75C"/>
<stop offset="0.32" stop-color="#FC78C0"/>
<stop offset="0.92" stop-color="#5221DB"/>
</linearGradient>
<linearGradient id="paint1_linear_102_286" x1="-5" y1="27" x2="292" y2="27" gradientUnits="userSpaceOnUse">
<stop stop-color="#3E70DD"/>
<stop offset="1" stop-color="#B377F3"/>
</linearGradient>
<clipPath id="clip0_102_286">
<rect x="42" y="30" width="191" height="145" rx="8" fill="white"/>
</clipPath>
</defs>
</svg>
