<?xml version="1.0" encoding="utf-8"?>
<svg viewBox="-115.229 647.402 1215.229 1252.598" xmlns="http://www.w3.org/2000/svg">
  <path d="M 1107.423 1277 A 620.023 620.023 0 0 1 487.4 1897.023 A 620.023 620.023 0 0 1 -132.623 1277 A 620.023 620.023 0 0 1 487.4 656.977 A 620.023 620.023 0 0 1 1107.423 1277 Z" style="fill: none; stroke: rgb(0, 0, 0);" transform="matrix(0.972545, 0, 0, 0.999963, 19.981585, -2.952183)"/>
  <path d="M 552.131 1170.554 A 107 107 0 0 1 445.131 1277.554 A 107 107 0 0 1 338.131 1170.554 A 107 107 0 0 1 445.131 1063.554 A 107 107 0 0 1 552.131 1170.554 Z" style="fill: rgb(254, 249, 246); stroke: rgb(255, 255, 255);"/>
  <path style="fill: rgb(253, 248, 243); stroke: rgb(255, 255, 255);" d="M 688.693 1484.956 C 694.622 1421.518 681.88 1374.363 634.935 1313.294 C 739.588 1334.746 761.346 1401.342 755.797 1484.25 C 760.868 1487.923 690.11 1491.061 688.693 1484.956 Z"/>
  <path style="fill: rgb(252, 241, 234); stroke: rgb(255, 255, 255);" transform="matrix(1.01588, -0.017732, 0.019175, 1.098568, -395.058422, 874.25967)" d="M 932.729 191.966 A 93.818 93.818 0 0 1 932.729 379.488 A 130.155 130.155 0 0 0 932.729 191.966 Z"/>
  <path style="fill: rgb(253, 248, 243);" d="M 389.297 101.463 C 534.77 84.88 566.092 243.218 530.91 330.722 C 509.566 383.809 470.52 410.154 387.92 411.387 L 388.798 101.558 L 389.297 101.463 Z" transform="matrix(0, -1.222221, 1.35409, 0, 101.402362, 1962.5827)"/>
</svg>