<svg xmlns="http://www.w3.org/2000/svg" viewBox="0 0 220 236" width="220" height="236" preserveAspectRatio="xMidYMid meet" style="width: 100%; height: 100%; transform: translate3d(0px, 0px, 0px); content-visibility: visible;">
    <defs>
        <clipPath id="__lottie_element_560">
            <rect width="220" height="236" x="0" y="0"></rect>
        </clipPath>
        <clipPath id="__lottie_element_583">
            <path d="M0,0 L35,0 L35,35 L0,35z"></path>
        </clipPath>
        <filter id="__lottie_element_585">
            <feColorMatrix type="matrix" color-interpolation-filters="linearRGB" values="0.3333 0.3333 0.3333 0 0 0.3333 0.3333 0.3333 0 0 0.3333 0.3333 0.3333 0 0 0 0 0 1 0" result="filter_result_0_tint_1"></feColorMatrix>
            <feColorMatrix type="matrix" color-interpolation-filters="sRGB" values="1 0 0 0 0 0 1 0 0 0 0 0 1 0 0 0 0 0 1 0" result="filter_result_0_tint_2"></feColorMatrix>
            <feMerge result="filter_result_0">
                <feMergeNode in="SourceGraphic"></feMergeNode>
                <feMergeNode in="filter_result_0_tint_1"></feMergeNode>
                <feMergeNode in="filter_result_0_tint_2"></feMergeNode>
            </feMerge>
        </filter>
        <clipPath id="__lottie_element_587">
            <path d="M0,0 L35,0 L35,35 L0,35z"></path>
        </clipPath>
        <clipPath id="__lottie_element_594">
            <path d="M0,0 L35,0 L35,35 L0,35z"></path>
        </clipPath>
        <clipPath id="__lottie_element_601">
            <path d="M0,0 L35,0 L35,35 L0,35z"></path>
        </clipPath>
        <clipPath id="__lottie_element_608">
            <path d="M0,0 L35,0 L35,35 L0,35z"></path>
        </clipPath>
        <clipPath id="__lottie_element_615">
            <path d="M0,0 L35,0 L35,35 L0,35z"></path>
        </clipPath>
        <filter id="__lottie_element_617">
            <feColorMatrix type="matrix" color-interpolation-filters="linearRGB" values="0.3333 0.3333 0.3333 0 0 0.3333 0.3333 0.3333 0 0 0.3333 0.3333 0.3333 0 0 0 0 0 1 0" result="filter_result_0_tint_1"></feColorMatrix>
            <feColorMatrix type="matrix" color-interpolation-filters="sRGB" values="1 0 0 0 0 0 1 0 0 0 0 0 1 0 0 0 0 0 1 0" result="filter_result_0_tint_2"></feColorMatrix>
            <feMerge result="filter_result_0">
                <feMergeNode in="SourceGraphic"></feMergeNode>
                <feMergeNode in="filter_result_0_tint_1"></feMergeNode>
                <feMergeNode in="filter_result_0_tint_2"></feMergeNode>
            </feMerge>
        </filter>
        <clipPath id="__lottie_element_619">
            <path d="M0,0 L35,0 L35,35 L0,35z"></path>
        </clipPath>
        <clipPath id="__lottie_element_626">
            <path d="M0,0 L35,0 L35,35 L0,35z"></path>
        </clipPath>
        <clipPath id="__lottie_element_633">
            <path d="M0,0 L35,0 L35,35 L0,35z"></path>
        </clipPath>
        <clipPath id="__lottie_element_640">
            <path d="M0,0 L35,0 L35,35 L0,35z"></path>
        </clipPath>
    </defs>
    <g clip-path="url(#__lottie_element_560)">
        <g transform="matrix(1,0,0,1,35.84600067138672,134.1490020751953)" opacity="0.25" style="display: block;">
            <g opacity="1" transform="matrix(1,0,0,1,81.7959976196289,47.928001403808594)">
                <path fill="rgb(31,33,36)" fill-opacity="1" d=" M79.9280014038086,-15.520000457763672 C79.9280014038086,-15.520000457763672 26.187000274658203,-46.54800033569336 26.187000274658203,-46.54800033569336 C24.224000930786133,-47.67900085449219 20.94700050354004,-47.560001373291016 18.722999572753906,-46.27899932861328 C18.722999572753906,-46.27899932861328 -79.46399688720703,10.409000396728516 -79.46399688720703,10.409000396728516 C-80.78700256347656,11.17300033569336 -81.5459976196289,12.256999969482422 -81.5459976196289,13.385000228881836 C-81.5459976196289,14.38599967956543 -80.97200012207031,15.270000457763672 -79.9280014038086,15.87399959564209 C-79.9280014038086,15.87399959564209 -26.187000274658203,46.900001525878906 -26.187000274658203,46.900001525878906 C-25.283000946044922,47.42100143432617 -24.10300064086914,47.678001403808594 -22.871999740600586,47.678001403808594 C-21.430999755859375,47.678001403808594 -19.92300033569336,47.32500076293945 -18.722999572753906,46.63199996948242 C-18.722999572753906,46.63199996948242 79.46399688720703,-10.055000305175781 79.46399688720703,-10.055000305175781 C80.78700256347656,-10.819999694824219 81.5459976196289,-11.906000137329102 81.5459976196289,-13.034000396728516 C81.54499816894531,-14.03499984741211 80.97200012207031,-14.916999816894531 79.9280014038086,-15.520000457763672z"></path>
            </g>
        </g>
        <g transform="matrix(1,0,0,1,25.810997009277344,118.64900207519531)" opacity="1" style="display: block;">
            <g opacity="1" transform="matrix(1,0,0,1,81.85800170898438,52.93299865722656)">
                <path fill="rgb(31,33,36)" fill-opacity="1" d=" M81.54499816894531,-18.048999786376953 C81.54499816894531,-18.048999786376953 81.54499816894531,-18.101999282836914 81.54499816894531,-18.101999282836914 C81.54499816894531,-18.152000427246094 81.52400207519531,-18.19499969482422 81.51699829101562,-18.242000579833984 C81.44100189208984,-19.1560001373291 80.89900207519531,-19.96299934387207 79.92900085449219,-20.523000717163086 C79.92900085449219,-20.523000717163086 26.187999725341797,-51.54899978637695 26.187999725341797,-51.54899978637695 C24.225000381469727,-52.68299865722656 20.94499969482422,-52.566001892089844 18.724000930786133,-51.28300094604492 C18.724000930786133,-51.28300094604492 -79.46399688720703,5.4070000648498535 -79.46399688720703,5.4070000648498535 C-80.78700256347656,6.171000003814697 -81.5459976196289,7.255000114440918 -81.5459976196289,8.383000373840332 C-81.5459976196289,8.40999984741211 -81.53500366210938,8.437000274658203 -81.53500366210938,8.46399974822998 C-81.53500366210938,8.479999542236328 -81.54299926757812,8.493000030517578 -81.54299926757812,8.508000373840332 C-81.54299926757812,8.508000373840332 -81.54100036621094,18.23200035095215 -81.54100036621094,18.23200035095215 C-81.60800170898438,19.283000946044922 -81.01899719238281,20.246999740600586 -79.9280014038086,20.878000259399414 C-79.9280014038086,20.878000259399414 -26.18600082397461,51.90599822998047 -26.18600082397461,51.90599822998047 C-25.284000396728516,52.426998138427734 -24.101999282836914,52.683998107910156 -22.871999740600586,52.683998107910156 C-21.430999755859375,52.683998107910156 -19.92300033569336,52.33000183105469 -18.722999572753906,51.63800048828125 C-18.722999572753906,51.63800048828125 79.46499633789062,-5.051000118255615 79.46499633789062,-5.051000118255615 C80.75199890136719,-5.794000148773193 81.48999786376953,-6.808000087738037 81.54499816894531,-7.953999996185303 C81.54499816894531,-7.953999996185303 81.54499816894531,-18.011999130249023 81.54499816894531,-18.011999130249023 C81.54499816894531,-18.020000457763672 81.5469970703125,-18.027999877929688 81.5469970703125,-18.035999298095703 C81.5469970703125,-18.040000915527344 81.54499816894531,-18.045000076293945 81.54499816894531,-18.048999786376953z"></path>
            </g>
            <g opacity="1" transform="matrix(1,0,0,1,28.909000396728516,83.47699737548828)">
                <path fill="rgb(227,233,247)" fill-opacity="1" d=" M26.6200008392334,17.238000869750977 C26.6200008392334,17.238000869750977 26.6200008392334,14.157999992370605 26.6200008392334,14.157999992370605 C26.6200008392334,12.371999740600586 25.66699981689453,10.722000122070312 24.1200008392334,9.82800006866455 C24.1200008392334,9.82800006866455 -23.5939998626709,-17.719999313354492 -23.5939998626709,-17.719999313354492 C-24.927000045776367,-18.48900032043457 -26.5939998626709,-17.527000427246094 -26.5939998626709,-15.987000465393066 C-26.5939998626709,-15.987000465393066 -26.5939998626709,-12.248000144958496 -26.5939998626709,-12.248000144958496 C-26.618999481201172,-11.824000358581543 -26.219999313354492,-11.53600025177002 -25.979000091552734,-11.39799976348877 C-25.979000091552734,-11.39799976348877 25.1200008392334,18.104000091552734 25.1200008392334,18.104000091552734 C25.78700065612793,18.48900032043457 26.6200008392334,18.007999420166016 26.6200008392334,17.238000869750977z"></path>
            </g>
            <g opacity="1" transform="matrix(1,0,0,1,59.266998291015625,99.572998046875)">
                <path fill="rgb(227,233,247)" fill-opacity="1" d=" M0.5849999785423279,3.984999895095825 C1.253999948501587,3.9010000228881836 1.7380000352859497,3.2980000972747803 1.7380000352859497,2.622999906539917 C1.7380000352859497,2.622999906539917 1.7380000352859497,-2.6110000610351562 1.7380000352859497,-2.6110000610351562 C1.7380000352859497,-3.3959999084472656 1.0820000171661377,-4.043000221252441 0.29899999499320984,-3.9860000610351562 C0.10499999672174454,-3.9719998836517334 -0.08799999952316284,-3.9639999866485596 -0.2809999883174896,-3.9639999866485596 C-0.2809999883174896,-3.9639999866485596 -0.29600000381469727,-3.9639999866485596 -0.29600000381469727,-3.9639999866485596 C-1.0829999446868896,-3.9660000801086426 -1.7389999628067017,-3.372999906539917 -1.7389999628067017,-2.5869998931884766 C-1.7389999628067017,-2.5869998931884766 -1.7389999628067017,2.6530001163482666 -1.7389999628067017,2.6530001163482666 C-1.7389999628067017,3.4100000858306885 -1.13100004196167,4.0269999504089355 -0.375,4.039000034332275 C-0.375,4.039000034332275 -0.3659999966621399,4.039000034332275 -0.3659999966621399,4.039000034332275 C-0.05299999937415123,4.043000221252441 0.2669999897480011,4.025000095367432 0.5849999785423279,3.984999895095825z"></path>
            </g>
            <g opacity="1" transform="matrix(1,0,0,1,112.2040023803711,70.33799743652344)">
                <path fill="rgb(227,233,247)" fill-opacity="1" d=" M46.15800094604492,-30.753000259399414 C46.15800094604492,-30.753000259399414 33.4010009765625,-23.38800048828125 33.4010009765625,-23.38800048828125 C32.922000885009766,-23.11199951171875 32.310001373291016,-23.277000427246094 32.03499984741211,-23.7549991607666 C32.03499984741211,-23.7549991607666 28.427000045776367,-21.67099952697754 28.427000045776367,-21.67099952697754 C28.702999114990234,-21.19300079345703 28.540000915527344,-20.582000732421875 28.06100082397461,-20.305999755859375 C28.06100082397461,-20.305999755859375 26.020000457763672,-19.12700080871582 26.020000457763672,-19.12700080871582 C25.863000869750977,-19.035999298095703 25.690000534057617,-18.993000030517578 25.520999908447266,-18.993000030517578 C25.176000595092773,-18.993000030517578 24.84000015258789,-19.172000885009766 24.65399932861328,-19.493000030517578 C24.65399932861328,-19.493000030517578 22.815000534057617,-18.430999755859375 22.815000534057617,-18.430999755859375 C23.091999053955078,-17.952999114990234 22.92799949645996,-17.340999603271484 22.448999404907227,-17.065000534057617 C22.448999404907227,-17.065000534057617 -47.74700164794922,23.46299934387207 -47.74700164794922,23.46299934387207 C-48.654998779296875,24.21500015258789 -49.20000076293945,25.336000442504883 -49.20000076293945,26.538000106811523 C-49.20000076293945,26.538000106811523 -49.20000076293945,30.26799964904785 -49.20000076293945,30.26799964904785 C-49.20000076293945,31.038000106811523 -48.36600112915039,31.51799964904785 -47.70000076293945,31.134000778198242 C-47.70000076293945,31.134000778198242 48.11800003051758,-24.18600082397461 48.11800003051758,-24.18600082397461 C48.893001556396484,-24.634000778198242 49.185001373291016,-25.110000610351562 49.19900131225586,-25.4060001373291 C49.19900131225586,-25.4060001373291 49.15800094604492,-29.04400062561035 49.15800094604492,-29.04400062561035 C49.13999938964844,-30.572999954223633 47.483001708984375,-31.517000198364258 46.15800094604492,-30.753000259399414z"></path>
            </g>
            <g opacity="1" transform="matrix(1,0,0,1,81.85700225830078,48.108001708984375)">
                <path fill="rgb(227,233,247)" fill-opacity="1" d=" M55.36800003051758,1.3700000047683716 C55.36800003051758,1.3700000047683716 57.409000396728516,0.19099999964237213 57.409000396728516,0.19099999964237213 C57.887001037597656,-0.08799999952316284 58.499000549316406,0.07900000363588333 58.77399826049805,0.5569999814033508 C58.77399826049805,0.5569999814033508 58.77399826049805,0.5590000152587891 58.77399826049805,0.5590000152587891 C58.77399826049805,0.5590000152587891 62.382999420166016,-1.524999976158142 62.382999420166016,-1.524999976158142 C62.314998626708984,-1.659999966621399 62.277000427246094,-1.7829999923706055 62.25699996948242,-1.8980000019073486 C62.25699996948242,-1.8980000019073486 62.25699996948242,-1.9129999876022339 62.25699996948242,-1.9129999876022339 C62.23500061035156,-2.0510001182556152 62.249000549316406,-2.171999931335449 62.28200149536133,-2.2839999198913574 C62.28200149536133,-2.2839999198913574 62.28300094604492,-2.2850000858306885 62.28300094604492,-2.2850000858306885 C62.310001373291016,-2.378999948501587 62.35200119018555,-2.4639999866485596 62.409000396728516,-2.5420000553131104 C62.49300003051758,-2.680000066757202 62.5989990234375,-2.803999900817871 62.749000549316406,-2.8910000324249268 C62.749000549316406,-2.8910000324249268 62.893001556396484,-2.9749999046325684 62.893001556396484,-2.9749999046325684 C63.06100082397461,-3.0820000171661377 63.236000061035156,-3.1730000972747803 63.382999420166016,-3.257999897003174 C63.382999420166016,-3.257999897003174 78.46600341796875,-11.96500015258789 78.46600341796875,-11.96500015258789 C79.25700378417969,-12.420999526977539 79.54100036621094,-12.901000022888184 79.5459976196289,-13.20199966430664 C79.5459976196289,-13.20199966430664 79.5459976196289,-13.217000007629395 79.5459976196289,-13.217000007629395 C79.54000091552734,-13.5600004196167 79.15799713134766,-13.833000183105469 78.93000030517578,-13.96500015258789 C78.93000030517578,-13.96500015258789 25.187999725341797,-44.99300003051758 25.187999725341797,-44.99300003051758 C23.833999633789062,-45.77399826049805 21.332000732421875,-45.652000427246094 19.724000930786133,-44.724998474121094 C19.724000930786133,-44.724998474121094 -78.46299743652344,11.96399974822998 -78.46299743652344,11.96399974822998 C-79.26100158691406,12.425000190734863 -79.5459976196289,12.907999992370605 -79.5459976196289,13.208000183105469 C-79.5459976196289,13.553999900817871 -79.15799713134766,13.829999923706055 -78.927001953125,13.96399974822998 C-78.927001953125,13.96399974822998 -25.18600082397461,44.9900016784668 -25.18600082397461,44.9900016784668 C-23.829999923706055,45.77299880981445 -21.327999114990234,45.650001525878906 -19.722000122070312,44.722999572753906 C-19.722000122070312,44.722999572753906 51.797000885009766,3.431999921798706 51.797000885009766,3.431999921798706 C52.27299880981445,3.1559998989105225 52.887001037597656,3.319999933242798 53.16299819946289,3.7980000972747803 C53.16299819946289,3.7980000972747803 55.00199890136719,2.7360000610351562 55.00199890136719,2.7360000610351562 C54.724998474121094,2.257999897003174 54.888999938964844,1.6460000276565552 55.36800003051758,1.3700000047683716z"></path>
            </g>
            <g opacity="1" transform="matrix(1,0,0,1,81.05000305175781,48.48500061035156)">
                <path fill="rgb(31,33,36)" fill-opacity="1" d=" M64.05699920654297,-11.71399974822998 C64.05699920654297,-11.71399974822998 19.44300079345703,-37.47100067138672 19.44300079345703,-37.47100067138672 C18.209999084472656,-38.183998107910156 16.677000045776367,-38.18299865722656 15.442999839782715,-37.47100067138672 C15.442999839782715,-37.47100067138672 -64.05500030517578,8.428000450134277 -64.05500030517578,8.428000450134277 C-64.68199920654297,8.788999557495117 -65.05699920654297,9.435999870300293 -65.05699920654297,10.15999984741211 C-65.05699920654297,10.883000373840332 -64.68299865722656,11.529999732971191 -64.05699920654297,11.890999794006348 C-64.05699920654297,11.890999794006348 -19.44300079345703,37.64899826049805 -19.44300079345703,37.64899826049805 C-18.826000213623047,38.005001068115234 -18.134000778198242,38.183998107910156 -17.44300079345703,38.183998107910156 C-16.75200080871582,38.183998107910156 -16.059999465942383,38.005001068115234 -15.442999839782715,37.64899826049805 C-15.442999839782715,37.64899826049805 64.05699920654297,-8.24899959564209 64.05699920654297,-8.24899959564209 C64.68299865722656,-8.609999656677246 65.05699920654297,-9.258999824523926 65.05699920654297,-9.982000350952148 C65.05699920654297,-10.704999923706055 64.68299865722656,-11.35200023651123 64.05699920654297,-11.71399974822998z"></path>
            </g>
            <g opacity="1" transform="matrix(1,0,0,1,81.05000305175781,48.61899948120117)">
                <path fill="rgb(118,134,177)" fill-opacity="1" d=" M60.05699920654297,-11.847000122070312 C60.05699920654297,-11.847000122070312 18.44300079345703,-35.87200164794922 18.44300079345703,-35.87200164794922 C18.44300079345703,-35.87200164794922 18.44300079345703,-35.87300109863281 18.44300079345703,-35.87300109863281 C18.134000778198242,-36.05099868774414 17.788000106811523,-36.13999938964844 17.44300079345703,-36.13999938964844 C17.097000122070312,-36.13999938964844 16.750999450683594,-36.05099868774414 16.44300079345703,-35.87300109863281 C16.44300079345703,-35.87300109863281 -60.05699920654297,8.293999671936035 -60.05699920654297,8.293999671936035 C-61.38999938964844,9.064000129699707 -61.38999938964844,10.98799991607666 -60.05699920654297,11.758000373840332 C-60.05699920654297,11.758000373840332 -18.44300079345703,35.784000396728516 -18.44300079345703,35.784000396728516 C-17.82699966430664,36.13999938964844 -17.05900001525879,36.13999938964844 -16.44300079345703,35.784000396728516 C-16.44300079345703,35.784000396728516 60.05699920654297,-8.383000373840332 60.05699920654297,-8.383000373840332 C61.38999938964844,-9.152999877929688 61.38999938964844,-11.07699966430664 60.05699920654297,-11.847000122070312z"></path>
            </g>
            <g opacity="1" transform="matrix(1,0,0,1,138.7449951171875,49.68299865722656)">
                <path fill="rgb(31,33,36)" fill-opacity="1" d=" M1.8869999647140503,-1.0169999599456787 C1.6119999885559082,-1.4950000047683716 0.9980000257492065,-1.6619999408721924 0.5210000276565552,-1.3830000162124634 C0.5210000276565552,-1.3830000162124634 -1.5199999809265137,-0.20399999618530273 -1.5199999809265137,-0.20399999618530273 C-1.9989999532699585,0.07199999690055847 -2.1619999408721924,0.6840000152587891 -1.8849999904632568,1.1619999408721924 C-1.7000000476837158,1.4830000400543213 -1.3650000095367432,1.6619999408721924 -1.0190000534057617,1.6619999408721924 C-0.8500000238418579,1.6619999408721924 -0.6769999861717224,1.61899995803833 -0.5199999809265137,1.5269999504089355 C-0.5199999809265137,1.5269999504089355 1.5210000276565552,0.3490000069141388 1.5210000276565552,0.3490000069141388 C1.9989999532699585,0.0729999989271164 2.1630001068115234,-0.5379999876022339 1.8869999647140503,-1.0169999599456787z"></path>
            </g>
            <g opacity="1" transform="matrix(1,0,0,1,127.9020004272461,20.8799991607666)">
                <path fill="rgb(31,33,36)" fill-opacity="1" d=" M-5.695000171661377,-2.062000036239624 C-5.695000171661377,-2.062000036239624 4.697999954223633,3.937999963760376 4.697999954223633,3.937999963760376 C4.855000019073486,4.0289998054504395 5.0269999504089355,4.072000026702881 5.197000026702881,4.072000026702881 C5.541999816894531,4.072000026702881 5.877999782562256,3.8929998874664307 6.064000129699707,3.572000026702881 C6.339000225067139,3.0929999351501465 6.176000118255615,2.4820001125335693 5.697999954223633,2.2060000896453857 C5.697999954223633,2.2060000896453857 -4.695000171661377,-3.7939999103546143 -4.695000171661377,-3.7939999103546143 C-5.175000190734863,-4.071000099182129 -5.785999774932861,-3.9070000648498535 -6.060999870300293,-3.427999973297119 C-6.3379998207092285,-2.950000047683716 -6.173999786376953,-2.3380000591278076 -5.695000171661377,-2.062000036239624z"></path>
            </g>
            <g opacity="1" transform="matrix(1,0,0,1,119.23300170898438,15.87600040435791)">
                <path fill="rgb(31,33,36)" fill-opacity="1" d=" M-0.5090000033378601,0.9300000071525574 C-0.5090000033378601,0.9300000071525574 -0.5,0.9350000023841858 -0.5,0.9350000023841858 C-0.34200000762939453,1.027999997138977 -0.16899999976158142,1.0729999542236328 0.003000000026077032,1.0729999542236328 C0.3449999988079071,1.0729999542236328 0.6779999732971191,0.8949999809265137 0.8640000224113464,0.5770000219345093 C1.1440000534057617,0.10100000351667404 0.9810000061988831,-0.5139999985694885 0.5049999952316284,-0.7940000295639038 C0.028999999165534973,-1.0729999542236328 -0.5839999914169312,-0.9150000214576721 -0.8629999756813049,-0.4390000104904175 C-1.1440000534057617,0.03700000047683716 -0.9850000143051147,0.6499999761581421 -0.5090000033378601,0.9300000071525574z"></path>
            </g>
        </g>
        <g style="display: none;">
            <g>
                <path></path>
            </g>
        </g>
        <g clip-path="url(#__lottie_element_615)" filter="url(#__lottie_element_617)" style="display: none;">
            <g clip-path="url(#__lottie_element_640)" style="display: none;">
                <g style="display: none;">
                    <g>
                        <path stroke-linecap="round" stroke-linejoin="round" fill-opacity="0"></path>
                    </g>
                </g>
            </g>
            <g clip-path="url(#__lottie_element_633)" style="display: none;">
                <g style="display: none;">
                    <g>
                        <path stroke-linecap="round" stroke-linejoin="round" fill-opacity="0"></path>
                    </g>
                </g>
            </g>
            <g clip-path="url(#__lottie_element_626)" style="display: none;">
                <g style="display: none;">
                    <g>
                        <path stroke-linecap="round" stroke-linejoin="round" fill-opacity="0"></path>
                    </g>
                </g>
            </g>
            <g clip-path="url(#__lottie_element_619)" style="display: none;">
                <g style="display: none;">
                    <g>
                        <path stroke-linecap="round" stroke-linejoin="round" fill-opacity="0"></path>
                    </g>
                </g>
            </g>
        </g>
        <g clip-path="url(#__lottie_element_583)" filter="url(#__lottie_element_585)" style="display: none;">
            <g clip-path="url(#__lottie_element_608)" style="display: none;">
                <g style="display: none;">
                    <g>
                        <path stroke-linecap="round" stroke-linejoin="round" fill-opacity="0"></path>
                    </g>
                </g>
            </g>
            <g clip-path="url(#__lottie_element_601)" style="display: none;">
                <g style="display: none;">
                    <g>
                        <path stroke-linecap="round" stroke-linejoin="round" fill-opacity="0"></path>
                    </g>
                </g>
            </g>
            <g clip-path="url(#__lottie_element_594)" style="display: none;">
                <g style="display: none;">
                    <g>
                        <path stroke-linecap="round" stroke-linejoin="round" fill-opacity="0"></path>
                    </g>
                </g>
            </g>
            <g clip-path="url(#__lottie_element_587)" style="display: none;">
                <g style="display: none;">
                    <g>
                        <path stroke-linecap="round" stroke-linejoin="round" fill-opacity="0"></path>
                    </g>
                </g>
            </g>
        </g>
        <g style="display: none;">
            <g>
                <path></path>
            </g>
        </g>
        <g style="display: none;">
            <g>
                <path></path>
            </g>
        </g>
        <g style="display: none;">
            <g>
                <path></path>
            </g>
        </g>
        <g style="display: none;">
            <g>
                <path></path>
            </g>
        </g>
        <g style="display: none;">
            <g>
                <path></path>
            </g>
        </g>
        <g style="display: none;">
            <g>
                <path></path>
            </g>
        </g>
    </g>
</svg>