<svg width="815" height="435" viewBox="0 0 815 435" fill="none" xmlns="http://www.w3.org/2000/svg">
<g clip-path="url(#clip0_4773_50296)">
<mask id="mask0_4773_50296" style="mask-type:luminance" maskUnits="userSpaceOnUse" x="-1" y="0" width="815" height="435">
<path d="M-1 0H814V435H-1V0Z" fill="white"/>
</mask>
<g mask="url(#mask0_4773_50296)">
<path d="M770.191 433.653H43.2128C20.2518 433.653 1.46484 414.867 1.46484 391.906V43.457C1.46484 20.496 20.2518 1.70898 43.2128 1.70898H770.191C793.152 1.70898 811.939 20.496 811.939 43.457V391.906C811.939 414.867 793.152 433.653 770.191 433.653Z" fill="url(#paint0_linear_4773_50296)"/>
<path d="M108.529 41.6128C108.902 44.8448 111.551 63.5848 122.629 65.2668C111.545 66.9358 108.902 85.7068 108.529 88.9198C108.149 85.7068 105.506 66.9358 94.4219 65.2668C105.5 63.5848 108.149 44.8448 108.529 41.6128Z" fill="#FEE75C"/>
<path d="M787.384 253.812C787.757 257.044 790.406 275.784 801.484 277.466C790.4 279.135 787.757 297.906 787.384 301.119C787.004 297.906 784.361 279.135 773.277 277.466C784.355 275.784 787.004 257.044 787.384 253.812Z" fill="#FEE75C"/>
<path d="M204.755 265.257C205.128 268.489 207.778 287.229 218.856 288.911C207.772 290.58 205.128 309.351 204.755 312.564C204.375 309.351 201.732 290.58 190.648 288.911C201.726 287.229 204.375 268.489 204.755 265.257Z" fill="#FEE75C"/>
<path d="M83.8164 335.368C84.0854 337.698 85.9954 351.205 93.9794 352.417C85.9904 353.62 84.0854 367.149 83.8164 369.465C83.5424 367.149 81.6374 353.62 73.6484 352.417C81.6324 351.205 83.5424 337.698 83.8164 335.368Z" fill="#FEE75C"/>
<g opacity="0.37">
<path d="M773.919 433.471C586.393 433.471 279.488 434.039 279.488 434.039C279.488 434.039 310.277 394.269 361.593 382.723C412.909 371.177 394.949 401.966 394.949 401.966C394.949 401.966 506.561 307.032 569.423 305.749C632.285 304.466 645.114 357.065 645.114 357.065C645.114 357.065 716.956 305.749 778.535 328.841C793.736 334.541 804.687 342.032 811.896 349.858L811.819 395.605C811.819 395.605 811.653 399.885 809.585 405.54C805.76 415.998 795.803 431.509 773.919 433.471Z" fill="#062000"/>
</g>
<path d="M199.139 43.7261C199.273 44.8911 200.229 51.6441 204.221 52.2501C200.226 52.8511 199.273 59.6161 199.139 60.7741C199.002 59.6161 198.05 52.8511 194.055 52.2501C198.047 51.6441 199.002 44.8911 199.139 43.7261Z" fill="white"/>
<path d="M774.752 36.2061C774.886 37.3711 775.842 44.1241 779.834 44.7301C775.839 45.3311 774.886 52.0971 774.752 53.2551C774.615 52.0971 773.663 45.3311 769.668 44.7301C773.66 44.1241 774.615 37.3711 774.752 36.2061Z" fill="white"/>
<path d="M168.514 369.124C168.648 370.289 169.603 377.042 173.595 377.648C169.6 378.249 168.648 385.014 168.514 386.172C168.377 385.014 167.425 378.249 163.43 377.648C167.422 377.042 168.377 370.289 168.514 369.124Z" fill="white"/>
<path d="M190.928 139.091C183.388 145.618 175.72 152 167.934 158.236C169.246 158.468 170.56 158.687 171.872 158.916C173.699 157.441 175.525 155.965 177.338 154.474C217.53 121.414 254.351 84.46 289.159 45.827C302.223 31.327 315.032 16.596 327.66 1.70898H323.73C315.784 11.037 307.777 20.311 299.683 29.505C265.662 68.15 229.882 105.37 190.928 139.091Z" fill="black"/>
<path d="M168.759 161.414C167.446 161.183 166.136 160.943 164.824 160.71C135.126 184.241 103.646 205.517 70.2808 223.525C48.1168 235.487 25.1198 245.975 1.46484 254.63V257.802C19.7548 251.164 37.6628 243.445 55.0898 234.777C95.5618 214.646 133.458 189.602 168.759 161.414Z" fill="black"/>
<path d="M660.208 185.262C578.112 190.557 495.703 190.967 413.559 186.483C332.545 182.061 251.795 172.869 171.869 158.916C170.834 159.751 169.797 160.584 168.758 161.414C239.572 173.863 311.044 182.585 382.77 187.572C465.218 193.305 548.008 194.102 630.551 189.963C691.225 186.92 751.766 181.199 811.938 172.825V169.815C761.575 176.835 710.953 181.989 660.208 185.262Z" fill="black"/>
<path d="M164.824 160.71C165.862 159.888 166.898 159.064 167.932 158.236C167.895 158.229 167.857 158.224 167.82 158.217C111.889 148.336 56.3688 136.12 1.46484 121.578V124.663C46.5358 136.586 92.0178 146.951 137.813 155.73C146.805 157.454 155.81 159.107 164.824 160.71Z" fill="black"/>
<path d="M164.824 160.71C166.136 160.943 167.446 161.183 168.759 161.414C169.798 160.584 170.835 159.751 171.87 158.916C170.558 158.687 169.244 158.468 167.932 158.236C166.898 159.064 165.862 159.888 164.824 160.71Z" fill="black"/>
<path d="M18.6719 260.362L18.7969 254.003C18.7969 254.003 21.8708 249.888 27.4559 251.634L31.2208 258.367L19.1738 260.985" fill="black"/>
<path d="M42.1393 270.587C42.1393 278.369 35.7903 284.676 27.9583 284.676C20.1263 284.676 13.7773 278.369 13.7773 270.587C13.7773 262.805 20.1263 256.497 27.9583 256.497C35.7903 256.497 42.1393 262.805 42.1393 270.587Z" fill="#EFEB70"/>
<path d="M38.6136 265.509C38.6136 266.867 37.6216 267.968 36.3986 267.968C35.1755 267.968 34.1836 266.867 34.1836 265.509C34.1836 264.151 35.1755 263.049 36.3986 263.049C37.6216 263.049 38.6136 264.151 38.6136 265.509Z" fill="white"/>
<path d="M86.793 227.292L86.918 220.933C86.918 220.933 89.993 216.818 95.578 218.564L99.342 225.297L87.295 227.916" fill="black"/>
<path d="M110.259 237.517C110.259 245.299 103.911 251.607 96.0794 251.607C88.2474 251.607 81.8984 245.299 81.8984 237.517C81.8984 229.735 88.2474 223.427 96.0794 223.427C103.911 223.427 110.259 229.735 110.259 237.517Z" fill="#EFEB70"/>
<path d="M105.067 229.429C105.067 230.787 104.075 231.889 102.852 231.889C101.629 231.889 100.637 230.787 100.637 229.429C100.637 228.071 101.629 226.969 102.852 226.969C104.075 226.969 105.067 228.071 105.067 229.429Z" fill="white"/>
<path d="M145.575 195.01L142.242 189.58C142.242 189.58 142.609 184.468 148.263 182.959L155.08 186.628L146.335 195.268" fill="black"/>
<path d="M170.896 191.105C175.104 197.668 173.16 206.378 166.555 210.559C159.95 214.74 151.184 212.809 146.976 206.246C142.768 199.683 144.712 190.974 151.317 186.793C157.922 182.612 166.688 184.542 170.896 191.105Z" fill="#EFEB70"/>
<path d="M166.321 190.553C166.321 191.911 165.329 193.013 164.106 193.013C162.883 193.013 161.891 191.911 161.891 190.553C161.891 189.195 162.883 188.094 164.106 188.094C165.329 188.094 166.321 189.195 166.321 190.553Z" fill="white"/>
<path d="M218.577 128.202L217.961 121.871C217.961 121.871 220.536 117.431 226.286 118.522L230.81 124.777L219.148 128.764" fill="black"/>
<path d="M243.077 135.658C243.984 143.387 238.412 150.384 230.633 151.285C222.854 152.186 215.812 146.65 214.905 138.921C213.998 131.192 219.57 124.195 227.349 123.294C235.128 122.393 242.17 127.929 243.077 135.658Z" fill="#EFEB70"/>
<path d="M238.461 130.343C238.461 131.701 237.469 132.803 236.246 132.803C235.023 132.803 234.031 131.701 234.031 130.343C234.031 128.985 235.023 127.883 236.246 127.883C237.469 127.883 238.461 128.985 238.461 130.343Z" fill="white"/>
<path d="M318.579 28.906L315.246 23.476C315.246 23.476 315.614 18.364 321.268 16.855L328.085 20.524L319.34 29.164" fill="black"/>
<path d="M343.901 25.0008C348.109 31.5638 346.165 40.2738 339.56 44.4548C332.955 48.6358 324.189 46.7048 319.981 40.1418C315.773 33.5788 317.716 24.8688 324.321 20.6878C330.926 16.5068 339.693 18.4378 343.901 25.0008Z" fill="#EFEB70"/>
<path d="M339.789 25.397C339.789 26.755 338.797 27.857 337.574 27.857C336.351 27.857 335.359 26.755 335.359 25.397C335.359 24.039 336.351 22.938 337.574 22.938C338.797 22.938 339.789 24.039 339.789 25.397Z" fill="white"/>
<path d="M271.099 80.3239L267.766 74.8939C267.766 74.8939 268.134 69.7819 273.788 68.2729L280.605 71.9419L271.86 80.5819" fill="black"/>
<path d="M296.42 76.4187C300.628 82.9818 298.684 91.6917 292.079 95.8727C285.474 100.054 276.708 98.1227 272.5 91.5597C268.292 84.9967 270.235 76.2868 276.84 72.1058C283.445 67.9248 292.212 69.8558 296.42 76.4187Z" fill="#EFEB70"/>
<path d="M289.09 74.2828C289.09 75.6408 288.098 76.7418 286.875 76.7418C285.652 76.7418 284.66 75.6408 284.66 74.2828C284.66 72.9248 285.652 71.8228 286.875 71.8228C288.098 71.8228 289.09 72.9248 289.09 74.2828Z" fill="white"/>
<path d="M34.0419 142.955L37.9649 138.753C37.9649 138.753 42.5159 137.817 45.2189 142.319L43.6869 149.091L34.0039 143.674" fill="black"/>
<path d="M43.6568 163.816C38.9598 169.05 30.8827 169.51 25.6148 164.843C20.3468 160.176 19.8838 152.15 24.5807 146.916C29.2778 141.682 37.3548 141.222 42.6228 145.889C47.8908 150.556 48.3538 158.582 43.6568 163.816Z" fill="#EFEB70"/>
<path d="M43.9339 150.819C43.9339 152.177 42.9419 153.278 41.7189 153.278C40.4959 153.278 39.5039 152.177 39.5039 150.819C39.5039 149.461 40.4959 148.359 41.7189 148.359C42.9419 148.359 43.9339 149.461 43.9339 150.819Z" fill="white"/>
<path d="M93.0234 159.162L94.3495 153.584C94.3495 153.584 97.8445 150.54 102.43 153.131L104.459 159.773L93.3464 159.806" fill="black"/>
<path d="M111.742 172.597C110.255 179.452 103.456 183.811 96.5573 182.333C89.6583 180.855 85.2713 174.101 86.7583 167.246C88.2453 160.391 95.0443 156.031 101.943 157.509C108.842 158.987 113.229 165.742 111.742 172.597Z" fill="#EFEB70"/>
<path d="M109.887 166.678C109.887 168.036 108.895 169.137 107.672 169.137C106.449 169.137 105.457 168.036 105.457 166.678C105.457 165.32 106.449 164.218 107.672 164.218C108.895 164.218 109.887 165.32 109.887 166.678Z" fill="white"/>
<path d="M221.84 180.035L223.166 174.457C223.166 174.457 226.661 171.413 231.247 174.004L233.277 180.646L222.163 180.679" fill="black"/>
<path d="M240.559 193.47C239.072 200.325 232.273 204.684 225.374 203.206C218.475 201.728 214.088 194.973 215.575 188.118C217.062 181.263 223.861 176.904 230.76 178.382C237.659 179.86 242.046 186.615 240.559 193.47Z" fill="#EFEB70"/>
<path d="M235.618 186.178C235.618 187.536 234.626 188.638 233.403 188.638C232.18 188.638 231.188 187.536 231.188 186.178C231.188 184.82 232.18 183.719 233.403 183.719C234.626 183.719 235.618 184.82 235.618 186.178Z" fill="white"/>
<path d="M283.347 186.603L287.409 182.532C287.409 182.532 291.989 181.747 294.539 186.336L292.781 193.054L283.285 187.319" fill="black"/>
<path d="M292.255 207.769C287.385 212.845 279.297 213.037 274.188 208.199C269.079 203.361 268.886 195.324 273.756 190.248C278.626 185.172 286.714 184.98 291.823 189.818C296.932 194.656 297.125 202.693 292.255 207.769Z" fill="#EFEB70"/>
<path d="M293.625 196.528C293.625 197.886 292.633 198.988 291.41 198.988C290.187 198.988 289.195 197.886 289.195 196.528C289.195 195.17 290.187 194.069 291.41 194.069C292.633 194.069 293.625 195.17 293.625 196.528Z" fill="white"/>
<path d="M785.441 183.962L787.851 178.755C787.851 178.755 791.883 176.458 795.862 179.899L796.53 186.808L785.629 184.657" fill="black"/>
<path d="M801.116 200.81C798.293 207.237 790.762 210.174 784.293 207.37C777.824 204.566 774.868 197.082 777.691 190.655C780.514 184.228 788.045 181.291 794.514 184.095C800.983 186.899 803.939 194.383 801.116 200.81Z" fill="#EFEB70"/>
<path d="M800.336 193.141C800.336 194.499 799.344 195.601 798.121 195.601C796.898 195.601 795.906 194.499 795.906 193.141C795.906 191.783 796.898 190.681 798.121 190.681C799.344 190.681 800.336 191.783 800.336 193.141Z" fill="white"/>
</g>
<path d="M527.448 38.1692L540.046 40.4111C541.724 40.7098 542.856 42.3476 542.561 44.0512L542.464 44.6121C542.169 46.3158 540.554 47.4656 538.876 47.167L526.278 44.9252C524.599 44.6265 523.468 42.9878 523.762 41.2849L523.86 40.7234C524.155 39.0205 525.769 37.8705 527.448 38.1692Z" fill="#437300"/>
<path d="M514.766 56.9133C514.766 56.9133 472.202 41.7461 461.863 57.3924C451.523 73.0394 467.563 81.3332 467.563 81.3332C391.28 98.2336 402.608 150.321 402.608 150.321C368.901 159.149 371.319 190.245 371.319 190.245C369.546 190.014 362.395 192.693 359.856 202.467C357.316 212.239 361.123 220.319 361.123 220.319C361.123 220.319 707.705 231.779 718.222 228.556C728.737 225.333 737.93 218.883 736.177 206.23C734.424 193.578 724.663 187.397 721.548 184.939C718.433 182.48 717.904 178.864 717.904 178.864C714.48 103.674 658.621 115.121 658.621 115.121C646.417 68.0262 591.155 67.8636 591.155 67.8636C591.155 67.8636 608.89 46.9354 582.114 31.8439C578.048 29.5527 573.669 28.5355 569.158 28.4567C543.957 28.0185 514.766 56.9133 514.766 56.9133Z" fill="url(#paint1_linear_4773_50296)"/>
<path d="M670.396 150.747C670.396 150.747 672.577 159.442 674.922 169.663C677.167 179.453 679.456 189.494 679.92 191.019C680.384 192.543 681.899 193.599 686.863 192.79C691.826 191.979 699.169 187.632 698.196 179.386C697.224 171.14 693.302 152.526 690.557 148.424C687.812 144.321 683.583 142.831 677.863 143.189C672.143 143.547 668.69 144.801 670.396 150.747Z" fill="#EFD9AD"/>
<path d="M407.497 184.254C407.497 184.254 408.198 193.198 409.23 203.641C410.218 213.644 411.246 223.897 411.292 225.492C411.337 227.088 410.239 228.585 405.285 229.45C400.331 230.315 392.001 228.616 390.298 220.493C388.596 212.37 386.386 193.466 387.679 188.682C388.972 183.897 392.5 181.097 398.026 179.556C403.553 178.015 407.221 178.066 407.497 184.254Z" fill="#EFD9AD"/>
<path d="M529.829 81.5556L527.596 94.3419C527.298 96.045 525.682 97.1925 524.004 96.8913L523.453 96.7924C521.775 96.4912 520.645 94.8518 520.943 93.1487L523.175 80.3626C523.472 78.6587 525.089 77.512 526.766 77.8124L527.319 77.9119C528.997 78.2131 530.126 79.8525 529.829 81.5556Z" fill="#FFFEFA"/>
<path d="M586.355 90.3194L574.027 93.7913C572.385 94.2535 570.67 93.2686 570.215 91.6018L570.065 91.0528C569.61 89.3861 570.582 87.6446 572.224 87.1826L584.552 83.7107C586.194 83.2477 587.909 84.2334 588.364 85.8993L588.514 86.4482C588.968 88.115 587.997 89.8572 586.355 90.3194Z" fill="#FF000C"/>
<path d="M469.583 99.2218L456.981 101.456C455.303 101.754 453.69 100.603 453.397 98.8997L453.301 98.3385C453.009 96.6346 454.143 94.9973 455.822 94.6992L468.424 92.4653C470.102 92.168 471.715 93.3181 472.008 95.0222L472.104 95.5833C472.396 97.2864 471.262 98.9245 469.583 99.2218Z" fill="#437300"/>
<path d="M645.376 89.8551L634.955 97.3927C633.567 98.397 631.624 98.0659 630.635 96.6575L630.309 96.1935C629.32 94.7859 629.649 92.8114 631.036 91.8071L641.455 84.2699C642.843 83.2658 644.789 83.5972 645.776 85.0055L646.102 85.4692C647.09 86.8777 646.764 88.8509 645.376 89.8551Z" fill="#437300"/>
<path d="M443.006 173.761C443.006 173.761 446.364 170.723 450.908 167.732C455.453 164.739 458.831 164.197 461.058 163.906C463.286 163.615 464.964 162.097 463.395 159.803C461.825 157.511 450.876 153.446 443.148 156.954C435.419 160.463 433.35 169.027 433.896 173.353C434.443 177.678 437.788 178.44 439.298 177.144C440.808 175.847 443.006 173.761 443.006 173.761Z" fill="#DEA85F"/>
<path d="M640.802 146.809C640.802 146.809 638.135 145.588 633.523 144.56C628.91 143.533 625.152 143.891 623.229 144.325C621.306 144.76 619.507 143.441 620.144 141.141C620.782 138.841 626.466 133.654 635.766 133.865C643.169 134.034 647.323 140.567 648.114 144.182C648.905 147.797 646.362 149.407 644.742 148.824C643.123 148.241 640.802 146.809 640.802 146.809Z" fill="#DEA85F"/>
<path d="M496.692 135.595C477.844 145.859 473.348 163.626 474.078 183.399C474.807 203.172 481.776 224.561 481.776 224.561L625.301 231.535C625.301 231.535 624.681 190.459 623.175 171.168C621.669 151.876 616.911 129.691 590.332 124.769C585.5 123.874 579.959 123.323 574.005 123.083C547.2 121.999 512.114 127.198 496.692 135.595Z" fill="url(#paint2_linear_4773_50296)"/>
<path d="M539.772 70.0521C540.631 69.7243 551.961 67.7837 563.685 60.0256C575.409 52.2676 580.33 46.5109 583.788 48.9679C587.245 51.4258 572.209 65.3198 561.179 68.3385C550.15 71.358 539.772 70.0521 539.772 70.0521Z" fill="#D69847"/>
<path d="M462.727 85.0517C462.727 85.0517 461.671 96.5327 473.375 99.5577C485.078 102.583 504.457 94.4588 508.805 78.0455C513.153 61.6314 475.136 59.8825 475.136 59.8825L469.603 83.0019L462.727 85.0517Z" fill="#F0AA4B"/>
<path d="M590.032 186.855L567.79 189.52C564.188 189.952 560.896 187.314 560.473 183.658C560.049 180.003 562.649 176.659 566.251 176.227L588.493 173.562C592.094 173.13 595.387 175.769 595.81 179.424C596.233 183.079 593.633 186.424 590.032 186.855Z" fill="#F5DDAB"/>
<path d="M532.807 202.966L510.415 203.337C506.789 203.397 503.775 200.436 503.717 196.756C503.66 193.075 506.58 190.014 510.206 189.954L532.597 189.582C536.224 189.522 539.237 192.484 539.295 196.165C539.352 199.845 536.433 202.905 532.807 202.966Z" fill="#F5DDAB"/>
<path d="M495.479 126.37L484.456 119.785C482.988 118.909 482.496 116.972 483.36 115.482L483.644 114.99C484.509 113.499 486.418 112.997 487.885 113.874L498.907 120.458C500.376 121.336 500.87 123.272 500.005 124.763L499.72 125.254C498.855 126.745 496.947 127.247 495.479 126.37Z" fill="#FF000C"/>
<path d="M491.281 49.056L502.888 54.5098C504.433 55.2357 505.111 57.1142 504.395 58.6844L504.159 59.2008C503.443 60.7711 501.592 61.4604 500.045 60.7348L488.439 55.2808C486.893 54.5541 486.214 52.6758 486.931 51.1063L487.167 50.5899C487.883 49.0207 489.735 48.3294 491.281 49.056Z" fill="#FF000C"/>
<path d="M573.758 227.407C573.758 227.407 586.919 215.662 610.207 210.195C633.495 204.727 657.593 214.245 657.593 214.245C657.593 214.245 682.905 193.589 703.155 225.787L573.758 227.407Z" fill="#F5D9A3"/>
<path d="M396.23 225.899C396.467 225.19 406.644 212.408 429.365 207.675C452.086 202.941 478.358 213.119 484.038 228.976L396.23 225.899Z" fill="#F5D9A3"/>
<path d="M449.765 414.171C450.326 414.452 518.167 414.28 544.309 414.203C570.452 414.28 638.292 414.452 638.854 414.171C674.696 396.25 688.492 363.396 694.236 333.566H394.383C400.126 363.396 413.922 396.25 449.765 414.171Z" fill="white"/>
<path d="M731.348 223.968C729.958 218.057 723.35 219.101 723.35 219.101H551.299H537.32H365.27C365.27 219.101 358.662 218.057 357.271 223.968C355.88 229.879 360.402 230.924 365.27 235.792C370.138 240.66 388.219 258.393 389.957 291.426C390.558 302.854 391.345 317.787 394.383 333.566H694.236C697.274 317.787 698.061 302.854 698.662 291.426C700.401 258.393 718.482 240.66 723.35 235.792C728.218 230.924 732.739 229.879 731.348 223.968Z" fill="#E8449B"/>
<path d="M487.929 229.886L487.897 229.886L487.881 229.883L487.878 229.882H487.88H487.848M642.483 226.502H668.984H685.105" stroke="white" stroke-width="8" stroke-linecap="round"/>
<path d="M448.898 215.485C448.898 215.485 461.205 216.669 468.305 229.213C475.405 241.757 486.056 247.437 498.363 245.07C510.67 242.704 518.717 232.763 511.144 220.455C503.57 208.148 467.359 206.728 448.898 215.485Z" fill="#F5D9A3"/>
<path d="M430.04 354.471C430.04 358.296 426.939 361.397 423.114 361.397C419.289 361.397 416.188 358.296 416.188 354.471C416.188 350.646 419.289 347.545 423.114 347.545C426.939 347.545 430.04 350.646 430.04 354.471Z" fill="#E9459C"/>
<path d="M486.317 372.653C486.317 376.478 483.216 379.578 479.391 379.578C475.566 379.578 472.465 376.478 472.465 372.653C472.465 368.828 475.566 365.726 479.391 365.726C483.216 365.726 486.317 368.828 486.317 372.653Z" fill="#E9459C"/>
<path d="M451.974 389.102C451.974 392.927 448.872 396.029 445.047 396.029C441.222 396.029 438.121 392.927 438.121 389.102C438.121 385.277 441.222 382.176 445.047 382.176C448.872 382.176 451.974 385.277 451.974 389.102Z" fill="#E9459C"/>
<path d="M518.927 354.471C518.927 358.296 515.825 361.397 512 361.397C508.175 361.397 505.074 358.296 505.074 354.471C505.074 350.646 508.175 347.545 512 347.545C515.825 347.545 518.927 350.646 518.927 354.471Z" fill="#E9459C"/>
<path d="M534.224 375.827C534.224 379.652 531.122 382.753 527.297 382.753C523.472 382.753 520.371 379.652 520.371 375.827C520.371 372.002 523.472 368.9 527.297 368.9C531.122 368.9 534.224 372.002 534.224 375.827Z" fill="#E9459C"/>
<path d="M502.766 398.337C502.766 402.162 499.666 405.264 495.841 405.264C492.016 405.264 488.914 402.162 488.914 398.337C488.914 394.512 492.016 391.411 495.841 391.411C499.666 391.411 502.766 394.512 502.766 398.337Z" fill="#E9459C"/>
<path d="M618.782 347.834C618.782 351.659 615.681 354.76 611.855 354.76C608.03 354.76 604.93 351.659 604.93 347.834C604.93 344.009 608.03 340.907 611.855 340.907C615.681 340.907 618.782 344.009 618.782 347.834Z" fill="#E9459C"/>
<path d="M640.427 379.578C640.427 383.403 637.326 386.505 633.501 386.505C629.676 386.505 626.574 383.403 626.574 379.578C626.574 375.753 629.676 372.652 633.501 372.652C637.326 372.652 640.427 375.753 640.427 379.578Z" fill="#E9459C"/>
<path d="M675.345 372.94C675.345 376.766 672.244 379.867 668.419 379.867C664.594 379.867 661.492 376.766 661.492 372.94C661.492 369.115 664.594 366.015 668.419 366.015C672.244 366.015 675.345 369.115 675.345 372.94Z" fill="#E9459C"/>
<path d="M563.95 346.968C563.95 350.793 560.849 353.893 557.023 353.893C553.198 353.893 550.098 350.793 550.098 346.968C550.098 343.142 553.198 340.041 557.023 340.041C560.849 340.041 563.95 343.142 563.95 346.968Z" fill="#E9459C"/>
<path d="M591.653 365.437C591.653 369.262 588.553 372.364 584.727 372.364C580.902 372.364 577.801 369.262 577.801 365.437C577.801 361.612 580.902 358.511 584.727 358.511C588.553 358.511 591.653 361.612 591.653 365.437Z" fill="#E9459C"/>
<path d="M611.856 394.585C611.856 398.41 608.756 401.512 604.931 401.512C601.105 401.512 598.004 398.41 598.004 394.585C598.004 390.76 601.105 387.659 604.931 387.659C608.756 387.659 611.856 390.76 611.856 394.585Z" fill="#E9459C"/>
<path d="M659.474 345.813C659.474 349.638 656.373 352.739 652.548 352.739C648.723 352.739 645.621 349.638 645.621 345.813C645.621 341.988 648.723 338.886 652.548 338.886C656.373 338.886 659.474 341.988 659.474 345.813Z" fill="#E9459C"/>
<path d="M564.813 393.142C564.813 396.967 561.712 400.069 557.887 400.069C554.062 400.069 550.961 396.967 550.961 393.142C550.961 389.317 554.062 386.216 557.887 386.216C561.712 386.216 564.813 389.317 564.813 393.142Z" fill="#E9459C"/>
<path d="M466.692 351.874C466.692 355.699 463.591 358.8 459.766 358.8C455.941 358.8 452.84 355.699 452.84 351.874C452.84 348.049 455.941 344.947 459.766 344.947C463.591 344.947 466.692 348.049 466.692 351.874Z" fill="#E9459C"/>
<path d="M694.619 331.23C694.876 329.779 695.112 328.34 695.334 326.909L690.969 331.275L694.619 331.23Z" fill="#FF151B"/>
<path d="M485.147 267.666L475.677 267.784L480.559 262.902V261.607L478.089 259.019L476.559 259.255L467.971 267.784L450.088 267.902L461.853 255.96H473.736L475.324 254.784V251.783L474.441 250.666L467.089 250.608L474.265 243.666L474.5 241.607L472.148 239.372L470.148 239.666L463.501 246.549L463.265 239.901L462.383 238.725L458.971 238.666L457.677 239.901L457.912 252.019L445.794 263.548V245.96L454.559 237.431L454.853 235.843L452.441 233.254L450.795 233.195L445.794 238.077V228.901L444.853 227.548L441.736 227.489L440.323 228.725V238.372L435.676 233.431L434.323 233.077L431.559 235.666L431.5 237.254L440.147 245.666L440.382 263.843L428.382 252.019L428.5 240.019L427.617 238.843L424.264 238.607L423.029 239.49V246.372L416.265 239.843L414.676 239.254L412.088 241.784L411.911 243.313L418.617 250.372L412.088 250.49L411.029 251.667V254.842L412.029 256.137L424.5 256.019L436.147 267.725L418.441 267.902L409.617 259.255L408.206 259.078L405.441 261.666L405.734 263.078L410.676 267.784H400.852L399.852 268.607L399.734 271.961L400.793 273.196L410.206 273.313L405.911 278.02L405.617 279.549L407.97 281.843L409.676 281.784L418.206 273.196L436.205 273.372L424.382 285.196L412.206 285.137L411.265 286.02L411.088 289.314L411.97 290.549L418.794 290.726L411.911 297.196L411.794 298.432L414.088 301.314L416.029 301.137L422.794 294.667L422.912 301.255L423.912 302.432H427.323L428.382 301.314L428.617 289.314L440.206 277.372L440.264 295.019L431.617 303.961V305.608L433.912 307.667L435.559 307.608L440.264 303.078V312.373L441.264 313.432L444.559 313.491L445.794 312.373L445.911 303.137L450.618 307.55L452.088 307.725L454.383 305.432L454.147 303.432L445.853 295.078L445.794 277.079L457.617 289.019L457.853 301.137L459.088 302.432H462.088L463.265 301.255L463.383 294.726L470.03 301.196L472.324 301.549L474.324 299.314V297.314L467.324 290.372L473.912 290.49L475.148 289.549L475.265 286.137L473.971 285.196L461.853 285.255L449.97 273.313L467.794 273.255L476.382 281.902L478.324 281.961L480.383 279.902L480.441 278.02L475.794 273.372L484.795 273.313L486.442 272.078L486.383 269.078L485.147 267.666Z" fill="white"/>
<path d="M693.917 259.078L691.151 261.666L691.445 263.078L696.387 267.784H686.563L685.563 268.607L685.445 271.961L686.504 273.196L695.917 273.313L691.622 278.02L691.328 279.549L693.681 281.843L695.387 281.784L700.671 276.463C701.43 273.149 702.344 270.039 703.374 267.14L695.328 259.255L693.917 259.078Z" fill="white"/>
<path d="M727.446 227.49L726.035 228.725V233.693C728.401 231.756 730.357 230.388 731.124 228.354L730.564 227.549L727.446 227.49Z" fill="white"/>
<path d="M720.034 233.077L717.27 235.666L717.211 237.254L719.79 239.763C721.214 238.207 722.411 237.017 723.228 236.199C723.362 236.065 723.496 235.944 723.63 235.815L721.388 233.43L720.034 233.077Z" fill="white"/>
<path d="M696.973 286.02L696.797 289.313L697.679 290.549L698.625 290.574C698.748 288.715 698.918 286.903 699.139 285.143L697.915 285.137L696.973 286.02Z" fill="white"/>
<path d="M697.622 297.196L697.504 298.431L698.131 299.22C698.185 298.323 698.237 297.439 698.285 296.573L697.622 297.196Z" fill="white"/>
<path d="M713.327 238.843L709.973 238.608L708.738 239.49V246.373L701.973 239.843L700.385 239.255L697.797 241.785L697.621 243.314L704.326 250.373L697.797 250.491L696.738 251.667V254.843L697.738 256.137L708.274 256.038C710.195 252.445 712.21 249.328 714.143 246.672L714.209 240.019L713.327 238.843Z" fill="white"/>
<path d="M630.6 267.667L621.129 267.784L626.012 262.902V261.608L623.541 259.02L622.012 259.255L613.423 267.784L595.541 267.902L607.305 255.961H619.188L620.777 254.784V251.784L619.894 250.666L612.541 250.608L619.718 243.667L619.953 241.608L617.6 239.372L615.6 239.667L608.953 246.549L608.717 239.901L607.835 238.726L604.423 238.667L603.129 239.901L603.365 252.019L591.247 263.549V245.96L600.012 237.431L600.306 235.843L597.894 233.254L596.247 233.196L591.247 238.078V228.902L590.306 227.549L587.188 227.49L585.776 228.725V238.372L581.129 233.431L579.776 233.078L577.011 235.667L576.952 237.255L585.6 245.667L585.835 263.843L573.835 252.019L573.952 240.019L573.07 238.843L569.717 238.608L568.482 239.49V246.373L561.717 239.843L560.129 239.255L557.54 241.785L557.364 243.314L564.07 250.373L557.54 250.49L556.481 251.667V254.843L557.481 256.137L569.953 256.02L581.6 267.726L563.894 267.902L555.07 259.255L553.658 259.079L550.893 261.667L551.188 263.079L556.129 267.784H546.305L545.305 268.608L545.188 271.961L546.246 273.197L555.658 273.314L551.363 278.02L551.07 279.549L553.422 281.844L555.129 281.785L563.658 273.197L581.659 273.372L569.835 285.196L557.658 285.137L556.717 286.02L556.54 289.314L557.423 290.55L564.246 290.726L557.364 297.197L557.247 298.432L559.54 301.314L561.481 301.138L568.246 294.667L568.364 301.256L569.364 302.432H572.776L573.835 301.314L574.07 289.314L585.659 277.373L585.718 295.02L585.263 295.49L577.07 303.961V305.609L579.364 307.668L581.011 307.609L583.842 304.884L585.718 303.079V312.374L586.718 313.432L590.011 313.491L591.247 312.374L591.365 303.138L596.07 307.55L597.541 307.726L599.835 305.432L599.599 303.432L591.306 295.079L591.247 277.079L603.071 289.02L603.306 301.138L604.541 302.432H607.541L608.717 301.256L608.835 294.726L615.482 301.197L617.777 301.55L619.777 299.314V297.314L612.776 290.373L619.365 290.491L620.6 289.55L620.718 286.137L619.423 285.196L607.305 285.255L595.424 273.314L613.247 273.256L621.836 281.903L623.777 281.961L625.836 279.902L625.895 278.02L621.247 273.372L630.247 273.314L631.895 272.079L631.836 269.079L630.6 267.667Z" fill="white"/>
<path d="M561.999 332.57L560.764 331.157L551.293 331.275L556.176 326.393V325.098L553.705 322.51L552.176 322.746L543.587 331.275L525.705 331.393L537.47 319.451H549.352L550.94 318.275V315.275L550.058 314.158L542.704 314.099L549.881 307.158L550.117 305.099L547.763 302.863L545.763 303.157L539.116 310.04L538.881 303.393L537.999 302.216L534.587 302.157L533.293 303.393L533.528 315.51L521.41 327.04V309.451L530.175 300.922L530.469 299.334L528.057 296.745L526.41 296.686L521.41 301.569V292.393L520.469 291.039L517.351 290.98L515.94 292.216V301.863L511.292 296.922L509.94 296.569L507.175 299.157L507.116 300.745L515.763 309.158L515.999 327.334L503.998 315.51L504.116 303.51L503.234 302.334L499.881 302.099L498.645 302.981V309.863L491.88 303.334L490.292 302.745L487.704 305.275L487.528 306.804L494.234 313.863L487.704 313.981L486.645 315.158V318.334L487.646 319.628L500.116 319.51L511.763 331.216L494.057 331.393L485.233 322.746L483.821 322.569L481.057 325.157L481.351 326.569L486.292 331.275H476.469L475.469 332.099L475.402 333.974H562.026L561.999 332.57Z" fill="white"/>
<path d="M419.035 332.543L417.799 331.131L408.329 331.249L413.211 326.366V325.072L410.74 322.484L409.211 322.719L400.622 331.249L393.694 331.385L394.505 319.425H406.387L407.975 318.248V315.248L407.093 314.131L399.74 314.072L406.917 307.131L407.152 305.072L404.799 302.837L402.799 303.131L396.152 310.013L395.916 303.366L395.034 302.19L391.623 302.131L390.328 303.366L392.454 319.063L392.435 319.107L392.377 319.117L392.325 319.152L392.312 319.149L392.253 319.117L392.448 319.042L392.27 319.052L392.219 319.076L392.254 319.059L392.22 319.103L392.299 319.105L392.35 319.141L392.278 319.134L392.363 319.192L392.22 319.159L392.315 319.154L392.383 319.183L392.47 319.093L392.255 319.244L392.369 319.068L392.475 319.088L392.608 319.009L392.256 319.162L392.465 319.179L392.48 319.167L392.415 319.104L392.411 319.081L392.34 319.14L392.374 319.106L392.411 319.066L392.403 319.086L392.47 319.035L392.367 319.173L392.43 319.083L392.449 319.069L392.405 319.313L392.513 319.019L392.246 319.097L392.419 318.895L392.458 319.247L392.356 319.111L392.418 319.122L392.224 319.352L394.142 333.982L419.062 333.948L419.035 332.543Z" fill="white"/>
<path d="M691.85 322.746L683.262 331.275L665.38 331.393L677.144 319.451H689.027L690.616 318.275V315.275L689.733 314.158L682.38 314.099L689.557 307.158L689.792 305.099L687.439 302.863L685.439 303.157L678.792 310.04L678.557 303.393L677.674 302.216L674.262 302.157L672.969 303.393L673.203 315.51L661.086 327.04V309.451L669.851 300.922L670.144 299.334L667.733 296.745L666.086 296.686L661.086 301.569V292.393L660.145 291.039L657.027 290.98L655.615 292.216V301.863L650.968 296.922L649.615 296.569L646.85 299.157L646.791 300.745L655.438 309.158L655.674 327.334L643.673 315.51L643.791 303.51L642.909 302.334L639.556 302.099L638.321 302.981V309.863L631.556 303.334L629.967 302.745L627.379 305.275L627.203 306.804L633.909 313.863L627.379 313.981L626.32 315.158V318.334L627.32 319.628L639.791 319.51L651.438 331.216L641.175 331.318L633.732 331.393L624.908 322.746L623.497 322.569L620.732 325.157L621.026 326.569L625.967 331.275H616.144L615.144 332.099L615.078 333.974H694.112C694.289 333.056 694.456 332.142 694.618 331.23L690.968 331.275L695.334 326.91C695.439 326.232 695.545 325.554 695.643 324.881L693.38 322.51L691.85 322.746Z" fill="white"/>
<path d="M448.902 215.485C448.902 215.485 461.208 216.669 468.309 229.213C475.409 241.757 486.06 247.437 498.367 245.07C510.674 242.704 518.721 232.763 511.148 220.455C503.574 208.148 467.363 206.728 448.902 215.485Z" fill="#F5D9A3"/>
<path d="M725.768 412.064C724.488 408.011 720.862 408.866 720.862 408.866H578.355H576.026H367.188C367.188 408.866 363.562 408.011 362.282 412.064C361.002 416.118 365.908 417.824 372.734 418.678C379.559 419.531 402.81 423.797 420.728 426.783C438.645 429.769 448.884 432.329 452.511 434.676H549.553H604.83H635.54C639.165 432.329 649.403 429.769 667.321 426.783C685.238 423.797 708.489 419.531 715.315 418.678C722.14 417.824 727.047 416.118 725.768 412.064Z" fill="#E8449B"/>
<path d="M360.524 246.186C339.931 260.965 340.821 295.743 341.717 317.835C342.103 327.385 344.116 347.087 351.27 362.318C370.306 402.847 420.389 397.327 443.885 391.794C452.092 389.861 457.06 387.404 455.465 379.428C454.287 373.54 448.988 371.381 438.193 372.559C430.749 373.371 397.245 373.663 385.005 361.721C372.765 349.779 368.286 324.702 368.585 308.581C368.883 292.459 369.183 268.875 387.095 260.516C405.007 252.157 424.245 254.664 433.259 255.296C442.931 255.974 448.394 254.79 449.04 248.847C449.889 241.042 444.661 238.482 435.159 236.931C414.665 233.586 379.505 232.564 360.524 246.186Z" fill="white"/>
<path d="M360.524 246.186C339.931 260.965 340.821 295.743 341.717 317.835C342.103 327.385 344.116 347.087 351.27 362.318C370.306 402.847 420.389 397.327 443.885 391.794C452.092 389.861 457.06 387.404 455.465 379.428C454.287 373.54 448.988 371.381 438.193 372.559C430.749 373.371 397.245 373.663 385.005 361.721C372.765 349.779 368.286 324.702 368.585 308.581C368.883 292.459 369.183 268.875 387.095 260.516C405.007 252.157 424.245 254.664 433.259 255.296C442.931 255.974 448.394 254.79 449.04 248.847C449.889 241.042 444.661 238.482 435.159 236.931C414.665 233.586 379.505 232.564 360.524 246.186Z" fill="white"/>
<path d="M376.106 387.617C381.239 384.823 388.253 378.238 393.682 367.216C390.072 365.738 387.012 363.891 384.648 361.586C383.316 360.286 382.184 358.62 381.032 357.038C376.074 360.774 366.435 366.831 354.383 368.429C360.135 376.9 367.611 383.751 376.106 387.617Z" fill="#E9459C"/>
<path d="M383.939 237.461C375.944 238.935 368.379 241.225 362.348 244.688C369.559 245.126 377.571 249.541 382.568 263.211C384.087 262.016 386.28 260.854 388.17 259.972C391.224 258.547 394.112 257.75 397.187 256.893C394.472 247.18 388.621 240.831 383.939 237.461Z" fill="#E9459C"/>
<path d="M402.473 395.226C410.588 396.018 419.765 395.692 427.796 394.612C431.812 385.066 430.107 377.216 427.92 373.039C422.851 372.943 416.761 372.555 410.667 371.624C410.697 376.781 409.179 387.992 402.473 395.226Z" fill="#E9459C"/>
<path d="M341.863 319.202C342.2 325.22 342.908 333.921 345.013 343.157C352.762 343.465 362.8 342.974 372.961 339.354C370.946 332.796 369.777 325.756 369.136 319.306C361.696 319.324 350.486 319.409 341.863 319.202Z" fill="#E9459C"/>
<path d="M345.097 269.499C342.925 277.492 341.789 286.289 341.574 294.781C347.623 294.525 356.746 294.92 368.975 298.907C369.246 292.738 370.278 286.449 371.955 280.333C365.229 275.239 354.97 269.082 345.097 269.499Z" fill="#E8449B"/>
<path d="M432.551 254.963C431.223 245.619 428.674 238.863 426.894 235.429C421.232 235.094 413.799 234.888 405.77 235.194C409.775 240.936 411.627 248.705 412.453 254.584C420.574 254.102 427.716 254.585 432.551 254.963Z" fill="#E8449B"/>
<path d="M355.575 265.204L359.42 265.095C359.917 265.08 360.364 264.812 360.606 264.378C361.431 262.898 363.604 259.297 366.847 256.053L370.002 252.899C370.964 251.936 370.14 250.304 368.795 250.509C367.663 250.681 366.366 251.017 365.044 251.644C361.678 253.238 357.217 257.807 354.289 263.136C353.769 264.082 354.496 265.235 355.575 265.204Z" fill="#EEFCFF"/>
</g>
<defs>
<linearGradient id="paint0_linear_4773_50296" x1="406.621" y1="-34.5" x2="406.621" y2="775.974" gradientUnits="userSpaceOnUse">
<stop stop-color="#7F539D"/>
<stop offset="0.38" stop-color="#653C90"/>
<stop offset="0.75" stop-color="#4C2583"/>
</linearGradient>
<linearGradient id="paint1_linear_4773_50296" x1="516.518" y1="71.7678" x2="528.842" y2="197.665" gradientUnits="userSpaceOnUse">
<stop offset="0.02" stop-color="#F1AA4B"/>
<stop offset="0.09" stop-color="#F2B868"/>
<stop offset="0.16" stop-color="#F4C585"/>
<stop offset="0.58" stop-color="#FAE2C2"/>
<stop offset="1" stop-color="white"/>
</linearGradient>
<linearGradient id="paint2_linear_4773_50296" x1="541.876" y1="136.622" x2="549.883" y2="189.816" gradientUnits="userSpaceOnUse">
<stop stop-color="#F4BE74"/>
<stop offset="0.33" stop-color="#F8D7AA"/>
<stop offset="0.7" stop-color="#FCF0E0"/>
</linearGradient>
<clipPath id="clip0_4773_50296">
<rect width="815" height="435" fill="white"/>
</clipPath>
</defs>
</svg>
