<?xml version="1.0" encoding="utf-8"?>
<svg width="815" height="435" viewBox="0 0 815 435" fill="none" xmlns="http://www.w3.org/2000/svg">
  <g clip-path="url(#clip0_867_90017)">
    <rect x="2" y="3" width="810.5" height="430" rx="44" fill="white"/>
    <g clip-path="url(#clip1_867_90017)">
      <mask id="mask0_867_90017" style="mask-type:luminance" maskUnits="userSpaceOnUse" x="-43" y="-167" width="900" height="600">
        <path d="M857 -167H-43V433H857V-167Z" fill="white"/>
      </mask>
      <g mask="url(#mask0_867_90017)">
        <path d="M606.406 231.375C606.406 231.375 559.741 231.375 513.077 231.375C495.517 231.375 483.363 237.017 475.034 244.055C464.02 253.362 457.929 267.247 457.929 281.667V378.74C457.929 406.298 480.269 428.638 507.827 428.638H655.696C683.254 428.638 705.594 406.298 705.594 378.74V281.628C705.594 267.816 700.024 254.454 689.783 245.187C681.434 237.632 668.938 231.375 650.445 231.375C603.781 231.375 557.117 231.375 557.117 231.375" fill="#698EFF"/>
        <path d="M455.472 363.084C455.472 363.084 499.425 350.746 499.425 319.131C499.425 287.516 499.425 249.591 499.425 249.591H528.349V285.203C528.349 285.203 529.891 296.769 539.915 296.769C549.939 296.769 589.644 296.769 589.644 296.769L590.893 432.429H506.704C506.704 432.429 447.529 436.081 455.472 363.084Z" fill="white"/>
        <path d="M703.331 363.084C703.331 363.084 659.378 350.746 659.378 319.131C659.378 287.516 659.378 249.591 659.378 249.591H630.454V285.203C630.454 285.203 628.911 296.769 618.887 296.769C608.863 296.769 569.159 296.769 569.159 296.769L567.91 432.429H652.099C652.099 432.429 711.274 436.081 703.331 363.084Z" fill="white"/>
        <path d="M770.657 433H43.6779C20.7169 433 1.93091 414.214 1.93091 391.253V42.8042C1.93091 19.8432 20.7169 1.05615 43.6779 1.05615H770.657C793.618 1.05615 812.404 19.8432 812.404 42.8042V391.253C812.404 414.214 793.618 433 770.657 433Z" fill="url(#paint0_linear_867_90017)"/>
        <path d="M109.476 313.337H426.333V131.202H109.476V313.337Z" fill="#7F005B"/>
        <path d="M132.66 199.74H135.455V141.895H132.66V199.74Z" fill="white"/>
        <path d="M134.963 199.198C134.963 199.198 137.274 199.198 137.604 201.037C137.934 202.876 136.614 204.29 136.614 204.29C136.614 204.29 137.536 205.858 137.745 207.638C138.028 210.043 137.085 211.221 135.246 211.221C133.407 211.221 132.795 211.174 132.795 211.174L133.172 198.538L134.963 199.198Z" fill="white"/>
        <path d="M133.363 199.198C133.363 199.198 131.052 199.198 130.722 201.037C130.392 202.876 131.713 204.29 131.713 204.29C131.713 204.29 130.79 205.858 130.581 207.638C130.298 210.043 131.241 211.221 133.08 211.221C134.919 211.221 135.532 211.174 135.532 211.174L135.154 198.538L133.363 199.198Z" fill="white"/>
        <path d="M101.454 142.869H439.075V116.457H101.454V142.869Z" fill="#D80090"/>
        <path d="M101.454 330.982H439.075V297.109H101.454V330.982Z" fill="#D80090"/>
        <path d="M107.383 298.642H116.546V129.932H107.383V298.642Z" fill="#D80090"/>
        <path d="M423.443 298.642H432.606V129.932H423.443V298.642Z" fill="#D80090"/>
        <g opacity="0.6">
          <path d="M336.486 206.974C344.064 206.798 349.05 207.103 354.251 203.793C359.176 200.659 364.1 199.116 367.118 199.463C370.136 199.116 375.059 200.659 379.984 203.793C385.185 207.103 390.171 206.798 397.749 206.974C406.063 207.167 407.29 211.122 407.29 211.122H365.362H359.469H326.946C326.946 211.122 328.172 207.167 336.486 206.974Z" stroke="#E557C4" stroke-miterlimit="10"/>
        </g>
        <g opacity="0.6">
          <path d="M156.134 177.368C168.222 176.317 171.088 177.459 179.414 172.161C187.297 167.144 193.863 165.984 198.694 166.539C203.525 165.984 209.604 166.792 219.268 172.538C222.638 174.542 230.265 178.497 239.064 178.724C248.985 178.98 260.345 176.405 268.495 176.606C271.312 176.675 275.227 177.128 278.129 178.115C287.665 181.357 282.644 185.202 282.644 185.202H195.884H186.45H140.818C140.818 185.202 142.043 178.593 156.134 177.368Z" stroke="#E557C4" stroke-miterlimit="10"/>
        </g>
        <g opacity="0.32">
          <path d="M117.923 296.531C117.923 296.531 145.869 269.433 160.547 268.868C175.225 268.303 173.532 277.336 173.532 277.336C173.532 277.336 225.753 231.324 261.32 235.276C296.887 239.228 293.5 255.601 293.5 255.601C293.5 255.601 345.157 232.736 366.892 248.826C388.627 264.916 379.313 280.441 379.313 280.441C379.313 280.441 428.994 262.375 419.961 296.531C419.961 296.531 117.358 295.966 117.923 296.531Z" fill="#7F005B"/>
        </g>
        <g opacity="0.32">
          <path d="M812.145 371.456H1.59595V351.172H812.145V371.456Z" fill="#7F005B"/>
        </g>
        <path d="M36.51 371.824V432.36" stroke="white" stroke-miterlimit="10"/>
        <path d="M73.708 371.824V432.36" stroke="white" stroke-miterlimit="10"/>
        <path d="M110.907 371.824V432.36" stroke="white" stroke-miterlimit="10"/>
        <path d="M148.106 371.824V432.36" stroke="white" stroke-miterlimit="10"/>
        <path d="M185.304 371.824V432.36" stroke="white" stroke-miterlimit="10"/>
        <path d="M222.503 371.824V432.36" stroke="white" stroke-miterlimit="10"/>
        <path d="M259.701 371.824V432.36" stroke="white" stroke-miterlimit="10"/>
        <path d="M296.9 371.824V432.36" stroke="white" stroke-miterlimit="10"/>
        <path d="M334.099 371.824V432.36" stroke="white" stroke-miterlimit="10"/>
        <path d="M371.297 371.824V432.36" stroke="white" stroke-miterlimit="10"/>
        <path d="M408.496 371.824V432.36" stroke="white" stroke-miterlimit="10"/>
        <path d="M445.694 371.824V432.36" stroke="white" stroke-miterlimit="10"/>
        <path d="M482.893 371.824V432.36" stroke="white" stroke-miterlimit="10"/>
        <path d="M520.092 371.824V432.36" stroke="white" stroke-miterlimit="10"/>
        <path d="M557.29 371.824V432.36" stroke="white" stroke-miterlimit="10"/>
        <path d="M594.489 371.824V432.36" stroke="white" stroke-miterlimit="10"/>
        <path d="M631.687 371.824V432.36" stroke="white" stroke-miterlimit="10"/>
        <path d="M668.886 371.824V432.36" stroke="white" stroke-miterlimit="10"/>
        <path d="M706.085 371.824V432.36" stroke="white" stroke-miterlimit="10"/>
        <path d="M743.283 371.824V432.36" stroke="white" stroke-miterlimit="10"/>
        <path d="M780.482 371.824V432.36" stroke="white" stroke-miterlimit="10"/>
        <path d="M812.49 367.944C812.49 367.944 413.541 367.944 342.137 367.944C270.733 367.944 263.346 428.679 263.346 428.679V433.645C263.346 433.645 687.144 433.645 758.548 433.645C777.54 433.645 784.782 432.806 793.076 427.027C815 411.75 812.49 391.585 812.49 391.585V367.944Z" fill="#443995"/>
        <path d="M649.41 251.408C653.289 274.146 628.521 297.341 594.089 303.215C559.656 309.089 528.599 295.418 524.72 272.68C520.84 249.942 545.608 226.747 580.041 220.872C614.474 214.998 645.531 228.67 649.41 251.408Z" fill="#4B67EC"/>
        <path d="M617.466 52.5669H542.657V113.547H617.466V52.5669Z" fill="#F3DC2C"/>
        <path d="M618.409 46.2802C618.409 67.4594 601.241 84.6278 580.062 84.6278C558.883 84.6278 541.714 67.4594 541.714 46.2802C541.714 25.101 558.883 7.93262 580.062 7.93262C601.241 7.93262 618.409 25.101 618.409 46.2802Z" fill="#F3DC2C"/>
        <path d="M563.431 73.5054C563.431 88.6754 550.049 100.974 533.542 100.974C517.035 100.974 503.652 88.6754 503.652 73.5054C503.652 58.3354 517.035 46.0371 533.542 46.0371C550.049 46.0371 563.431 58.3354 563.431 73.5054Z" fill="#F3DC2C"/>
        <path d="M656.471 73.5054C656.471 88.6754 643.089 100.974 626.582 100.974C610.075 100.974 596.693 88.6754 596.693 73.5054C596.693 58.3354 610.075 46.0371 626.582 46.0371C643.089 46.0371 656.471 58.3354 656.471 73.5054Z" fill="#F3DC2C"/>
        <path d="M618.409 46.2803C618.409 53.7904 616.25 60.7963 612.519 66.7111" stroke="#D80090" stroke-width="4.96699" stroke-linecap="round" stroke-linejoin="round"/>
        <path d="M543.196 46.2803C543.196 53.7904 545.355 60.7963 549.086 66.7111" stroke="#D80090" stroke-width="4.96699" stroke-linecap="round" stroke-linejoin="round"/>
        <path d="M563.094 112.989V92.6196" stroke="#D80090" stroke-width="4.96699" stroke-linecap="round" stroke-linejoin="round"/>
        <path d="M597.043 112.989V92.6196" stroke="#D80090" stroke-width="4.96699" stroke-linecap="round" stroke-linejoin="round"/>
        <path d="M709.481 240.216L695.989 240.386C679.548 240.593 665.927 227.311 665.72 210.87L665.356 182.019C665.149 165.579 678.431 151.957 694.872 151.75L708.366 151.58C724.806 151.373 738.427 164.656 738.634 181.096L738.998 209.947C739.205 226.388 725.922 240.009 709.481 240.216Z" fill="#698EFF"/>
        <path d="M710.361 219.868L694.508 220.068C691.713 220.104 689.398 217.845 689.362 215.05L688.849 174.28C688.813 171.477 691.078 169.155 693.881 169.12L709.719 168.92C716.273 168.838 721.702 174.132 721.784 180.685L722.126 207.804C722.209 214.357 716.914 219.786 710.361 219.868Z" fill="#B7CDFF"/>
        <path d="M441.758 241.292L455.253 241.353C471.695 241.428 485.209 228.037 485.284 211.595L485.416 182.742C485.491 166.299 472.099 152.786 455.657 152.71L442.163 152.649C425.721 152.574 412.207 165.965 412.132 182.407L412 211.261C411.925 227.703 425.316 241.216 441.758 241.292Z" fill="#698EFF"/>
        <path d="M440.716 220.952L456.57 221.024C459.365 221.036 461.663 218.76 461.675 215.965L461.862 175.192C461.874 172.389 459.591 170.084 456.788 170.072L440.948 170C434.394 169.97 429.008 175.308 428.978 181.861L428.854 208.981C428.825 215.534 434.162 220.922 440.716 220.952Z" fill="#B7CDFF"/>
        <path d="M639.64 276.547C608.29 278.381 536.64 279.357 509.144 276.543C481.796 273.745 451.976 251.263 452.539 219.508L451.682 170.187C452.176 123.616 475.127 110.968 516.552 107.706C560.8 104.222 630.566 105.492 645.39 106.021C686.046 107.473 705.855 132.326 705.292 164.081L705.422 220.456C704.8 255.514 678.731 274.261 639.64 276.547Z" fill="#698EFF"/>
        <path d="M604.689 225.923L556.586 226.234C538.506 226.351 523.616 211.653 523.5 193.573L523.324 166.447C523.255 155.821 531.894 147.07 542.52 147.001L613.099 146.544C623.301 146.478 631.702 154.771 631.768 164.974L631.984 198.272C632.081 213.382 619.799 225.825 604.689 225.923Z" fill="#B7CDFF"/>
        <path d="M604.46 206.509L593.199 206.651C589.335 206.7 586.136 203.579 586.087 199.716L586.083 199.417C586.034 195.553 589.155 192.353 593.018 192.304L604.28 192.163C608.143 192.114 611.344 195.235 611.393 199.098L611.396 199.397C611.445 203.261 608.324 206.46 604.46 206.509Z" fill="#698EFF"/>
        <path d="M563.372 207.027L552.11 207.169C548.247 207.218 545.047 204.097 544.998 200.233L544.994 199.935C544.945 196.071 548.066 192.871 551.93 192.823L563.192 192.68C567.055 192.631 570.255 195.752 570.303 199.616L570.308 199.915C570.356 203.778 567.236 206.979 563.372 207.027Z" fill="#698EFF"/>
        <path d="M625.918 228.365C622.551 229.323 610.768 233.744 605.392 237.155C600.667 240.153 597.163 242.793 601.16 248.968C605.158 255.143 618.027 260.976 629.511 257.372C640.995 253.769 646.734 242.63 646.764 235.827C646.764 235.827 647.271 230.287 643.775 227.334C640.279 224.38 631.432 226.797 625.918 228.365Z" fill="#E9459C"/>
        <path d="M608.105 254.962C608.105 254.962 622.151 237.191 646.78 233.989C646.78 233.989 648.974 246.318 634.472 255.353C621.983 263.135 608.105 254.962 608.105 254.962Z" fill="#FFACD6"/>
        <path d="M666.048 183.673C666.136 190.661 660.542 196.398 653.555 196.486C646.567 196.573 640.83 190.98 640.742 183.992C640.655 177.004 646.248 171.267 653.236 171.18C660.224 171.092 665.96 176.686 666.048 183.673Z" fill="#080201"/>
        <path d="M514.396 184.281C514.484 191.268 508.89 197.005 501.902 197.093C494.914 197.181 489.178 191.587 489.09 184.599C489.002 177.612 494.596 171.875 501.583 171.787C508.571 171.699 514.308 177.293 514.396 184.281Z" fill="#080201"/>
        <path d="M524.436 263.286C531.655 263.171 537.272 262.177 543.454 259.129L543.808 258.953C549.965 255.856 554.142 251.972 558.584 246.28C565.645 237.23 575.478 232.798 584.044 231.23L576.813 216.709C575.193 213.456 571.208 212.121 567.955 213.741L488.728 253.197C485.476 254.817 484.141 258.802 485.76 262.054L493.707 278.011C499.904 270.839 510.735 263.504 524.436 263.286Z" fill="white"/>
        <path d="M614.941 293.27L584.044 231.23C575.478 232.798 565.645 237.23 558.584 246.28C554.142 251.972 549.965 255.855 543.808 258.953L543.454 259.129C537.272 262.177 531.655 263.171 524.436 263.286C510.735 263.504 499.904 270.839 493.707 278.011L523.606 338.047C531.275 325.388 545.117 312.953 562.958 304.068C581.269 294.949 600.023 291.45 614.941 293.27Z" fill="#FF78B9"/>
        <path d="M548.49 373.197L627.717 333.741C630.97 332.121 632.305 328.136 630.685 324.883L614.941 293.27C600.023 291.45 581.269 294.949 562.958 304.068C545.117 312.953 531.275 325.388 523.606 338.047L539.633 370.229C541.253 373.481 545.238 374.817 548.49 373.197Z" fill="#F3DC2C"/>
        <path d="M662.999 274.006L664.98 274.763C664.98 274.763 669.374 276.441 670.839 272.605C672.305 268.769 673.298 266.17 673.298 266.17C673.298 266.17 674.433 263.199 670.039 261.521C668.059 260.764 663.532 259.035 659.155 257.362C653.816 255.322 648.701 253.368 648.701 253.368C644.323 251.695 639.796 249.966 637.817 249.21C633.423 247.531 632.288 250.501 632.288 250.501C632.288 250.501 631.295 253.1 629.829 256.937C628.363 260.773 632.757 262.452 632.757 262.452L634.737 263.208" fill="#E0E0E0"/>
        <path d="M634.737 263.208C632.224 264.588 633.249 267.072 633.249 267.072C633.249 267.072 631.787 271.7 627.066 274.473C622.346 277.245 608.655 285.132 603.163 299.508C597.67 313.884 584.781 347.621 584.781 347.621C584.781 347.621 582.198 355.055 592.888 359.139C596.416 360.487 600.603 362.087 604.562 363.599C604.562 363.599 611.155 366.118 618.548 368.943C622.506 370.455 626.693 372.055 630.221 373.403C640.91 377.487 643.944 370.225 643.944 370.225C643.944 370.225 656.833 336.488 662.326 322.112C667.818 307.736 662.874 292.73 661.205 287.516C659.536 282.302 661.531 277.878 661.531 277.878C661.531 277.878 663.952 276.71 662.999 274.006" fill="#AAD7F4"/>
        <path d="M608.589 301.583C604.104 313.321 591.578 346.106 591.578 346.106C591.578 346.106 589.47 352.176 598.198 355.51C601.079 356.611 604.499 357.917 607.731 359.152C607.731 359.152 613.115 361.209 619.151 363.516C622.384 364.751 625.803 366.057 628.683 367.157C637.411 370.492 639.888 364.563 639.888 364.563C639.888 364.563 652.414 331.778 656.898 320.04L608.589 301.583Z" fill="white"/>
        <path d="M633.779 247.831L664.792 259.679" stroke="#6996AF" stroke-width="4.13915" stroke-linecap="round" stroke-linejoin="round"/>
        <path d="M591.96 316.924C593.227 331.082 585.395 342.372 567.663 341.347C552.213 340.454 542.935 328.072 546.342 314.288C549.982 299.558 560.554 286.403 570.821 286.706C581.863 287.031 590.56 301.279 591.96 316.924Z" fill="white"/>
        <path d="M591.96 316.924C593.227 331.082 585.395 342.372 567.663 341.347C552.213 340.454 542.935 328.072 546.342 314.288C549.982 299.558 560.554 286.403 570.821 286.706C581.863 287.031 590.56 301.279 591.96 316.924Z" stroke="#C1C1C1" stroke-width="3.31132" stroke-linecap="round" stroke-linejoin="round"/>
        <path d="M626.602 336.435C625.867 350.63 616.526 360.707 599.114 357.202C583.943 354.147 576.497 340.585 581.806 327.416C587.479 313.344 599.795 301.804 609.918 303.546C620.804 305.42 627.413 320.748 626.602 336.435Z" fill="white"/>
        <path d="M626.602 336.435C625.867 350.63 616.526 360.707 599.114 357.202C583.943 354.147 576.497 340.585 581.806 327.416C587.479 313.344 599.795 301.804 609.918 303.546C620.804 305.42 627.413 320.748 626.602 336.435Z" stroke="#C1C1C1" stroke-width="3.31132" stroke-linecap="round" stroke-linejoin="round"/>
        <path d="M552.362 317.475C558.501 330.295 555.113 343.611 538.143 348.853C523.356 353.421 510.334 345.067 508.703 330.961C506.961 315.889 512.264 299.867 521.989 296.559C532.447 293.002 545.578 303.308 552.362 317.475Z" fill="white"/>
        <path d="M552.362 317.475C558.501 330.295 555.113 343.611 538.143 348.853C523.356 353.421 510.334 345.067 508.703 330.961C506.961 315.889 512.264 299.867 521.989 296.559C532.447 293.002 545.578 303.308 552.362 317.475Z" stroke="#C1C1C1" stroke-width="3.31132" stroke-linecap="round" stroke-linejoin="round"/>
        <path d="M522.559 323.79C522.559 323.79 530.565 322.136 539.853 320.616C549.141 319.095 573.083 320.299 579.567 344C586.052 367.702 568.969 382.412 545.119 388.173C517.033 394.957 459.162 388.07 442.491 358.65C408.7 299.02 491.826 279.132 491.826 279.132L506.654 325.617" fill="#698EFF"/>
        <path d="M641.399 323.79C641.399 323.79 633.393 322.136 624.105 320.616C614.816 319.095 590.875 320.299 584.39 344C577.906 367.702 594.988 382.412 618.838 388.173C646.925 394.957 704.795 388.07 721.467 358.65C755.257 299.02 672.131 279.132 672.131 279.132L657.303 325.617" fill="#698EFF"/>
        <path d="M564.706 426.687H599.682C633.853 426.687 663.168 404.831 674.337 374.409H490.052C501.221 404.831 530.535 426.687 564.706 426.687Z" fill="#D11583"/>
        <path d="M679.16 347.209C679.16 341.444 674.443 336.727 668.677 336.727H495.71C489.945 336.727 485.228 341.444 485.228 347.209C485.228 350.391 485.423 353.53 485.791 356.617H678.596C678.965 353.53 679.16 350.391 679.16 347.209Z" fill="#D11583"/>
        <path d="M485.792 356.617C486.528 362.787 487.972 368.747 490.051 374.409H674.337C676.416 368.747 677.86 362.787 678.597 356.617H485.792Z" fill="white"/>
        <mask id="mask1_867_90017" style="mask-type:luminance" maskUnits="userSpaceOnUse" x="-43" y="-167" width="900" height="600">
          <path d="M-43 -167H857V433H-43V-167Z" fill="white"/>
        </mask>
        <g mask="url(#mask1_867_90017)">
          <path d="M 112.58 54.362 C 112.546 54.307 112.527 54.247 112.527 54.183 C 112.319 54.027 111.997 53.842 111.556 53.625 C 111.114 53.41 110.602 53.142 110.014 52.82 C 109.477 52.546 108.999 52.291 108.574 52.056 C 108.151 51.823 107.803 51.591 107.526 51.36 C 107.058 50.976 106.688 50.665 106.411 50.431 C 106.134 50.198 105.978 50.048 105.943 49.983 C 105.839 49.883 105.772 49.71 105.737 49.467 C 105.702 49.223 105.685 48.909 105.685 48.524 C 105.685 48.359 105.801 48.125 106.036 47.821 C 106.269 47.519 106.629 47.157 107.11 46.734 C 107.733 46.183 108.49 45.666 109.381 45.184 C 110.269 44.703 111.274 44.251 112.399 43.828 C 112.675 43.737 112.891 43.612 113.046 43.45 C 113.203 43.29 113.315 43.095 113.385 42.864 C 113.486 42.498 113.6 42.103 113.721 41.68 L 113.462 41.364 C 113.462 41.171 113.504 40.952 113.591 40.703 C 113.66 40.657 113.788 40.619 113.967 40.585 C 114.147 40.555 114.404 40.525 114.732 40.497 C 114.906 40.525 115.103 40.543 115.327 40.551 C 115.553 40.561 115.819 40.556 116.131 40.538 C 116.339 40.657 116.477 40.759 116.546 40.841 C 116.581 40.887 116.599 40.999 116.599 41.178 C 116.599 41.357 116.599 41.598 116.599 41.901 C 116.599 41.984 116.573 42.025 116.52 42.025 C 116.468 42.025 116.391 42.135 116.288 42.356 C 116.321 42.411 116.356 42.445 116.391 42.458 C 116.426 42.472 116.494 42.479 116.599 42.479 C 118.603 41.993 120.012 41.749 120.826 41.749 C 121.237 41.749 121.558 41.853 121.784 42.06 C 122.008 42.266 122.121 42.58 122.121 43.003 C 122.121 43.214 122.029 43.416 121.847 43.608 C 121.666 43.801 121.386 43.99 121.006 44.173 C 120.676 44.33 120.348 44.473 120.022 44.606 C 119.694 44.74 119.355 44.876 119.008 45.013 C 118.75 45.133 118.406 45.276 117.972 45.44 C 117.539 45.605 117.03 45.779 116.442 45.963 C 116.201 46.046 116.003 46.22 115.847 46.486 C 115.69 46.752 115.612 47.111 115.612 47.56 C 115.612 47.707 115.607 47.881 115.601 48.083 C 115.591 48.285 115.594 48.511 115.612 48.758 C 115.612 49.053 115.612 49.298 115.612 49.495 C 115.612 49.693 115.612 49.851 115.612 49.969 C 115.612 50.181 115.584 50.503 115.522 50.933 C 115.462 51.365 115.432 51.687 115.432 51.897 C 115.536 52.007 115.614 52.082 115.664 52.118 C 116.304 52.448 116.854 52.752 117.311 53.026 C 117.769 53.302 118.119 53.531 118.36 53.715 C 118.863 54.074 119.244 54.413 119.503 54.734 C 119.76 55.055 119.914 55.367 119.967 55.669 C 119.935 55.707 119.909 55.75 119.891 55.8 C 119.874 55.851 119.862 55.918 119.862 56 C 119.9 56.057 120.009 56.123 120.187 56.2 C 120.367 56.278 120.607 56.377 120.901 56.496 C 120.954 56.571 120.977 56.676 120.977 56.813 C 120.977 56.877 120.97 56.932 120.952 56.978 C 120.936 57.024 120.901 57.067 120.849 57.102 L 118.93 57.791 C 118.724 57.91 118.468 58.052 118.168 58.218 C 117.866 58.383 117.499 58.571 117.066 58.782 C 116.754 58.938 116.336 59.129 115.809 59.353 C 115.279 59.579 114.669 59.829 113.981 60.103 C 113.618 60.206 113.385 60.644 113.283 61.418 C 113.179 62.195 113.022 62.605 112.814 62.651 C 112.382 62.633 112.053 62.605 111.828 62.568 C 111.602 62.532 111.492 62.472 111.492 62.39 C 111.492 62.244 111.506 62.055 111.531 61.825 C 111.558 61.596 111.614 61.33 111.699 61.026 L 111.569 60.957 C 111.326 61.022 111.063 61.089 110.779 61.157 C 110.496 61.226 110.211 61.302 109.938 61.384 C 109.401 61.531 108.896 61.641 108.417 61.714 C 107.944 61.789 107.508 61.825 107.11 61.825 C 106.334 61.825 105.737 61.736 105.323 61.557 C 104.908 61.377 104.701 61.109 104.701 60.75 C 104.701 60.494 105.281 60.154 106.449 59.731 C 107.614 59.31 109.366 58.814 111.699 58.245 C 111.891 58.198 112.053 58.1 112.19 57.948 C 112.329 57.797 112.406 57.588 112.424 57.322 C 112.458 57.14 112.469 56.951 112.451 56.758 C 112.434 56.565 112.424 56.377 112.424 56.194 C 112.474 55.578 112.527 54.968 112.58 54.362 Z M 112.734 45.632 C 112.302 45.77 111.942 45.936 111.648 46.128 C 111.354 46.321 111.129 46.537 110.973 46.775 C 110.782 47.271 110.602 47.748 110.429 48.207 C 110.568 48.392 110.714 48.575 110.87 48.758 C 111.024 48.943 111.197 49.135 111.387 49.336 C 111.612 49.557 111.828 49.748 112.036 49.908 C 112.244 50.069 112.451 50.186 112.659 50.259 C 112.798 50.223 112.866 50.177 112.866 50.121 L 112.607 49.667 C 112.607 49.457 112.614 49.195 112.631 48.882 C 112.649 48.57 112.666 48.189 112.683 47.739 C 112.718 47.317 112.749 46.946 112.775 46.624 C 112.8 46.303 112.814 46.032 112.814 45.811 L 112.734 45.632 Z M 114.704 55.367 C 114.619 55.395 114.559 55.468 114.524 55.587 C 114.491 55.708 114.473 55.873 114.473 56.083 C 114.473 56.46 114.447 56.76 114.398 56.985 C 114.343 57.21 114.291 57.355 114.238 57.419 C 114.154 57.501 114.084 57.573 114.032 57.632 C 113.981 57.692 113.954 57.745 113.954 57.791 C 113.954 57.837 114.023 57.873 114.161 57.901 C 114.386 57.828 114.608 57.752 114.823 57.673 C 115.037 57.596 115.241 57.52 115.432 57.446 C 115.709 57.336 115.906 57.236 116.027 57.143 C 116.149 57.051 116.211 56.955 116.211 56.854 C 116.211 56.588 116.091 56.332 115.847 56.083 C 115.606 55.836 115.224 55.598 114.704 55.367 Z" fill="white"/>
          <path d="M 128.831 41.123 C 129.5 41.012 130.227 40.93 131.017 40.874 C 131.805 40.82 132.679 40.792 133.637 40.792 C 133.817 40.792 134.083 40.809 134.433 40.839 C 134.781 40.873 135.06 40.888 135.272 40.888 C 135.581 40.916 135.817 40.943 135.982 40.97 C 136.159 40.998 136.403 41.032 136.713 41.067 L 137.395 40.957 C 137.541 40.966 137.699 41.001 137.872 41.06 C 138.041 41.12 138.249 41.187 138.493 41.26 C 138.624 41.214 138.811 41.158 139.055 41.094 C 139.299 41.094 139.496 41.148 139.651 41.253 C 139.805 41.358 139.908 41.508 139.958 41.701 C 139.958 41.848 139.958 41.993 139.958 42.134 C 139.958 42.277 139.94 42.426 139.908 42.581 C 139.891 42.656 139.9 42.77 139.932 42.926 C 139.965 43.082 139.981 43.202 139.981 43.284 C 139.981 43.385 139.94 43.458 139.86 43.504 C 139.779 43.55 139.673 43.573 139.542 43.573 C 138.924 43.573 138.314 43.544 137.71 43.484 C 137.109 43.425 136.508 43.335 135.906 43.214 C 135.388 43.271 134.931 43.312 134.54 43.339 C 134.232 43.358 134.004 43.385 133.858 43.421 C 133.71 43.458 133.637 43.504 133.637 43.559 C 133.702 43.623 133.791 43.693 133.907 43.766 C 134.022 43.84 134.16 43.908 134.321 43.972 C 134.434 44.018 134.565 44.117 134.711 44.268 C 134.858 44.419 135.013 44.624 135.174 44.881 C 135.24 44.982 135.285 45.078 135.309 45.17 C 135.333 45.263 135.346 45.35 135.346 45.432 C 135.346 45.624 135.312 45.865 135.248 46.155 C 135.182 46.444 135.111 46.68 135.031 46.864 C 134.883 47.223 134.769 47.519 134.687 47.752 C 134.607 47.986 134.54 48.163 134.492 48.281 C 134.459 48.374 134.434 48.484 134.418 48.612 C 134.401 48.741 134.386 48.889 134.37 49.053 C 134.354 49.191 134.287 49.363 134.174 49.569 C 134.061 49.777 133.946 50.013 133.832 50.278 C 133.832 50.399 133.808 50.536 133.76 50.691 C 133.711 50.847 133.647 51.027 133.564 51.228 C 133.517 51.349 133.438 51.483 133.334 51.634 C 133.228 51.786 133.126 51.963 133.029 52.165 C 133.059 52.303 133.084 52.446 133.101 52.592 C 133.036 52.85 132.971 53.116 132.905 53.39 C 132.81 53.785 132.711 54.185 132.612 54.588 C 132.516 54.993 132.426 55.382 132.344 55.758 C 132.248 55.868 132.142 55.992 132.027 56.131 C 132.027 56.195 132.047 56.294 132.088 56.426 C 132.13 56.559 132.149 56.668 132.149 56.75 C 132.149 56.851 132.117 57 132.052 57.197 C 131.986 57.395 131.953 57.54 131.953 57.631 C 131.953 57.806 131.944 58.077 131.93 58.443 C 131.914 58.811 131.907 59.087 131.907 59.27 C 131.986 59.426 132.061 59.578 132.124 59.724 C 132.075 59.853 132.023 59.957 131.968 60.034 C 131.91 60.112 131.831 60.174 131.734 60.22 C 131.442 60.321 131.174 60.403 130.93 60.467 C 130.767 60.559 130.634 60.634 130.528 60.688 C 130.423 60.744 130.329 60.771 130.246 60.771 C 129.889 60.771 129.636 60.744 129.491 60.688 C 129.344 60.634 129.27 60.559 129.27 60.467 C 129.304 60.165 129.36 59.871 129.442 59.587 C 129.408 59.551 129.372 59.496 129.33 59.421 C 129.292 59.348 129.231 59.256 129.148 59.146 C 129.067 58.43 128.961 57.696 128.831 56.942 C 128.878 56.401 128.903 55.855 128.903 55.304 C 128.903 55.048 128.925 54.723 128.964 54.334 C 129.006 53.944 129.083 53.492 129.196 52.978 C 129.311 52.464 129.392 52.014 129.442 51.628 C 129.491 51.243 129.514 50.927 129.514 50.678 C 129.514 50.568 129.536 50.428 129.575 50.258 C 129.617 50.089 129.661 49.88 129.71 49.631 C 129.758 49.421 129.808 49.23 129.857 49.059 C 129.905 48.89 129.931 48.738 129.931 48.599 C 129.931 48.526 129.922 48.448 129.905 48.365 C 129.889 48.283 129.871 48.208 129.857 48.144 C 130.018 47.916 130.14 47.73 130.22 47.587 C 130.303 47.446 130.345 47.351 130.345 47.305 C 130.278 47.185 130.207 47.066 130.127 46.946 C 130.223 46.817 130.329 46.587 130.442 46.251 C 130.555 45.916 130.677 45.478 130.808 44.936 C 130.808 44.826 130.808 44.694 130.808 44.537 C 130.808 44.381 130.816 44.192 130.832 43.972 L 130.687 43.725 C 130.62 43.707 130.504 43.684 130.332 43.655 C 130.162 43.628 129.945 43.605 129.686 43.586 L 129.369 43.71 C 129.157 43.739 128.942 43.766 128.722 43.794 C 128.502 43.822 128.272 43.854 128.028 43.89 C 126.334 44.157 124.658 44.418 123.002 44.674 C 122.871 44.674 122.764 44.645 122.683 44.585 C 122.601 44.526 122.561 44.445 122.561 44.344 C 122.561 44.29 122.601 44.194 122.683 44.055 C 122.764 43.918 122.895 43.739 123.073 43.518 C 123.108 43.198 123.147 42.931 123.197 42.72 C 123.246 42.509 123.301 42.348 123.368 42.238 C 123.496 42.035 123.696 41.866 123.963 41.728 C 124.232 41.59 124.554 41.485 124.927 41.411 C 125.677 41.274 126.376 41.182 127.026 41.135 C 127.676 41.091 128.277 41.087 128.831 41.123 Z" fill="white"/>
          <path d="M 148.375 53.071 C 148.375 53.255 148.549 53.499 148.897 53.807 C 149.247 54.115 149.77 54.494 150.468 54.944 C 150.922 55.229 151.39 55.505 151.875 55.776 C 152.358 56.046 152.838 56.321 153.316 56.596 C 153.525 56.724 153.794 56.892 154.125 57.099 C 154.456 57.305 154.842 57.546 155.283 57.822 C 155.601 58.005 155.935 58.188 156.283 58.371 C 156.633 58.555 157.009 58.739 157.414 58.923 C 157.683 59.079 157.983 59.249 158.314 59.433 C 158.645 59.616 159.024 59.812 159.454 60.024 C 159.699 60.134 159.888 60.334 160.023 60.624 C 160.158 60.912 160.238 61.286 160.262 61.745 L 160.097 62.104 L 159.914 62.172 C 159.791 62.172 159.628 62.133 159.426 62.055 C 159.224 61.977 158.97 61.866 158.663 61.718 C 158.602 61.69 158.323 61.589 157.826 61.414 C 157.33 61.24 156.617 60.993 155.687 60.671 C 155.173 60.506 154.701 60.32 154.273 60.113 C 153.843 59.907 153.451 59.689 153.095 59.46 C 152.888 59.322 152.621 59.171 152.297 59.006 C 151.972 58.841 151.589 58.661 151.149 58.469 C 150.694 58.275 150.302 58.092 149.971 57.918 C 149.64 57.743 149.378 57.596 149.182 57.477 C 148.52 57.073 147.981 56.765 147.564 56.554 C 147.149 56.342 146.86 56.237 146.701 56.237 C 146.579 56.367 146.512 56.5 146.499 56.637 C 146.352 57.069 146.196 57.613 146.03 58.269 C 145.865 58.925 145.685 59.689 145.489 60.561 C 145.489 60.717 145.452 60.834 145.378 60.912 C 145.304 60.99 145.194 61.03 145.047 61.03 C 144.57 61.03 144.208 60.943 143.963 60.768 C 143.719 60.593 143.597 60.331 143.597 59.983 C 143.597 59.515 143.636 59.024 143.715 58.51 C 143.794 57.996 143.927 57.454 144.109 56.885 C 144.172 56.637 144.217 56.414 144.249 56.217 C 144.279 56.019 144.294 55.839 144.294 55.673 C 144.294 55.252 144.051 54.889 143.568 54.585 C 143.085 54.283 142.842 54.067 142.842 53.938 C 142.842 53.737 142.881 53.56 142.961 53.408 C 143.041 53.257 143.162 53.135 143.32 53.043 C 143.725 52.851 144.098 52.668 144.442 52.492 C 144.528 52.455 144.586 52.393 144.616 52.306 C 144.647 52.219 144.663 52.097 144.663 51.942 C 144.663 51.85 144.663 51.751 144.663 51.646 C 144.663 51.54 144.663 51.441 144.663 51.35 C 144.699 50.533 144.729 49.684 144.753 48.803 C 144.753 48.738 144.753 48.636 144.753 48.499 C 144.753 48.362 144.741 48.183 144.716 47.962 C 144.692 47.797 144.686 47.643 144.697 47.501 C 144.71 47.358 144.716 47.228 144.716 47.108 C 144.642 46.925 144.578 46.766 144.523 46.634 C 144.47 46.501 144.442 46.374 144.442 46.255 C 144.442 46.145 144.454 45.973 144.477 45.738 C 144.503 45.504 144.515 45.337 144.515 45.236 C 144.515 45.108 144.5 44.928 144.47 44.699 C 144.438 44.469 144.423 44.295 144.423 44.176 C 144.423 43.845 144.523 43.528 144.725 43.226 C 144.927 42.922 145.237 42.625 145.654 42.331 C 146.058 42.074 146.471 41.879 146.894 41.745 C 147.316 41.612 147.747 41.546 148.189 41.546 C 148.398 41.546 148.707 41.557 149.118 41.58 C 149.527 41.603 149.849 41.615 150.083 41.615 C 150.241 41.615 150.675 41.716 151.387 41.917 C 151.668 41.936 151.92 41.962 152.14 41.994 C 152.361 42.026 152.538 42.06 152.673 42.097 C 152.979 42.207 153.219 42.292 153.39 42.352 C 153.561 42.412 153.685 42.445 153.757 42.454 C 153.966 42.509 154.146 42.556 154.299 42.593 C 154.453 42.63 154.578 42.675 154.676 42.73 C 154.836 42.785 155.022 42.85 155.237 42.923 C 155.451 42.997 155.692 43.08 155.962 43.171 C 156.404 43.336 156.816 43.528 157.202 43.749 C 157.588 43.969 157.953 44.208 158.295 44.465 C 158.687 44.795 158.982 45.119 159.178 45.436 C 159.374 45.752 159.473 46.068 159.473 46.379 C 159.473 46.47 159.462 46.601 159.445 46.771 C 159.426 46.942 159.393 47.132 159.343 47.343 C 159.306 47.608 159.121 47.895 158.792 48.203 C 158.461 48.511 157.983 48.848 157.358 49.216 C 156.807 49.537 156.293 49.805 155.814 50.021 C 155.337 50.237 154.897 50.391 154.493 50.482 C 154.334 50.565 154.21 50.644 154.125 50.717 C 154.001 50.808 153.744 50.936 153.354 51.101 C 152.962 51.267 152.428 51.474 151.754 51.722 C 150.529 52.171 149.659 52.468 149.145 52.61 C 148.631 52.752 148.375 52.906 148.375 53.071 Z M 146.445 46.434 C 146.678 46.306 146.897 46.179 147.104 46.055 C 147.313 45.93 147.583 45.869 147.914 45.869 C 148.061 45.869 148.242 45.991 148.456 46.234 C 148.671 46.478 148.778 46.659 148.778 46.778 C 148.778 46.843 148.748 46.989 148.685 47.219 C 148.624 47.448 148.525 47.761 148.39 48.156 C 148.109 49.046 147.951 49.604 147.914 49.828 C 147.878 50.053 147.798 50.404 147.675 50.882 C 147.625 51.001 147.576 51.156 147.527 51.35 C 147.527 51.433 147.549 51.492 147.592 51.529 C 147.636 51.565 147.694 51.583 147.766 51.583 C 150.205 50.665 151.467 50.189 151.552 50.151 C 151.651 50.133 151.754 50.108 151.866 50.076 C 151.975 50.044 152.079 50.01 152.176 49.973 L 152.452 49.712 C 153.162 49.372 153.897 49.009 154.657 48.624 C 155.135 48.348 155.489 48.077 155.723 47.811 C 155.957 47.546 156.073 47.279 156.073 47.012 C 156.073 46.673 155.81 46.338 155.283 46.007 C 154.756 45.677 153.966 45.36 152.912 45.058 C 152.018 44.791 151.204 44.596 150.468 44.472 C 149.733 44.347 149.066 44.286 148.465 44.286 C 147.681 44.286 147.091 44.39 146.692 44.596 C 146.294 44.803 146.095 45.108 146.095 45.511 C 146.095 45.823 146.126 46.06 146.187 46.22 C 146.248 46.38 146.333 46.452 146.445 46.434 Z" fill="white"/>
          <path d="M 166.368 58.994 C 166.853 58.994 167.236 59.029 167.518 59.098 C 167.798 59.167 167.971 59.261 168.033 59.38 L 167.801 60.44 C 167.753 60.57 167.723 60.7 167.707 60.834 C 167.689 60.966 167.659 61.096 167.612 61.226 C 167.532 61.345 167.4 61.432 167.212 61.487 C 167.023 61.543 166.766 61.569 166.439 61.569 C 166.187 61.569 165.838 61.604 165.394 61.673 C 164.948 61.741 164.607 61.776 164.371 61.776 C 164.012 61.776 163.743 61.682 163.563 61.494 C 163.382 61.305 163.292 61.014 163.292 60.62 C 163.292 60.252 163.64 59.889 164.336 59.531 C 165.033 59.174 165.71 58.994 166.368 58.994 Z M 165.899 50.403 C 166.071 50.1 166.204 49.834 166.297 49.604 C 166.391 49.375 166.439 49.182 166.439 49.026 C 166.439 48.943 166.419 48.835 166.378 48.703 C 166.341 48.57 166.313 48.251 166.297 47.745 C 166.204 47.765 166.102 47.774 165.992 47.774 L 165.593 47.621 L 165.523 47.429 C 165.523 47.217 165.636 46.91 165.864 46.506 C 166.089 46.102 166.187 45.805 166.156 45.611 L 166.133 44.882 C 166.102 44.753 166.114 44.608 166.168 44.447 C 166.221 44.287 166.313 44.124 166.439 43.959 C 166.564 43.758 166.705 43.595 166.862 43.471 C 167.018 43.346 167.188 43.267 167.376 43.23 C 167.454 43.202 167.545 43.176 167.647 43.154 C 167.75 43.131 167.846 43.111 167.94 43.091 C 168.238 42.954 168.52 42.823 168.787 42.699 C 169.052 42.575 169.295 42.449 169.514 42.321 C 169.904 42.165 170.262 42.04 170.581 41.949 C 170.903 41.857 171.186 41.811 171.439 41.811 C 171.644 41.811 171.787 41.869 171.873 41.983 C 171.959 42.098 172.002 42.27 172.002 42.499 C 172.002 42.636 171.975 42.818 171.918 43.044 C 171.864 43.268 171.774 43.528 171.651 43.822 C 171.524 44.124 171.421 44.386 171.343 44.606 C 171.265 44.827 171.218 45.006 171.202 45.143 C 171.186 45.345 171.117 45.71 170.992 46.238 C 170.868 46.766 170.68 47.443 170.428 48.268 C 170.257 48.82 170.045 49.519 169.796 50.368 C 169.544 51.218 169.256 52.202 168.926 53.323 C 168.926 53.424 168.907 53.543 168.868 53.68 C 168.83 53.817 168.787 53.988 168.739 54.189 C 168.708 54.244 168.669 54.307 168.621 54.375 C 168.576 54.444 168.512 54.516 168.434 54.589 C 168.402 54.653 168.347 54.853 168.268 55.187 C 168.19 55.522 168.106 55.998 168.011 56.613 C 167.964 56.787 167.553 57.074 166.779 57.473 C 166.004 57.873 165.484 58.073 165.217 58.073 C 165.046 58.064 164.937 58.036 164.889 57.989 C 164.889 57.945 164.88 57.857 164.866 57.728 C 164.85 57.6 164.841 57.504 164.841 57.44 L 165.078 56.874 C 165.015 56.544 164.953 56.222 164.889 55.91 C 164.889 55.699 164.902 55.498 164.924 55.305 C 164.947 55.112 164.976 54.923 165.006 54.74 C 165.101 54.529 165.194 54.359 165.287 54.231 C 165.336 54.139 165.374 54.043 165.406 53.942 C 165.438 53.84 165.454 53.758 165.454 53.694 C 165.438 53.455 165.429 53.23 165.429 53.019 C 165.429 53.065 165.433 53.038 165.44 52.937 C 165.449 52.835 165.459 52.675 165.475 52.455 C 165.507 52.371 165.523 52.292 165.523 52.214 C 165.523 52.136 165.523 52.051 165.523 51.959 C 165.695 51.674 165.816 51.404 165.886 51.146 C 165.957 50.89 165.96 50.642 165.899 50.403 Z" fill="white"/>
          <path d="M 179.726 62.217 C 179.652 62.217 179.576 62.217 179.501 62.217 C 179.427 62.217 179.33 62.217 179.21 62.217 C 178.851 62.217 178.546 62.153 178.299 62.023 C 178.051 61.895 177.883 61.694 177.793 61.418 C 177.764 61.335 177.742 61.181 177.726 60.957 C 177.71 60.732 177.704 60.431 177.704 60.054 C 177.704 59.899 177.681 59.656 177.636 59.325 C 177.591 58.994 177.569 58.751 177.569 58.594 C 177.569 58.539 177.587 58.443 177.623 58.306 C 177.661 58.169 177.688 57.98 177.704 57.741 C 177.735 57.522 177.764 57.255 177.793 56.942 C 177.764 56.649 177.712 56.36 177.636 56.076 C 177.741 55.589 177.861 55.093 177.998 54.589 C 178.009 54.516 177.999 54.383 177.963 54.189 C 177.926 53.995 177.908 53.867 177.908 53.803 C 177.908 53.739 177.932 53.646 177.984 53.521 C 178.037 53.397 178.064 53.298 178.064 53.225 C 178.064 53.134 178.037 53.06 177.984 53.005 C 177.932 52.95 177.855 52.923 177.751 52.923 C 177.674 52.941 177.587 52.961 177.491 52.984 C 177.392 53.007 177.291 53.033 177.186 53.06 C 177.097 53.069 176.986 53.088 176.849 53.115 C 176.714 53.142 176.55 53.174 176.353 53.211 L 176.152 53.129 L 176.086 52.991 C 176.221 52.844 176.359 52.702 176.501 52.564 C 176.643 52.427 176.772 52.288 176.893 52.151 C 177.029 52.032 177.195 51.925 177.389 51.834 C 177.584 51.743 177.787 51.651 177.998 51.559 C 178.16 51.504 178.299 51.358 178.41 51.118 C 178.523 50.879 178.61 50.531 178.67 50.072 C 178.731 49.549 178.799 49.122 178.873 48.791 C 178.947 48.461 179.022 48.236 179.098 48.117 C 179.156 48.007 179.233 47.865 179.321 47.69 C 179.321 47.635 179.298 47.548 179.255 47.429 C 179.208 47.31 179.186 47.226 179.186 47.18 C 179.291 46.759 179.395 46.35 179.501 45.955 C 179.68 45.386 180.056 44.817 180.627 44.248 C 181.196 43.678 181.959 43.082 182.917 42.458 C 183.907 41.861 185.339 41.429 187.213 41.164 C 187.422 41.19 187.608 41.219 187.775 41.246 L 188.516 41.08 C 188.59 41.08 188.683 41.094 188.797 41.123 C 188.908 41.149 189.056 41.19 189.235 41.246 C 189.58 41.182 189.88 41.135 190.132 41.108 C 190.388 41.082 190.591 41.067 190.739 41.067 C 191.671 41.067 192.363 41.143 192.821 41.294 C 193.278 41.446 193.506 41.678 193.506 41.989 C 193.506 42.165 193.487 42.362 193.449 42.581 C 193.413 42.802 193.349 43.04 193.259 43.298 C 193.153 43.637 193.034 43.891 192.899 44.062 C 192.764 44.232 192.615 44.326 192.449 44.344 C 192.06 44.233 191.664 44.131 191.259 44.035 C 190.855 43.939 190.434 43.835 190 43.725 L 189.189 43.917 C 188.936 43.899 188.659 43.876 188.36 43.849 C 188.103 43.849 187.814 43.864 187.493 43.896 C 187.169 43.928 186.837 43.972 186.491 44.027 C 185.548 44.164 185 44.355 184.851 44.599 C 184.703 44.842 184.447 45.17 184.087 45.583 C 183.967 45.675 183.775 46.047 183.514 46.698 C 183.251 47.351 182.903 48.277 182.467 49.48 C 182.454 49.535 182.398 49.632 182.3 49.769 C 182.203 49.907 182.154 50.022 182.154 50.113 C 182.154 50.242 182.193 50.341 182.267 50.409 C 182.341 50.478 182.438 50.518 182.559 50.527 C 182.782 50.462 183.086 50.391 183.469 50.313 C 183.851 50.235 184.311 50.15 184.851 50.058 C 185.331 50.021 185.813 49.973 186.301 49.914 C 186.787 49.854 187.294 49.778 187.82 49.686 C 187.968 49.686 188.156 49.686 188.381 49.686 C 188.606 49.686 188.869 49.686 189.168 49.686 C 189.678 49.631 190.195 49.576 190.719 49.521 C 191.588 49.521 192.239 49.596 192.673 49.749 C 193.108 49.9 193.327 50.113 193.327 50.389 C 193.327 50.444 193.314 50.585 193.292 50.809 C 193.269 51.033 193.237 51.334 193.191 51.71 C 192.996 51.922 192.793 52.137 192.583 52.357 C 192.449 52.357 192.105 52.323 191.55 52.255 C 190.996 52.186 190.209 52.082 189.189 51.945 C 188.83 52 188.439 52.043 188.021 52.075 C 187.602 52.107 187.166 52.124 186.718 52.124 C 186.433 52.124 186.025 52.151 185.491 52.206 C 184.96 52.261 184.552 52.293 184.269 52.302 C 184.071 52.394 183.874 52.461 183.671 52.502 C 183.469 52.543 183.27 52.564 183.074 52.564 C 182.97 52.564 182.739 52.55 182.377 52.523 C 182.184 52.523 181.997 52.63 181.817 52.847 C 181.638 53.062 181.48 53.394 181.345 53.844 L 181.12 54.436 L 181.277 54.863 L 180.852 56.503 C 180.852 56.567 180.862 56.642 180.883 56.729 C 180.907 56.817 180.917 56.906 180.917 56.997 C 180.724 57.732 180.584 58.451 180.5 59.153 C 180.419 59.854 180.377 60.554 180.377 61.253 C 180.377 61.4 180.325 61.555 180.22 61.721 C 180.116 61.886 179.951 62.051 179.726 62.217 Z" fill="white"/>
          <path d="M 208.033 55.937 C 208.033 55.827 207.84 55.703 207.454 55.566 C 207.067 55.428 206.474 55.272 205.669 55.098 C 205.186 55.007 204.71 54.92 204.241 54.836 C 203.772 54.753 203.302 54.657 202.833 54.547 C 202.59 54.483 202.409 54.433 202.287 54.395 C 202 54.34 201.708 54.288 201.412 54.238 C 201.117 54.188 200.819 54.13 200.516 54.065 C 200.304 53.992 200.146 53.884 200.038 53.742 C 199.932 53.599 199.879 53.408 199.879 53.17 L 199.765 52.839 C 199.765 52.684 199.89 52.478 200.141 52.22 C 200.391 51.963 200.758 51.655 201.243 51.297 C 202.303 50.536 203.321 49.731 204.296 48.881 C 205.273 48.031 206.194 47.148 207.057 46.23 C 207.192 46.111 207.313 45.96 207.42 45.777 C 207.42 45.647 207.284 45.546 207.011 45.473 C 206.738 45.4 206.321 45.363 205.761 45.363 C 205.08 45.363 204.248 45.424 203.264 45.549 C 202.278 45.673 201.129 45.854 199.812 46.093 C 199.403 46.184 199.025 46.271 198.677 46.355 C 198.434 46.4 198.225 46.439 198.051 46.471 C 197.877 46.503 197.723 46.52 197.585 46.52 C 197.314 46.52 197.113 46.479 196.983 46.396 C 196.855 46.312 196.791 46.184 196.791 46.01 C 196.791 45.919 196.829 45.772 196.904 45.569 C 196.981 45.368 197.102 45.106 197.269 44.785 C 197.481 44.372 197.749 44.026 198.074 43.745 C 198.399 43.464 198.79 43.246 199.243 43.091 C 199.516 42.999 199.93 42.914 200.483 42.836 C 201.034 42.758 201.712 42.691 202.514 42.636 C 202.817 42.563 203.175 42.497 203.592 42.438 C 204.009 42.377 204.491 42.339 205.035 42.32 C 205.473 42.311 205.909 42.306 206.34 42.306 C 206.771 42.306 207.207 42.292 207.647 42.265 C 208.161 42.256 208.669 42.29 209.169 42.368 C 209.667 42.447 210.16 42.577 210.644 42.761 C 211.174 42.972 211.572 43.205 211.836 43.463 C 212.102 43.721 212.234 43.991 212.234 44.276 C 212.234 44.569 212.163 44.84 212.019 45.087 C 211.875 45.334 211.666 45.569 211.393 45.789 C 209.046 47.717 207.275 49.202 206.08 50.244 C 204.884 51.286 204.285 51.898 204.285 52.082 C 204.285 52.192 204.467 52.309 204.83 52.433 C 205.195 52.557 205.716 52.697 206.397 52.853 C 207.352 53.055 208.162 53.243 208.828 53.417 C 209.493 53.593 210.009 53.762 210.371 53.927 C 211.113 54.212 211.658 54.531 212.006 54.884 C 212.356 55.237 212.53 55.635 212.53 56.076 C 212.349 57.095 210.925 58.223 208.259 59.462 C 208.108 59.526 207.908 59.62 207.657 59.744 C 207.407 59.869 207.11 59.999 206.761 60.138 C 205.263 60.67 203.808 61.18 202.399 61.666 C 202.188 61.693 201.924 61.73 201.606 61.776 C 201.288 61.822 200.947 61.877 200.583 61.941 C 200.281 62.024 200.038 62.089 199.855 62.133 C 199.674 62.18 199.539 62.203 199.448 62.203 C 199.101 62.203 198.802 62.194 198.552 62.174 C 198.301 62.157 198.092 62.124 197.926 62.078 C 197.427 62.133 196.958 62.189 196.518 62.244 C 196.049 62.244 195.696 62.2 195.463 62.113 C 195.228 62.026 195.11 61.89 195.11 61.707 C 195.11 61.495 195.371 61.298 195.894 61.114 C 196.416 60.931 197.199 60.656 198.246 60.289 C 199.137 59.977 200.242 59.563 201.56 59.049 C 202.878 58.535 204.399 57.924 206.124 57.218 C 206.578 56.952 207.033 56.695 207.488 56.447 C 207.654 56.328 207.787 56.23 207.886 56.151 C 207.983 56.073 208.033 56.001 208.033 55.937 Z" fill="white"/>
          <path d="M77.4465 32.667C73.6889 31.0488 69.7033 29.8651 65.5874 29.1592C65.0118 30.1474 64.5122 31.1248 64.0778 32.1783C59.7447 31.5484 55.2486 31.5484 50.9155 32.1783C50.4811 31.1248 49.9815 30.1474 49.406 29.1592C45.3552 29.8651 41.3804 31.0597 37.5468 32.743C30.1077 43.4835 28.0769 53.9417 29.0869 64.3347C33.4961 67.495 38.4156 69.8842 43.6176 71.4263C44.7687 69.8842 45.8547 68.266 46.7235 66.5827C45.062 65.9529 43.4004 65.1818 41.8148 64.3347C42.2492 64.0524 42.6076 63.77 43.042 63.4876C52.2187 67.7013 62.8398 67.7013 72.0925 63.4876C72.4509 63.77 72.8853 64.1284 73.3197 64.3347C71.7341 65.247 70.1486 66.018 68.411 66.5827C69.2798 68.266 70.3658 69.8842 71.5169 71.4263C76.7189 69.8842 81.6384 67.495 86.0476 64.3347C87.1988 52.3236 83.9516 41.9305 77.4465 32.667ZM47.9507 57.949C45.1271 57.949 42.7488 55.4187 42.7488 52.3996C42.7488 49.3805 44.9968 46.785 47.8856 46.785C50.7743 46.785 53.0875 49.3153 53.0875 52.3996C53.0875 55.4838 50.8395 57.949 47.9507 57.949ZM67.0317 57.949C64.2081 57.949 61.9058 55.4187 61.9058 52.3996C61.9058 49.3805 64.143 46.785 67.0317 46.785C69.9205 46.785 72.2445 49.3153 72.1685 52.3996C72.1685 55.4838 69.9205 57.949 67.0317 57.949Z" fill="white"/>
        </g>
      </g>
    </g>
  </g>
  <defs>
    <linearGradient id="paint0_linear_867_90017" x1="34.2909" y1="-100.075" x2="802.093" y2="531.113" gradientUnits="userSpaceOnUse">
      <stop stop-color="#FF16A6"/>
      <stop offset="0.42" stop-color="#FE4B72"/>
      <stop offset="0.64" stop-color="#FE803F"/>
      <stop offset="0.82" stop-color="#FEB44E"/>
      <stop offset="1" stop-color="#FEE75C"/>
    </linearGradient>
    <clipPath id="clip0_867_90017">
      <rect x="2" y="3" width="810.5" height="430" rx="44" fill="white"/>
    </clipPath>
    <clipPath id="clip1_867_90017">
      <rect width="900" height="600" fill="white" transform="translate(-43 -167)"/>
    </clipPath>
  </defs>
</svg>