<svg width="815" height="435" viewBox="0 0 815 435" fill="none" xmlns="http://www.w3.org/2000/svg">
<g clip-path="url(#clip0_4773_50884)">
<mask id="mask0_4773_50884" style="mask-type:luminance" maskUnits="userSpaceOnUse" x="0" y="0" width="815" height="435">
<path d="M0 0H815V435H0V0Z" fill="white"/>
</mask>
<g mask="url(#mask0_4773_50884)">
<g opacity="0.99">
<path d="M770.581 433.057H43.6025C20.6415 433.057 1.85547 414.27 1.85547 391.309V42.8603C1.85547 19.8993 20.6415 1.1123 43.6025 1.1123H770.581C793.543 1.1123 812.33 19.8993 812.33 42.8603V391.309C812.33 414.27 793.543 433.057 770.581 433.057Z" fill="url(#paint0_linear_4773_50884)"/>
<path d="M458.025 350.102H86.74C82.4199 350.102 78.918 346.6 78.918 342.28V322.822C78.918 318.502 82.4199 315 86.74 315H458.025C462.345 315 465.847 318.502 465.847 322.822V342.28C465.847 346.6 462.345 350.102 458.025 350.102Z" fill="#D80090"/>
<path d="M430.466 325.701H114.301V126.271H430.466V325.701Z" fill="#D80090"/>
<path d="M390.349 300.396H154.418V151.576H390.349V300.396Z" fill="#7F005B"/>
<path d="M441.607 154.917H103.16C100.754 154.917 98.8047 152.968 98.8047 150.562V129.288C98.8047 126.882 100.754 124.933 103.16 124.933H441.607C444.013 124.933 445.962 126.882 445.962 129.288V150.562C445.962 152.968 444.013 154.917 441.607 154.917Z" fill="#7F005B"/>
<path d="M458.025 136.694H86.74C82.4199 136.694 78.918 133.192 78.918 128.872V109.413C78.918 105.093 82.4199 101.592 86.74 101.592H458.025C462.345 101.592 465.847 105.093 465.847 109.413V128.872C465.847 133.192 462.345 136.694 458.025 136.694Z" fill="#D80090"/>
<path d="M364.343 201.374C339.809 180.319 307.917 167.595 273.051 167.595C236.177 167.595 202.629 181.826 177.594 205.093" stroke="#E557C4" stroke-width="0.974" stroke-miterlimit="10"/>
<path d="M364.307 298.454V245.399C344.521 215.886 310.861 196.458 272.66 196.458C232.548 196.458 197.442 217.879 178.148 249.903V300.013" stroke="#E557C4" stroke-width="0.974" stroke-miterlimit="10"/>
<g opacity="0.6">
<path d="M364.309 246.869V157.064" stroke="#E557C4" stroke-width="0.974" stroke-miterlimit="10"/>
</g>
<g opacity="0.6">
<path d="M178.176 204.26V157.064" stroke="#E557C4" stroke-width="0.974" stroke-miterlimit="10"/>
</g>
<g opacity="0.6">
<path d="M178.176 249.175V204.261" stroke="#E557C4" stroke-width="0.974" stroke-miterlimit="10"/>
</g>
<path d="M114.297 156.209H430.499" stroke="#D80090" stroke-width="2.565" stroke-miterlimit="10"/>
<path d="M113.152 315.493H430.723" stroke="#7F005B" stroke-width="2.57" stroke-miterlimit="10"/>
<g opacity="0.6">
<path d="M273.051 167.595V196.458" stroke="#E557C4" stroke-width="0.974" stroke-miterlimit="10"/>
</g>
<g opacity="0.6">
<path d="M296.67 169.689L293.133 198.819" stroke="#E557C4" stroke-width="0.974" stroke-miterlimit="10"/>
</g>
<g opacity="0.6">
<path d="M319.507 176.384L310.852 204.727" stroke="#E557C4" stroke-width="0.974" stroke-miterlimit="10"/>
</g>
<g opacity="0.6">
<path d="M339.197 184.652L327.391 209.845" stroke="#E557C4" stroke-width="0.974" stroke-miterlimit="10"/>
</g>
<g opacity="0.6">
<path d="M358.099 195.678L341.961 220.084" stroke="#E557C4" stroke-width="0.974" stroke-miterlimit="10"/>
</g>
<g opacity="0.6">
<path d="M363.609 221.272L354.953 232.683" stroke="#E557C4" stroke-width="0.974" stroke-miterlimit="10"/>
</g>
<g opacity="0.6">
<path d="M249.402 169.689L252.939 198.819" stroke="#E557C4" stroke-width="0.974" stroke-miterlimit="10"/>
</g>
<g opacity="0.6">
<path d="M226.562 176.384L235.219 204.727" stroke="#E557C4" stroke-width="0.974" stroke-miterlimit="10"/>
</g>
<g opacity="0.6">
<path d="M206.875 184.652L218.681 209.845" stroke="#E557C4" stroke-width="0.974" stroke-miterlimit="10"/>
</g>
<g opacity="0.6">
<path d="M187.973 195.678L204.111 220.084" stroke="#E557C4" stroke-width="0.974" stroke-miterlimit="10"/>
</g>
<g opacity="0.6">
<path d="M178.246 217.001L191.117 232.684" stroke="#E557C4" stroke-width="0.974" stroke-miterlimit="10"/>
</g>
<path d="M179.543 300.442H363.384ZM363.64 298.506V247.067V245.748C350.756 226.585 332.459 212.307 311.53 204.379L311.284 205.184L310.356 204.901L310.618 204.043C298.66 199.635 285.865 197.283 272.736 197.283C266.275 197.283 259.853 197.867 253.541 198.988L253.554 199.094L252.589 199.21L252.583 199.162C246.778 200.246 241.074 201.797 235.528 203.797L235.866 204.901L234.937 205.184L234.613 204.124C228.903 206.241 223.365 208.832 218.071 211.89C202.059 221.138 188.543 234.393 178.977 250.226V300.061" fill="#3F0331"/>
<path d="M221.066 300.312V292.057" stroke="black" stroke-width="3.896" stroke-miterlimit="10"/>
<path d="M318.414 300.312V292.057" stroke="black" stroke-width="3.896" stroke-miterlimit="10"/>
<path d="M213.844 292.4H325.64" stroke="black" stroke-width="3.896" stroke-miterlimit="10"/>
<path d="M281.989 239.284C276.975 235.556 273.481 230.98 271.256 227.391C270.67 226.446 270.176 225.578 269.763 224.804C269.35 225.578 268.855 226.446 268.269 227.391C266.044 230.98 262.55 235.556 257.536 239.284C247.73 246.576 234.657 252.107 236.668 268.953C238.679 285.799 252.005 290.324 252.005 290.324H269.417H270.108H287.52C287.52 290.324 300.846 285.799 302.857 268.953C304.868 252.107 291.795 246.576 281.989 239.284Z" fill="#E557C4"/>
<g opacity="0.36">
<path d="M277.638 249.842C274.574 247.403 272.439 244.41 271.079 242.063C270.721 241.445 270.419 240.876 270.166 240.37C269.913 240.876 269.612 241.445 269.254 242.063C267.894 244.41 265.759 247.403 262.695 249.842C256.703 254.612 248.714 258.229 249.943 269.248C251.172 280.267 259.315 283.228 259.315 283.228H269.955H270.377H281.018C281.018 283.228 289.161 280.267 290.39 269.248C291.619 258.229 283.63 254.612 277.638 249.842Z" fill="white"/>
</g>
<path d="M246.75 254.923C243.266 252.332 240.838 249.153 239.292 246.659C238.885 246.002 238.541 245.399 238.254 244.861C237.967 245.399 237.623 246.002 237.216 246.659C235.67 249.153 233.242 252.332 229.758 254.923C222.944 259.99 213.859 263.834 215.257 275.54C216.655 287.246 225.915 290.391 225.915 290.391H238.014H238.494H250.594C250.594 290.391 259.854 287.246 261.252 275.54C262.65 263.834 253.564 259.99 246.75 254.923Z" fill="#E557C4"/>
<g opacity="0.36">
<path d="M243.728 262.261C241.599 260.566 240.115 258.486 239.17 256.855C238.921 256.425 238.712 256.031 238.536 255.679C238.36 256.031 238.151 256.425 237.902 256.855C236.957 258.486 235.473 260.566 233.344 262.261C229.18 265.575 223.628 268.09 224.482 275.747C225.336 283.404 230.995 285.461 230.995 285.461H238.389H238.683H246.077C246.077 285.461 251.735 283.404 252.589 275.747C253.443 268.09 247.892 265.575 243.728 262.261Z" fill="white"/>
</g>
<path d="M311.25 254.923C307.766 252.332 305.338 249.153 303.792 246.659C303.385 246.002 303.041 245.399 302.754 244.861C302.467 245.399 302.123 246.002 301.716 246.659C300.17 249.153 297.742 252.332 294.258 254.923C287.444 259.99 278.359 263.834 279.757 275.54C281.155 287.246 290.414 290.391 290.414 290.391H302.514H302.994H315.094C315.094 290.391 324.354 287.246 325.752 275.54C327.15 263.834 318.064 259.99 311.25 254.923Z" fill="#E557C4"/>
<g opacity="0.36">
<path d="M308.228 262.261C306.099 260.566 304.615 258.486 303.67 256.855C303.421 256.425 303.212 256.031 303.036 255.679C302.86 256.031 302.65 256.425 302.401 256.855C301.456 258.486 299.973 260.566 297.844 262.261C293.68 265.575 288.128 268.09 288.982 275.747C289.836 283.404 295.495 285.461 295.495 285.461H302.889H303.182H310.576C310.576 285.461 316.235 283.404 317.089 275.747C317.943 268.09 312.392 265.575 308.228 262.261Z" fill="white"/>
</g>
<g opacity="0.32">
<path d="M812.334 371.513H1.78516V351.229H812.334V371.513Z" fill="#7F005B"/>
</g>
<path d="M36.6992 371.88V432.417" stroke="white" stroke-miterlimit="10"/>
<path d="M73.8984 371.88V432.417" stroke="white" stroke-miterlimit="10"/>
<path d="M111.098 371.88V432.417" stroke="white" stroke-miterlimit="10"/>
<path d="M148.293 371.88V432.417" stroke="white" stroke-miterlimit="10"/>
<path d="M185.492 371.88V432.417" stroke="white" stroke-miterlimit="10"/>
<path d="M222.691 371.88V432.417" stroke="white" stroke-miterlimit="10"/>
<path d="M259.891 371.88V432.417" stroke="white" stroke-miterlimit="10"/>
<path d="M297.09 371.88V432.417" stroke="white" stroke-miterlimit="10"/>
<path d="M334.289 371.88V432.417" stroke="white" stroke-miterlimit="10"/>
<path d="M371.484 371.88V432.417" stroke="white" stroke-miterlimit="10"/>
<path d="M408.684 371.88V432.417" stroke="white" stroke-miterlimit="10"/>
<path d="M445.883 371.88V432.417" stroke="white" stroke-miterlimit="10"/>
<path d="M483.082 371.88V432.417" stroke="white" stroke-miterlimit="10"/>
<path d="M520.281 371.88V432.417" stroke="white" stroke-miterlimit="10"/>
<path d="M557.48 371.88V432.417" stroke="white" stroke-miterlimit="10"/>
<path d="M594.68 371.88V432.417" stroke="white" stroke-miterlimit="10"/>
<path d="M631.875 371.88V432.417" stroke="white" stroke-miterlimit="10"/>
<path d="M669.074 371.88V432.417" stroke="white" stroke-miterlimit="10"/>
<path d="M706.273 371.88V432.417" stroke="white" stroke-miterlimit="10"/>
<path d="M743.473 371.88V432.417" stroke="white" stroke-miterlimit="10"/>
<path d="M780.672 371.88V432.417" stroke="white" stroke-miterlimit="10"/>
</g>
</g>
<path d="M606.612 267.703C606.612 267.703 568.262 267.703 529.912 267.703C515.481 267.703 505.492 272.34 498.647 278.124C489.596 285.773 484.59 297.184 484.59 309.034V388.811C484.59 411.459 502.949 429.819 525.597 429.819H647.12C669.768 429.819 688.127 411.459 688.127 388.811V309.002C688.127 297.651 683.55 286.67 675.133 279.054C668.272 272.845 658.002 267.703 642.804 267.703C604.455 267.703 566.105 267.703 566.105 267.703" fill="#698EFF"/>
<path d="M482.568 375.945C482.568 375.945 518.689 365.806 518.689 339.824C518.689 313.842 518.689 282.674 518.689 282.674H542.46V311.941C542.46 311.941 543.727 321.446 551.965 321.446C560.203 321.446 592.834 321.446 592.834 321.446L593.86 432.935H524.672C524.672 432.935 476.04 435.936 482.568 375.945Z" fill="white"/>
<path d="M686.265 375.945C686.265 375.945 650.143 365.806 650.143 339.824C650.143 313.842 650.143 282.674 650.143 282.674H626.373V311.941C626.373 311.941 625.105 321.446 616.867 321.446C608.629 321.446 575.999 321.446 575.999 321.446L574.973 432.935H644.161C644.161 432.935 692.793 435.936 686.265 375.945Z" fill="white"/>
<path d="M652.734 254.208C656.585 276.781 631.997 299.808 597.814 305.639C563.631 311.471 532.799 297.899 528.948 275.326C525.097 252.752 549.685 229.726 583.868 223.894C618.051 218.062 648.883 231.635 652.734 254.208Z" fill="#4B67EC"/>
<path d="M621.017 56.8096H546.75V117.347H621.017V56.8096Z" fill="#56F186"/>
<path d="M621.955 50.5694C621.955 71.595 604.911 88.6388 583.886 88.6388C562.86 88.6388 545.816 71.595 545.816 50.5694C545.816 29.5438 562.86 12.5 583.886 12.5C604.911 12.5 621.955 29.5438 621.955 50.5694Z" fill="#56F186"/>
<path d="M567.372 77.5961C567.372 92.6561 554.087 104.865 537.7 104.865C521.313 104.865 508.027 92.6561 508.027 77.5961C508.027 62.5362 521.313 50.3271 537.7 50.3271C554.087 50.3271 567.372 62.5362 567.372 77.5961Z" fill="#56F186"/>
<path d="M659.739 77.5961C659.739 92.6561 646.454 104.865 630.067 104.865C613.679 104.865 600.395 92.6561 600.395 77.5961C600.395 62.5362 613.679 50.3271 630.067 50.3271C646.454 50.3271 659.739 62.5362 659.739 77.5961Z" fill="#56F186"/>
<path d="M621.957 50.5684C621.957 58.024 619.813 64.9791 616.109 70.851" stroke="#008B42" stroke-width="6" stroke-linecap="round" stroke-linejoin="round"/>
<path d="M547.289 50.5693C547.289 58.0249 549.432 64.98 553.136 70.852" stroke="#008B42" stroke-width="6" stroke-linecap="round" stroke-linejoin="round"/>
<path d="M567.043 116.794V96.5723" stroke="#008B42" stroke-width="6" stroke-linecap="round" stroke-linejoin="round"/>
<path d="M600.746 116.794V96.5723" stroke="#008B42" stroke-width="6" stroke-linecap="round" stroke-linejoin="round"/>
<path d="M712.366 243.099L698.971 243.268C682.65 243.473 669.127 230.287 668.922 213.966L668.561 185.324C668.356 169.003 681.541 155.48 697.862 155.274L711.258 155.106C727.579 154.9 741.102 168.087 741.307 184.408L741.668 213.049C741.873 229.371 728.687 242.893 712.366 243.099Z" fill="#698EFF"/>
<path d="M713.243 222.899L697.505 223.097C694.731 223.132 692.432 220.89 692.397 218.116L691.887 177.641C691.852 174.858 694.099 172.554 696.882 172.518L712.606 172.32C719.112 172.238 724.501 177.494 724.583 183.999L724.923 210.921C725.005 217.427 719.749 222.817 713.243 222.899Z" fill="#B7CDFF"/>
<path d="M446.589 244.166L459.986 244.227C476.309 244.301 489.724 231.007 489.799 214.684L489.93 186.04C490.005 169.717 476.71 156.302 460.387 156.227L446.991 156.166C430.668 156.092 417.253 169.385 417.178 185.708L417.047 214.352C416.972 230.675 430.266 244.091 446.589 244.166Z" fill="#698EFF"/>
<path d="M445.553 223.973L461.292 224.045C464.067 224.057 466.348 221.797 466.36 219.023L466.545 178.545C466.558 175.763 464.291 173.475 461.508 173.462L445.784 173.391C439.277 173.361 433.93 178.66 433.901 185.166L433.777 212.09C433.748 218.595 439.046 223.944 445.553 223.973Z" fill="#B7CDFF"/>
<path d="M643.032 279.165C611.91 280.986 540.78 281.955 513.483 279.161C486.333 276.383 456.73 254.064 457.289 222.54L456.438 173.577C456.928 127.344 479.713 114.787 520.837 111.549C564.764 108.09 634.024 109.352 648.74 109.877C689.101 111.318 708.767 135.991 708.208 167.515L708.337 223.481C707.72 258.285 681.839 276.895 643.032 279.165Z" fill="#698EFF"/>
<path d="M608.338 228.908L560.584 229.217C542.634 229.333 527.853 214.742 527.737 196.793L527.563 169.864C527.495 159.315 536.07 150.628 546.619 150.56L616.687 150.106C626.815 150.04 635.155 158.273 635.22 168.401L635.434 201.458C635.531 216.458 623.338 228.811 608.338 228.908Z" fill="#B7CDFF"/>
<path d="M608.108 209.635L596.928 209.777C593.093 209.825 589.916 206.727 589.868 202.891L589.864 202.595C589.815 198.759 592.914 195.582 596.749 195.534L607.929 195.393C611.765 195.345 614.942 198.443 614.99 202.278L614.994 202.575C615.042 206.411 611.944 209.587 608.108 209.635Z" fill="#698EFF"/>
<path d="M567.323 210.15L556.143 210.29C552.308 210.339 549.131 207.241 549.083 203.405L549.079 203.108C549.03 199.273 552.128 196.097 555.964 196.048L567.144 195.907C570.979 195.858 574.156 198.957 574.204 202.792L574.208 203.089C574.257 206.924 571.159 210.101 567.323 210.15Z" fill="#698EFF"/>
<path d="M629.413 231.332C626.07 232.283 614.373 236.673 609.036 240.059C604.345 243.035 600.867 245.656 604.835 251.786C608.804 257.916 621.58 263.707 632.98 260.129C644.381 256.552 650.078 245.493 650.108 238.74C650.108 238.74 650.611 233.241 647.14 230.308C643.67 227.376 634.887 229.776 629.413 231.332Z" fill="#E9459C"/>
<path d="M611.73 257.736C611.73 257.736 625.674 240.095 650.125 236.916C650.125 236.916 652.303 249.155 637.906 258.125C625.508 265.85 611.73 257.736 611.73 257.736Z" fill="#FFACD6"/>
<path d="M669.252 186.965C669.339 193.902 663.786 199.597 656.849 199.684C649.912 199.771 644.217 194.218 644.13 187.281C644.043 180.344 649.596 174.649 656.533 174.562C663.47 174.474 669.165 180.028 669.252 186.965Z" fill="#080201"/>
<path d="M518.694 187.568C518.781 194.505 513.228 200.2 506.291 200.287C499.354 200.375 493.658 194.821 493.571 187.884C493.484 180.947 499.037 175.252 505.974 175.165C512.911 175.078 518.607 180.631 518.694 187.568Z" fill="#080201"/>
<path d="M526.803 326.065C526.803 326.065 534.751 324.423 543.972 322.913C553.193 321.403 576.961 322.598 583.398 346.128C589.835 369.658 572.877 384.261 549.2 389.98C521.317 396.715 463.867 389.878 447.316 360.671C413.771 301.474 496.294 281.73 496.294 281.73L511.014 327.878" fill="#698EFF"/>
<path d="M644.779 326.065C644.779 326.065 636.831 324.423 627.61 322.913C618.389 321.403 594.621 322.598 588.184 346.128C581.747 369.658 598.705 384.261 622.382 389.98C650.265 396.715 707.715 389.878 724.266 360.671C757.811 301.474 675.288 281.73 675.288 281.73L660.568 327.878" fill="#698EFF"/>
<path d="M528.666 266C535.833 265.885 541.409 264.899 547.546 261.873L547.897 261.699C554.01 258.623 558.157 254.768 562.566 249.117C569.576 240.133 579.338 235.733 587.842 234.176L580.663 219.76C579.055 216.532 575.098 215.206 571.87 216.814L493.217 255.984C489.989 257.592 488.663 261.548 490.271 264.777L498.16 280.618C504.312 273.498 515.064 266.217 528.666 266Z" fill="white"/>
<path d="M618.514 295.765L587.842 234.175C579.338 235.732 569.576 240.132 562.566 249.116C558.156 254.767 554.01 258.622 547.897 261.698L547.546 261.873C541.409 264.898 535.832 265.885 528.666 265.999C515.064 266.216 504.312 273.498 498.159 280.617L527.841 340.217C535.455 327.65 549.197 315.305 566.908 306.485C585.086 297.432 603.704 293.959 618.514 295.765Z" fill="#FF78B9"/>
<path d="M552.546 375.113L631.198 335.943C634.427 334.335 635.752 330.378 634.144 327.15L618.514 295.765C603.704 293.959 585.086 297.432 566.909 306.485C549.197 315.306 535.455 327.651 527.841 340.218L543.752 372.166C545.36 375.395 549.317 376.721 552.546 375.113Z" fill="#F3DC2C"/>
<path d="M666.225 276.641L668.191 277.392C668.191 277.392 672.553 279.058 674.009 275.25C675.464 271.441 676.449 268.861 676.449 268.861C676.449 268.861 677.576 265.912 673.214 264.246C671.249 263.495 666.755 261.778 662.409 260.117C657.109 258.093 652.031 256.152 652.031 256.152C647.685 254.492 643.191 252.775 641.225 252.024C636.863 250.357 635.737 253.306 635.737 253.306C635.737 253.306 634.751 255.886 633.296 259.695C631.841 263.504 636.203 265.17 636.203 265.17L638.168 265.921" fill="#E0E0E0"/>
<path d="M638.166 265.922C635.671 267.292 636.689 269.758 636.689 269.758C636.689 269.758 635.237 274.352 630.551 277.104C625.865 279.857 612.274 287.686 606.821 301.958C601.368 316.23 588.572 349.722 588.572 349.722C588.572 349.722 586.009 357.102 596.62 361.157C600.123 362.495 604.28 364.083 608.21 365.584C608.21 365.584 614.755 368.085 622.094 370.889C626.024 372.391 630.181 373.979 633.683 375.317C644.295 379.371 647.306 372.162 647.306 372.162C647.306 372.162 660.102 338.67 665.555 324.398C671.007 310.126 666.099 295.229 664.442 290.053C662.786 284.877 664.766 280.485 664.766 280.485C664.766 280.485 667.169 279.326 666.223 276.641" fill="#AAD7F4"/>
<path d="M612.207 304.018C607.755 315.671 595.32 348.218 595.32 348.218C595.32 348.218 593.227 354.244 601.892 357.554C604.752 358.647 608.146 359.944 611.355 361.17C611.355 361.17 616.7 363.212 622.693 365.501C625.902 366.727 629.296 368.024 632.156 369.117C640.821 372.427 643.279 366.541 643.279 366.541C643.279 366.541 655.714 333.994 660.166 322.341L612.207 304.018Z" fill="white"/>
<path d="M637.211 250.656L667.999 262.419" stroke="#6996AF" stroke-width="5" stroke-linecap="round" stroke-linejoin="round"/>
<path d="M595.698 319.248C596.956 333.303 589.18 344.511 571.577 343.493C556.239 342.607 547.029 330.315 550.411 316.63C554.024 302.008 564.52 288.948 574.713 289.249C585.675 289.572 594.308 303.716 595.698 319.248Z" fill="white"/>
<path d="M595.698 319.248C596.956 333.303 589.18 344.511 571.577 343.493C556.239 342.607 547.029 330.315 550.411 316.63C554.024 302.008 564.52 288.948 574.713 289.249C585.675 289.572 594.308 303.716 595.698 319.248Z" stroke="#C1C1C1" stroke-width="4" stroke-linecap="round" stroke-linejoin="round"/>
<path d="M630.09 338.618C629.361 352.71 620.087 362.715 602.802 359.234C587.74 356.202 580.348 342.738 585.619 329.664C591.251 315.694 603.477 304.238 613.527 305.968C624.334 307.828 630.895 323.045 630.09 338.618Z" fill="white"/>
<path d="M630.09 338.618C629.361 352.71 620.087 362.715 602.802 359.234C587.74 356.202 580.348 342.738 585.619 329.664C591.251 315.694 603.477 304.238 613.527 305.968C624.334 307.828 630.895 323.045 630.09 338.618Z" stroke="#C1C1C1" stroke-width="4" stroke-linecap="round" stroke-linejoin="round"/>
<path d="M556.389 319.795C562.484 332.521 559.119 345.741 542.273 350.945C527.593 355.48 514.665 347.186 513.047 333.183C511.317 318.22 516.582 302.314 526.236 299.031C536.619 295.499 549.654 305.73 556.389 319.795Z" fill="white"/>
<path d="M556.389 319.795C562.484 332.521 559.119 345.741 542.273 350.945C527.593 355.48 514.665 347.186 513.047 333.183C511.317 318.22 516.582 302.314 526.236 299.031C536.619 295.499 549.654 305.73 556.389 319.795Z" stroke="#C1C1C1" stroke-width="4" stroke-linecap="round" stroke-linejoin="round"/>
<path d="M677.091 378.525C677.091 381.878 674.372 384.597 671.019 384.597C667.666 384.597 664.948 381.878 664.948 378.525C664.948 377.491 665.207 376.518 665.664 375.666H651.449C651.905 376.518 652.165 377.491 652.165 378.525C652.165 381.878 649.446 384.597 646.093 384.597C642.74 384.597 640.022 381.878 640.022 378.525C640.022 377.491 640.282 376.518 640.738 375.666H625.794C626.25 376.518 626.51 377.491 626.51 378.525C626.51 381.878 623.792 384.597 620.439 384.597C617.086 384.597 614.368 381.878 614.368 378.525C614.368 377.491 614.627 376.518 615.083 375.666H600.868C601.324 376.518 601.584 377.491 601.584 378.525C601.584 381.878 598.866 384.597 595.513 384.597C592.16 384.597 589.442 381.878 589.442 378.525C589.442 377.491 589.701 376.518 590.157 375.666H575.214C575.67 376.518 575.93 377.491 575.93 378.525C575.93 381.878 573.211 384.597 569.858 384.597C566.505 384.597 563.787 381.878 563.787 378.525C563.787 377.491 564.047 376.518 564.503 375.666H550.288C550.744 376.518 551.004 377.491 551.004 378.525C551.004 381.878 548.285 384.597 544.932 384.597C541.579 384.597 538.862 381.878 538.862 378.525C538.862 377.491 539.121 376.518 539.577 375.666H524.633C525.089 376.518 525.349 377.491 525.349 378.525C525.349 381.878 522.631 384.597 519.278 384.597C518.416 384.597 517.598 384.414 516.855 384.091L521.315 387.785L532.945 378.15L533.645 377.571L534.344 378.15L546.047 387.845L557.75 378.15L558.449 377.571L559.148 378.15L570.78 387.785L582.41 378.15L583.109 377.571L583.809 378.15L595.511 387.845L607.214 378.15L607.913 377.571L608.612 378.15L620.243 387.785L631.874 378.15L632.574 377.571L633.273 378.15L644.976 387.845L656.678 378.15L657.377 377.571L658.076 378.15L669.707 387.785L677.987 380.927C678.764 379.2 679.505 377.453 680.161 375.666H676.374C676.831 376.518 677.091 377.491 677.091 378.525Z" fill="#FEE75C"/>
<path d="M508.986 377.571L509.686 378.15L514.259 381.939C513.596 380.966 513.208 379.792 513.208 378.525C513.208 377.491 513.468 376.518 513.924 375.666H499.709C500.165 376.518 500.425 377.491 500.425 378.525C500.425 381.759 497.895 384.395 494.707 384.579C495.285 385.703 495.88 386.817 496.505 387.911L508.287 378.15L508.986 377.571Z" fill="#FEE75C"/>
<path d="M577.348 390.561H588.865L583.106 385.79L577.348 390.561Z" fill="#FEE75C"/>
<path d="M669.708 388.969L668.995 388.378L657.378 378.755L645.676 388.45L644.977 389.029L644.277 388.45L632.575 378.755L620.958 388.378L620.244 388.969L619.531 388.378L607.914 378.755L596.211 388.45L595.512 389.029L594.814 388.45L583.111 378.755L571.494 388.378L570.781 388.969L570.067 388.378L558.45 378.755L546.747 388.45L546.048 389.029L545.349 388.45L533.646 378.755L522.03 388.378L521.316 388.969L520.603 388.378L508.986 378.755L496.973 388.707C497.335 389.325 497.684 389.952 498.062 390.56H501.798L508.287 385.186L508.986 384.606L509.685 385.186L516.175 390.56H526.458L532.946 385.186L533.646 384.606L534.345 385.186L540.834 390.56H551.263L557.751 385.186L558.45 384.606L559.15 385.186L565.638 390.56H575.922L582.411 385.185L583.111 384.605L583.81 385.185L590.298 390.56H600.727L607.215 385.185L607.914 384.605L608.614 385.185L615.102 390.56H625.386L631.875 385.186L632.575 384.606L633.274 385.186L639.762 390.56H650.191L656.679 385.186L657.378 384.606L658.078 385.186L664.567 390.56H672.88C674.425 388.071 675.833 385.491 677.112 382.836L670.422 388.378L669.708 388.969Z" fill="#FEE75C"/>
<path d="M527.887 390.561H539.404L533.645 385.791L527.887 390.561Z" fill="#FEE75C"/>
<path d="M552.691 390.56H564.208L558.45 385.79L552.691 390.56Z" fill="#FEE75C"/>
<path d="M503.227 390.561H514.744L508.985 385.791L503.227 390.561Z" fill="#FEE75C"/>
<path d="M651.621 390.56H663.138L657.38 385.79L651.621 390.56Z" fill="#FEE75C"/>
<path d="M626.816 390.56H638.333L632.575 385.79L626.816 390.56Z" fill="#FEE75C"/>
<path d="M602.152 390.561H613.669L607.911 385.79L602.152 390.561Z" fill="#FEE75C"/>
<path d="M674.346 336.94H496.593C490.667 336.94 485.82 341.788 485.82 347.714C485.82 350.984 486.021 354.209 486.4 357.381H684.54C684.918 354.209 685.119 350.984 685.119 347.714C685.119 341.788 680.271 336.94 674.346 336.94Z" fill="#EB459E"/>
<path d="M488.013 366.47L495.946 359.898L496.646 359.319L497.345 359.898L508.976 369.533L520.606 359.898L521.306 359.319L522.005 359.898L533.708 369.593L545.41 359.898L546.11 359.319L546.809 359.898L558.44 369.533L570.07 359.898L570.77 359.319L571.469 359.898L583.172 369.593L594.875 359.898L595.574 359.319L596.273 359.898L607.904 369.533L619.534 359.898L620.234 359.319L620.934 359.898L632.636 369.593L644.339 359.898L645.038 359.319L645.737 359.898L657.368 369.533L668.998 359.898L669.698 359.319L670.397 359.898L682.111 369.602C683.219 365.639 684.04 361.557 684.538 357.381H486.398C486.767 360.465 487.309 363.499 488.013 366.47Z" fill="#FEE75C"/>
<path d="M658.082 370.126L657.368 370.717L656.655 370.126L645.038 360.503L633.336 370.198L632.636 370.777L631.937 370.198L620.234 360.503L608.618 370.126L607.904 370.717L607.191 370.126L595.574 360.502L583.872 370.198L583.172 370.777L582.473 370.198L570.77 360.502L559.154 370.126L558.44 370.717L557.727 370.126L546.11 360.503L534.407 370.198L533.708 370.777L533.009 370.198L521.306 360.503L509.69 370.126L508.976 370.717L508.263 370.126L496.646 360.503L488.258 367.452C488.82 369.701 489.476 371.912 490.22 374.084C491.304 373.075 492.754 372.453 494.352 372.453C496.671 372.453 498.684 373.754 499.707 375.665H513.922C514.944 373.754 516.958 372.453 519.278 372.453C521.597 372.453 523.61 373.754 524.633 375.665H539.577C540.599 373.754 542.613 372.453 544.932 372.453C547.251 372.453 549.265 373.754 550.288 375.665H564.503C565.525 373.754 567.539 372.453 569.858 372.453C572.177 372.453 574.191 373.754 575.214 375.665H590.157C591.179 373.754 593.194 372.453 595.513 372.453C597.832 372.453 599.845 373.754 600.868 375.665H615.083C616.105 373.754 618.12 372.453 620.439 372.453C622.758 372.453 624.771 373.754 625.794 375.665H640.738C641.76 373.754 643.774 372.453 646.093 372.453C648.412 372.453 650.426 373.754 651.449 375.665H665.663C666.685 373.754 668.7 372.453 671.019 372.453C673.338 372.453 675.352 373.754 676.374 375.665H680.161C680.776 373.989 681.331 372.284 681.837 370.559L669.698 360.503L658.082 370.126Z" fill="#FEE75C"/>
<path d="M669.7 359.318L669.001 359.898L657.37 369.533L645.74 359.898L645.04 359.318L644.341 359.898L632.638 369.593L620.936 359.898L620.236 359.318L619.537 359.898L607.906 369.533L596.276 359.898L595.576 359.318L594.877 359.898L583.174 369.593L571.471 359.898L570.772 359.318L570.073 359.898L558.442 369.533L546.812 359.898L546.112 359.318L545.413 359.898L533.71 369.593L522.007 359.898L521.308 359.318L520.608 359.898L508.978 369.533L497.347 359.898L496.648 359.318L495.949 359.898L488.016 366.47C488.094 366.799 488.178 367.125 488.26 367.452L496.648 360.503L508.265 370.125L508.978 370.717L509.692 370.125L521.308 360.503L533.011 370.198L533.71 370.777L534.409 370.198L546.112 360.503L557.729 370.126L558.442 370.717L559.156 370.126L570.772 360.502L582.475 370.198L583.174 370.777L583.873 370.198L595.576 360.502L607.193 370.126L607.906 370.717L608.619 370.126L620.236 360.503L631.939 370.198L632.638 370.777L633.338 370.198L645.04 360.503L656.657 370.125L657.37 370.717L658.084 370.125L669.7 360.503L681.838 370.558C681.931 370.24 682.023 369.922 682.113 369.602L670.399 359.898L669.7 359.318Z" fill="white"/>
<path d="M669.7 359.318L669.001 359.898L657.37 369.533L645.74 359.898L645.04 359.318L644.341 359.898L632.638 369.593L620.936 359.898L620.236 359.318L619.537 359.898L607.906 369.533L596.276 359.898L595.576 359.318L594.877 359.898L583.174 369.593L571.471 359.898L570.772 359.318L570.073 359.898L558.442 369.533L546.812 359.898L546.112 359.318L545.413 359.898L533.71 369.593L522.007 359.898L521.308 359.318L520.608 359.898L508.978 369.533L497.347 359.898L496.648 359.318L495.949 359.898L488.016 366.47C488.094 366.799 488.178 367.125 488.26 367.452L496.648 360.503L508.265 370.125L508.978 370.717L509.692 370.125L521.308 360.503L533.011 370.198L533.71 370.777L534.409 370.198L546.112 360.503L557.729 370.126L558.442 370.717L559.156 370.126L570.772 360.502L582.475 370.198L583.174 370.777L583.873 370.198L595.576 360.502L607.193 370.126L607.906 370.717L608.619 370.126L620.236 360.503L631.939 370.198L632.638 370.777L633.338 370.198L645.04 360.503L656.657 370.125L657.37 370.717L658.084 370.125L669.7 360.503L681.838 370.558C681.931 370.24 682.023 369.922 682.113 369.602L670.399 359.898L669.7 359.318Z" stroke="white" stroke-width="1.077" stroke-miterlimit="10"/>
<path d="M658.077 378.15L657.377 377.57L656.678 378.15L644.976 387.845L633.273 378.15L632.574 377.57L631.874 378.15L620.243 387.785L608.613 378.15L607.913 377.57L607.214 378.15L595.511 387.845L583.809 378.15L583.11 377.57L582.41 378.15L570.78 387.785L559.148 378.15L558.449 377.57L557.75 378.15L546.047 387.845L534.344 378.15L533.645 377.57L532.945 378.15L521.315 387.785L516.856 384.09C515.8 383.63 514.9 382.88 514.258 381.938L509.684 378.15L508.985 377.57L508.286 378.15L496.504 387.911C496.657 388.178 496.816 388.441 496.972 388.707L508.985 378.755L520.601 388.377L521.315 388.969L522.029 388.377L533.645 378.755L545.348 388.45L546.047 389.029L546.746 388.45L558.449 378.755L570.066 388.378L570.78 388.969L571.493 388.378L583.11 378.755L594.812 388.45L595.511 389.029L596.21 388.45L607.913 378.755L619.53 388.378L620.243 388.969L620.957 388.378L632.574 378.755L644.276 388.45L644.976 389.029L645.675 388.45L657.377 378.755L668.994 388.377L669.707 388.969L670.421 388.377L677.111 382.836C677.414 382.205 677.699 381.564 677.987 380.926L669.707 387.785L658.077 378.15Z" fill="#FEE75C"/>
<path d="M646.095 384.597C649.448 384.597 652.167 381.878 652.167 378.525C652.167 377.491 651.907 376.518 651.451 375.666H640.74C640.284 376.518 640.023 377.491 640.023 378.525C640.023 381.878 642.742 384.597 646.095 384.597Z" fill="#EB459E"/>
<path d="M646.093 372.453C643.774 372.453 641.761 373.754 640.738 375.666H651.449C650.427 373.754 648.412 372.453 646.093 372.453Z" fill="#EB459E"/>
<path d="M671.021 384.597C674.374 384.597 677.093 381.878 677.093 378.525C677.093 377.491 676.832 376.518 676.376 375.666H665.665C665.209 376.518 664.949 377.491 664.949 378.525C664.949 381.878 667.668 384.597 671.021 384.597Z" fill="white"/>
<path d="M671.02 372.453C668.701 372.453 666.686 373.754 665.664 375.666H676.375C675.353 373.754 673.339 372.453 671.02 372.453Z" fill="white"/>
<path d="M595.513 384.597C598.866 384.597 601.584 381.878 601.584 378.525C601.584 377.491 601.324 376.518 600.868 375.666H590.157C589.701 376.518 589.441 377.491 589.441 378.525C589.441 381.878 592.16 384.597 595.513 384.597Z" fill="#EB459E"/>
<path d="M595.516 372.453C593.197 372.453 591.183 373.754 590.16 375.666H600.871C599.849 373.754 597.835 372.453 595.516 372.453Z" fill="#EB459E"/>
<path d="M620.439 384.597C623.792 384.597 626.51 381.878 626.51 378.525C626.51 377.491 626.25 376.518 625.794 375.666H615.083C614.627 376.518 614.367 377.491 614.367 378.525C614.367 381.878 617.086 384.597 620.439 384.597Z" fill="white"/>
<path d="M620.442 372.453C618.123 372.453 616.108 373.754 615.086 375.666H625.797C624.774 373.754 622.761 372.453 620.442 372.453Z" fill="white"/>
<path d="M544.934 384.597C548.287 384.597 551.006 381.878 551.006 378.525C551.006 377.491 550.746 376.518 550.29 375.666H539.579C539.123 376.518 538.863 377.491 538.863 378.525C538.863 381.878 541.581 384.597 544.934 384.597Z" fill="#EB459E"/>
<path d="M544.929 372.453C542.61 372.453 540.597 373.754 539.574 375.666H550.285C549.263 373.754 547.248 372.453 544.929 372.453Z" fill="#EB459E"/>
<path d="M569.861 384.597C573.214 384.597 575.932 381.878 575.932 378.525C575.932 377.491 575.673 376.518 575.217 375.666H564.506C564.05 376.518 563.789 377.491 563.789 378.525C563.789 381.878 566.508 384.597 569.861 384.597Z" fill="white"/>
<path d="M569.859 372.453C567.54 372.453 565.526 373.754 564.504 375.666H575.215C574.192 373.754 572.178 372.453 569.859 372.453Z" fill="white"/>
<path d="M500.424 378.525C500.424 377.491 500.163 376.518 499.707 375.666H490.777C491.902 378.731 493.226 381.701 494.706 384.579C497.894 384.395 500.424 381.759 500.424 378.525Z" fill="#EB459E"/>
<path d="M499.705 375.666C498.683 373.754 496.669 372.453 494.35 372.453C492.752 372.453 491.303 373.075 490.219 374.084C490.4 374.614 490.583 375.142 490.775 375.666H499.705Z" fill="#EB459E"/>
<path d="M514.258 381.939L516.856 384.091C517.599 384.414 518.417 384.597 519.279 384.597C522.632 384.597 525.35 381.878 525.35 378.525C525.35 377.491 525.09 376.518 524.634 375.666H513.923C513.467 376.518 513.207 377.491 513.207 378.525C513.207 379.792 513.595 380.966 514.258 381.939Z" fill="white"/>
<path d="M519.278 372.453C516.959 372.453 514.944 373.754 513.922 375.666H524.633C523.61 373.754 521.597 372.453 519.278 372.453Z" fill="white"/>
<path d="M516.856 384.09L514.258 381.938C514.9 382.88 515.8 383.63 516.856 384.09Z" fill="white"/>
<path d="M650.19 390.561H639.762L644.976 394.88L650.19 390.561Z" fill="#FEE75C"/>
<path d="M498.062 390.561C498.485 391.241 498.931 391.904 499.373 392.571L501.799 390.561H498.062Z" fill="#FEE75C"/>
<path d="M663.138 390.561H651.621L645.678 395.485L644.978 396.064L644.278 395.485L638.335 390.561H626.818L620.96 395.414L620.245 396.005L619.532 395.414L613.674 390.561H602.157L596.213 395.486L595.513 396.065L594.815 395.486L588.871 390.561H577.353L571.496 395.414L570.782 396.005L570.068 395.414L564.21 390.561H552.693L546.749 395.485L546.049 396.064L545.35 395.485L539.406 390.561H527.889L522.031 395.413L521.317 396.005L520.604 395.413L514.746 390.561H503.229L499.875 393.34C501.948 396.393 504.22 399.301 506.674 402.046H664.269C666.074 400.028 667.771 397.913 669.373 395.726L668.996 395.413L663.138 390.561Z" fill="#FEE75C"/>
<path d="M669.708 394.821L670.478 394.183C671.306 392.996 672.114 391.793 672.879 390.561H664.566L669.708 394.821Z" fill="#FEE75C"/>
<path d="M526.459 390.561H516.176L521.317 394.821L526.459 390.561Z" fill="#FEE75C"/>
<path d="M625.386 390.561H615.102L620.244 394.821L625.386 390.561Z" fill="#FEE75C"/>
<path d="M575.921 390.561H565.637L570.78 394.821L575.921 390.561Z" fill="#FEE75C"/>
<path d="M551.26 390.561H540.832L546.046 394.88L551.26 390.561Z" fill="#FEE75C"/>
<path d="M600.725 390.561H590.297L595.511 394.881L600.725 390.561Z" fill="#FEE75C"/>
<path d="M567.498 429.391H603.442C627.547 429.391 649.285 418.796 664.267 402.046H506.672C521.654 418.796 543.393 429.391 567.498 429.391Z" fill="#EB459E"/>
<path d="M533.645 385.791L539.403 390.561H540.833L534.344 385.186L533.645 384.606L532.945 385.186L526.457 390.561H527.886L533.645 385.791Z" fill="white"/>
<path d="M533.645 385.791L539.403 390.561H540.833L534.344 385.186L533.645 384.606L532.945 385.186L526.457 390.561H527.886L533.645 385.791Z" stroke="white" stroke-width="1.077" stroke-miterlimit="10"/>
<path d="M583.11 385.79L588.869 390.56H590.298L583.81 385.185L583.11 384.605L582.411 385.185L575.922 390.56H577.352L583.11 385.79Z" fill="white"/>
<path d="M583.11 385.79L588.869 390.56H590.298L583.81 385.185L583.11 384.605L582.411 385.185L575.922 390.56H577.352L583.11 385.79Z" stroke="white" stroke-width="1.077" stroke-miterlimit="10"/>
<path d="M607.91 385.79L613.669 390.56H615.098L608.61 385.185L607.91 384.605L607.211 385.185L600.723 390.56H602.152L607.91 385.79Z" fill="white"/>
<path d="M607.91 385.79L613.669 390.56H615.098L608.61 385.185L607.91 384.605L607.211 385.185L600.723 390.56H602.152L607.91 385.79Z" stroke="white" stroke-width="1.077" stroke-miterlimit="10"/>
<path d="M558.449 385.791L564.208 390.561H565.637L559.149 385.186L558.449 384.606L557.75 385.186L551.262 390.561H552.691L558.449 385.791Z" fill="white"/>
<path d="M558.449 385.791L564.208 390.561H565.637L559.149 385.186L558.449 384.606L557.75 385.186L551.262 390.561H552.691L558.449 385.791Z" stroke="white" stroke-width="1.077" stroke-miterlimit="10"/>
<path d="M508.985 385.791L514.743 390.561H516.173L509.684 385.186L508.985 384.606L508.285 385.186L501.797 390.561H503.226L508.985 385.791Z" fill="white"/>
<path d="M508.985 385.791L514.743 390.561H516.173L509.684 385.186L508.985 384.606L508.285 385.186L501.797 390.561H503.226L508.985 385.791Z" stroke="white" stroke-width="1.077" stroke-miterlimit="10"/>
<path d="M657.379 385.791L663.138 390.561H664.568L658.078 385.186L657.379 384.606L656.68 385.186L650.191 390.561H651.621L657.379 385.791Z" fill="white"/>
<path d="M657.379 385.791L663.138 390.561H664.568L658.078 385.186L657.379 384.606L656.68 385.186L650.191 390.561H651.621L657.379 385.791Z" stroke="white" stroke-width="1.077" stroke-miterlimit="10"/>
<path d="M632.575 385.791L638.334 390.561H639.763L633.275 385.186L632.575 384.606L631.876 385.186L625.387 390.561H626.817L632.575 385.791Z" fill="white"/>
<path d="M632.575 385.791L638.334 390.561H639.763L633.275 385.186L632.575 384.606L631.876 385.186L625.387 390.561H626.817L632.575 385.791Z" stroke="white" stroke-width="1.077" stroke-miterlimit="10"/>
<path d="M545.347 395.485L546.046 396.064L546.745 395.485L552.69 390.561H551.26L546.046 394.88L540.832 390.561H539.402L545.347 395.485Z" fill="white"/>
<path d="M545.347 395.485L546.046 396.064L546.745 395.485L552.69 390.561H551.26L546.046 394.88L540.832 390.561H539.402L545.347 395.485Z" stroke="white" stroke-width="1.077" stroke-miterlimit="10"/>
<path d="M520.6 395.413L521.314 396.005L522.028 395.413L527.885 390.561H526.456L521.314 394.821L516.172 390.561H514.742L520.6 395.413Z" fill="white"/>
<path d="M520.6 395.413L521.314 396.005L522.028 395.413L527.885 390.561H526.456L521.314 394.821L516.172 390.561H514.742L520.6 395.413Z" stroke="white" stroke-width="1.077" stroke-miterlimit="10"/>
<path d="M501.797 390.561L499.371 392.571C499.54 392.825 499.701 393.087 499.872 393.34L503.226 390.561H501.797Z" fill="white"/>
<path d="M501.797 390.561L499.371 392.571C499.54 392.825 499.701 393.087 499.872 393.34L503.226 390.561H501.797Z" stroke="white" stroke-width="1.077" stroke-miterlimit="10"/>
<path d="M664.563 390.561H663.133L668.991 395.413L669.368 395.726C669.742 395.215 670.112 394.703 670.474 394.183L669.704 394.821L664.563 390.561Z" fill="white"/>
<path d="M664.563 390.561H663.133L668.991 395.413L669.368 395.726C669.742 395.215 670.112 394.703 670.474 394.183L669.704 394.821L664.563 390.561Z" stroke="white" stroke-width="1.077" stroke-miterlimit="10"/>
<path d="M644.275 395.485L644.976 396.064L645.675 395.485L651.618 390.561H650.189L644.976 394.88L639.761 390.561H638.332L644.275 395.485Z" fill="white"/>
<path d="M644.275 395.485L644.976 396.064L645.675 395.485L651.618 390.561H650.189L644.976 394.88L639.761 390.561H638.332L644.275 395.485Z" stroke="white" stroke-width="1.077" stroke-miterlimit="10"/>
<path d="M619.53 395.414L620.243 396.005L620.957 395.414L626.815 390.561H625.385L620.243 394.821L615.101 390.561H613.672L619.53 395.414Z" fill="white"/>
<path d="M619.53 395.414L620.243 396.005L620.957 395.414L626.815 390.561H625.385L620.243 394.821L615.101 390.561H613.672L619.53 395.414Z" stroke="white" stroke-width="1.077" stroke-miterlimit="10"/>
<path d="M570.069 395.414L570.783 396.005L571.496 395.414L577.354 390.561H575.924L570.783 394.821L565.64 390.561H564.211L570.069 395.414Z" fill="white"/>
<path d="M570.069 395.414L570.783 396.005L571.496 395.414L577.354 390.561H575.924L570.783 394.821L565.64 390.561H564.211L570.069 395.414Z" stroke="white" stroke-width="1.077" stroke-miterlimit="10"/>
<path d="M594.811 395.486L595.51 396.065L596.209 395.486L602.154 390.561H600.724L595.51 394.881L590.296 390.561H588.867L594.811 395.486Z" fill="white"/>
<path d="M594.811 395.486L595.51 396.065L596.209 395.486L602.154 390.561H600.724L595.51 394.881L590.296 390.561H588.867L594.811 395.486Z" stroke="white" stroke-width="1.077" stroke-miterlimit="10"/>
<path d="M417.687 329.884L401.134 324.197C396.665 322.661 394.264 317.748 395.8 313.278L403.069 292.121C404.605 287.651 409.519 285.251 413.988 286.787L430.541 292.475C435.01 294.011 437.411 298.923 435.875 303.393L428.606 324.55C427.07 329.02 422.156 331.42 417.687 329.884Z" fill="white"/>
<path d="M392.04 325.186L379.014 331.706C375.496 333.466 371.177 332.029 369.417 328.511L361.084 311.86C359.324 308.343 360.762 304.024 364.279 302.264L377.306 295.744C380.823 293.984 385.142 295.421 386.902 298.939L395.236 315.59C396.996 319.107 395.558 323.426 392.04 325.186Z" fill="white"/>
<path d="M432.036 419.74H354.858C353.05 419.74 351.57 418.261 351.57 416.453V414.118C351.57 412.31 353.05 410.831 354.858 410.831H432.036C433.844 410.831 435.323 412.31 435.323 414.118V416.453C435.323 418.261 433.844 419.74 432.036 419.74Z" fill="#E5CC4E"/>
<path d="M333.971 394.322C318.272 394.322 305.5 379.273 305.5 360.776C305.5 342.279 318.272 327.23 333.971 327.23C349.669 327.23 362.441 342.279 362.441 360.776C362.441 379.273 349.669 394.322 333.971 394.322ZM333.971 336.931C323.926 336.931 315.754 347.627 315.754 360.776C315.754 373.924 323.926 384.621 333.971 384.621C344.015 384.621 352.188 373.924 352.188 360.776C352.188 347.627 344.015 336.931 333.971 336.931Z" fill="#FEE75C"/>
<path d="M446.174 328.895C446.174 319.445 438.514 311.785 429.065 311.785H355.492C346.043 311.785 338.383 319.445 338.383 328.895V337.059H446.174V328.895Z" fill="#FEE75C"/>
<path d="M338.383 399.345C338.383 406.32 344.037 411.974 351.012 411.974H433.545C440.52 411.974 446.174 406.32 446.174 399.345V382.546H338.383V399.345Z" fill="#FEE75C"/>
<path d="M338.383 337.06V382.546H446.174V337.06H338.383Z" fill="#EB459E"/>
<path d="M392.106 344.808C393.323 344.786 394.33 345.677 394.355 346.798L394.983 374.017C395.008 375.138 394.043 376.066 392.826 376.088C391.609 376.111 390.601 375.22 390.576 374.099L389.95 346.879C389.924 345.758 390.889 344.83 392.106 344.808Z" fill="white"/>
<path d="M388.587 375.23C388.538 373.082 390.387 371.306 392.718 371.263C395.05 371.221 396.979 372.927 397.029 375.075C397.078 377.223 395.229 378.999 392.897 379.042C390.566 379.085 388.636 377.379 388.587 375.23Z" fill="white"/>
<path d="M387.853 343.494C387.803 341.346 389.652 339.57 391.984 339.527C394.315 339.484 396.245 341.191 396.294 343.34C396.344 345.488 394.495 347.263 392.163 347.306C389.832 347.348 387.902 345.642 387.853 343.494Z" fill="white"/>
<path d="M379.134 366.965C378.487 366.014 378.799 364.762 379.829 364.167L404.856 349.725C405.886 349.13 407.247 349.418 407.894 350.369C408.541 351.32 408.229 352.572 407.199 353.167L382.172 367.609C381.142 368.204 379.781 367.916 379.134 366.965Z" fill="white"/>
<path d="M409.275 354.163C407.3 355.302 404.694 354.749 403.455 352.928C402.216 351.107 402.812 348.706 404.786 347.567C406.761 346.427 409.368 346.98 410.607 348.801C411.847 350.622 411.25 353.023 409.275 354.163Z" fill="white"/>
<path d="M380.099 371C378.125 372.139 375.519 371.586 374.279 369.765C373.04 367.944 373.636 365.544 375.611 364.404C377.585 363.265 380.191 363.818 381.431 365.639C382.67 367.46 382.074 369.86 380.099 371Z" fill="white"/>
<path d="M378.671 352.295C379.257 351.313 380.597 350.955 381.663 351.497L407.56 364.638C408.627 365.179 409.016 366.414 408.43 367.396C407.844 368.378 406.505 368.735 405.438 368.194L379.541 355.054C378.475 354.512 378.085 353.277 378.671 352.295Z" fill="white"/>
<path d="M405.506 370.35C403.462 369.313 402.716 366.948 403.839 365.066C404.961 363.184 407.528 362.5 409.572 363.537C411.616 364.574 412.362 366.939 411.239 368.821C410.117 370.703 407.55 371.388 405.506 370.35Z" fill="white"/>
<path d="M375.315 355.029C373.271 353.992 372.525 351.627 373.647 349.745C374.77 347.863 377.337 347.178 379.381 348.215C381.424 349.253 382.171 351.618 381.048 353.5C379.925 355.382 377.359 356.066 375.315 355.029Z" fill="white"/>
<path d="M397.075 361.065C395.761 363.311 392.719 364.151 390.278 362.938C387.837 361.725 386.924 358.92 388.237 356.673C389.55 354.426 392.593 353.587 395.033 354.8C397.474 356.013 398.388 358.818 397.075 361.065Z" fill="white"/>
</g>
<defs>
<linearGradient id="paint0_linear_4773_50884" x1="36.6205" y1="-64.4997" x2="714.101" y2="451.153" gradientUnits="userSpaceOnUse">
<stop stop-color="#FF16A6"/>
<stop offset="0.42" stop-color="#FE4B72"/>
<stop offset="0.64" stop-color="#FE803F"/>
<stop offset="0.82" stop-color="#FEB44E"/>
<stop offset="1" stop-color="#FEE75C"/>
</linearGradient>
<clipPath id="clip0_4773_50884">
<rect width="815" height="435" fill="white"/>
</clipPath>
</defs>
</svg>
