<?xml version="1.0" encoding="utf-8"?>
<svg width="815" height="435" viewBox="0 0 815 435" fill="none" xmlns="http://www.w3.org/2000/svg">
  <g clip-path="url(#clip0_867_93740)">
    <rect x="2" y="3" width="810.5" height="430" rx="44" fill="white"/>
    <g clip-path="url(#clip1_867_93740)">
      <mask id="mask0_867_93740" style="mask-type:luminance" maskUnits="userSpaceOnUse" x="-43" y="-167" width="900" height="600">
        <path d="M857 -167H-43V433H857V-167Z" fill="white"/>
      </mask>
      <g mask="url(#mask0_867_93740)">
        <path d="M43.5099 1.75C20.549 1.75 1.76294 20.537 1.76294 43.498V391.947C1.76294 414.908 20.549 433.695 43.5099 433.695H770.489C793.45 433.695 812.237 414.908 812.237 391.947V43.498C812.237 20.537 793.45 1.75 770.489 1.75H43.5099Z" fill="url(#paint0_linear_867_93740)"/>
        <g opacity="0.25">
          <path d="M774.217 433.512C586.691 433.512 279.786 434.079 279.786 434.079C279.786 434.079 310.576 394.309 361.891 382.763C413.207 371.217 395.247 402.007 395.247 402.007C395.247 402.007 506.859 307.072 569.721 305.789C632.583 304.507 645.412 357.105 645.412 357.105C645.412 357.105 717.254 305.789 778.833 328.882C794.034 334.582 804.984 342.073 812.194 349.898L812.117 395.645C812.117 395.645 811.952 399.925 809.883 405.58C806.058 416.039 796.101 431.55 774.217 433.512Z" fill="white"/>
          <path d="M157.62 289.097H522.578C525.865 289.097 528.097 285.702 526.729 282.712C524.372 277.563 518.902 269.947 506.209 262.331C492.268 253.967 481.813 254.896 475.931 256.769C473.28 257.614 470.52 255.974 470.033 253.234C468.722 245.859 464.11 233.597 448.216 226.643C435.018 220.869 426.396 223.789 421.334 227.533C418.707 229.477 414.935 228.02 414.256 224.824C411.207 210.479 400.743 184.693 364.944 186.494C312.109 189.152 295.314 227.301 291.517 238.465C290.899 240.283 289.202 241.5 287.281 241.521C269.276 241.714 182.937 244.599 153.988 281.834C151.692 284.787 153.879 289.097 157.62 289.097Z" fill="white"/>
          <path d="M22.3339 180.011H217.253C218.3 180.011 219.062 179.014 218.769 178.009C217.389 173.261 212.587 161.541 198.426 159.18C187.808 157.411 181.926 158.272 178.902 159.261C177.771 159.631 176.669 158.688 176.856 157.512C177.788 151.628 177.354 139.474 158.253 138.35C136.309 137.059 116.605 153.686 111.77 158.113C111.149 158.681 110.205 158.659 109.612 158.062C106.231 154.658 94.4589 144.805 73.4429 147.277C52.8519 149.7 29.3019 169.871 21.2569 177.288C20.2029 178.26 20.8999 180.011 22.3339 180.011Z" fill="white"/>
          <path d="M75.0299 404.208H171.851C172.893 404.208 173.606 403.172 173.245 402.194C172.223 399.416 169.563 394.633 163.183 393.569C159.095 392.888 156.381 392.97 154.631 393.268C153.545 393.453 152.645 392.416 152.978 391.366C154.353 387.034 155.168 379.514 144.095 379.813C129.826 380.198 119.49 389.171 115.802 392.894C115.122 393.58 113.983 393.448 113.486 392.62C112.038 390.207 108.305 386.437 99.3499 387.49C89.8089 388.613 79.0249 397.196 74.0379 401.608C73.0099 402.517 73.6579 404.208 75.0299 404.208Z" fill="white"/>
        </g>
        <mask id="mask1_867_93740" style="mask-type:luminance" maskUnits="userSpaceOnUse" x="-43" y="-167" width="900" height="600">
          <path d="M-43 -167H857V433H-43V-167Z" fill="white"/>
        </mask>
        <g mask="url(#mask1_867_93740)">
          <path d="M881.41 636.847C861.694 635.75 838.008 629.487 833.117 587.287C827.418 538.104 825.381 461.512 863.538 436.366C893.944 416.329 929.455 431.247 934.147 474.967C937.211 503.527 940.746 544.332 935.628 584.741C931.996 613.412 918.114 638.89 881.41 636.847Z" fill="#698EFF"/>
        </g>
        <path d="M516.776 29.8266L529.624 32.1128C531.336 32.4174 532.49 34.0876 532.189 35.8249L532.09 36.397C531.789 38.1343 530.142 39.3069 528.431 39.0023L515.583 36.7162C513.872 36.4116 512.718 34.7405 513.018 33.0039L513.118 32.4313C513.419 30.6948 515.065 29.522 516.776 29.8266Z" fill="#6CC780"/>
        <path d="M503.843 48.9416C503.843 48.9416 460.436 33.4744 449.893 49.4302C439.349 65.3867 455.706 73.8445 455.706 73.8445C377.914 91.0792 389.466 144.196 389.466 144.196C355.093 153.199 357.558 184.91 357.558 184.91C355.751 184.675 348.458 187.407 345.868 197.374C343.279 207.339 347.16 215.579 347.16 215.579C347.16 215.579 700.597 227.266 711.322 223.979C722.046 220.693 731.42 214.115 729.633 201.212C727.845 188.309 717.891 182.007 714.714 179.499C711.538 176.992 710.998 173.305 710.998 173.305C707.506 96.6276 650.542 108.3 650.542 108.3C638.097 60.2743 581.742 60.1085 581.742 60.1085C581.742 60.1085 599.828 38.7664 572.522 23.3764C568.376 21.0399 563.91 20.0025 559.31 19.9222C533.61 19.4753 503.843 48.9416 503.843 48.9416Z" fill="url(#paint1_linear_867_93740)"/>
        <path d="M662.549 144.632C662.549 144.632 664.773 153.499 667.165 163.921C669.455 173.905 671.788 184.145 672.262 185.7C672.735 187.255 674.28 188.331 679.342 187.506C684.403 186.68 691.891 182.246 690.899 173.837C689.908 165.428 685.909 146.445 683.109 142.262C680.31 138.079 675.997 136.559 670.164 136.924C664.331 137.289 660.809 138.568 662.549 144.632Z" fill="#EFD9AD"/>
        <path d="M394.45 178.801C394.45 178.801 395.164 187.923 396.217 198.572C397.225 208.772 398.273 219.229 398.319 220.855C398.366 222.483 397.246 224.01 392.194 224.892C387.142 225.774 378.647 224.04 376.91 215.757C375.175 207.474 372.921 188.196 374.24 183.317C375.559 178.438 379.156 175.582 384.791 174.011C390.427 172.439 394.168 172.491 394.45 178.801Z" fill="#EFD9AD"/>
        <path d="M519.204 74.0713L516.927 87.1105C516.624 88.8472 514.975 90.0175 513.265 89.7103L512.702 89.6095C510.991 89.3023 509.839 87.6304 510.143 85.8937L512.419 72.8547C512.722 71.1171 514.37 69.9477 516.081 70.254L516.645 70.3555C518.356 70.6626 519.507 72.3345 519.204 74.0713Z" fill="#FFFEFA"/>
        <path d="M576.847 83.0085L564.275 86.5491C562.601 87.0204 560.852 86.016 560.388 84.3162L560.236 83.7564C559.771 82.0568 560.763 80.2808 562.436 79.8096L575.008 76.2691C576.683 75.7969 578.432 76.8021 578.896 78.5009L579.049 79.0607C579.512 80.7605 578.522 82.5372 576.847 83.0085Z" fill="#E180B8"/>
        <path d="M457.765 92.0868L444.914 94.3649C443.202 94.6689 441.557 93.495 441.259 91.7583L441.161 91.186C440.863 89.4484 442.019 87.7787 443.731 87.4747L456.582 85.1966C458.294 84.8934 459.938 86.0663 460.237 87.8041L460.335 88.3764C460.633 90.1131 459.477 91.7836 457.765 92.0868Z" fill="#6CC780"/>
        <path d="M637.037 82.5348L626.409 90.2215C624.995 91.2456 623.013 90.9081 622.005 89.4718L621.672 88.9986C620.664 87.5631 620.999 85.5496 622.413 84.5254L633.039 76.8392C634.454 75.8152 636.438 76.1531 637.445 77.5893L637.777 78.0622C638.785 79.4985 638.452 81.5108 637.037 82.5348Z" fill="#6CC780"/>
        <path d="M430.664 168.1C430.664 168.1 434.088 165.002 438.722 161.951C443.357 158.899 446.801 158.347 449.073 158.05C451.345 157.753 453.056 156.205 451.455 153.866C449.855 151.528 438.689 147.384 430.808 150.961C422.926 154.539 420.817 163.272 421.374 167.684C421.931 172.095 425.343 172.872 426.882 171.55C428.422 170.227 430.664 168.1 430.664 168.1Z" fill="#DEA85F"/>
        <path d="M632.37 140.616C632.37 140.616 629.651 139.37 624.947 138.322C620.243 137.274 616.411 137.64 614.45 138.083C612.489 138.526 610.654 137.181 611.304 134.835C611.955 132.49 617.751 127.2 627.235 127.416C634.785 127.588 639.021 134.25 639.828 137.937C640.634 141.623 638.041 143.264 636.389 142.67C634.737 142.076 632.37 140.616 632.37 140.616Z" fill="#DEA85F"/>
        <path d="M485.408 129.18C466.188 139.647 461.603 157.765 462.347 177.929C463.091 198.093 470.197 219.905 470.197 219.905L616.561 227.017C616.561 227.017 615.929 185.129 614.393 165.457C612.858 145.783 608.005 123.159 580.9 118.14C575.973 117.227 570.322 116.666 564.25 116.42C536.916 115.315 501.135 120.617 485.408 129.18Z" fill="url(#paint2_linear_867_93740)"/>
        <path d="M529.343 62.3404C530.218 62.0061 541.773 60.0271 553.729 52.1156C565.685 44.2041 570.703 38.3336 574.229 40.8392C577.754 43.3457 562.421 57.5145 551.173 60.5929C539.926 63.6721 529.343 62.3404 529.343 62.3404Z" fill="#D69847"/>
        <path d="M450.776 77.6362C450.776 77.6362 449.699 89.3442 461.635 92.4291C473.569 95.514 493.331 87.2293 497.765 70.4914C502.199 53.7526 463.431 51.9691 463.431 51.9691L457.788 75.5458L450.776 77.6362Z" fill="#F0AA4B"/>
        <path d="M580.596 181.453L557.914 184.171C554.241 184.611 550.884 181.921 550.452 178.193C550.02 174.465 552.672 171.055 556.344 170.615L579.026 167.897C582.699 167.457 586.056 170.147 586.488 173.875C586.92 177.603 584.269 181.013 580.596 181.453Z" fill="#F5DDAB"/>
        <path d="M522.241 197.883L499.406 198.262C495.708 198.323 492.634 195.304 492.576 191.55C492.518 187.796 495.496 184.675 499.193 184.614L522.027 184.235C525.725 184.173 528.799 187.194 528.857 190.948C528.915 194.701 525.938 197.821 522.241 197.883Z" fill="#F5DDAB"/>
        <path d="M484.175 119.772L472.934 113.057C471.438 112.164 470.935 110.188 471.817 108.668L472.107 108.167C472.989 106.647 474.935 106.134 476.431 107.029L487.672 113.743C489.169 114.638 489.673 116.613 488.791 118.134L488.5 118.633C487.618 120.154 485.673 120.666 484.175 119.772Z" fill="#E180B8"/>
        <path d="M479.892 40.929L491.729 46.4907C493.305 47.2309 493.996 49.1466 493.266 50.7478L493.025 51.2745C492.295 52.8758 490.407 53.5787 488.83 52.8387L476.994 47.2769C475.418 46.5359 474.726 44.6203 475.457 43.0199L475.697 42.4933C476.427 40.893 478.316 40.188 479.892 40.929Z" fill="#E180B8"/>
        <path d="M564.002 222.807C564.002 222.807 577.424 210.83 601.172 205.254C624.921 199.678 649.495 209.385 649.495 209.385C649.495 209.385 675.308 188.321 695.959 221.155L564.002 222.807Z" fill="#F5D9A3"/>
        <path d="M382.965 221.27C383.206 220.546 393.585 207.512 416.756 202.685C439.926 197.857 466.717 208.236 472.51 224.407L382.965 221.27Z" fill="#F5D9A3"/>
        <path d="M437.558 413.266C438.131 413.552 507.314 413.376 533.973 413.298C560.632 413.376 629.815 413.552 630.388 413.266C666.939 394.99 681.008 361.486 686.865 331.066H381.081C386.938 361.486 401.007 394.99 437.558 413.266Z" fill="#EB459F"/>
        <path d="M724.711 219.3C723.293 213.272 716.554 214.337 716.554 214.337H541.101H526.845H351.391C351.391 214.337 344.653 213.272 343.235 219.3C341.816 225.328 346.428 226.393 351.391 231.358C356.356 236.322 374.795 254.406 376.567 288.092C377.18 299.747 377.983 314.975 381.081 331.066H686.865C689.962 314.975 690.765 299.747 691.378 288.092C693.151 254.406 711.59 236.322 716.554 231.358C721.519 226.393 726.129 225.328 724.711 219.3Z" fill="#D11583"/>
        <path d="M476.477 225.336L476.444 225.335L476.428 225.332L476.425 225.331H476.427H476.394M634.088 221.884H661.113H677.553" stroke="#FF73D0" stroke-width="6.67086" stroke-linecap="round"/>
        <path d="M436.672 210.65C436.672 210.65 449.222 211.856 456.463 224.649C463.704 237.441 474.564 243.234 487.116 240.82C499.666 238.406 507.872 228.269 500.149 215.718C492.426 203.168 455.498 201.719 436.672 210.65Z" fill="#F5D9A3"/>
        <path d="M719.017 411.117C717.712 406.984 714.013 407.855 714.013 407.855H568.688H566.313H353.344C353.344 407.855 349.647 406.984 348.341 411.117C347.036 415.25 352.04 416.991 359.001 417.861C365.961 418.731 389.671 423.081 407.944 426.126C426.215 429.172 436.657 431.782 440.355 434.176H539.316H595.687H627.004C630.701 431.782 641.142 429.172 659.414 426.126C677.686 423.081 701.396 418.731 708.357 417.861C715.318 416.991 720.322 415.25 719.017 411.117Z" fill="#423D80"/>
        <path d="M346.552 241.957C325.551 257.029 326.459 292.495 327.372 315.024C327.767 324.763 329.819 344.855 337.114 360.387C356.527 401.717 407.601 396.088 431.561 390.446C439.93 388.474 444.997 385.969 443.371 377.835C442.169 371.831 436.765 369.628 425.756 370.83C418.166 371.658 383.999 371.956 371.517 359.778C359.035 347.6 354.468 322.027 354.772 305.587C355.076 289.146 355.381 265.095 373.648 256.571C391.914 248.046 411.533 250.603 420.725 251.247C430.589 251.94 436.16 250.732 436.818 244.672C437.684 236.712 432.353 234.102 422.663 232.52C401.764 229.109 365.908 228.066 346.552 241.957Z" fill="#FF78B9"/>
        <path d="M346.552 241.957C325.551 257.029 326.459 292.495 327.372 315.024C327.767 324.763 329.819 344.855 337.114 360.387C356.527 401.717 407.601 396.088 431.561 390.446C439.93 388.474 444.997 385.969 443.371 377.835C442.169 371.831 436.765 369.628 425.756 370.83C418.166 371.658 383.999 371.956 371.517 359.778C359.035 347.6 354.468 322.027 354.772 305.587C355.076 289.146 355.381 265.095 373.648 256.571C391.914 248.046 411.533 250.603 420.725 251.247C430.589 251.94 436.16 250.732 436.818 244.672C437.684 236.712 432.353 234.102 422.663 232.52C401.764 229.109 365.908 228.066 346.552 241.957Z" fill="#FF78B9"/>
        <path d="M341.504 261.352L345.426 261.24C345.932 261.225 346.388 260.952 346.635 260.51C347.476 259.001 349.692 255.328 353 252.02L356.217 248.803C357.197 247.822 356.358 246.158 354.986 246.366C353.832 246.542 352.509 246.885 351.16 247.523C347.728 249.149 343.179 253.809 340.193 259.243C339.663 260.208 340.404 261.384 341.504 261.352Z" fill="#EEFCFF"/>
        <mask id="mask2_867_93740" style="mask-type:luminance" maskUnits="userSpaceOnUse" x="-43" y="-167" width="900" height="600">
          <path d="M-43 -167H857V433H-43V-167Z" fill="white"/>
        </mask>
        <g mask="url(#mask2_867_93740)">
          <path d="M 105.573 53.285 C 105.539 53.23 105.52 53.17 105.52 53.106 C 105.312 52.95 104.99 52.765 104.549 52.548 C 104.107 52.333 103.595 52.065 103.007 51.743 C 102.47 51.469 101.992 51.214 101.567 50.979 C 101.144 50.746 100.796 50.514 100.519 50.283 C 100.051 49.899 99.681 49.588 99.404 49.354 C 99.127 49.121 98.971 48.971 98.936 48.906 C 98.832 48.806 98.765 48.633 98.73 48.39 C 98.695 48.146 98.678 47.832 98.678 47.447 C 98.678 47.282 98.794 47.048 99.029 46.744 C 99.262 46.442 99.622 46.08 100.103 45.657 C 100.726 45.106 101.483 44.589 102.374 44.107 C 103.262 43.626 104.267 43.174 105.392 42.751 C 105.668 42.66 105.884 42.535 106.039 42.373 C 106.196 42.213 106.308 42.018 106.378 41.787 C 106.479 41.421 106.593 41.026 106.714 40.603 L 106.455 40.287 C 106.455 40.094 106.497 39.875 106.584 39.626 C 106.653 39.58 106.781 39.542 106.96 39.508 C 107.14 39.478 107.397 39.448 107.725 39.42 C 107.899 39.448 108.096 39.466 108.32 39.474 C 108.546 39.484 108.812 39.479 109.124 39.461 C 109.332 39.58 109.47 39.682 109.539 39.764 C 109.574 39.81 109.592 39.922 109.592 40.101 C 109.592 40.28 109.592 40.521 109.592 40.824 C 109.592 40.907 109.566 40.948 109.513 40.948 C 109.461 40.948 109.384 41.058 109.281 41.279 C 109.314 41.334 109.349 41.368 109.384 41.381 C 109.419 41.395 109.487 41.402 109.592 41.402 C 111.596 40.916 113.005 40.672 113.819 40.672 C 114.23 40.672 114.551 40.776 114.777 40.983 C 115.001 41.189 115.114 41.503 115.114 41.926 C 115.114 42.137 115.022 42.339 114.84 42.531 C 114.659 42.724 114.379 42.913 113.999 43.096 C 113.669 43.253 113.341 43.396 113.015 43.529 C 112.687 43.663 112.348 43.799 112.001 43.936 C 111.743 44.056 111.399 44.199 110.965 44.363 C 110.532 44.528 110.023 44.702 109.435 44.886 C 109.194 44.969 108.996 45.143 108.84 45.409 C 108.683 45.675 108.605 46.034 108.605 46.483 C 108.605 46.63 108.6 46.804 108.594 47.006 C 108.584 47.208 108.587 47.434 108.605 47.681 C 108.605 47.976 108.605 48.221 108.605 48.418 C 108.605 48.616 108.605 48.774 108.605 48.892 C 108.605 49.104 108.577 49.426 108.515 49.856 C 108.455 50.288 108.425 50.61 108.425 50.82 C 108.529 50.93 108.607 51.005 108.657 51.041 C 109.297 51.371 109.847 51.675 110.304 51.949 C 110.762 52.225 111.112 52.454 111.353 52.638 C 111.856 52.997 112.237 53.336 112.496 53.657 C 112.753 53.978 112.907 54.29 112.96 54.592 C 112.928 54.63 112.902 54.673 112.884 54.723 C 112.867 54.774 112.855 54.841 112.855 54.923 C 112.893 54.98 113.002 55.046 113.18 55.123 C 113.36 55.201 113.6 55.3 113.894 55.419 C 113.947 55.494 113.97 55.599 113.97 55.736 C 113.97 55.8 113.963 55.855 113.945 55.901 C 113.929 55.947 113.894 55.99 113.842 56.025 L 111.923 56.714 C 111.717 56.833 111.461 56.975 111.161 57.141 C 110.859 57.306 110.492 57.494 110.059 57.705 C 109.747 57.861 109.329 58.052 108.802 58.276 C 108.272 58.502 107.662 58.752 106.974 59.026 C 106.611 59.129 106.378 59.567 106.276 60.341 C 106.172 61.118 106.015 61.528 105.807 61.574 C 105.375 61.556 105.046 61.528 104.821 61.491 C 104.595 61.455 104.485 61.395 104.485 61.313 C 104.485 61.167 104.499 60.978 104.524 60.748 C 104.551 60.519 104.607 60.253 104.692 59.949 L 104.562 59.88 C 104.319 59.945 104.056 60.012 103.772 60.08 C 103.489 60.149 103.204 60.225 102.931 60.307 C 102.394 60.454 101.889 60.564 101.41 60.637 C 100.937 60.712 100.501 60.748 100.103 60.748 C 99.327 60.748 98.73 60.659 98.316 60.48 C 97.901 60.3 97.694 60.032 97.694 59.673 C 97.694 59.417 98.274 59.077 99.442 58.654 C 100.607 58.233 102.359 57.737 104.692 57.168 C 104.884 57.121 105.046 57.023 105.183 56.871 C 105.322 56.72 105.399 56.511 105.417 56.245 C 105.451 56.063 105.462 55.874 105.444 55.681 C 105.427 55.488 105.417 55.3 105.417 55.117 C 105.467 54.501 105.52 53.891 105.573 53.285 Z M 105.727 44.555 C 105.295 44.693 104.935 44.859 104.641 45.051 C 104.347 45.244 104.122 45.46 103.966 45.698 C 103.775 46.194 103.595 46.671 103.422 47.13 C 103.561 47.315 103.707 47.498 103.863 47.681 C 104.017 47.866 104.19 48.058 104.38 48.259 C 104.605 48.48 104.821 48.671 105.029 48.831 C 105.237 48.992 105.444 49.109 105.652 49.182 C 105.791 49.146 105.859 49.1 105.859 49.044 L 105.6 48.59 C 105.6 48.38 105.607 48.118 105.624 47.805 C 105.642 47.493 105.659 47.112 105.676 46.662 C 105.711 46.24 105.742 45.869 105.768 45.547 C 105.793 45.226 105.807 44.955 105.807 44.734 L 105.727 44.555 Z M 107.697 54.29 C 107.612 54.318 107.552 54.391 107.517 54.51 C 107.484 54.631 107.466 54.796 107.466 55.006 C 107.466 55.383 107.44 55.683 107.391 55.908 C 107.336 56.133 107.284 56.278 107.231 56.342 C 107.147 56.424 107.077 56.496 107.025 56.555 C 106.974 56.615 106.947 56.668 106.947 56.714 C 106.947 56.76 107.016 56.796 107.154 56.824 C 107.379 56.751 107.601 56.675 107.816 56.596 C 108.03 56.519 108.234 56.443 108.425 56.369 C 108.702 56.259 108.899 56.159 109.02 56.066 C 109.142 55.974 109.204 55.878 109.204 55.777 C 109.204 55.511 109.084 55.255 108.84 55.006 C 108.599 54.759 108.217 54.521 107.697 54.29 Z" fill="white"/>
          <path d="M 121.824 40.046 C 122.493 39.935 123.22 39.853 124.01 39.797 C 124.798 39.743 125.672 39.715 126.63 39.715 C 126.81 39.715 127.076 39.732 127.426 39.762 C 127.774 39.796 128.053 39.811 128.265 39.811 C 128.574 39.839 128.81 39.866 128.975 39.893 C 129.152 39.921 129.396 39.955 129.706 39.99 L 130.388 39.88 C 130.534 39.889 130.692 39.924 130.865 39.983 C 131.034 40.043 131.242 40.11 131.486 40.183 C 131.617 40.137 131.804 40.081 132.048 40.017 C 132.292 40.017 132.489 40.071 132.644 40.176 C 132.798 40.281 132.901 40.431 132.951 40.624 C 132.951 40.771 132.951 40.916 132.951 41.057 C 132.951 41.2 132.933 41.349 132.901 41.504 C 132.884 41.579 132.893 41.693 132.925 41.849 C 132.958 42.005 132.974 42.125 132.974 42.207 C 132.974 42.308 132.933 42.381 132.853 42.427 C 132.772 42.473 132.666 42.496 132.535 42.496 C 131.917 42.496 131.307 42.467 130.703 42.407 C 130.102 42.348 129.501 42.258 128.899 42.137 C 128.381 42.194 127.924 42.235 127.533 42.262 C 127.225 42.281 126.997 42.308 126.851 42.344 C 126.703 42.381 126.63 42.427 126.63 42.482 C 126.695 42.546 126.784 42.616 126.9 42.689 C 127.015 42.763 127.153 42.831 127.314 42.895 C 127.427 42.941 127.558 43.04 127.704 43.191 C 127.851 43.342 128.006 43.547 128.167 43.804 C 128.233 43.905 128.278 44.001 128.302 44.093 C 128.326 44.186 128.339 44.273 128.339 44.355 C 128.339 44.547 128.305 44.788 128.241 45.078 C 128.175 45.367 128.104 45.603 128.024 45.787 C 127.876 46.146 127.762 46.442 127.68 46.675 C 127.6 46.909 127.533 47.086 127.485 47.204 C 127.452 47.297 127.427 47.407 127.411 47.535 C 127.394 47.664 127.379 47.812 127.363 47.976 C 127.347 48.114 127.28 48.286 127.167 48.492 C 127.054 48.7 126.939 48.936 126.825 49.201 C 126.825 49.322 126.801 49.459 126.753 49.614 C 126.704 49.77 126.64 49.95 126.557 50.151 C 126.51 50.272 126.431 50.406 126.327 50.557 C 126.221 50.709 126.119 50.886 126.022 51.088 C 126.052 51.226 126.077 51.369 126.094 51.515 C 126.029 51.773 125.964 52.039 125.898 52.313 C 125.803 52.708 125.704 53.108 125.605 53.511 C 125.509 53.916 125.419 54.305 125.337 54.681 C 125.241 54.791 125.135 54.915 125.02 55.054 C 125.02 55.118 125.04 55.217 125.081 55.349 C 125.123 55.482 125.142 55.591 125.142 55.673 C 125.142 55.774 125.11 55.923 125.045 56.12 C 124.979 56.318 124.946 56.463 124.946 56.554 C 124.946 56.729 124.937 57 124.923 57.366 C 124.907 57.734 124.9 58.01 124.9 58.193 C 124.979 58.349 125.054 58.501 125.117 58.647 C 125.068 58.776 125.016 58.88 124.961 58.957 C 124.903 59.035 124.824 59.097 124.727 59.143 C 124.435 59.244 124.167 59.326 123.923 59.39 C 123.76 59.482 123.627 59.557 123.521 59.611 C 123.416 59.667 123.322 59.694 123.239 59.694 C 122.882 59.694 122.629 59.667 122.484 59.611 C 122.337 59.557 122.263 59.482 122.263 59.39 C 122.297 59.088 122.353 58.794 122.435 58.51 C 122.401 58.474 122.365 58.419 122.323 58.344 C 122.285 58.271 122.224 58.179 122.141 58.069 C 122.06 57.353 121.954 56.619 121.824 55.865 C 121.871 55.324 121.896 54.778 121.896 54.227 C 121.896 53.971 121.918 53.646 121.957 53.257 C 121.999 52.867 122.076 52.415 122.189 51.901 C 122.304 51.387 122.385 50.937 122.435 50.551 C 122.484 50.166 122.507 49.85 122.507 49.601 C 122.507 49.491 122.529 49.351 122.568 49.181 C 122.61 49.012 122.654 48.803 122.703 48.554 C 122.751 48.344 122.801 48.153 122.85 47.982 C 122.898 47.813 122.924 47.661 122.924 47.522 C 122.924 47.449 122.915 47.371 122.898 47.288 C 122.882 47.206 122.864 47.131 122.85 47.067 C 123.011 46.839 123.133 46.653 123.213 46.51 C 123.296 46.369 123.338 46.274 123.338 46.228 C 123.271 46.108 123.2 45.989 123.12 45.869 C 123.216 45.74 123.322 45.51 123.435 45.174 C 123.548 44.839 123.67 44.401 123.801 43.859 C 123.801 43.749 123.801 43.617 123.801 43.46 C 123.801 43.304 123.809 43.115 123.825 42.895 L 123.68 42.648 C 123.613 42.63 123.497 42.607 123.325 42.578 C 123.155 42.551 122.938 42.528 122.679 42.509 L 122.362 42.633 C 122.15 42.662 121.935 42.689 121.715 42.717 C 121.495 42.745 121.265 42.777 121.021 42.813 C 119.327 43.08 117.651 43.341 115.995 43.597 C 115.864 43.597 115.757 43.568 115.676 43.508 C 115.594 43.449 115.554 43.368 115.554 43.267 C 115.554 43.213 115.594 43.117 115.676 42.978 C 115.757 42.841 115.888 42.662 116.066 42.441 C 116.101 42.121 116.14 41.854 116.19 41.643 C 116.239 41.432 116.294 41.271 116.361 41.161 C 116.489 40.958 116.689 40.789 116.956 40.651 C 117.225 40.513 117.547 40.408 117.92 40.334 C 118.67 40.197 119.369 40.105 120.019 40.058 C 120.669 40.014 121.27 40.01 121.824 40.046 Z" fill="white"/>
          <path d="M 141.368 51.994 C 141.368 52.178 141.542 52.422 141.89 52.73 C 142.24 53.038 142.763 53.417 143.461 53.867 C 143.915 54.152 144.383 54.428 144.868 54.699 C 145.351 54.969 145.831 55.244 146.309 55.519 C 146.518 55.647 146.787 55.815 147.118 56.022 C 147.449 56.228 147.835 56.469 148.276 56.745 C 148.594 56.928 148.928 57.111 149.276 57.294 C 149.626 57.478 150.002 57.662 150.407 57.846 C 150.676 58.002 150.976 58.172 151.307 58.356 C 151.638 58.539 152.017 58.735 152.447 58.947 C 152.692 59.057 152.881 59.257 153.016 59.547 C 153.151 59.835 153.231 60.209 153.255 60.668 L 153.09 61.027 L 152.907 61.095 C 152.784 61.095 152.621 61.056 152.419 60.978 C 152.217 60.9 151.963 60.789 151.656 60.641 C 151.595 60.613 151.316 60.512 150.819 60.337 C 150.323 60.163 149.61 59.916 148.68 59.594 C 148.166 59.429 147.694 59.243 147.266 59.036 C 146.836 58.83 146.444 58.612 146.088 58.383 C 145.881 58.245 145.614 58.094 145.29 57.929 C 144.965 57.764 144.582 57.584 144.142 57.392 C 143.687 57.198 143.295 57.015 142.964 56.841 C 142.633 56.666 142.371 56.519 142.175 56.4 C 141.513 55.996 140.974 55.688 140.557 55.477 C 140.142 55.265 139.853 55.16 139.694 55.16 C 139.572 55.29 139.505 55.423 139.492 55.56 C 139.345 55.992 139.189 56.536 139.023 57.192 C 138.858 57.848 138.678 58.612 138.482 59.484 C 138.482 59.64 138.445 59.757 138.371 59.835 C 138.297 59.913 138.187 59.953 138.04 59.953 C 137.563 59.953 137.201 59.866 136.956 59.691 C 136.712 59.516 136.59 59.254 136.59 58.906 C 136.59 58.438 136.629 57.947 136.708 57.433 C 136.787 56.919 136.92 56.377 137.102 55.808 C 137.165 55.56 137.21 55.337 137.242 55.14 C 137.272 54.942 137.287 54.762 137.287 54.596 C 137.287 54.175 137.044 53.812 136.561 53.508 C 136.078 53.206 135.835 52.99 135.835 52.861 C 135.835 52.66 135.874 52.483 135.954 52.331 C 136.034 52.18 136.155 52.058 136.313 51.966 C 136.718 51.774 137.091 51.591 137.435 51.415 C 137.521 51.378 137.579 51.316 137.609 51.229 C 137.64 51.142 137.656 51.02 137.656 50.865 C 137.656 50.773 137.656 50.674 137.656 50.569 C 137.656 50.463 137.656 50.364 137.656 50.273 C 137.692 49.456 137.722 48.607 137.746 47.726 C 137.746 47.661 137.746 47.559 137.746 47.422 C 137.746 47.285 137.734 47.106 137.709 46.885 C 137.685 46.72 137.679 46.566 137.69 46.424 C 137.703 46.281 137.709 46.151 137.709 46.031 C 137.635 45.848 137.571 45.689 137.516 45.557 C 137.463 45.424 137.435 45.297 137.435 45.178 C 137.435 45.068 137.447 44.896 137.47 44.661 C 137.496 44.427 137.508 44.26 137.508 44.159 C 137.508 44.031 137.493 43.851 137.463 43.622 C 137.431 43.392 137.416 43.218 137.416 43.099 C 137.416 42.768 137.516 42.451 137.718 42.149 C 137.92 41.845 138.23 41.548 138.647 41.254 C 139.051 40.997 139.464 40.802 139.887 40.668 C 140.309 40.535 140.74 40.469 141.182 40.469 C 141.391 40.469 141.7 40.48 142.111 40.503 C 142.52 40.526 142.842 40.538 143.076 40.538 C 143.234 40.538 143.668 40.639 144.38 40.84 C 144.661 40.859 144.913 40.885 145.133 40.917 C 145.354 40.949 145.531 40.983 145.666 41.02 C 145.972 41.13 146.212 41.215 146.383 41.275 C 146.554 41.335 146.678 41.368 146.75 41.377 C 146.959 41.432 147.139 41.479 147.292 41.516 C 147.446 41.553 147.571 41.598 147.669 41.653 C 147.829 41.708 148.015 41.773 148.23 41.846 C 148.444 41.92 148.685 42.003 148.955 42.094 C 149.397 42.259 149.809 42.451 150.195 42.672 C 150.581 42.892 150.946 43.131 151.288 43.388 C 151.68 43.718 151.975 44.042 152.171 44.359 C 152.367 44.675 152.466 44.991 152.466 45.302 C 152.466 45.393 152.455 45.524 152.438 45.694 C 152.419 45.865 152.386 46.055 152.336 46.266 C 152.299 46.531 152.114 46.818 151.785 47.126 C 151.454 47.434 150.976 47.771 150.351 48.139 C 149.8 48.46 149.286 48.728 148.807 48.944 C 148.33 49.16 147.89 49.314 147.486 49.405 C 147.327 49.488 147.203 49.567 147.118 49.64 C 146.994 49.731 146.737 49.859 146.347 50.024 C 145.955 50.19 145.421 50.397 144.747 50.645 C 143.522 51.094 142.652 51.391 142.138 51.533 C 141.624 51.675 141.368 51.829 141.368 51.994 Z M 139.438 45.357 C 139.671 45.229 139.89 45.102 140.097 44.978 C 140.306 44.853 140.576 44.792 140.907 44.792 C 141.054 44.792 141.235 44.914 141.449 45.157 C 141.664 45.401 141.771 45.582 141.771 45.701 C 141.771 45.766 141.741 45.912 141.678 46.142 C 141.617 46.371 141.518 46.684 141.383 47.079 C 141.102 47.969 140.944 48.527 140.907 48.751 C 140.871 48.976 140.791 49.327 140.668 49.805 C 140.618 49.924 140.569 50.079 140.52 50.273 C 140.52 50.356 140.542 50.415 140.585 50.452 C 140.629 50.488 140.687 50.506 140.759 50.506 C 143.198 49.588 144.46 49.112 144.545 49.074 C 144.644 49.056 144.747 49.031 144.859 48.999 C 144.968 48.967 145.072 48.933 145.169 48.896 L 145.445 48.635 C 146.155 48.295 146.89 47.932 147.65 47.547 C 148.128 47.271 148.482 47 148.716 46.734 C 148.95 46.469 149.066 46.202 149.066 45.935 C 149.066 45.596 148.803 45.261 148.276 44.93 C 147.749 44.6 146.959 44.283 145.905 43.981 C 145.011 43.714 144.197 43.519 143.461 43.395 C 142.726 43.27 142.059 43.209 141.458 43.209 C 140.674 43.209 140.084 43.313 139.685 43.519 C 139.287 43.726 139.088 44.031 139.088 44.434 C 139.088 44.746 139.119 44.983 139.18 45.143 C 139.241 45.303 139.326 45.375 139.438 45.357 Z" fill="white"/>
          <path d="M 159.361 57.917 C 159.846 57.917 160.229 57.952 160.511 58.021 C 160.791 58.09 160.964 58.184 161.026 58.303 L 160.794 59.363 C 160.746 59.493 160.716 59.623 160.7 59.757 C 160.682 59.889 160.652 60.019 160.605 60.149 C 160.525 60.268 160.393 60.355 160.205 60.41 C 160.016 60.466 159.759 60.492 159.432 60.492 C 159.18 60.492 158.831 60.527 158.387 60.596 C 157.941 60.664 157.6 60.699 157.364 60.699 C 157.005 60.699 156.736 60.605 156.556 60.417 C 156.375 60.228 156.285 59.937 156.285 59.543 C 156.285 59.175 156.633 58.812 157.329 58.454 C 158.026 58.097 158.703 57.917 159.361 57.917 Z M 158.892 49.326 C 159.064 49.023 159.197 48.757 159.29 48.527 C 159.384 48.298 159.432 48.105 159.432 47.949 C 159.432 47.866 159.412 47.758 159.371 47.626 C 159.334 47.493 159.306 47.174 159.29 46.668 C 159.197 46.688 159.095 46.697 158.985 46.697 L 158.586 46.544 L 158.516 46.352 C 158.516 46.14 158.629 45.833 158.857 45.429 C 159.082 45.025 159.18 44.728 159.149 44.534 L 159.126 43.805 C 159.095 43.676 159.107 43.531 159.161 43.37 C 159.214 43.21 159.306 43.047 159.432 42.882 C 159.557 42.681 159.698 42.518 159.855 42.394 C 160.011 42.269 160.181 42.19 160.369 42.153 C 160.447 42.125 160.538 42.099 160.64 42.077 C 160.743 42.054 160.839 42.034 160.933 42.014 C 161.231 41.877 161.513 41.746 161.78 41.622 C 162.045 41.498 162.288 41.372 162.507 41.244 C 162.897 41.088 163.255 40.963 163.574 40.872 C 163.896 40.78 164.179 40.734 164.432 40.734 C 164.637 40.734 164.78 40.792 164.866 40.906 C 164.952 41.021 164.995 41.193 164.995 41.422 C 164.995 41.559 164.968 41.741 164.911 41.967 C 164.857 42.191 164.767 42.451 164.644 42.745 C 164.517 43.047 164.414 43.309 164.336 43.529 C 164.258 43.75 164.211 43.929 164.195 44.066 C 164.179 44.268 164.11 44.633 163.985 45.161 C 163.861 45.689 163.673 46.366 163.421 47.191 C 163.25 47.743 163.038 48.442 162.789 49.291 C 162.537 50.141 162.249 51.125 161.919 52.246 C 161.919 52.347 161.9 52.466 161.861 52.603 C 161.823 52.74 161.78 52.911 161.732 53.112 C 161.701 53.167 161.662 53.23 161.614 53.298 C 161.569 53.367 161.505 53.439 161.427 53.512 C 161.395 53.576 161.34 53.776 161.261 54.11 C 161.183 54.445 161.099 54.921 161.004 55.536 C 160.957 55.71 160.546 55.997 159.772 56.396 C 158.997 56.796 158.477 56.996 158.21 56.996 C 158.039 56.987 157.93 56.959 157.882 56.912 C 157.882 56.868 157.873 56.78 157.859 56.651 C 157.843 56.523 157.834 56.427 157.834 56.363 L 158.071 55.797 C 158.008 55.467 157.946 55.145 157.882 54.833 C 157.882 54.622 157.895 54.421 157.917 54.228 C 157.94 54.035 157.969 53.846 157.999 53.663 C 158.094 53.452 158.187 53.282 158.28 53.154 C 158.329 53.062 158.367 52.966 158.399 52.865 C 158.431 52.763 158.447 52.681 158.447 52.617 C 158.431 52.378 158.422 52.153 158.422 51.942 C 158.422 51.988 158.426 51.961 158.433 51.86 C 158.442 51.758 158.452 51.598 158.468 51.378 C 158.5 51.294 158.516 51.215 158.516 51.137 C 158.516 51.059 158.516 50.974 158.516 50.882 C 158.688 50.597 158.809 50.327 158.879 50.069 C 158.95 49.813 158.953 49.565 158.892 49.326 Z" fill="white"/>
          <path d="M 172.719 61.14 C 172.645 61.14 172.569 61.14 172.494 61.14 C 172.42 61.14 172.323 61.14 172.203 61.14 C 171.844 61.14 171.539 61.076 171.292 60.946 C 171.044 60.818 170.876 60.617 170.786 60.341 C 170.757 60.258 170.735 60.104 170.719 59.88 C 170.703 59.655 170.697 59.354 170.697 58.977 C 170.697 58.822 170.674 58.579 170.629 58.248 C 170.584 57.917 170.562 57.674 170.562 57.517 C 170.562 57.462 170.58 57.366 170.616 57.229 C 170.654 57.092 170.681 56.903 170.697 56.664 C 170.728 56.445 170.757 56.178 170.786 55.865 C 170.757 55.572 170.705 55.283 170.629 54.999 C 170.734 54.512 170.854 54.016 170.991 53.512 C 171.002 53.439 170.992 53.306 170.956 53.112 C 170.919 52.918 170.901 52.79 170.901 52.726 C 170.901 52.662 170.925 52.569 170.977 52.444 C 171.03 52.32 171.057 52.221 171.057 52.148 C 171.057 52.057 171.03 51.983 170.977 51.928 C 170.925 51.873 170.848 51.846 170.744 51.846 C 170.667 51.864 170.58 51.884 170.484 51.907 C 170.385 51.93 170.284 51.956 170.179 51.983 C 170.09 51.992 169.979 52.011 169.842 52.038 C 169.707 52.065 169.543 52.097 169.346 52.134 L 169.145 52.052 L 169.079 51.914 C 169.214 51.767 169.352 51.625 169.494 51.487 C 169.636 51.35 169.765 51.211 169.886 51.074 C 170.022 50.955 170.188 50.848 170.382 50.757 C 170.577 50.666 170.78 50.574 170.991 50.482 C 171.153 50.427 171.292 50.281 171.403 50.041 C 171.516 49.802 171.603 49.454 171.663 48.995 C 171.724 48.472 171.792 48.045 171.866 47.714 C 171.94 47.384 172.015 47.159 172.091 47.04 C 172.149 46.93 172.226 46.788 172.314 46.613 C 172.314 46.558 172.291 46.471 172.248 46.352 C 172.201 46.233 172.179 46.149 172.179 46.103 C 172.284 45.682 172.388 45.273 172.494 44.878 C 172.673 44.309 173.049 43.74 173.62 43.171 C 174.189 42.601 174.952 42.005 175.91 41.381 C 176.9 40.784 178.332 40.352 180.206 40.087 C 180.415 40.113 180.601 40.142 180.768 40.169 L 181.509 40.003 C 181.583 40.003 181.676 40.017 181.79 40.046 C 181.901 40.072 182.049 40.113 182.228 40.169 C 182.573 40.105 182.873 40.058 183.125 40.031 C 183.381 40.005 183.584 39.99 183.732 39.99 C 184.664 39.99 185.356 40.066 185.814 40.217 C 186.271 40.369 186.499 40.601 186.499 40.912 C 186.499 41.088 186.48 41.285 186.442 41.504 C 186.406 41.725 186.342 41.963 186.252 42.221 C 186.146 42.56 186.027 42.814 185.892 42.985 C 185.757 43.155 185.608 43.249 185.442 43.267 C 185.053 43.156 184.657 43.054 184.252 42.958 C 183.848 42.862 183.427 42.758 182.993 42.648 L 182.182 42.84 C 181.929 42.822 181.652 42.799 181.353 42.772 C 181.096 42.772 180.807 42.787 180.486 42.819 C 180.162 42.851 179.83 42.895 179.484 42.95 C 178.541 43.087 177.993 43.278 177.844 43.522 C 177.696 43.765 177.44 44.093 177.08 44.506 C 176.96 44.598 176.768 44.97 176.507 45.621 C 176.244 46.274 175.896 47.2 175.46 48.403 C 175.447 48.458 175.391 48.555 175.293 48.692 C 175.196 48.83 175.147 48.945 175.147 49.036 C 175.147 49.165 175.186 49.264 175.26 49.332 C 175.334 49.401 175.431 49.441 175.552 49.45 C 175.775 49.385 176.079 49.314 176.462 49.236 C 176.844 49.158 177.304 49.073 177.844 48.981 C 178.324 48.944 178.806 48.896 179.294 48.837 C 179.78 48.777 180.287 48.701 180.813 48.609 C 180.961 48.609 181.149 48.609 181.374 48.609 C 181.599 48.609 181.862 48.609 182.161 48.609 C 182.671 48.554 183.188 48.499 183.712 48.444 C 184.581 48.444 185.232 48.519 185.666 48.672 C 186.101 48.823 186.32 49.036 186.32 49.312 C 186.32 49.367 186.307 49.508 186.285 49.732 C 186.262 49.956 186.23 50.257 186.184 50.633 C 185.989 50.845 185.786 51.06 185.576 51.28 C 185.442 51.28 185.098 51.246 184.543 51.178 C 183.989 51.109 183.202 51.005 182.182 50.868 C 181.823 50.923 181.432 50.966 181.014 50.998 C 180.595 51.03 180.159 51.047 179.711 51.047 C 179.426 51.047 179.018 51.074 178.484 51.129 C 177.953 51.184 177.545 51.216 177.262 51.225 C 177.064 51.317 176.867 51.384 176.664 51.425 C 176.462 51.466 176.263 51.487 176.067 51.487 C 175.963 51.487 175.732 51.473 175.37 51.446 C 175.177 51.446 174.99 51.553 174.81 51.77 C 174.631 51.985 174.473 52.317 174.338 52.767 L 174.113 53.359 L 174.27 53.786 L 173.845 55.426 C 173.845 55.49 173.855 55.565 173.876 55.652 C 173.9 55.74 173.91 55.829 173.91 55.92 C 173.717 56.655 173.577 57.374 173.493 58.076 C 173.412 58.777 173.37 59.477 173.37 60.176 C 173.37 60.323 173.318 60.478 173.213 60.644 C 173.109 60.809 172.944 60.974 172.719 61.14 Z" fill="white"/>
          <path d="M 201.026 54.86 C 201.026 54.75 200.833 54.626 200.447 54.489 C 200.06 54.351 199.467 54.195 198.662 54.021 C 198.179 53.93 197.703 53.843 197.234 53.759 C 196.765 53.676 196.295 53.58 195.826 53.47 C 195.583 53.406 195.402 53.356 195.28 53.318 C 194.993 53.263 194.701 53.211 194.405 53.161 C 194.11 53.111 193.812 53.053 193.509 52.988 C 193.297 52.915 193.139 52.807 193.031 52.665 C 192.925 52.522 192.872 52.331 192.872 52.093 L 192.758 51.762 C 192.758 51.607 192.883 51.401 193.134 51.143 C 193.384 50.886 193.751 50.578 194.236 50.22 C 195.296 49.459 196.314 48.654 197.289 47.804 C 198.266 46.954 199.187 46.071 200.05 45.153 C 200.185 45.034 200.306 44.883 200.413 44.7 C 200.413 44.57 200.277 44.469 200.004 44.396 C 199.731 44.323 199.314 44.286 198.754 44.286 C 198.073 44.286 197.241 44.347 196.257 44.472 C 195.271 44.596 194.122 44.777 192.805 45.016 C 192.396 45.107 192.018 45.194 191.67 45.278 C 191.427 45.323 191.218 45.362 191.044 45.394 C 190.87 45.426 190.716 45.443 190.578 45.443 C 190.307 45.443 190.106 45.402 189.976 45.319 C 189.848 45.235 189.784 45.107 189.784 44.933 C 189.784 44.842 189.822 44.695 189.897 44.492 C 189.974 44.291 190.095 44.029 190.262 43.708 C 190.474 43.295 190.742 42.949 191.067 42.668 C 191.392 42.387 191.783 42.169 192.236 42.014 C 192.509 41.922 192.923 41.837 193.476 41.759 C 194.027 41.681 194.705 41.614 195.507 41.559 C 195.81 41.486 196.168 41.42 196.585 41.361 C 197.002 41.3 197.484 41.262 198.028 41.243 C 198.466 41.234 198.902 41.229 199.333 41.229 C 199.764 41.229 200.2 41.215 200.64 41.188 C 201.154 41.179 201.662 41.213 202.162 41.291 C 202.66 41.37 203.153 41.5 203.637 41.684 C 204.167 41.895 204.565 42.128 204.829 42.386 C 205.095 42.644 205.227 42.914 205.227 43.199 C 205.227 43.492 205.156 43.763 205.012 44.01 C 204.868 44.257 204.659 44.492 204.386 44.712 C 202.039 46.64 200.268 48.125 199.073 49.167 C 197.877 50.209 197.278 50.821 197.278 51.005 C 197.278 51.115 197.46 51.232 197.823 51.356 C 198.188 51.48 198.709 51.62 199.39 51.776 C 200.345 51.978 201.155 52.166 201.821 52.34 C 202.486 52.516 203.002 52.685 203.364 52.85 C 204.106 53.135 204.651 53.454 204.999 53.807 C 205.349 54.16 205.523 54.558 205.523 54.999 C 205.342 56.018 203.918 57.146 201.252 58.385 C 201.101 58.449 200.901 58.543 200.65 58.667 C 200.4 58.792 200.103 58.922 199.754 59.061 C 198.256 59.593 196.801 60.103 195.392 60.589 C 195.181 60.616 194.917 60.653 194.599 60.699 C 194.281 60.745 193.94 60.8 193.576 60.864 C 193.274 60.947 193.031 61.012 192.848 61.056 C 192.667 61.103 192.532 61.126 192.441 61.126 C 192.094 61.126 191.795 61.117 191.545 61.097 C 191.294 61.08 191.085 61.047 190.919 61.001 C 190.42 61.056 189.951 61.112 189.511 61.167 C 189.042 61.167 188.689 61.123 188.456 61.036 C 188.221 60.949 188.103 60.813 188.103 60.63 C 188.103 60.418 188.364 60.221 188.887 60.037 C 189.409 59.854 190.192 59.579 191.239 59.212 C 192.13 58.9 193.235 58.486 194.553 57.972 C 195.871 57.458 197.392 56.847 199.117 56.141 C 199.571 55.875 200.026 55.618 200.481 55.37 C 200.647 55.251 200.78 55.153 200.879 55.074 C 200.976 54.996 201.026 54.924 201.026 54.86 Z" fill="white"/>
          <path d="M77.4465 32.667C73.6889 31.0488 69.7033 29.8651 65.5874 29.1592C65.0118 30.1474 64.5122 31.1248 64.0778 32.1783C59.7447 31.5484 55.2486 31.5484 50.9155 32.1783C50.4811 31.1248 49.9815 30.1474 49.406 29.1592C45.3552 29.8651 41.3804 31.0597 37.5468 32.743C30.1077 43.4835 28.0769 53.9417 29.0869 64.3347C33.4961 67.495 38.4156 69.8842 43.6176 71.4263C44.7687 69.8842 45.8547 68.266 46.7235 66.5827C45.062 65.9529 43.4004 65.1818 41.8148 64.3347C42.2492 64.0524 42.6076 63.77 43.042 63.4876C52.2187 67.7013 62.8398 67.7013 72.0925 63.4876C72.4509 63.77 72.8853 64.1284 73.3197 64.3347C71.7341 65.247 70.1486 66.018 68.411 66.5827C69.2798 68.266 70.3658 69.8842 71.5169 71.4263C76.7189 69.8842 81.6384 67.495 86.0476 64.3347C87.1988 52.3236 83.9516 41.9305 77.4465 32.667ZM47.9507 57.949C45.1271 57.949 42.7488 55.4187 42.7488 52.3996C42.7488 49.3805 44.9968 46.785 47.8856 46.785C50.7743 46.785 53.0875 49.3153 53.0875 52.3996C53.0875 55.4838 50.8395 57.949 47.9507 57.949ZM67.0317 57.949C64.2081 57.949 61.9058 55.4187 61.9058 52.3996C61.9058 49.3805 64.143 46.785 67.0317 46.785C69.9205 46.785 72.2445 49.3153 72.1685 52.3996C72.1685 55.4838 69.9205 57.949 67.0317 57.949Z" fill="white"/>
        </g>
      </g>
    </g>
  </g>
  <defs>
    <linearGradient id="paint0_linear_867_93740" x1="36.4309" y1="43.11" x2="759.655" y2="392.07" gradientUnits="userSpaceOnUse">
      <stop stop-color="#FF8C19"/>
      <stop offset="0.33" stop-color="#FFB93A"/>
      <stop offset="0.67" stop-color="#FFE75C"/>
    </linearGradient>
    <linearGradient id="paint1_linear_867_93740" x1="505.629" y1="64.0899" x2="518.197" y2="192.477" gradientUnits="userSpaceOnUse">
      <stop offset="0.02" stop-color="#F1AA4B"/>
      <stop offset="0.09" stop-color="#F2B868"/>
      <stop offset="0.16" stop-color="#F4C585"/>
      <stop offset="0.58" stop-color="#FAE2C2"/>
      <stop offset="1" stop-color="white"/>
    </linearGradient>
    <linearGradient id="paint2_linear_867_93740" x1="531.486" y1="130.228" x2="539.652" y2="184.473" gradientUnits="userSpaceOnUse">
      <stop stop-color="#F4BE74"/>
      <stop offset="0.33" stop-color="#F8D7AA"/>
      <stop offset="0.7" stop-color="#FCF0E0"/>
    </linearGradient>
    <clipPath id="clip0_867_93740">
      <rect x="2" y="3" width="810.5" height="430" rx="44" fill="white"/>
    </clipPath>
    <clipPath id="clip1_867_93740">
      <rect width="900" height="600" fill="white" transform="translate(-43 -167)"/>
    </clipPath>
  </defs>
</svg>