<?xml version="1.0" encoding="utf-8"?>
<svg width="815" height="435" viewBox="0 0 815 435" fill="none" xmlns="http://www.w3.org/2000/svg">
  <g clip-path="url(#clip0_867_89609)">
    <rect x="2" y="3" width="810.5" height="430" rx="44" fill="white"/>
    <mask id="mask0_867_89609" style="mask-type:luminance" maskUnits="userSpaceOnUse" x="-44" y="-167" width="900" height="600">
      <path d="M856 -167H-44V433H856V-167Z" fill="white"/>
    </mask>
    <g mask="url(#mask0_867_89609)">
      <path d="M43.737 2.66016C20.776 2.66016 1.98999 21.4472 1.98999 44.4082V392.857C1.98999 415.818 20.776 434.605 43.737 434.605H770.716C793.677 434.605 812.464 415.818 812.464 392.857V44.4082C812.464 21.4472 793.677 2.66016 770.716 2.66016H43.737Z" fill="url(#paint0_linear_867_89609)"/>
      <g opacity="0.2">
        <path d="M206.876 144.43H318.288C319.05 144.43 319.697 143.865 319.788 143.108C320.266 139.119 320.225 126.613 304.499 112.737C288.175 98.333 254.083 104.669 243.818 129.123C243.543 129.779 242.843 130.146 242.145 130.014C236.888 129.018 215.889 126.194 205.615 142.081C204.96 143.094 205.67 144.43 206.876 144.43Z" fill="white"/>
      </g>
      <g opacity="0.2">
        <path d="M42.155 434.372H769.133C792.095 434.372 810.881 415.586 810.881 392.624V293.471C688.029 292.289 628.06 400.513 628.06 400.513C628.06 400.513 551.81 278.807 427.17 277.341C302.531 275.874 265.872 340.392 265.872 340.392C265.872 340.392 158.829 190.825 98.709 173.229C38.589 155.633 0.463989 198.158 0.463989 198.158V394.786C1.59799 416.753 19.919 434.372 42.155 434.372Z" fill="white"/>
      </g>
      <path d="M1.98402 395.523C1.98402 395.523 -1.38798 371.916 21.57 364.372C41.859 357.705 56.787 372.029 56.787 372.029C56.787 372.029 50.1 325.223 84.368 309.284C125.802 290.013 162.417 316.029 161.891 370.072C161.891 370.072 197.191 354.39 230.61 377.543C256.711 395.625 254.994 425.763 251.811 434.089" stroke="#3B47D9" stroke-width="1.245" stroke-miterlimit="10"/>
      <path d="M262.782 213.932C263.051 216.262 264.961 229.77 272.945 230.982C264.956 232.184 263.051 245.715 262.782 248.03C262.508 245.715 260.602 232.184 252.613 230.982C260.597 229.77 262.508 216.262 262.782 213.932Z" fill="#4EADF4"/>
      <path d="M786.603 125.65C786.803 127.377 788.218 137.389 794.136 138.288C788.215 139.179 786.803 149.208 786.603 150.924C786.4 149.208 784.987 139.179 779.066 138.288C784.984 137.389 786.4 127.377 786.603 125.65Z" fill="#D3E3EF"/>
      <path d="M148.393 126.45C148.766 129.682 151.416 148.423 162.494 150.105C151.409 151.773 148.766 170.545 148.393 173.758C148.013 170.545 145.37 151.773 134.286 150.105C145.364 148.423 148.013 129.682 148.393 126.45Z" fill="#97FFBA"/>
      <path d="M693.553 130.978C693.553 170.138 661.808 201.883 622.648 201.883C583.488 201.882 551.743 170.137 551.743 130.977C551.743 91.8173 583.488 60.0724 622.648 60.0725C661.808 60.0727 693.553 91.8178 693.553 130.978Z" fill="#57F287"/>
      <path d="M619.889 83.1375C619.889 119.7 590.25 149.339 553.688 149.339C517.125 149.339 487.485 119.7 487.485 83.137C487.485 46.574 517.304 17.9991 553.867 17.9993C590.429 17.9994 619.889 46.5745 619.889 83.1375Z" fill="#57F287"/>
      <path d="M537.747 133.37C537.747 170.509 507.64 200.616 470.501 200.616C433.362 200.616 403.255 170.509 403.255 133.37C403.255 96.2305 433.362 66.1236 470.501 66.1238C507.64 66.1239 537.747 96.231 537.747 133.37Z" fill="#57F287"/>
      <path d="M784.782 183.305L434.365 183.259L294.417 183.074L295.707 156.833L661.96 156.826L785.057 157.6L784.782 183.305Z" fill="black"/>
      <path d="M294.899 183.842L294.899 130.11L663.42 130.112L663.42 183.844L294.899 183.842Z" fill="#EA449E"/>
      <path d="M643.417 142.211C651.253 142.211 657.808 136.797 659.593 129.511L627.241 129.511C629.025 136.797 635.581 142.211 643.417 142.211Z" fill="#E5AAD8"/>
      <path d="M595.133 163.974C583.336 163.974 573.295 171.477 569.511 181.97L620.755 181.97C616.971 171.477 606.93 163.974 595.133 163.974Z" fill="#E5AAD8"/>
      <path d="M552.077 142.211C559.913 142.211 566.469 136.797 568.253 129.511L535.901 129.511C537.685 136.797 544.241 142.211 552.077 142.211Z" fill="#E5AAD8"/>
      <path d="M412.001 142.211C419.837 142.211 426.393 136.797 428.177 129.511L395.825 129.511C397.609 136.797 404.165 142.211 412.001 142.211Z" fill="#E5AAD8"/>
      <path d="M343.698 163.973C331.901 163.973 321.86 171.476 318.076 181.969L369.32 181.969C365.536 171.476 355.495 163.973 343.698 163.973Z" fill="#E5AAD8"/>
      <path d="M518.138 129.26L446.04 129.26L446.04 181.914L518.138 181.914L518.138 129.26Z" fill="#56F186"/>
      <path d="M785.344 182.984L662 182.984L662 129.477L785.344 129.477L785.344 182.984Z" fill="#D01482"/>
      <path d="M689.341 168.617C682.073 168.617 673.876 174.803 673.556 182.869L705.126 182.869C704.126 174.19 696.609 168.617 689.341 168.617Z" fill="#E5AAD8"/>
      <path d="M768.116 172.319C762.736 172.319 756.668 176.898 756.431 182.869L779.802 182.869C779.061 176.444 773.496 172.319 768.116 172.319Z" fill="#E5AAD8"/>
      <path d="M750.556 142.977C757.265 142.978 765.626 137.72 765.126 129.493L735.985 129.493C736.001 138.211 743.847 142.977 750.556 142.977Z" fill="#E5AAD8"/>
      <path d="M742.001 129.63L710.751 129.63L710.751 183L742.001 183L742.001 129.63Z" fill="#28CB79"/>
      <path d="M304.479 183.178L662.001 183.179L775.344 183.18" stroke="#8E286F" stroke-width="5" stroke-linecap="round" stroke-linejoin="round"/>
      <path d="M773.532 225.629L304.5 228.565L304.143 178.232L434.715 157.096L774.633 156.749L773.532 225.629Z" fill="black"/>
      <path d="M462.67 400.379C462.67 400.379 389.029 481.72 394.351 489.584C407.072 508.379 403.099 485.579 445.221 483.385" stroke="#688DFF" stroke-width="80.0023" stroke-linecap="round"/>
      <path d="M688.276 402.546C690.654 424.019 697.254 442.423 701.329 457.19" stroke="#3C57D8" stroke-width="85.0024" stroke-linecap="round"/>
      <path d="M688.276 409.69C691.079 435.006 699.752 456.055 703.235 471.909C705.51 482.265 696.3 439.674 676.888 382.678" stroke="#688DFF" stroke-width="85.0024" stroke-linecap="round"/>
      <path d="M579.391 367.75L486.063 367.75C468.502 367.75 456.348 373.393 448.019 380.431C437.004 389.738 430.913 403.623 430.913 418.043L430.913 515.116C430.913 542.673 453.253 565.014 480.811 565.014L628.681 565.014C656.239 565.014 678.579 542.673 678.579 515.116L678.579 418.004C678.579 404.192 673.008 390.83 662.767 381.563C654.419 374.008 641.923 367.75 623.43 367.75L530.102 367.75" fill="#698EFF"/>
      <path d="M674.957 405.91C672.959 425.218 620.782 435.64 558.414 429.187C496.047 422.734 447.107 401.85 449.105 382.542C451.103 363.234 503.282 352.812 565.648 359.265C628.016 365.718 676.955 386.602 674.957 405.91Z" fill="#4B67EC"/>
      <path d="M396.671 305.857L412.188 309.173C431.096 313.211 449.87 301.044 453.908 282.136L460.995 248.958C465.032 230.051 452.867 211.275 433.959 207.237L418.441 203.924C399.533 199.885 380.76 212.05 376.722 230.958L369.635 264.138C365.597 283.046 377.763 301.819 396.671 305.857Z" fill="#698EFF"/>
      <path d="M400.811 279.984L419.044 283.879C422.257 284.565 425.449 282.496 426.135 279.282L436.149 232.394C436.838 229.171 434.764 225.97 431.54 225.282L413.324 221.392C405.788 219.783 398.305 224.631 396.696 232.167L390.035 263.355C388.425 270.892 393.275 278.375 400.811 279.984Z" fill="#B7CDFF"/>
      <path d="M727.988 364.301L712.349 361.622C693.292 358.357 680.371 340.095 683.636 321.038L689.365 287.597C692.629 268.541 710.892 255.621 729.949 258.885L745.588 261.565C764.645 264.829 777.566 283.092 774.301 302.148L768.572 335.588C765.308 354.644 747.045 367.565 727.988 364.301Z" fill="#698EFF"/>
      <path d="M733.743 338.737L715.366 335.59C712.127 335.035 709.931 331.931 710.486 328.692L718.581 281.435C719.137 278.186 722.251 275.983 725.5 276.54L743.859 279.684C751.454 280.985 756.605 288.266 755.304 295.861L749.918 327.294C748.617 334.89 741.339 340.038 733.743 338.737Z" fill="#B7CDFF"/>
      <path d="M627.14 415.472C590.428 411.495 492.173 396.224 460.835 387.608C429.666 379.039 399.464 347.162 406.299 310.447L418.515 253.676C428.155 199.766 457.235 189.568 505.908 193.849C557.897 198.424 649.918 215.341 667.007 218.842C713.87 228.44 732.004 261.117 725.169 297.832L714.343 363.232C706.797 403.767 672.917 420.43 627.14 415.472Z" fill="#698EFF"/>
      <path d="M591.985 424.205C586.847 426.706 579.566 433.018 591.778 442.609C596.887 446.62 632.867 435.266 634.047 428.422C634.047 428.422 635.237 423.526 632.294 420.803C624.021 413.15 598.387 421.089 591.985 424.205Z" fill="#E9459C"/>
      <path d="M591.707 442.594C591.707 442.594 608.676 427.476 634.017 428.415C634.017 428.415 630.821 446.221 613.061 449.617C601.877 451.757 591.707 442.594 591.707 442.594Z" fill="#FFACD6"/>
      <path d="M651.434 356.386C650.367 363.253 643.936 367.963 637.057 366.894C630.188 365.838 625.48 359.397 626.547 352.529C627.605 345.648 634.046 340.94 640.914 342.008C647.793 343.076 652.503 349.507 651.434 356.386ZM476.098 329.34C475.017 336.322 468.475 341.1 461.493 340.019C454.51 338.939 449.731 332.408 450.813 325.414C451.894 318.432 458.425 313.653 465.418 314.735C472.4 315.815 477.178 322.358 476.098 329.34Z" stroke="#070100" stroke-width="5.75839"/>
      <path d="M651.437 356.38C650.371 363.255 643.936 367.965 637.061 366.899C630.187 365.833 625.476 359.397 626.542 352.522C627.608 345.648 634.044 340.939 640.919 342.004C647.794 343.07 652.503 349.505 651.437 356.38Z" fill="#080201"/>
      <path d="M476.099 329.338C475.016 336.321 468.479 341.106 461.496 340.023C454.513 338.94 449.727 332.403 450.81 325.42C451.893 318.437 458.431 313.651 465.414 314.734C472.397 315.817 477.182 322.355 476.099 329.338Z" fill="#080201"/>
      <path d="M568.462 407.772L512.618 398.767C491.628 395.382 477.224 375.44 480.608 354.45L485.685 322.959C487.674 310.624 499.396 302.157 511.733 304.146L593.668 317.358C605.512 319.268 613.639 330.52 611.73 342.364L605.497 381.021C602.668 398.562 586.004 410.6 568.462 407.772Z" fill="#B7CDFF"/>
      <path d="M562.729 383.774L549.643 381.746C545.153 381.05 542.049 376.808 542.744 372.318L542.798 371.97C543.494 367.482 547.736 364.378 552.226 365.073L565.313 367.101C569.803 367.797 572.907 372.039 572.211 376.529L572.157 376.877C571.461 381.365 567.219 384.469 562.729 383.774Z" fill="#698EFF"/>
      <path d="M514.98 376.375L501.893 374.347C497.403 373.652 494.3 369.409 494.995 364.919L495.049 364.572C495.744 360.083 499.987 356.979 504.477 357.675L517.564 359.703C522.054 360.398 525.157 364.641 524.462 369.131L524.408 369.478C523.711 373.967 519.47 377.071 514.98 376.375Z" fill="#698EFF"/>
      <path d="M665.492 433.914L304.628 433.913L304.629 179.519L662.378 179.374L665.492 433.914Z" fill="#EB459F"/>
      <path d="M775.626 433.732L662.381 433.732L662.382 179.338L775.602 156.838L775.626 433.732Z" fill="#D11583"/>
      <path d="M525.804 252.937C511.45 252.937 499.814 264.573 499.814 278.927C499.814 293.281 511.45 304.917 525.804 304.917C540.158 304.917 551.794 293.281 551.794 278.927C551.794 264.573 540.158 252.937 525.804 252.937Z" fill="#E5AAD8"/>
      <path d="M743.241 285.568C757.587 285.079 768.82 273.054 768.331 258.708C767.842 244.362 755.817 233.129 741.471 233.618C734.273 233.863 727.86 237.014 723.317 241.904L724.565 278.537C729.43 283.106 736.043 285.813 743.241 285.568Z" fill="#EA449E"/>
      <path d="M388.507 245.136C370.594 245.136 356.072 259.657 356.072 277.57C356.072 295.484 370.593 310.005 388.507 310.005C406.42 310.005 420.941 295.484 420.941 277.571C420.941 259.658 406.42 245.136 388.507 245.136Z" fill="#E5AAD8"/>
      <path d="M619.353 269.509C602.777 269.509 589.341 282.945 589.341 299.52C589.341 316.096 602.777 329.532 619.352 329.532C635.928 329.532 649.364 316.096 649.364 299.521C649.364 282.946 635.928 269.509 619.353 269.509Z" fill="#E5AAD8"/>
      <path d="M519.387 197.607C531.11 197.607 541.017 189.844 544.256 179.179L494.518 179.179C497.757 189.844 507.664 197.607 519.387 197.607Z" fill="#E5AAD8"/>
      <path d="M399.191 197.607C410.914 197.607 420.821 189.844 424.06 179.179L374.322 179.179C377.561 189.844 387.468 197.607 399.191 197.607Z" fill="#E5AAD8"/>
      <path d="M566.277 337.542C557.489 337.542 550.365 344.666 550.365 353.454C550.365 362.241 557.489 369.365 566.277 369.365C575.065 369.365 582.189 362.241 582.189 353.454C582.189 344.666 575.065 337.542 566.277 337.542Z" fill="#E5AAD8"/>
      <path d="M446.478 306.457C437.69 306.457 430.566 313.581 430.565 322.369C430.565 331.156 437.689 338.28 446.477 338.28C455.265 338.28 462.389 331.156 462.389 322.369C462.39 313.581 455.266 306.457 446.478 306.457Z" fill="#E5AAD8"/>
      <path d="M339.223 332.013C330.435 332.013 323.311 339.137 323.311 347.925C323.311 356.712 330.435 363.836 339.223 363.836C348.011 363.836 355.135 356.712 355.135 347.925C355.135 339.137 348.011 332.013 339.223 332.013Z" fill="#E5AAD8"/>
      <path d="M683.671 322.963C674.883 322.963 667.759 330.087 667.759 338.875C667.759 347.662 674.883 354.786 683.671 354.786C692.459 354.786 699.583 347.662 699.583 338.875C699.583 330.087 692.459 322.963 683.671 322.963Z" fill="#EA449E"/>
      <path d="M584.767 217.303C575.979 217.303 568.855 224.428 568.855 233.216C568.855 242.003 575.979 249.127 584.767 249.127C593.555 249.127 600.679 242.003 600.679 233.216C600.679 224.428 593.555 217.303 584.767 217.303Z" fill="#E5AAD8"/>
      <path d="M351.262 201.311C342.474 201.311 335.35 208.436 335.35 217.224C335.35 226.011 342.474 233.135 351.262 233.135C360.05 233.135 367.174 226.011 367.174 217.224C367.174 208.436 360.05 201.311 351.262 201.311Z" fill="#E5AAD8"/>
      <path d="M706.672 195.307C697.884 195.307 690.76 202.432 690.76 211.22C690.76 220.007 697.884 227.131 706.672 227.131C715.46 227.131 722.584 220.007 722.584 211.22C722.584 202.432 715.46 195.307 706.672 195.307Z" fill="#EA449E"/>
      <path d="M505.705 362.426C487.337 362.426 472.447 377.316 472.447 395.684C472.447 414.052 487.337 428.943 505.705 428.943C524.073 428.943 538.963 414.053 538.964 395.684C538.964 377.316 524.074 362.426 505.705 362.426Z" fill="#E5AAD8"/>
      <path d="M756.917 348.019C742.563 348.019 730.927 359.655 730.927 374.009C730.927 388.363 742.563 399.999 756.917 399.999C764.119 399.999 770.636 397.068 775.343 392.336L775.343 355.682C770.636 350.95 764.119 348.019 756.917 348.019Z" fill="#EA449E"/>
      <path d="M383.386 373.8C369.032 373.8 357.396 385.436 357.396 399.79C357.396 414.144 369.032 425.78 383.386 425.78C397.74 425.78 409.376 414.144 409.376 399.79C409.376 385.436 397.74 373.8 383.386 373.8Z" fill="#E5AAD8"/>
      <path d="M623.346 373.001C612.303 373.001 603.352 381.953 603.352 392.996C603.352 404.038 612.303 412.99 623.346 412.99C634.389 412.99 643.341 404.039 643.341 392.996C643.341 381.953 634.389 373.001 623.346 373.001Z" fill="#E5AAD8"/>
      <path d="M515.346 433.573L448.974 433.573L448.975 179.179L515.347 179.179L515.346 433.573Z" fill="#57F287"/>
      <path d="M742.097 433.574L711.157 433.574L711.166 168.993L742.046 163.055L742.097 433.574Z" fill="#29CC7A"/>
      <path d="M294.479 183.207L294.479 129.475L663 129.476L663 183.208L294.479 183.207Z" fill="#EA449E"/>
      <path d="M643.417 142.211C651.253 142.211 657.808 136.797 659.593 129.511L627.241 129.511C629.025 136.797 635.581 142.211 643.417 142.211Z" fill="#E5AAD8"/>
      <path d="M595.133 163.974C583.336 163.974 573.295 171.477 569.511 181.97L620.755 181.97C616.971 171.477 606.93 163.974 595.133 163.974Z" fill="#E5AAD8"/>
      <path d="M552.077 142.211C559.913 142.211 566.469 136.797 568.253 129.511L535.901 129.511C537.685 136.797 544.241 142.211 552.077 142.211Z" fill="#E5AAD8"/>
      <path d="M412.001 142.211C419.837 142.211 426.393 136.797 428.177 129.511L395.825 129.511C397.609 136.797 404.165 142.211 412.001 142.211Z" fill="#E5AAD8"/>
      <path d="M343.698 163.973C331.901 163.973 321.86 171.476 318.076 181.969L369.32 181.969C365.536 171.476 355.495 163.973 343.698 163.973Z" fill="#E5AAD8"/>
      <path d="M518.138 129.26L446.04 129.26L446.04 181.914L518.138 181.914L518.138 129.26Z" fill="#57F287"/>
      <path d="M785.344 182.984L662 182.984L662 129.477L785.344 129.477L785.344 182.984Z" fill="#D01482"/>
      <path d="M689.341 168.617C682.073 168.617 673.876 174.803 673.556 182.869L705.126 182.869C704.126 174.19 696.609 168.617 689.341 168.617Z" fill="#EA449E"/>
      <path d="M768.116 172.319C762.736 172.319 756.668 176.898 756.431 182.869L779.802 182.869C779.061 176.444 773.496 172.319 768.116 172.319Z" fill="#EA449E"/>
      <path d="M750.556 142.977C757.265 142.978 765.626 137.72 765.126 129.493L735.985 129.493C736.001 138.211 743.847 142.977 750.556 142.977Z" fill="#EA449E"/>
      <path d="M742.001 129.63L710.751 129.63L710.751 183L742.001 183L742.001 129.63Z" fill="#29CC7A"/>
      <path d="M304.479 183.178L662.001 183.179L775.344 183.18" stroke="#8E286F" stroke-width="5" stroke-linecap="round" stroke-linejoin="round"/>
      <mask id="mask1_867_89609" style="mask-type:luminance" maskUnits="userSpaceOnUse" x="-44" y="-167" width="900" height="600">
        <path d="M-44 -167H856V433H-44V-167Z" fill="white"/>
      </mask>
      <g mask="url(#mask1_867_89609)">
        <path d="M 116.222 52.589 C 116.188 52.534 116.169 52.474 116.169 52.41 C 115.961 52.254 115.639 52.069 115.198 51.852 C 114.756 51.637 114.244 51.369 113.656 51.047 C 113.119 50.773 112.641 50.518 112.216 50.283 C 111.793 50.05 111.445 49.818 111.168 49.587 C 110.7 49.203 110.33 48.892 110.053 48.658 C 109.776 48.425 109.62 48.275 109.585 48.21 C 109.481 48.11 109.414 47.937 109.379 47.694 C 109.344 47.45 109.327 47.136 109.327 46.751 C 109.327 46.586 109.443 46.352 109.678 46.048 C 109.911 45.746 110.271 45.384 110.752 44.961 C 111.375 44.41 112.132 43.893 113.023 43.411 C 113.911 42.93 114.916 42.478 116.041 42.055 C 116.317 41.964 116.533 41.839 116.688 41.677 C 116.845 41.517 116.957 41.322 117.027 41.091 C 117.128 40.725 117.242 40.33 117.363 39.907 L 117.104 39.591 C 117.104 39.398 117.146 39.179 117.233 38.93 C 117.302 38.884 117.43 38.846 117.609 38.812 C 117.789 38.782 118.046 38.752 118.374 38.724 C 118.548 38.752 118.745 38.77 118.969 38.778 C 119.195 38.788 119.461 38.783 119.773 38.765 C 119.981 38.884 120.119 38.986 120.188 39.068 C 120.223 39.114 120.241 39.226 120.241 39.405 C 120.241 39.584 120.241 39.825 120.241 40.128 C 120.241 40.211 120.215 40.252 120.162 40.252 C 120.11 40.252 120.033 40.362 119.93 40.583 C 119.963 40.638 119.998 40.672 120.033 40.685 C 120.068 40.699 120.136 40.706 120.241 40.706 C 122.245 40.22 123.654 39.976 124.468 39.976 C 124.879 39.976 125.2 40.08 125.426 40.287 C 125.65 40.493 125.763 40.807 125.763 41.23 C 125.763 41.441 125.671 41.643 125.489 41.835 C 125.308 42.028 125.028 42.217 124.648 42.4 C 124.318 42.557 123.99 42.7 123.664 42.833 C 123.336 42.967 122.997 43.103 122.65 43.24 C 122.392 43.36 122.048 43.503 121.614 43.667 C 121.181 43.832 120.672 44.006 120.084 44.19 C 119.843 44.273 119.645 44.447 119.489 44.713 C 119.332 44.979 119.254 45.338 119.254 45.787 C 119.254 45.934 119.249 46.108 119.243 46.31 C 119.233 46.512 119.236 46.738 119.254 46.985 C 119.254 47.28 119.254 47.525 119.254 47.722 C 119.254 47.92 119.254 48.078 119.254 48.196 C 119.254 48.408 119.226 48.73 119.164 49.16 C 119.104 49.592 119.074 49.914 119.074 50.124 C 119.178 50.234 119.256 50.309 119.306 50.345 C 119.946 50.675 120.496 50.979 120.953 51.253 C 121.411 51.529 121.761 51.758 122.002 51.942 C 122.505 52.301 122.886 52.64 123.145 52.961 C 123.402 53.282 123.556 53.594 123.609 53.896 C 123.577 53.934 123.551 53.977 123.533 54.027 C 123.516 54.078 123.504 54.145 123.504 54.227 C 123.542 54.284 123.651 54.35 123.829 54.427 C 124.009 54.505 124.249 54.604 124.543 54.723 C 124.596 54.798 124.619 54.903 124.619 55.04 C 124.619 55.104 124.612 55.159 124.594 55.205 C 124.578 55.251 124.543 55.294 124.491 55.329 L 122.572 56.018 C 122.366 56.137 122.11 56.279 121.81 56.445 C 121.508 56.61 121.141 56.798 120.708 57.009 C 120.396 57.165 119.978 57.356 119.451 57.58 C 118.921 57.806 118.311 58.056 117.623 58.33 C 117.26 58.433 117.027 58.871 116.925 59.645 C 116.821 60.422 116.664 60.832 116.456 60.878 C 116.024 60.86 115.695 60.832 115.47 60.795 C 115.244 60.759 115.134 60.699 115.134 60.617 C 115.134 60.471 115.148 60.282 115.173 60.052 C 115.2 59.823 115.256 59.557 115.341 59.253 L 115.211 59.184 C 114.968 59.249 114.705 59.316 114.421 59.384 C 114.138 59.453 113.853 59.529 113.58 59.611 C 113.043 59.758 112.538 59.868 112.059 59.941 C 111.586 60.016 111.15 60.052 110.752 60.052 C 109.976 60.052 109.379 59.963 108.965 59.784 C 108.55 59.604 108.343 59.336 108.343 58.977 C 108.343 58.721 108.923 58.381 110.091 57.958 C 111.256 57.537 113.008 57.041 115.341 56.472 C 115.533 56.425 115.695 56.327 115.832 56.175 C 115.971 56.024 116.048 55.815 116.066 55.549 C 116.1 55.367 116.111 55.178 116.093 54.985 C 116.076 54.792 116.066 54.604 116.066 54.421 C 116.116 53.805 116.169 53.195 116.222 52.589 Z M 116.376 43.859 C 115.944 43.997 115.584 44.163 115.29 44.355 C 114.996 44.548 114.771 44.764 114.615 45.002 C 114.424 45.498 114.244 45.975 114.071 46.434 C 114.21 46.619 114.356 46.802 114.512 46.985 C 114.666 47.17 114.839 47.362 115.029 47.563 C 115.254 47.784 115.47 47.975 115.678 48.135 C 115.886 48.296 116.093 48.413 116.301 48.486 C 116.44 48.45 116.508 48.404 116.508 48.348 L 116.249 47.894 C 116.249 47.684 116.256 47.422 116.273 47.109 C 116.291 46.797 116.308 46.416 116.325 45.966 C 116.36 45.544 116.391 45.173 116.417 44.851 C 116.442 44.53 116.456 44.259 116.456 44.038 L 116.376 43.859 Z M 118.346 53.594 C 118.261 53.622 118.201 53.695 118.166 53.814 C 118.133 53.935 118.115 54.1 118.115 54.31 C 118.115 54.687 118.089 54.987 118.04 55.212 C 117.985 55.437 117.933 55.582 117.88 55.646 C 117.796 55.728 117.726 55.8 117.674 55.859 C 117.623 55.919 117.596 55.972 117.596 56.018 C 117.596 56.064 117.665 56.1 117.803 56.128 C 118.028 56.055 118.25 55.979 118.465 55.9 C 118.679 55.823 118.883 55.747 119.074 55.673 C 119.351 55.563 119.548 55.463 119.669 55.37 C 119.791 55.278 119.853 55.182 119.853 55.081 C 119.853 54.815 119.733 54.559 119.489 54.31 C 119.248 54.063 118.866 53.825 118.346 53.594 Z" fill="white"/>
        <path d="M 132.473 39.35 C 133.142 39.239 133.869 39.157 134.659 39.101 C 135.447 39.047 136.321 39.019 137.279 39.019 C 137.459 39.019 137.725 39.036 138.075 39.066 C 138.423 39.1 138.702 39.115 138.914 39.115 C 139.223 39.143 139.459 39.17 139.624 39.197 C 139.801 39.225 140.045 39.259 140.355 39.294 L 141.037 39.184 C 141.183 39.193 141.341 39.228 141.514 39.287 C 141.683 39.347 141.891 39.414 142.135 39.487 C 142.266 39.441 142.453 39.385 142.697 39.321 C 142.941 39.321 143.138 39.375 143.293 39.48 C 143.447 39.585 143.55 39.735 143.6 39.928 C 143.6 40.075 143.6 40.22 143.6 40.361 C 143.6 40.504 143.582 40.653 143.55 40.808 C 143.533 40.883 143.542 40.997 143.574 41.153 C 143.607 41.309 143.623 41.429 143.623 41.511 C 143.623 41.612 143.582 41.685 143.502 41.731 C 143.421 41.777 143.315 41.8 143.184 41.8 C 142.566 41.8 141.956 41.771 141.352 41.711 C 140.751 41.652 140.15 41.562 139.548 41.441 C 139.03 41.498 138.573 41.539 138.182 41.566 C 137.874 41.585 137.646 41.612 137.5 41.648 C 137.352 41.685 137.279 41.731 137.279 41.786 C 137.344 41.85 137.433 41.92 137.549 41.993 C 137.664 42.067 137.802 42.135 137.963 42.199 C 138.076 42.245 138.207 42.344 138.353 42.495 C 138.5 42.646 138.655 42.851 138.816 43.108 C 138.882 43.209 138.927 43.305 138.951 43.397 C 138.975 43.49 138.988 43.577 138.988 43.659 C 138.988 43.851 138.954 44.092 138.89 44.382 C 138.824 44.671 138.753 44.907 138.673 45.091 C 138.525 45.45 138.411 45.746 138.329 45.979 C 138.249 46.213 138.182 46.39 138.134 46.508 C 138.101 46.601 138.076 46.711 138.06 46.839 C 138.043 46.968 138.028 47.116 138.012 47.28 C 137.996 47.418 137.929 47.59 137.816 47.796 C 137.703 48.004 137.588 48.24 137.474 48.505 C 137.474 48.626 137.45 48.763 137.402 48.918 C 137.353 49.074 137.289 49.254 137.206 49.455 C 137.159 49.576 137.08 49.71 136.976 49.861 C 136.87 50.013 136.768 50.19 136.671 50.392 C 136.701 50.53 136.726 50.673 136.743 50.819 C 136.678 51.077 136.613 51.343 136.547 51.617 C 136.452 52.012 136.353 52.412 136.254 52.815 C 136.158 53.22 136.068 53.609 135.986 53.985 C 135.89 54.095 135.784 54.219 135.669 54.358 C 135.669 54.422 135.689 54.521 135.73 54.653 C 135.772 54.786 135.791 54.895 135.791 54.977 C 135.791 55.078 135.759 55.227 135.694 55.424 C 135.628 55.622 135.595 55.767 135.595 55.858 C 135.595 56.033 135.586 56.304 135.572 56.67 C 135.556 57.038 135.549 57.314 135.549 57.497 C 135.628 57.653 135.703 57.805 135.766 57.951 C 135.717 58.08 135.665 58.184 135.61 58.261 C 135.552 58.339 135.473 58.401 135.376 58.447 C 135.084 58.548 134.816 58.63 134.572 58.694 C 134.409 58.786 134.276 58.861 134.17 58.915 C 134.065 58.971 133.971 58.998 133.888 58.998 C 133.531 58.998 133.278 58.971 133.133 58.915 C 132.986 58.861 132.912 58.786 132.912 58.694 C 132.946 58.392 133.002 58.098 133.084 57.814 C 133.05 57.778 133.014 57.723 132.972 57.648 C 132.934 57.575 132.873 57.483 132.79 57.373 C 132.709 56.657 132.603 55.923 132.473 55.169 C 132.52 54.628 132.545 54.082 132.545 53.531 C 132.545 53.275 132.567 52.95 132.606 52.561 C 132.648 52.171 132.725 51.719 132.838 51.205 C 132.953 50.691 133.034 50.241 133.084 49.855 C 133.133 49.47 133.156 49.154 133.156 48.905 C 133.156 48.795 133.178 48.655 133.217 48.485 C 133.259 48.316 133.303 48.107 133.352 47.858 C 133.4 47.648 133.45 47.457 133.499 47.286 C 133.547 47.117 133.573 46.965 133.573 46.826 C 133.573 46.753 133.564 46.675 133.547 46.592 C 133.531 46.51 133.513 46.435 133.499 46.371 C 133.66 46.143 133.782 45.957 133.862 45.814 C 133.945 45.673 133.987 45.578 133.987 45.532 C 133.92 45.412 133.849 45.293 133.769 45.173 C 133.865 45.044 133.971 44.814 134.084 44.478 C 134.197 44.143 134.319 43.705 134.45 43.163 C 134.45 43.053 134.45 42.921 134.45 42.764 C 134.45 42.608 134.458 42.419 134.474 42.199 L 134.329 41.952 C 134.262 41.934 134.146 41.911 133.974 41.882 C 133.804 41.855 133.587 41.832 133.328 41.813 L 133.011 41.937 C 132.799 41.966 132.584 41.993 132.364 42.021 C 132.144 42.049 131.914 42.081 131.67 42.117 C 129.976 42.384 128.3 42.645 126.644 42.901 C 126.513 42.901 126.406 42.872 126.325 42.812 C 126.243 42.753 126.203 42.672 126.203 42.571 C 126.203 42.517 126.243 42.421 126.325 42.282 C 126.406 42.145 126.537 41.966 126.715 41.745 C 126.75 41.425 126.789 41.158 126.839 40.947 C 126.888 40.736 126.943 40.575 127.01 40.465 C 127.138 40.262 127.338 40.093 127.605 39.955 C 127.874 39.817 128.196 39.712 128.569 39.638 C 129.319 39.501 130.018 39.409 130.668 39.362 C 131.318 39.318 131.919 39.314 132.473 39.35 Z" fill="white"/>
        <path d="M 152.017 51.298 C 152.017 51.482 152.191 51.726 152.539 52.034 C 152.889 52.342 153.412 52.721 154.11 53.171 C 154.564 53.456 155.032 53.732 155.517 54.003 C 156 54.273 156.48 54.548 156.958 54.823 C 157.167 54.951 157.436 55.119 157.767 55.326 C 158.098 55.532 158.484 55.773 158.925 56.049 C 159.243 56.232 159.577 56.415 159.925 56.598 C 160.275 56.782 160.651 56.966 161.056 57.15 C 161.325 57.306 161.625 57.476 161.956 57.66 C 162.287 57.843 162.666 58.039 163.096 58.251 C 163.341 58.361 163.53 58.561 163.665 58.851 C 163.8 59.139 163.88 59.513 163.904 59.972 L 163.739 60.331 L 163.556 60.399 C 163.433 60.399 163.27 60.36 163.068 60.282 C 162.866 60.204 162.612 60.093 162.305 59.945 C 162.244 59.917 161.965 59.816 161.468 59.641 C 160.972 59.467 160.259 59.22 159.329 58.898 C 158.815 58.733 158.343 58.547 157.915 58.34 C 157.485 58.134 157.093 57.916 156.737 57.687 C 156.53 57.549 156.263 57.398 155.939 57.233 C 155.614 57.068 155.231 56.888 154.791 56.696 C 154.336 56.502 153.944 56.319 153.613 56.145 C 153.282 55.97 153.02 55.823 152.824 55.704 C 152.162 55.3 151.623 54.992 151.206 54.781 C 150.791 54.569 150.502 54.464 150.343 54.464 C 150.221 54.594 150.154 54.727 150.141 54.864 C 149.994 55.296 149.838 55.84 149.672 56.496 C 149.507 57.152 149.327 57.916 149.131 58.788 C 149.131 58.944 149.094 59.061 149.02 59.139 C 148.946 59.217 148.836 59.257 148.689 59.257 C 148.212 59.257 147.85 59.17 147.605 58.995 C 147.361 58.82 147.239 58.558 147.239 58.21 C 147.239 57.742 147.278 57.251 147.357 56.737 C 147.436 56.223 147.569 55.681 147.751 55.112 C 147.814 54.864 147.859 54.641 147.891 54.444 C 147.921 54.246 147.936 54.066 147.936 53.9 C 147.936 53.479 147.693 53.116 147.21 52.812 C 146.727 52.51 146.484 52.294 146.484 52.165 C 146.484 51.964 146.523 51.787 146.603 51.635 C 146.683 51.484 146.804 51.362 146.962 51.27 C 147.367 51.078 147.74 50.895 148.084 50.719 C 148.17 50.682 148.228 50.62 148.258 50.533 C 148.289 50.446 148.305 50.324 148.305 50.169 C 148.305 50.077 148.305 49.978 148.305 49.873 C 148.305 49.767 148.305 49.668 148.305 49.577 C 148.341 48.76 148.371 47.911 148.395 47.03 C 148.395 46.965 148.395 46.863 148.395 46.726 C 148.395 46.589 148.383 46.41 148.358 46.189 C 148.334 46.024 148.328 45.87 148.339 45.728 C 148.352 45.585 148.358 45.455 148.358 45.335 C 148.284 45.152 148.22 44.993 148.165 44.861 C 148.112 44.728 148.084 44.601 148.084 44.482 C 148.084 44.372 148.096 44.2 148.119 43.965 C 148.145 43.731 148.157 43.564 148.157 43.463 C 148.157 43.335 148.142 43.155 148.112 42.926 C 148.08 42.696 148.065 42.522 148.065 42.403 C 148.065 42.072 148.165 41.755 148.367 41.453 C 148.569 41.149 148.879 40.852 149.296 40.558 C 149.7 40.301 150.113 40.106 150.536 39.972 C 150.958 39.839 151.389 39.773 151.831 39.773 C 152.04 39.773 152.349 39.784 152.76 39.807 C 153.169 39.83 153.491 39.842 153.725 39.842 C 153.883 39.842 154.317 39.943 155.029 40.144 C 155.31 40.163 155.562 40.189 155.782 40.221 C 156.003 40.253 156.18 40.287 156.315 40.324 C 156.621 40.434 156.861 40.519 157.032 40.579 C 157.203 40.639 157.327 40.672 157.399 40.681 C 157.608 40.736 157.788 40.783 157.941 40.82 C 158.095 40.857 158.22 40.902 158.318 40.957 C 158.478 41.012 158.664 41.077 158.879 41.15 C 159.093 41.224 159.334 41.307 159.604 41.398 C 160.046 41.563 160.458 41.755 160.844 41.976 C 161.23 42.196 161.595 42.435 161.937 42.692 C 162.329 43.022 162.624 43.346 162.82 43.663 C 163.016 43.979 163.115 44.295 163.115 44.606 C 163.115 44.697 163.104 44.828 163.087 44.998 C 163.068 45.169 163.035 45.359 162.985 45.57 C 162.948 45.835 162.763 46.122 162.434 46.43 C 162.103 46.738 161.625 47.075 161 47.443 C 160.449 47.764 159.935 48.032 159.456 48.248 C 158.979 48.464 158.539 48.618 158.135 48.709 C 157.976 48.792 157.852 48.871 157.767 48.944 C 157.643 49.035 157.386 49.163 156.996 49.328 C 156.604 49.494 156.07 49.701 155.396 49.949 C 154.171 50.398 153.301 50.695 152.787 50.837 C 152.273 50.979 152.017 51.133 152.017 51.298 Z M 150.087 44.661 C 150.32 44.533 150.539 44.406 150.746 44.282 C 150.955 44.157 151.225 44.096 151.556 44.096 C 151.703 44.096 151.884 44.218 152.098 44.461 C 152.313 44.705 152.42 44.886 152.42 45.005 C 152.42 45.07 152.39 45.216 152.327 45.446 C 152.266 45.675 152.167 45.988 152.032 46.383 C 151.751 47.273 151.593 47.831 151.556 48.055 C 151.52 48.28 151.44 48.631 151.317 49.109 C 151.267 49.228 151.218 49.383 151.169 49.577 C 151.169 49.66 151.191 49.719 151.234 49.756 C 151.278 49.792 151.336 49.81 151.408 49.81 C 153.847 48.892 155.109 48.416 155.194 48.378 C 155.293 48.36 155.396 48.335 155.508 48.303 C 155.617 48.271 155.721 48.237 155.818 48.2 L 156.094 47.939 C 156.804 47.599 157.539 47.236 158.299 46.851 C 158.777 46.575 159.131 46.304 159.365 46.038 C 159.599 45.773 159.715 45.506 159.715 45.239 C 159.715 44.9 159.452 44.565 158.925 44.234 C 158.398 43.904 157.608 43.587 156.554 43.285 C 155.66 43.018 154.846 42.823 154.11 42.699 C 153.375 42.574 152.708 42.513 152.107 42.513 C 151.323 42.513 150.733 42.617 150.334 42.823 C 149.936 43.03 149.737 43.335 149.737 43.738 C 149.737 44.05 149.768 44.287 149.829 44.447 C 149.89 44.607 149.975 44.679 150.087 44.661 Z" fill="white"/>
        <path d="M 170.01 57.221 C 170.495 57.221 170.878 57.256 171.16 57.325 C 171.44 57.394 171.613 57.488 171.675 57.607 L 171.443 58.667 C 171.395 58.797 171.365 58.927 171.349 59.061 C 171.331 59.193 171.301 59.323 171.254 59.453 C 171.174 59.572 171.042 59.659 170.854 59.714 C 170.665 59.77 170.408 59.796 170.081 59.796 C 169.829 59.796 169.48 59.831 169.036 59.9 C 168.59 59.968 168.249 60.003 168.013 60.003 C 167.654 60.003 167.385 59.909 167.205 59.721 C 167.024 59.532 166.934 59.241 166.934 58.847 C 166.934 58.479 167.282 58.116 167.978 57.758 C 168.675 57.401 169.352 57.221 170.01 57.221 Z M 169.541 48.63 C 169.713 48.327 169.846 48.061 169.939 47.831 C 170.033 47.602 170.081 47.409 170.081 47.253 C 170.081 47.17 170.061 47.062 170.02 46.93 C 169.983 46.797 169.955 46.478 169.939 45.972 C 169.846 45.992 169.744 46.001 169.634 46.001 L 169.235 45.848 L 169.165 45.656 C 169.165 45.444 169.278 45.137 169.506 44.733 C 169.731 44.329 169.829 44.032 169.798 43.838 L 169.775 43.109 C 169.744 42.98 169.756 42.835 169.81 42.674 C 169.863 42.514 169.955 42.351 170.081 42.186 C 170.206 41.985 170.347 41.822 170.504 41.698 C 170.66 41.573 170.83 41.494 171.018 41.457 C 171.096 41.429 171.187 41.403 171.289 41.381 C 171.392 41.358 171.488 41.338 171.582 41.318 C 171.88 41.181 172.162 41.05 172.429 40.926 C 172.694 40.802 172.937 40.676 173.156 40.548 C 173.546 40.392 173.904 40.267 174.223 40.176 C 174.545 40.084 174.828 40.038 175.081 40.038 C 175.286 40.038 175.429 40.096 175.515 40.21 C 175.601 40.325 175.644 40.497 175.644 40.726 C 175.644 40.863 175.617 41.045 175.56 41.271 C 175.506 41.495 175.416 41.755 175.293 42.049 C 175.166 42.351 175.063 42.613 174.985 42.833 C 174.907 43.054 174.86 43.233 174.844 43.37 C 174.828 43.572 174.759 43.937 174.634 44.465 C 174.51 44.993 174.322 45.67 174.07 46.495 C 173.899 47.047 173.687 47.746 173.438 48.595 C 173.186 49.445 172.898 50.429 172.568 51.55 C 172.568 51.651 172.549 51.77 172.51 51.907 C 172.472 52.044 172.429 52.215 172.381 52.416 C 172.35 52.471 172.311 52.534 172.263 52.602 C 172.218 52.671 172.154 52.743 172.076 52.816 C 172.044 52.88 171.989 53.08 171.91 53.414 C 171.832 53.749 171.748 54.225 171.653 54.84 C 171.606 55.014 171.195 55.301 170.421 55.7 C 169.646 56.1 169.126 56.3 168.859 56.3 C 168.688 56.291 168.579 56.263 168.531 56.216 C 168.531 56.172 168.522 56.084 168.508 55.955 C 168.492 55.827 168.483 55.731 168.483 55.667 L 168.72 55.101 C 168.657 54.771 168.595 54.449 168.531 54.137 C 168.531 53.926 168.544 53.725 168.566 53.532 C 168.589 53.339 168.618 53.15 168.648 52.967 C 168.743 52.756 168.836 52.586 168.929 52.458 C 168.978 52.366 169.016 52.27 169.048 52.169 C 169.08 52.067 169.096 51.985 169.096 51.921 C 169.08 51.682 169.071 51.457 169.071 51.246 C 169.071 51.292 169.075 51.265 169.082 51.164 C 169.091 51.062 169.101 50.902 169.117 50.682 C 169.149 50.598 169.165 50.519 169.165 50.441 C 169.165 50.363 169.165 50.278 169.165 50.186 C 169.337 49.901 169.458 49.631 169.528 49.373 C 169.599 49.117 169.602 48.869 169.541 48.63 Z" fill="white"/>
        <path d="M 183.368 60.444 C 183.294 60.444 183.218 60.444 183.143 60.444 C 183.069 60.444 182.972 60.444 182.852 60.444 C 182.493 60.444 182.188 60.38 181.941 60.25 C 181.693 60.122 181.525 59.921 181.435 59.645 C 181.406 59.562 181.384 59.408 181.368 59.184 C 181.352 58.959 181.346 58.658 181.346 58.281 C 181.346 58.126 181.323 57.883 181.278 57.552 C 181.233 57.221 181.211 56.978 181.211 56.821 C 181.211 56.766 181.229 56.67 181.265 56.533 C 181.303 56.396 181.33 56.207 181.346 55.968 C 181.377 55.749 181.406 55.482 181.435 55.169 C 181.406 54.876 181.354 54.587 181.278 54.303 C 181.383 53.816 181.503 53.32 181.64 52.816 C 181.651 52.743 181.641 52.61 181.605 52.416 C 181.568 52.222 181.55 52.094 181.55 52.03 C 181.55 51.966 181.574 51.873 181.626 51.748 C 181.679 51.624 181.706 51.525 181.706 51.452 C 181.706 51.361 181.679 51.287 181.626 51.232 C 181.574 51.177 181.497 51.15 181.393 51.15 C 181.316 51.168 181.229 51.188 181.133 51.211 C 181.034 51.234 180.933 51.26 180.828 51.287 C 180.739 51.296 180.628 51.315 180.491 51.342 C 180.356 51.369 180.192 51.401 179.995 51.438 L 179.794 51.356 L 179.728 51.218 C 179.863 51.071 180.001 50.929 180.143 50.791 C 180.285 50.654 180.414 50.515 180.535 50.378 C 180.671 50.259 180.837 50.152 181.031 50.061 C 181.226 49.97 181.429 49.878 181.64 49.786 C 181.802 49.731 181.941 49.585 182.052 49.345 C 182.165 49.106 182.252 48.758 182.312 48.299 C 182.373 47.776 182.441 47.349 182.515 47.018 C 182.589 46.688 182.664 46.463 182.74 46.344 C 182.798 46.234 182.875 46.092 182.963 45.917 C 182.963 45.862 182.94 45.775 182.897 45.656 C 182.85 45.537 182.828 45.453 182.828 45.407 C 182.933 44.986 183.037 44.577 183.143 44.182 C 183.322 43.613 183.698 43.044 184.269 42.475 C 184.838 41.905 185.601 41.309 186.559 40.685 C 187.549 40.088 188.981 39.656 190.855 39.391 C 191.064 39.417 191.25 39.446 191.417 39.473 L 192.158 39.307 C 192.232 39.307 192.325 39.321 192.439 39.35 C 192.55 39.376 192.698 39.417 192.877 39.473 C 193.222 39.409 193.522 39.362 193.774 39.335 C 194.03 39.309 194.233 39.294 194.381 39.294 C 195.313 39.294 196.005 39.37 196.463 39.521 C 196.92 39.673 197.148 39.905 197.148 40.216 C 197.148 40.392 197.129 40.589 197.091 40.808 C 197.055 41.029 196.991 41.267 196.901 41.525 C 196.795 41.864 196.676 42.118 196.541 42.289 C 196.406 42.459 196.257 42.553 196.091 42.571 C 195.702 42.46 195.306 42.358 194.901 42.262 C 194.497 42.166 194.076 42.062 193.642 41.952 L 192.831 42.144 C 192.578 42.126 192.301 42.103 192.002 42.076 C 191.745 42.076 191.456 42.091 191.135 42.123 C 190.811 42.155 190.479 42.199 190.133 42.254 C 189.19 42.391 188.642 42.582 188.493 42.826 C 188.345 43.069 188.089 43.397 187.729 43.81 C 187.609 43.902 187.417 44.274 187.156 44.925 C 186.893 45.578 186.545 46.504 186.109 47.707 C 186.096 47.762 186.04 47.859 185.942 47.996 C 185.845 48.134 185.796 48.249 185.796 48.34 C 185.796 48.469 185.835 48.568 185.909 48.636 C 185.983 48.705 186.08 48.745 186.201 48.754 C 186.424 48.689 186.728 48.618 187.111 48.54 C 187.493 48.462 187.953 48.377 188.493 48.285 C 188.973 48.248 189.455 48.2 189.943 48.141 C 190.429 48.081 190.936 48.005 191.462 47.913 C 191.61 47.913 191.798 47.913 192.023 47.913 C 192.248 47.913 192.511 47.913 192.81 47.913 C 193.32 47.858 193.837 47.803 194.361 47.748 C 195.23 47.748 195.881 47.823 196.315 47.976 C 196.75 48.127 196.969 48.34 196.969 48.616 C 196.969 48.671 196.956 48.812 196.934 49.036 C 196.911 49.26 196.879 49.561 196.833 49.937 C 196.638 50.149 196.435 50.364 196.225 50.584 C 196.091 50.584 195.747 50.55 195.192 50.482 C 194.638 50.413 193.851 50.309 192.831 50.172 C 192.472 50.227 192.081 50.27 191.663 50.302 C 191.244 50.334 190.808 50.351 190.36 50.351 C 190.075 50.351 189.667 50.378 189.133 50.433 C 188.602 50.488 188.194 50.52 187.911 50.529 C 187.713 50.621 187.516 50.688 187.313 50.729 C 187.111 50.77 186.912 50.791 186.716 50.791 C 186.612 50.791 186.381 50.777 186.019 50.75 C 185.826 50.75 185.639 50.857 185.459 51.074 C 185.28 51.289 185.122 51.621 184.987 52.071 L 184.762 52.663 L 184.919 53.09 L 184.494 54.73 C 184.494 54.794 184.504 54.869 184.525 54.956 C 184.549 55.044 184.559 55.133 184.559 55.224 C 184.366 55.959 184.226 56.678 184.142 57.38 C 184.061 58.081 184.019 58.781 184.019 59.48 C 184.019 59.627 183.967 59.782 183.862 59.948 C 183.758 60.113 183.593 60.278 183.368 60.444 Z" fill="white"/>
        <path d="M 211.675 54.164 C 211.675 54.054 211.482 53.93 211.096 53.793 C 210.709 53.655 210.116 53.499 209.311 53.325 C 208.828 53.234 208.352 53.147 207.883 53.063 C 207.414 52.98 206.944 52.884 206.475 52.774 C 206.232 52.71 206.051 52.66 205.929 52.622 C 205.642 52.567 205.35 52.515 205.054 52.465 C 204.759 52.415 204.461 52.357 204.158 52.292 C 203.946 52.219 203.788 52.111 203.68 51.969 C 203.574 51.826 203.521 51.635 203.521 51.397 L 203.407 51.066 C 203.407 50.911 203.532 50.705 203.783 50.447 C 204.033 50.19 204.4 49.882 204.885 49.524 C 205.945 48.763 206.963 47.958 207.938 47.108 C 208.915 46.258 209.836 45.375 210.699 44.457 C 210.834 44.338 210.955 44.187 211.062 44.004 C 211.062 43.874 210.926 43.773 210.653 43.7 C 210.38 43.627 209.963 43.59 209.403 43.59 C 208.722 43.59 207.89 43.651 206.906 43.776 C 205.92 43.9 204.771 44.081 203.454 44.32 C 203.045 44.411 202.667 44.498 202.319 44.582 C 202.076 44.627 201.867 44.666 201.693 44.698 C 201.519 44.73 201.365 44.747 201.227 44.747 C 200.956 44.747 200.755 44.706 200.625 44.623 C 200.497 44.539 200.433 44.411 200.433 44.237 C 200.433 44.146 200.471 43.999 200.546 43.796 C 200.623 43.595 200.744 43.333 200.911 43.012 C 201.123 42.599 201.391 42.253 201.716 41.972 C 202.041 41.691 202.432 41.473 202.885 41.318 C 203.158 41.226 203.572 41.141 204.125 41.063 C 204.676 40.985 205.354 40.918 206.156 40.863 C 206.459 40.79 206.817 40.724 207.234 40.665 C 207.651 40.604 208.133 40.566 208.677 40.547 C 209.115 40.538 209.551 40.533 209.982 40.533 C 210.413 40.533 210.849 40.519 211.289 40.492 C 211.803 40.483 212.311 40.517 212.811 40.595 C 213.309 40.674 213.802 40.804 214.286 40.988 C 214.816 41.199 215.214 41.432 215.478 41.69 C 215.744 41.948 215.876 42.218 215.876 42.503 C 215.876 42.796 215.805 43.067 215.661 43.314 C 215.517 43.561 215.308 43.796 215.035 44.016 C 212.688 45.944 210.917 47.429 209.722 48.471 C 208.526 49.513 207.927 50.125 207.927 50.309 C 207.927 50.419 208.109 50.536 208.472 50.66 C 208.837 50.784 209.358 50.924 210.039 51.08 C 210.994 51.282 211.804 51.47 212.47 51.644 C 213.135 51.82 213.651 51.989 214.013 52.154 C 214.755 52.439 215.3 52.758 215.648 53.111 C 215.998 53.464 216.172 53.862 216.172 54.303 C 215.991 55.322 214.567 56.45 211.901 57.689 C 211.75 57.753 211.55 57.847 211.299 57.971 C 211.049 58.096 210.752 58.226 210.403 58.365 C 208.905 58.897 207.45 59.407 206.041 59.893 C 205.83 59.92 205.566 59.957 205.248 60.003 C 204.93 60.049 204.589 60.104 204.225 60.168 C 203.923 60.251 203.68 60.316 203.497 60.36 C 203.316 60.407 203.181 60.43 203.09 60.43 C 202.743 60.43 202.444 60.421 202.194 60.401 C 201.943 60.384 201.734 60.351 201.568 60.305 C 201.069 60.36 200.6 60.416 200.16 60.471 C 199.691 60.471 199.338 60.427 199.105 60.34 C 198.87 60.253 198.752 60.117 198.752 59.934 C 198.752 59.722 199.013 59.525 199.536 59.341 C 200.058 59.158 200.841 58.883 201.888 58.516 C 202.779 58.204 203.884 57.79 205.202 57.276 C 206.52 56.762 208.041 56.151 209.766 55.445 C 210.22 55.179 210.675 54.922 211.13 54.674 C 211.296 54.555 211.429 54.457 211.528 54.378 C 211.625 54.3 211.675 54.228 211.675 54.164 Z" fill="white"/>
        <path d="M76.4465 32.667C72.6889 31.0488 68.7033 29.8651 64.5874 29.1592C64.0118 30.1474 63.5122 31.1248 63.0778 32.1783C58.7447 31.5484 54.2486 31.5484 49.9155 32.1783C49.4811 31.1248 48.9815 30.1474 48.406 29.1592C44.3552 29.8651 40.3804 31.0597 36.5468 32.743C29.1077 43.4835 27.0769 53.9417 28.0869 64.3347C32.4961 67.495 37.4156 69.8842 42.6176 71.4263C43.7687 69.8842 44.8547 68.266 45.7235 66.5827C44.062 65.9529 42.4004 65.1818 40.8148 64.3347C41.2492 64.0524 41.6076 63.77 42.042 63.4876C51.2187 67.7013 61.8398 67.7013 71.0925 63.4876C71.4509 63.77 71.8853 64.1284 72.3197 64.3347C70.7341 65.247 69.1486 66.018 67.411 66.5827C68.2798 68.266 69.3658 69.8842 70.5169 71.4263C75.7189 69.8842 80.6384 67.495 85.0476 64.3347C86.1988 52.3236 82.9516 41.9305 76.4465 32.667ZM46.9507 57.949C44.1271 57.949 41.7488 55.4187 41.7488 52.3996C41.7488 49.3805 43.9968 46.785 46.8856 46.785C49.7743 46.785 52.0875 49.3153 52.0875 52.3996C52.0875 55.4838 49.8395 57.949 46.9507 57.949ZM66.0317 57.949C63.2081 57.949 60.9058 55.4187 60.9058 52.3996C60.9058 49.3805 63.143 46.785 66.0317 46.785C68.9205 46.785 71.2445 49.3153 71.1685 52.3996C71.1685 55.4838 68.9205 57.949 66.0317 57.949Z" fill="white"/>
      </g>
    </g>
  </g>
  <defs>
    <linearGradient id="paint0_linear_867_89609" x1="6.43799" y1="29.4812" x2="804.389" y2="388.941" gradientUnits="userSpaceOnUse">
      <stop stop-color="#66BCFF"/>
      <stop offset="0.26" stop-color="#4D7FEC"/>
      <stop offset="0.77" stop-color="#3442D9"/>
    </linearGradient>
    <clipPath id="clip0_867_89609">
      <rect x="2" y="3" width="810.5" height="430" rx="44" fill="white"/>
    </clipPath>
  </defs>
</svg>