<svg width="815" height="435" viewBox="0 0 815 435" fill="none" xmlns="http://www.w3.org/2000/svg">
<g clip-path="url(#clip0_4773_51183)">
<mask id="mask0_4773_51183" style="mask-type:luminance" maskUnits="userSpaceOnUse" x="0" y="0" width="815" height="435">
<path d="M0 0H815V435H0V0Z" fill="white"/>
</mask>
<g mask="url(#mask0_4773_51183)">
<path d="M771.942 433.403H44.9629C22.0018 433.403 3.21484 414.616 3.21484 391.655V43.207C3.21484 20.246 22.0018 1.45898 44.9629 1.45898H771.942C794.903 1.45898 813.689 20.246 813.689 43.207V391.655C813.689 414.616 794.903 433.403 771.942 433.403Z" fill="url(#paint0_linear_4773_51183)"/>
<g opacity="0.15">
<path d="M44.9645 433.582H771.943C794.904 433.582 813.69 414.795 813.69 391.834V292.68C742.472 291.609 630.869 399.722 630.869 399.722C630.869 399.722 496.059 254.21 431.169 257.815C351.036 262.267 268.681 339.602 268.681 339.602C268.681 339.602 161.638 190.035 101.518 172.439C41.3984 154.843 3.27344 197.367 3.27344 197.367V393.996C4.40845 415.963 22.7284 433.582 44.9645 433.582Z" fill="white"/>
</g>
<path d="M151.201 125.659C151.574 128.891 154.223 147.63 165.301 149.312C154.217 150.981 151.574 169.753 151.201 172.966C150.821 169.753 148.178 150.981 137.094 149.312C148.172 147.63 150.821 128.891 151.201 125.659Z" fill="#97FFBA"/>
<g opacity="0.55">
<path d="M194.767 248.223C170.038 270.637 144.747 269.047 119.869 254.347C94.9906 239.647 77.6996 240.78 52.1306 258.119C26.5616 275.458 3.10962 259.997 3.10962 259.997L3.09766 198.381C3.09766 198.381 15.9526 180.384 48.8527 171.304C87.9716 160.507 127.055 169.204 194.767 248.223Z" fill="white"/>
</g>
<g opacity="0.85">
<path d="M270.017 60.4271C270.017 65.6821 265.757 69.9411 260.502 69.9411C255.247 69.9411 250.988 65.6821 250.988 60.4271C250.988 55.1721 255.247 50.9121 260.502 50.9121C265.757 50.9121 270.017 55.1721 270.017 60.4271Z" fill="white"/>
</g>
<g opacity="0.85">
<path d="M456.22 60.4271C456.22 65.6821 451.961 69.9411 446.706 69.9411C441.451 69.9411 437.191 65.6821 437.191 60.4271C437.191 55.1721 441.451 50.9121 446.706 50.9121C451.961 50.9121 456.22 55.1721 456.22 60.4271Z" fill="white"/>
</g>
<g opacity="0.85">
<path d="M642.424 60.4271C642.424 65.6821 638.164 69.9411 632.909 69.9411C627.655 69.9411 623.395 65.6821 623.395 60.4271C623.395 55.1721 627.655 50.9121 632.909 50.9121C638.164 50.9121 642.424 55.1721 642.424 60.4271Z" fill="white"/>
</g>
<g opacity="0.85">
<path d="M710.016 130.331C710.016 126.777 712.897 123.896 716.451 123.896C720.005 123.896 722.887 126.777 722.887 130.331C722.887 133.885 720.005 136.767 716.451 136.767C712.897 136.767 710.016 133.885 710.016 130.331Z" fill="white"/>
</g>
<g opacity="0.85">
<path d="M534.102 130.331C534.102 126.777 536.984 123.896 540.538 123.896C544.092 123.896 546.974 126.777 546.974 130.331C546.974 133.885 544.092 136.767 540.538 136.767C536.984 136.767 534.102 133.885 534.102 130.331Z" fill="white"/>
</g>
<g opacity="0.85">
<path d="M327.723 130.331C327.723 126.777 330.605 123.896 334.159 123.896C337.713 123.896 340.595 126.777 340.595 130.331C340.595 133.885 337.713 136.767 334.159 136.767C330.605 136.767 327.723 133.885 327.723 130.331Z" fill="white"/>
</g>
<g opacity="0.85">
<path d="M270.017 191.045C270.017 196.3 265.757 200.56 260.502 200.56C255.247 200.56 250.988 196.3 250.988 191.045C250.988 185.79 255.247 181.53 260.502 181.53C265.757 181.53 270.017 185.79 270.017 191.045Z" fill="white"/>
</g>
<g opacity="0.85">
<path d="M89.2634 191.045C89.2634 196.3 85.0044 200.56 79.7494 200.56C74.4944 200.56 70.2344 196.3 70.2344 191.045C70.2344 185.79 74.4944 181.53 79.7494 181.53C85.0044 181.53 89.2634 185.79 89.2634 191.045Z" fill="white"/>
</g>
<g opacity="0.85">
<path d="M456.22 191.045C456.22 196.3 451.961 200.56 446.706 200.56C441.451 200.56 437.191 196.3 437.191 191.045C437.191 185.79 441.451 181.53 446.706 181.53C451.961 181.53 456.22 185.79 456.22 191.045Z" fill="white"/>
</g>
<g opacity="0.85">
<path d="M642.424 191.045C642.424 196.3 638.164 200.56 632.909 200.56C627.655 200.56 623.395 196.3 623.395 191.045C623.395 185.79 627.655 181.53 632.909 181.53C638.164 181.53 642.424 185.79 642.424 191.045Z" fill="white"/>
</g>
<g opacity="0.85">
<path d="M710.016 260.949C710.016 257.395 712.897 254.513 716.451 254.513C720.005 254.513 722.887 257.395 722.887 260.949C722.887 264.503 720.005 267.384 716.451 267.384C712.897 267.384 710.016 264.503 710.016 260.949Z" fill="white"/>
</g>
<g opacity="0.85">
<path d="M534.102 260.949C534.102 257.395 536.984 254.513 540.538 254.513C544.092 254.513 546.974 257.395 546.974 260.949C546.974 264.503 544.092 267.384 540.538 267.384C536.984 267.384 534.102 264.503 534.102 260.949Z" fill="white"/>
</g>
<g opacity="0.85">
<path d="M327.723 260.949C327.723 257.395 330.605 254.513 334.159 254.513C337.713 254.513 340.595 257.395 340.595 260.949C340.595 264.503 337.713 267.384 334.159 267.384C330.605 267.384 327.723 264.503 327.723 260.949Z" fill="white"/>
</g>
<g opacity="0.85">
<path d="M185.27 260.949C185.27 257.395 188.152 254.513 191.706 254.513C195.26 254.513 198.141 257.395 198.141 260.949C198.141 264.503 195.26 267.384 191.706 267.384C188.152 267.384 185.27 264.503 185.27 260.949Z" fill="white"/>
</g>
<g opacity="0.43">
<path d="M196.464 433.218L142.793 358.06H169.019L117.787 284.176L66.5553 358.06H92.7814L39.1094 433.218" fill="#001F8E"/>
</g>
<g opacity="0.43">
<path d="M373.329 433.218L319.657 358.06H345.883L294.651 284.176L243.419 358.06H269.645L215.973 433.218" fill="#001F8E"/>
</g>
<path d="M297.562 315.18C297.562 315.18 335.09 343.673 378.177 328.384C421.265 313.095 430.299 313.79 458.792 326.299C487.285 338.808 528.983 345.064 551.917 323.52C551.917 323.52 505.355 281.822 471.997 267.923C438.639 254.024 392.771 240.82 297.562 315.18Z" fill="#61A4BC"/>
<path d="M813.913 290.173C784.748 291.441 746.525 305.833 691.543 348.775C691.543 348.775 728.767 376.617 771.854 361.328C790.758 354.62 803.107 350.988 813.421 350.082" fill="#61A4BC"/>
</g>
<path d="M695.048 130.978C695.048 170.138 663.303 201.883 624.143 201.883C584.983 201.883 553.238 170.138 553.238 130.978C553.238 91.8182 584.983 60.0732 624.143 60.0732C663.303 60.0732 695.048 91.8182 695.048 130.978Z" fill="#FDE65B"/>
<path d="M621.384 83.138C621.384 119.701 591.745 149.34 555.183 149.34C518.62 149.34 488.98 119.701 488.98 83.138C488.98 46.575 518.799 18 555.362 18C591.924 18 621.384 46.575 621.384 83.138Z" fill="#FDE65B"/>
<path d="M539.242 133.371C539.242 170.51 509.135 200.617 471.996 200.617C434.857 200.617 404.75 170.51 404.75 133.371C404.75 96.232 434.857 66.125 471.996 66.125C509.135 66.125 539.242 96.232 539.242 133.371Z" fill="#FDE65B"/>
<path d="M786.279 183.305L435.862 183.26L295.914 183.076L297.204 156.835L663.457 156.826L786.554 157.6L786.279 183.305Z" fill="black"/>
<path d="M666.989 433.914H306.125V179.52L663.874 179.374L666.989 433.914Z" fill="#EC4144"/>
<path d="M777.124 433.732H663.879V179.338L777.099 156.838L777.124 433.732Z" fill="#C02A32"/>
<path d="M527.299 252.938C512.945 252.938 501.309 264.573 501.309 278.927C501.309 293.281 512.945 304.917 527.299 304.917C541.653 304.917 553.289 293.281 553.289 278.927C553.289 264.573 541.653 252.938 527.299 252.938Z" fill="#F9C3C3"/>
<path d="M744.736 285.568C759.083 285.079 770.316 273.054 769.826 258.708C769.338 244.362 757.312 233.129 742.966 233.618C735.768 233.863 729.356 237.014 724.812 241.904L726.061 278.537C730.926 283.106 737.538 285.813 744.736 285.568Z" fill="#F9C3C3"/>
<path d="M390.005 245.138C372.091 245.138 357.57 259.659 357.57 277.572C357.57 295.485 372.091 310.006 390.005 310.006C407.918 310.006 422.439 295.485 422.439 277.572C422.439 259.659 407.918 245.138 390.005 245.138Z" fill="#F9C3C3"/>
<path d="M620.848 269.509C604.272 269.509 590.836 282.945 590.836 299.52C590.836 316.096 604.272 329.532 620.848 329.532C637.423 329.532 650.859 316.096 650.859 299.52C650.859 282.945 637.423 269.509 620.848 269.509Z" fill="#F9C3C3"/>
<path d="M520.885 197.608C532.608 197.608 542.515 189.845 545.754 179.18H496.016C499.255 189.845 509.162 197.608 520.885 197.608Z" fill="#F9C3C3"/>
<path d="M400.685 197.608C412.408 197.608 422.315 189.845 425.554 179.18H375.816C379.055 189.845 388.962 197.608 400.685 197.608Z" fill="#F9C3C3"/>
<path d="M567.775 337.542C558.987 337.542 551.863 344.666 551.863 353.454C551.863 362.241 558.987 369.365 567.775 369.365C576.563 369.365 583.687 362.241 583.687 353.454C583.687 344.666 576.563 337.542 567.775 337.542Z" fill="#F9C3C3"/>
<path d="M447.974 306.458C439.186 306.458 432.062 313.582 432.062 322.37C432.062 331.157 439.186 338.281 447.974 338.281C456.762 338.281 463.886 331.157 463.886 322.37C463.886 313.582 456.762 306.458 447.974 306.458Z" fill="#F9C3C3"/>
<path d="M340.721 332.014C331.933 332.014 324.809 339.138 324.809 347.926C324.809 356.713 331.933 363.837 340.721 363.837C349.509 363.837 356.633 356.713 356.633 347.926C356.633 339.138 349.509 332.014 340.721 332.014Z" fill="#F9C3C3"/>
<path d="M685.17 322.963C676.382 322.963 669.258 330.087 669.258 338.875C669.258 347.662 676.382 354.786 685.17 354.786C693.958 354.786 701.082 347.662 701.082 338.875C701.082 330.087 693.958 322.963 685.17 322.963Z" fill="#F9C3C3"/>
<path d="M586.264 217.304C577.476 217.304 570.352 224.429 570.352 233.217C570.352 242.004 577.476 249.128 586.264 249.128C595.052 249.128 602.176 242.004 602.176 233.217C602.176 224.429 595.052 217.304 586.264 217.304Z" fill="#F9C3C3"/>
<path d="M352.76 201.312C343.972 201.312 336.848 208.437 336.848 217.225C336.848 226.012 343.972 233.136 352.76 233.136C361.548 233.136 368.672 226.012 368.672 217.225C368.672 208.437 361.548 201.312 352.76 201.312Z" fill="#F9C3C3"/>
<path d="M708.17 195.307C699.382 195.307 692.258 202.432 692.258 211.22C692.258 220.007 699.382 227.131 708.17 227.131C716.958 227.131 724.082 220.007 724.082 211.22C724.082 202.432 716.958 195.307 708.17 195.307Z" fill="#F9C3C3"/>
<path d="M507.204 362.427C488.835 362.427 473.945 377.317 473.945 395.685C473.945 414.053 488.835 428.943 507.204 428.943C525.572 428.943 540.462 414.053 540.462 395.685C540.462 377.317 525.572 362.427 507.204 362.427Z" fill="#F9C3C3"/>
<path d="M758.416 348.019C744.062 348.019 732.426 359.655 732.426 374.009C732.426 388.363 744.062 399.999 758.416 399.999C765.618 399.999 772.135 397.068 776.842 392.336V355.682C772.135 350.95 765.618 348.019 758.416 348.019Z" fill="#EBBBBD"/>
<path d="M384.885 373.801C370.531 373.801 358.895 385.437 358.895 399.791C358.895 414.145 370.531 425.781 384.885 425.781C399.239 425.781 410.875 414.145 410.875 399.791C410.875 385.437 399.239 373.801 384.885 373.801Z" fill="#F9C3C3"/>
<path d="M624.842 373.001C613.799 373.001 604.848 381.953 604.848 392.996C604.848 404.038 613.799 412.99 624.842 412.99C635.885 412.99 644.837 404.038 644.837 392.996C644.837 381.953 635.885 373.001 624.842 373.001Z" fill="#F9C3C3"/>
<path d="M516.845 433.574H450.473V179.18H516.845V433.574Z" fill="#FDE65B"/>
<path d="M743.592 433.574H712.652L712.66 168.993L743.54 163.055L743.592 433.574Z" fill="#FDE65B"/>
<path d="M295.977 183.209V129.477H664.498V183.209H295.977Z" fill="#EC4144"/>
<path d="M644.914 142.212C652.75 142.212 659.305 136.798 661.09 129.512H628.738C630.522 136.798 637.078 142.212 644.914 142.212Z" fill="#F9C3C3"/>
<path d="M596.63 163.975C584.833 163.975 574.792 171.478 571.008 181.971H622.252C618.468 171.478 608.427 163.975 596.63 163.975Z" fill="#F9C3C3"/>
<path d="M553.574 142.212C561.41 142.212 567.966 136.798 569.75 129.512H537.398C539.182 136.798 545.738 142.212 553.574 142.212Z" fill="#F9C3C3"/>
<path d="M413.5 142.212C421.336 142.212 427.892 136.798 429.676 129.512H397.324C399.108 136.798 405.664 142.212 413.5 142.212Z" fill="#F9C3C3"/>
<path d="M345.196 163.975C333.399 163.975 323.358 171.478 319.574 181.971H370.818C367.034 171.478 356.993 163.975 345.196 163.975Z" fill="#F9C3C3"/>
<path d="M519.637 129.261H447.539V181.915H519.637V129.261Z" fill="#FDE65B"/>
<path d="M786.84 182.984H663.496V129.477H786.84V182.984Z" fill="#C02A32"/>
<path d="M690.84 168.617C683.572 168.617 675.375 174.803 675.055 182.869H706.624C705.624 174.19 698.107 168.617 690.84 168.617Z" fill="#F9C3C3"/>
<path d="M769.615 172.319C764.235 172.319 758.167 176.898 757.93 182.869H781.301C780.56 176.444 774.995 172.319 769.615 172.319Z" fill="#F9C3C3"/>
<path d="M752.053 142.978C758.762 142.978 767.123 137.72 766.623 129.493H737.482C737.498 138.211 745.344 142.978 752.053 142.978Z" fill="#F8C2C2"/>
<path d="M743.5 129.63H712.25V183H743.5V129.63Z" fill="#FDE65B"/>
<path d="M305.977 183.18H663.499H776.842" stroke="#AD171F" stroke-width="5" stroke-linecap="round" stroke-linejoin="round"/>
</g>
<defs>
<linearGradient id="paint0_linear_4773_51183" x1="903.622" y1="215.5" x2="-426.517" y2="220.675" gradientUnits="userSpaceOnUse">
<stop offset="0.21" stop-color="#001F8E"/>
<stop offset="0.58" stop-color="#0E83BD"/>
<stop offset="0.77" stop-color="#1BE6ED"/>
</linearGradient>
<clipPath id="clip0_4773_51183">
<rect width="815" height="435" fill="white"/>
</clipPath>
</defs>
</svg>
