<?xml version="1.0" encoding="utf-8"?>
<svg width="815" height="435" viewBox="0 0 815 435" fill="none" xmlns="http://www.w3.org/2000/svg">
  <g clip-path="url(#clip0_867_91298)">
    <rect x="2" y="3" width="810.5" height="430" rx="44" fill="white"/>
    <g clip-path="url(#clip1_867_91298)">
      <rect x="2" y="3" width="810.5" height="430" rx="44" fill="white"/>
      <g clip-path="url(#clip2_867_91298)">
        <mask id="mask0_867_91298" style="mask-type:luminance" maskUnits="userSpaceOnUse" x="-43" y="-165" width="900" height="600">
          <path d="M857 -165H-43V435H857V-165Z" fill="white"/>
        </mask>
        <g mask="url(#mask0_867_91298)">
          <path d="M770.489 2.12402H442.583H405.26H43.5109C20.5499 2.12402 1.76294 20.911 1.76294 43.872V301.9V314.47V392.321C1.76294 415.282 20.5499 434.068 43.5109 434.068H246.911H371.729C377.402 434.526 383.004 434.823 388.484 434.995C388.534 434.997 388.586 434.998 388.636 435L389.104 434.995L479.024 434.068H770.489C773.487 434.068 776.41 433.741 779.233 433.133C798.032 429.085 812.237 412.285 812.237 392.321V297.313V225.969V43.872C812.237 20.911 793.45 2.12402 770.489 2.12402Z" fill="url(#paint0_linear_867_91298)"/>
          <path d="M641.673 433.664C641.673 433.664 629.797 389.46 617.223 365.105C607.387 346.375 593.789 330.551 575.56 328.612C528.192 323.573 494.933 396.137 494.933 396.137C494.933 396.137 488.887 354.815 440.511 351.792C398.157 349.145 367.946 397.144 367.946 397.144C367.946 397.144 351.609 356.219 299.761 352.972C238.149 349.113 221.59 433.267 221.59 433.267C221.59 433.267 335.802 431.167 371.729 434.068H479.024L569.743 433.133L641.673 433.664Z" fill="#57F287"/>
          <path d="M492.738 10.125C492.738 10.125 474.694 23.42 487.04 30.068C499.386 36.716 522.178 23.42 522.178 23.42C522.178 23.42 538.323 52.86 596.254 19.621C596.254 19.621 575.36 38.615 590.555 63.307C605.75 87.999 635.191 78.502 635.191 78.502C635.191 78.502 577.26 112.691 597.203 160.175C617.146 207.659 664.631 182.968 664.631 182.968C664.631 182.968 647.536 213.357 676.027 241.848C700.76 266.581 784.881 250.517 812.237 225.969V43.872C812.237 20.911 793.45 2.12402 770.489 2.12402H442.583C450.56 11.556 465.73 20.597 492.738 10.125Z" fill="#13844B"/>
          <path d="M201.187 433.947C201.187 433.947 245.719 381.028 235.749 356.601C229.3 340.799 210.524 361.644 210.524 361.644C210.524 361.644 233.509 318.359 217.594 311.786C201.679 305.213 192.882 349.345 192.882 349.345C192.882 349.345 191.042 324.581 178.183 329.273C158.389 336.496 169.667 433.947 169.667 433.947H201.187Z" fill="#57F287"/>
          <path d="M675.221 433.947C675.221 433.947 630.689 381.028 640.659 356.601C647.108 340.799 665.884 361.644 665.884 361.644C665.884 361.644 642.899 318.359 658.814 311.786C674.729 305.213 683.525 349.345 683.525 349.345C683.525 349.345 685.366 324.581 698.225 329.273C718.019 336.496 706.741 433.947 706.741 433.947H675.221Z" fill="#57F287"/>
          <path d="M732.926 312.228C720.233 320.982 710.379 330.09 702.723 338.97C675.714 370.296 676.112 398.771 676.112 398.771C676.112 398.771 664.394 379.625 645.917 369.908C639.181 366.366 631.556 364.065 623.261 364.418C621.142 364.508 619.137 364.752 617.223 365.105C591.088 369.931 583.622 397.45 583.622 397.45C583.622 397.45 565.785 375.649 549.269 383.577C532.753 391.505 534.074 408.02 534.074 408.02C534.074 408.02 522.065 396.639 507.649 408.02C495.097 417.93 506.328 433.133 506.328 433.133H569.743H779.233C798.032 429.085 812.237 412.285 812.237 392.321V297.313C794.617 291.39 766.475 289.091 732.926 312.228Z" fill="#29CC7A"/>
          <path d="M1.76294 43.872V301.9C24.5239 311.917 56.6649 316.008 88.7099 314.913C106.397 314.046 133.74 308.261 143.253 281.96C152.07 257.583 133.782 243.286 120.753 236.504H135.309C135.309 236.504 188.926 242.539 208.47 202.474C230.661 156.982 196.543 118.051 196.543 118.051C196.543 118.051 216.62 131.1 241.716 101.989C266.812 72.878 241.716 34.732 241.716 34.732C241.716 34.732 286.302 63.147 328.687 53.403C364.526 45.164 361.173 9.63602 361.173 9.63602C361.173 9.63602 384.261 24.694 398.315 16.663C404.893 12.904 405.973 7.16502 405.26 2.12402H43.5109C20.5499 2.12402 1.76294 20.911 1.76294 43.872Z" fill="#13844B"/>
          <path d="M272.87 399.478C260.219 387.839 246.068 386.328 233.265 389.032C225.791 390.611 218.779 393.624 212.79 396.905C201.344 403.175 193.639 410.407 193.639 410.407C193.639 410.407 197.628 364.753 170.14 346.998C167.558 345.33 164.704 343.902 161.537 342.788C121.684 328.766 91.8699 367.377 91.8699 367.377C91.8699 367.377 94.7449 339.569 88.7099 314.913C84.5589 297.951 76.1919 282.481 59.7679 278.584C32.0149 271.999 11.7139 290.033 1.76294 301.9V314.47V392.321C1.76294 415.282 20.5499 434.068 43.5109 434.068H246.911H371.729C335.802 431.167 297.329 421.981 272.87 399.478Z" fill="#29CC7A"/>
          <path d="M186.245 196.766C186.245 196.766 343.783 248.161 329.258 38.1108" stroke="#13844B" stroke-width="8" stroke-miterlimit="10"/>
          <path d="M811.732 151.147C811.732 151.147 689.992 145.399 682.255 2.35986" stroke="#29CC7A" stroke-width="9" stroke-miterlimit="10"/>
          <path d="M287.072 184.761C287.072 184.761 274.777 195.69 277.509 208.667C280.241 221.644 285.023 227.791 285.023 227.791C285.023 227.791 295.268 220.96 295.951 205.934C296.634 190.908 287.072 184.761 287.072 184.761Z" fill="#13844B"/>
          <path d="M703.978 82.603C703.978 82.603 688.071 86.793 684.641 99.604C681.211 112.415 682.696 120.059 682.696 120.059C682.696 120.059 694.922 118.598 702.325 105.504C709.728 92.41 703.978 82.603 703.978 82.603Z" fill="#29CC7A"/>
          <path d="M714.646 96.5841C714.646 96.5841 722.119 107.326 732.628 106.392C743.137 105.458 748.444 102.261 748.444 102.261C748.444 102.261 744.014 93.5241 732.209 91.5671C720.404 89.6101 714.646 96.5841 714.646 96.5841Z" fill="#29CC7A"/>
          <path d="M279.085 188.173C279.085 188.173 268.277 192.374 266.533 201.802C264.789 211.23 266.193 216.589 266.193 216.589C266.193 216.589 274.587 214.618 279.068 204.687C283.549 194.756 279.085 188.173 279.085 188.173Z" fill="#13844B"/>
          <path d="M494.351 296.022H165.187V275.681H494.351V296.022Z" fill="#332A26"/>
          <path d="M199.407 309.371H463.018L457.693 373.269L432.136 403.088H222.568L201.1 373.801L199.407 309.371Z" fill="#96593E"/>
          <path d="M298.564 360.922H244.485" stroke="#B2755D" stroke-width="2.595" stroke-linecap="round" stroke-linejoin="round"/>
          <path d="M207.269 332.02H243" stroke="#B2755D" stroke-width="2.595" stroke-linecap="round" stroke-linejoin="round"/>
          <path d="M404.868 334.672H456.05" stroke="#B2755D" stroke-width="2.595" stroke-linecap="round" stroke-linejoin="round"/>
          <path d="M358.697 368.912H409.879" stroke="#B2755D" stroke-width="2.595" stroke-linecap="round" stroke-linejoin="round"/>
          <path d="M444.03 382.668H207.482V405.694H444.03V382.668Z" fill="#BC973B"/>
          <path d="M224.389 401.508H195.969L177.652 311.494H204.342L224.389 401.508Z" fill="#BC973B"/>
          <path d="M219.156 401.508H190.735L169.824 311.494H199.109L219.156 401.508Z" fill="#E0B848"/>
          <path d="M435.439 401.508H463.859L482.176 311.494H455.486L435.439 401.508Z" fill="#BC973B"/>
          <path d="M440.673 401.508H469.093L490.005 311.494H460.719L440.673 401.508Z" fill="#E0B848"/>
          <path d="M488.87 317.411H173.082C167.931 317.411 165.27 313.403 163.717 308.634L160.257 296.206C160.257 291.379 164.471 287.431 169.622 287.431H492.33C497.481 287.431 501.695 291.379 501.695 296.206L498.235 308.634C495.944 313.83 494.021 317.411 488.87 317.411Z" fill="#FFD85A"/>
          <path d="M464.563 420.544H196.35C191.199 420.544 188.538 416.267 186.985 411.178L183.525 397.915C183.525 392.764 187.739 388.55 192.89 388.55H468.023C473.174 388.55 477.388 392.764 477.388 397.915L473.928 411.178C471.636 416.723 469.714 420.544 464.563 420.544Z" fill="#FFD85A"/>
          <path d="M473.385 272.687H178.035L184.001 203.965L212.635 171.895H447.435L471.487 203.393L473.385 272.687Z" fill="#96593E"/>
          <path d="M468.034 236.541H413.956" stroke="#B2755D" stroke-width="2.595" stroke-linecap="round" stroke-linejoin="round"/>
          <path d="M305.797 218.675H251.717" stroke="#B2755D" stroke-width="2.595" stroke-linecap="round" stroke-linejoin="round"/>
          <path d="M379.19 219.64H414.921" stroke="#B2755D" stroke-width="2.595" stroke-linecap="round" stroke-linejoin="round"/>
          <path d="M187.981 240.403H223.712" stroke="#B2755D" stroke-width="2.595" stroke-linecap="round" stroke-linejoin="round"/>
          <path d="M350.219 181.978H401.401" stroke="#B2755D" stroke-width="2.595" stroke-linecap="round" stroke-linejoin="round"/>
          <path d="M201.984 184.875H253.166" stroke="#B2755D" stroke-width="2.595" stroke-linecap="round" stroke-linejoin="round"/>
          <path d="M189.187 264.452H199.231C199.231 264.452 192.842 251.24 198.724 209.479C201.628 188.865 213.219 172.986 213.219 172.986L218.241 171.551C218.241 171.551 216.089 167.606 213.219 166.53C210.35 165.454 201.382 169.399 194.208 190.92C187.035 212.442 189.187 264.452 189.187 264.452Z" fill="#BC973B"/>
          <path d="M192.415 264.81C192.415 264.81 188.828 243.289 192.056 214.953C194.428 194.132 204.252 171.551 210.708 167.247C210.708 167.247 192.415 167.247 179.503 176.215C175.336 179.108 160.133 211.366 165.872 265.169L192.415 264.81Z" fill="#E0B848"/>
          <path d="M470.22 264.452H460.177C460.177 264.452 466.565 251.24 460.683 209.479C457.779 188.865 446.188 172.986 446.188 172.986L441.167 171.551C441.167 171.551 443.319 167.606 446.188 166.53C449.057 165.454 458.025 169.399 465.198 190.92C472.372 212.442 470.22 264.452 470.22 264.452Z" fill="#BC973B"/>
          <path d="M466.992 264.81C466.992 264.81 470.579 243.289 467.35 214.953C464.979 194.132 455.156 171.551 448.699 167.247C448.699 167.247 466.992 167.247 479.905 176.215C484.072 179.108 499.274 211.366 493.535 265.169L466.992 264.81Z" fill="#E0B848"/>
          <path d="M493.045 283.675H168.907C164.15 283.675 160.257 279.782 160.257 275.025V265.033C160.257 260.276 164.15 256.383 168.907 256.383H493.045C497.803 256.383 501.695 260.276 501.695 265.033V275.025C501.695 279.782 497.803 283.675 493.045 283.675Z" fill="#FFD85A"/>
          <path d="M348.114 266.852H324.379C319.621 266.852 315.729 262.959 315.729 258.202V173.621C315.729 168.864 319.621 164.971 324.379 164.971H348.114C352.872 164.971 356.764 168.864 356.764 173.621V258.202C356.764 262.959 352.872 266.852 348.114 266.852Z" fill="#E0B848"/>
          <path d="M389.91 287.702C389.91 317.397 366.312 341.47 337.202 341.47C308.091 341.47 284.492 317.397 284.492 287.702C284.492 258.006 308.091 233.933 337.202 233.933C366.312 233.933 389.91 258.006 389.91 287.702Z" fill="#BC973B"/>
          <path d="M385.065 287.702C385.065 314.136 363.636 335.565 337.202 335.565C310.767 335.565 289.338 314.136 289.338 287.702C289.338 261.268 310.767 239.839 337.202 239.839C363.636 239.839 385.065 261.268 385.065 287.702Z" fill="#FFD85A"/>
          <path d="M306.76 315.344C306.226 312.961 305.944 310.48 305.944 307.931C305.944 289.667 320.423 274.86 338.284 274.86C356.144 274.86 370.623 289.667 370.623 307.931C370.623 310.16 370.407 312.337 369.996 314.442L355.277 314.818C355.497 313.589 355.613 312.32 355.613 311.019C355.613 300.36 347.855 291.72 338.284 291.72C328.712 291.72 320.953 300.36 320.953 311.019C320.953 312.506 321.105 313.954 321.391 315.344H306.76Z" fill="#AFAFAF"/>
          <path d="M374.656 313.417C375.272 316.658 375.597 320.032 375.597 323.499C375.597 348.342 363.627 368.482 338.284 368.482C313.828 368.482 300.969 348.342 300.969 323.499C300.969 320.468 301.218 317.507 301.692 314.644L374.656 313.417Z" fill="#635D5A"/>
          <path d="M349.217 332.276C349.217 337.96 344.609 342.568 338.926 342.568C333.242 342.568 328.634 337.96 328.634 332.276C328.634 326.592 333.242 321.984 338.926 321.984C344.609 321.984 349.217 326.592 349.217 332.276Z" fill="black"/>
          <path d="M352.314 353.758H325.853L334.503 337.647H343.664L352.314 353.758Z" fill="black"/>
          <path d="M338.007 301.168C332.258 301.168 327.555 296.465 327.555 290.716V273.296C327.555 267.547 332.258 262.843 338.007 262.843C343.756 262.843 348.46 267.547 348.46 273.296V290.716C348.46 296.465 343.756 301.168 338.007 301.168Z" fill="#BC973B"/>
          <path d="M526.434 232.32C526.434 232.32 523.804 256.743 515.906 269.559C512.422 275.213 507.444 279.656 501.674 282.886C494.895 286.68 486.962 288.386 484.08 296.488C481.444 303.898 483.765 311.81 487.971 318.15C498.457 333.956 520.392 337.263 542.119 319.346C563.846 301.429 575.379 257.551 568.328 231.327C563.321 212.707 548.886 207.084 541.833 209.637C526.222 215.287 526.434 232.32 526.434 232.32Z" fill="#4E5AE8"/>
          <path d="M554.495 343.983C554.495 343.983 554.462 361.99 554.446 370.994C554.43 379.535 554.399 396.616 554.399 396.616C554.399 396.616 540.692 407.951 545.8 418.545C550.909 429.138 580.689 431.923 599.108 424.902C612.403 419.834 611.371 407.912 609.274 396.066C608.328 390.723 607.797 382.012 607.361 374.961C606.767 365.362 606.612 354.389 606.186 346.132C605.41 331.089 606.259 323.867 594.424 315.034C578.022 302.793 554.278 320.937 554.495 343.983Z" fill="#4E5AE8"/>
          <path d="M532.901 208.631C532.901 208.631 505.734 268.249 526.114 315.889C540.946 350.562 613.299 355.676 645.235 345.386C684.705 332.669 683.846 290.159 675.993 249.863C668.141 209.567 653.308 187.078 653.308 187.078C653.308 187.078 538.136 189.889 532.901 208.631Z" fill="#698EFF"/>
          <path d="M646.412 176.076C653.273 195.117 634.395 219.358 604.247 230.22C574.099 241.082 544.098 234.452 537.238 215.411C530.378 196.371 549.256 172.129 579.403 161.267C609.551 150.406 639.552 157.035 646.412 176.076Z" fill="#4E5AE8"/>
          <path d="M653.754 245.057C653.754 245.057 676.312 254.78 686.225 266.11C690.599 271.108 693.374 277.175 694.756 283.641C696.379 291.238 695.667 299.32 702.557 304.466C708.859 309.171 717.105 309.29 724.404 307.143C742.602 301.791 752.235 281.809 741.531 255.761C738.546 248.497 733.398 241.395 726.936 234.907C710.229 218.13 684.741 205.461 665.172 204.736C645.904 204.023 636.269 216.155 636.626 223.648C637.416 240.231 653.754 245.057 653.754 245.057Z" fill="#698EFF"/>
          <path d="M598.258 348.328C598.258 348.328 601.403 368.981 602.975 379.308C604.065 386.468 606.245 400.788 606.245 400.788C606.245 400.788 592.872 408.114 597.534 423.268C601.762 437.007 633.657 434.92 651.167 431.193C666.492 427.933 661.827 411.167 661.099 399.16C660.727 393.025 659.035 384.38 657.265 375.388C655.37 365.765 653.386 355.744 652.832 347.978C651.76 332.953 648.984 324.54 635.69 321.741C621.238 318.698 597.589 325.29 598.258 348.328Z" fill="#698EFF"/>
          <path d="M491.571 191.521L502.99 190.099C516.904 188.367 526.921 174.884 525.25 160.136L522.318 134.256C520.647 119.508 507.898 108.86 493.984 110.592L482.564 112.014C468.65 113.746 458.633 127.23 460.304 141.978L463.236 167.857C464.907 182.605 477.657 193.253 491.571 191.521Z" fill="#698EFF"/>
          <path d="M488.334 171.682L501.751 170.012C504.116 169.718 505.82 167.426 505.535 164.919L501.393 128.347C501.108 125.833 498.934 124.018 496.562 124.313L483.157 125.982C477.612 126.673 473.619 132.046 474.285 137.924L477.041 162.25C477.707 168.129 482.789 172.373 488.334 171.682Z" fill="#B7CDFF"/>
          <path d="M581.5 54.1641C581.5 54.1641 591.566 41.8761 595.826 36.7493C602.384 28.858 616.292 21.8755 629.82 29.8847C641.301 36.6815 644.687 48.7645 635.485 62.0853C626.416 75.2152 619.782 75.5584 619.782 75.5584L556.239 83.3045L581.5 54.1641Z" fill="#55F186"/>
          <path d="M606.612 61.2044C605.597 61.331 604.539 60.9782 603.762 60.1485C602.423 58.7188 602.43 56.4118 603.776 54.9971C620.056 37.8902 620.914 12.9061 620.921 12.6554C620.976 10.6449 622.555 9.06912 624.457 9.12807C626.354 9.19142 627.848 10.8719 627.794 12.8824C627.763 14.0235 626.829 41.0462 608.623 60.1767C608.058 60.7706 607.346 61.1128 606.612 61.2044Z" fill="#008C43"/>
          <path d="M628.71 75.0171C628.71 75.0171 610.114 63.3485 587.083 38.1788C570.258 19.7909 560.56 9.80644 542.809 16.6622C528.065 22.3565 520.521 36.4728 531.119 55.9165C543.19 78.064 572.375 87.7326 572.375 87.7326L628.71 75.0171Z" fill="#25CB79"/>
          <path d="M571.151 68.1805C570.374 68.2773 569.561 68.0952 568.856 67.6025C554.06 57.2722 547.173 41.3259 546.887 40.6519C546.107 38.8157 546.878 36.6609 548.61 35.84C550.337 35.02 552.373 35.84 553.154 37.6736C553.216 37.8197 559.558 52.3961 572.629 61.5227C574.217 62.6313 574.658 64.8899 573.617 66.5686C573.038 67.5022 572.123 68.06 571.151 68.1805Z" fill="#008C43"/>
          <path d="M660.7 203.309C634.3 207.906 562.739 216.782 539.182 216.841C515.752 216.899 488.438 199.511 486.027 170.936L483.45 126.414C479.634 84.5373 497.934 71.0176 532.742 64.1917C569.921 56.9005 637.455 50.5233 650.066 49.6048C684.651 47.0849 703.697 67.544 706.107 96.1187L711.344 146.741C714.006 178.289 693.619 197.579 660.7 203.309Z" fill="#698EFF"/>
          <path d="M716.763 165.831L705.344 167.253C691.43 168.985 678.68 158.337 677.009 143.589L674.077 117.709C672.407 102.961 682.424 89.4781 696.337 87.7457L707.757 86.3239C721.671 84.5915 734.421 95.2403 736.091 109.988L739.023 135.867C740.694 150.615 730.677 164.099 716.763 165.831Z" fill="#698EFF"/>
          <path d="M715.477 145.75L702.061 147.421C699.696 147.715 697.528 145.904 697.244 143.397L693.101 106.826C692.816 104.312 694.524 102.013 696.896 101.718L710.301 100.049C715.846 99.3581 720.928 103.602 721.594 109.481L724.35 133.807C725.016 139.685 721.022 145.059 715.477 145.75Z" fill="#B7CDFF"/>
          <path d="M616.914 183.391C616.914 183.391 619.939 183.196 625.731 180.557C631.391 177.977 632.711 176.327 631.932 177.476C631.932 177.476 626.764 182.57 616.914 183.391Z" fill="#FFACD6"/>
          <path d="M605.028 184.925C605.028 184.925 623.362 184.651 633.213 176.442" stroke="#080201" stroke-width="3.51938" stroke-linecap="round" stroke-linejoin="round"/>
          <path d="M595.134 176.176L554.399 180.98C539.088 182.786 525.133 170.985 523.39 154.757L520.775 130.409C519.75 120.872 526.274 112.199 535.273 111.138L595.043 104.09C603.682 103.071 611.556 109.729 612.54 118.886L615.75 148.775C617.207 162.336 607.93 174.667 595.134 176.176Z" fill="#B7CDFF"/>
          <path d="M587.527 159.413L577.996 160.599C574.727 161.007 571.73 158.504 571.338 155.039L571.308 154.771C570.915 151.306 573.269 148.137 576.539 147.73L586.069 146.544C589.339 146.137 592.334 148.639 592.727 152.104L592.758 152.372C593.15 155.837 590.796 159.005 587.527 159.413Z" fill="#698EFF"/>
          <path d="M552.754 163.743L543.223 164.93C539.954 165.337 536.958 162.834 536.565 159.369L536.535 159.101C536.142 155.636 538.496 152.467 541.765 152.06L551.296 150.874C554.565 150.467 557.561 152.969 557.954 156.434L557.984 156.702C558.377 160.167 556.023 163.335 552.754 163.743Z" fill="#698EFF"/>
          <path d="M516.655 146.008C517.365 152.276 513.146 157.954 507.233 158.69C501.32 159.427 495.95 154.942 495.24 148.674C494.53 142.406 498.749 136.728 504.662 135.991C510.576 135.255 515.945 139.74 516.655 146.008Z" fill="#080201"/>
          <path d="M644.979 129.911C645.689 136.179 641.47 141.857 635.557 142.594C629.643 143.33 624.273 138.845 623.563 132.577C622.853 126.309 627.072 120.63 632.985 119.894C638.899 119.157 644.269 123.643 644.979 129.911Z" fill="#080201"/>
          <mask id="mask1_867_91298" style="mask-type:luminance" maskUnits="userSpaceOnUse" x="-43" y="-165" width="900" height="600">
            <path d="M-43 -165H857V435H-43V-165Z" fill="white"/>
          </mask>
          <g mask="url(#mask1_867_91298)">
            <path d="M 107.728 54.362 C 107.694 54.307 107.675 54.247 107.675 54.183 C 107.467 54.027 107.145 53.842 106.704 53.625 C 106.262 53.41 105.75 53.142 105.162 52.82 C 104.625 52.546 104.147 52.291 103.722 52.056 C 103.299 51.823 102.951 51.591 102.674 51.36 C 102.206 50.976 101.836 50.665 101.559 50.431 C 101.282 50.198 101.126 50.048 101.091 49.983 C 100.987 49.883 100.92 49.71 100.885 49.467 C 100.85 49.223 100.833 48.909 100.833 48.524 C 100.833 48.359 100.949 48.125 101.184 47.821 C 101.417 47.519 101.777 47.157 102.258 46.734 C 102.881 46.183 103.638 45.666 104.529 45.184 C 105.417 44.703 106.422 44.251 107.547 43.828 C 107.823 43.737 108.039 43.612 108.194 43.45 C 108.351 43.29 108.463 43.095 108.533 42.864 C 108.634 42.498 108.748 42.103 108.869 41.68 L 108.61 41.364 C 108.61 41.171 108.652 40.952 108.739 40.703 C 108.808 40.657 108.936 40.619 109.115 40.585 C 109.295 40.555 109.552 40.525 109.88 40.497 C 110.054 40.525 110.251 40.543 110.475 40.551 C 110.701 40.561 110.967 40.556 111.279 40.538 C 111.487 40.657 111.625 40.759 111.694 40.841 C 111.729 40.887 111.747 40.999 111.747 41.178 C 111.747 41.357 111.747 41.598 111.747 41.901 C 111.747 41.984 111.721 42.025 111.668 42.025 C 111.616 42.025 111.539 42.135 111.436 42.356 C 111.469 42.411 111.504 42.445 111.539 42.458 C 111.574 42.472 111.642 42.479 111.747 42.479 C 113.751 41.993 115.16 41.749 115.974 41.749 C 116.385 41.749 116.706 41.853 116.932 42.06 C 117.156 42.266 117.269 42.58 117.269 43.003 C 117.269 43.214 117.177 43.416 116.995 43.608 C 116.814 43.801 116.534 43.99 116.154 44.173 C 115.824 44.33 115.496 44.473 115.17 44.606 C 114.842 44.74 114.503 44.876 114.156 45.013 C 113.898 45.133 113.554 45.276 113.12 45.44 C 112.687 45.605 112.178 45.779 111.59 45.963 C 111.349 46.046 111.151 46.22 110.995 46.486 C 110.838 46.752 110.76 47.111 110.76 47.56 C 110.76 47.707 110.755 47.881 110.749 48.083 C 110.739 48.285 110.742 48.511 110.76 48.758 C 110.76 49.053 110.76 49.298 110.76 49.495 C 110.76 49.693 110.76 49.851 110.76 49.969 C 110.76 50.181 110.732 50.503 110.67 50.933 C 110.61 51.365 110.58 51.687 110.58 51.897 C 110.684 52.007 110.762 52.082 110.812 52.118 C 111.452 52.448 112.002 52.752 112.459 53.026 C 112.917 53.302 113.267 53.531 113.508 53.715 C 114.011 54.074 114.392 54.413 114.651 54.734 C 114.908 55.055 115.062 55.367 115.115 55.669 C 115.083 55.707 115.057 55.75 115.039 55.8 C 115.022 55.851 115.01 55.918 115.01 56 C 115.048 56.057 115.157 56.123 115.335 56.2 C 115.515 56.278 115.755 56.377 116.049 56.496 C 116.102 56.571 116.125 56.676 116.125 56.813 C 116.125 56.877 116.118 56.932 116.1 56.978 C 116.084 57.024 116.049 57.067 115.997 57.102 L 114.078 57.791 C 113.872 57.91 113.616 58.052 113.316 58.218 C 113.014 58.383 112.647 58.571 112.214 58.782 C 111.902 58.938 111.484 59.129 110.957 59.353 C 110.427 59.579 109.817 59.829 109.129 60.103 C 108.766 60.206 108.533 60.644 108.431 61.418 C 108.327 62.195 108.17 62.605 107.962 62.651 C 107.53 62.633 107.201 62.605 106.976 62.568 C 106.75 62.532 106.64 62.472 106.64 62.39 C 106.64 62.244 106.654 62.055 106.679 61.825 C 106.706 61.596 106.762 61.33 106.847 61.026 L 106.717 60.957 C 106.474 61.022 106.211 61.089 105.927 61.157 C 105.644 61.226 105.359 61.302 105.086 61.384 C 104.549 61.531 104.044 61.641 103.565 61.714 C 103.092 61.789 102.656 61.825 102.258 61.825 C 101.482 61.825 100.885 61.736 100.471 61.557 C 100.056 61.377 99.849 61.109 99.849 60.75 C 99.849 60.494 100.429 60.154 101.597 59.731 C 102.762 59.31 104.514 58.814 106.847 58.245 C 107.039 58.198 107.201 58.1 107.338 57.948 C 107.477 57.797 107.554 57.588 107.572 57.322 C 107.606 57.14 107.617 56.951 107.599 56.758 C 107.582 56.565 107.572 56.377 107.572 56.194 C 107.622 55.578 107.675 54.968 107.728 54.362 Z M 107.882 45.632 C 107.45 45.77 107.09 45.936 106.796 46.128 C 106.502 46.321 106.277 46.537 106.121 46.775 C 105.93 47.271 105.75 47.748 105.577 48.207 C 105.716 48.392 105.862 48.575 106.018 48.758 C 106.172 48.943 106.345 49.135 106.535 49.336 C 106.76 49.557 106.976 49.748 107.184 49.908 C 107.392 50.069 107.599 50.186 107.807 50.259 C 107.946 50.223 108.014 50.177 108.014 50.121 L 107.755 49.667 C 107.755 49.457 107.762 49.195 107.779 48.882 C 107.797 48.57 107.814 48.189 107.831 47.739 C 107.866 47.317 107.897 46.946 107.923 46.624 C 107.948 46.303 107.962 46.032 107.962 45.811 L 107.882 45.632 Z M 109.852 55.367 C 109.767 55.395 109.707 55.468 109.672 55.587 C 109.639 55.708 109.621 55.873 109.621 56.083 C 109.621 56.46 109.595 56.76 109.546 56.985 C 109.491 57.21 109.439 57.355 109.386 57.419 C 109.302 57.501 109.232 57.573 109.18 57.632 C 109.129 57.692 109.102 57.745 109.102 57.791 C 109.102 57.837 109.171 57.873 109.309 57.901 C 109.534 57.828 109.756 57.752 109.971 57.673 C 110.185 57.596 110.389 57.52 110.58 57.446 C 110.857 57.336 111.054 57.236 111.175 57.143 C 111.297 57.051 111.359 56.955 111.359 56.854 C 111.359 56.588 111.239 56.332 110.995 56.083 C 110.754 55.836 110.372 55.598 109.852 55.367 Z" fill="white"/>
            <path d="M 123.979 41.123 C 124.648 41.012 125.375 40.93 126.165 40.874 C 126.953 40.82 127.827 40.792 128.785 40.792 C 128.965 40.792 129.231 40.809 129.581 40.839 C 129.929 40.873 130.208 40.888 130.42 40.888 C 130.729 40.916 130.965 40.943 131.13 40.97 C 131.307 40.998 131.551 41.032 131.861 41.067 L 132.543 40.957 C 132.689 40.966 132.847 41.001 133.02 41.06 C 133.189 41.12 133.397 41.187 133.641 41.26 C 133.772 41.214 133.959 41.158 134.203 41.094 C 134.447 41.094 134.644 41.148 134.799 41.253 C 134.953 41.358 135.056 41.508 135.106 41.701 C 135.106 41.848 135.106 41.993 135.106 42.134 C 135.106 42.277 135.088 42.426 135.056 42.581 C 135.039 42.656 135.048 42.77 135.08 42.926 C 135.113 43.082 135.129 43.202 135.129 43.284 C 135.129 43.385 135.088 43.458 135.008 43.504 C 134.927 43.55 134.821 43.573 134.69 43.573 C 134.072 43.573 133.462 43.544 132.858 43.484 C 132.257 43.425 131.656 43.335 131.054 43.214 C 130.536 43.271 130.079 43.312 129.688 43.339 C 129.38 43.358 129.152 43.385 129.006 43.421 C 128.858 43.458 128.785 43.504 128.785 43.559 C 128.85 43.623 128.939 43.693 129.055 43.766 C 129.17 43.84 129.308 43.908 129.469 43.972 C 129.582 44.018 129.713 44.117 129.859 44.268 C 130.006 44.419 130.161 44.624 130.322 44.881 C 130.388 44.982 130.433 45.078 130.457 45.17 C 130.481 45.263 130.494 45.35 130.494 45.432 C 130.494 45.624 130.46 45.865 130.396 46.155 C 130.33 46.444 130.259 46.68 130.179 46.864 C 130.031 47.223 129.917 47.519 129.835 47.752 C 129.755 47.986 129.688 48.163 129.64 48.281 C 129.607 48.374 129.582 48.484 129.566 48.612 C 129.549 48.741 129.534 48.889 129.518 49.053 C 129.502 49.191 129.435 49.363 129.322 49.569 C 129.209 49.777 129.094 50.013 128.98 50.278 C 128.98 50.399 128.956 50.536 128.908 50.691 C 128.859 50.847 128.795 51.027 128.712 51.228 C 128.665 51.349 128.586 51.483 128.482 51.634 C 128.376 51.786 128.274 51.963 128.177 52.165 C 128.207 52.303 128.232 52.446 128.249 52.592 C 128.184 52.85 128.119 53.116 128.053 53.39 C 127.958 53.785 127.859 54.185 127.76 54.588 C 127.664 54.993 127.574 55.382 127.492 55.758 C 127.396 55.868 127.29 55.992 127.175 56.131 C 127.175 56.195 127.195 56.294 127.236 56.426 C 127.278 56.559 127.297 56.668 127.297 56.75 C 127.297 56.851 127.265 57 127.2 57.197 C 127.134 57.395 127.101 57.54 127.101 57.631 C 127.101 57.806 127.092 58.077 127.078 58.443 C 127.062 58.811 127.055 59.087 127.055 59.27 C 127.134 59.426 127.209 59.578 127.272 59.724 C 127.223 59.853 127.171 59.957 127.116 60.034 C 127.058 60.112 126.979 60.174 126.882 60.22 C 126.59 60.321 126.322 60.403 126.078 60.467 C 125.915 60.559 125.782 60.634 125.676 60.688 C 125.571 60.744 125.477 60.771 125.394 60.771 C 125.037 60.771 124.784 60.744 124.639 60.688 C 124.492 60.634 124.418 60.559 124.418 60.467 C 124.452 60.165 124.508 59.871 124.59 59.587 C 124.556 59.551 124.52 59.496 124.478 59.421 C 124.44 59.348 124.379 59.256 124.296 59.146 C 124.215 58.43 124.109 57.696 123.979 56.942 C 124.026 56.401 124.051 55.855 124.051 55.304 C 124.051 55.048 124.073 54.723 124.112 54.334 C 124.154 53.944 124.231 53.492 124.344 52.978 C 124.459 52.464 124.54 52.014 124.59 51.628 C 124.639 51.243 124.662 50.927 124.662 50.678 C 124.662 50.568 124.684 50.428 124.723 50.258 C 124.765 50.089 124.809 49.88 124.858 49.631 C 124.906 49.421 124.956 49.23 125.005 49.059 C 125.053 48.89 125.079 48.738 125.079 48.599 C 125.079 48.526 125.07 48.448 125.053 48.365 C 125.037 48.283 125.019 48.208 125.005 48.144 C 125.166 47.916 125.288 47.73 125.368 47.587 C 125.451 47.446 125.493 47.351 125.493 47.305 C 125.426 47.185 125.355 47.066 125.275 46.946 C 125.371 46.817 125.477 46.587 125.59 46.251 C 125.703 45.916 125.825 45.478 125.956 44.936 C 125.956 44.826 125.956 44.694 125.956 44.537 C 125.956 44.381 125.964 44.192 125.98 43.972 L 125.835 43.725 C 125.768 43.707 125.652 43.684 125.48 43.655 C 125.31 43.628 125.093 43.605 124.834 43.586 L 124.517 43.71 C 124.305 43.739 124.09 43.766 123.87 43.794 C 123.65 43.822 123.42 43.854 123.176 43.89 C 121.482 44.157 119.806 44.418 118.15 44.674 C 118.019 44.674 117.912 44.645 117.831 44.585 C 117.749 44.526 117.709 44.445 117.709 44.344 C 117.709 44.29 117.749 44.194 117.831 44.055 C 117.912 43.918 118.043 43.739 118.221 43.518 C 118.256 43.198 118.295 42.931 118.345 42.72 C 118.394 42.509 118.449 42.348 118.516 42.238 C 118.644 42.035 118.844 41.866 119.111 41.728 C 119.38 41.59 119.702 41.485 120.075 41.411 C 120.825 41.274 121.524 41.182 122.174 41.135 C 122.824 41.091 123.425 41.087 123.979 41.123 Z" fill="white"/>
            <path d="M 143.523 53.071 C 143.523 53.255 143.697 53.499 144.045 53.807 C 144.395 54.115 144.918 54.494 145.616 54.944 C 146.07 55.229 146.538 55.505 147.023 55.776 C 147.506 56.046 147.986 56.321 148.464 56.596 C 148.673 56.724 148.942 56.892 149.273 57.099 C 149.604 57.305 149.99 57.546 150.431 57.822 C 150.749 58.005 151.083 58.188 151.431 58.371 C 151.781 58.555 152.157 58.739 152.562 58.923 C 152.831 59.079 153.131 59.249 153.462 59.433 C 153.793 59.616 154.172 59.812 154.602 60.024 C 154.847 60.134 155.036 60.334 155.171 60.624 C 155.306 60.912 155.386 61.286 155.41 61.745 L 155.245 62.104 L 155.062 62.172 C 154.939 62.172 154.776 62.133 154.574 62.055 C 154.372 61.977 154.118 61.866 153.811 61.718 C 153.75 61.69 153.471 61.589 152.974 61.414 C 152.478 61.24 151.765 60.993 150.835 60.671 C 150.321 60.506 149.849 60.32 149.421 60.113 C 148.991 59.907 148.599 59.689 148.243 59.46 C 148.036 59.322 147.769 59.171 147.445 59.006 C 147.12 58.841 146.737 58.661 146.297 58.469 C 145.842 58.275 145.45 58.092 145.119 57.918 C 144.788 57.743 144.526 57.596 144.33 57.477 C 143.668 57.073 143.129 56.765 142.712 56.554 C 142.297 56.342 142.008 56.237 141.849 56.237 C 141.727 56.367 141.66 56.5 141.647 56.637 C 141.5 57.069 141.344 57.613 141.178 58.269 C 141.013 58.925 140.833 59.689 140.637 60.561 C 140.637 60.717 140.6 60.834 140.526 60.912 C 140.452 60.99 140.342 61.03 140.195 61.03 C 139.718 61.03 139.356 60.943 139.111 60.768 C 138.867 60.593 138.745 60.331 138.745 59.983 C 138.745 59.515 138.784 59.024 138.863 58.51 C 138.942 57.996 139.075 57.454 139.257 56.885 C 139.32 56.637 139.365 56.414 139.397 56.217 C 139.427 56.019 139.442 55.839 139.442 55.673 C 139.442 55.252 139.199 54.889 138.716 54.585 C 138.233 54.283 137.99 54.067 137.99 53.938 C 137.99 53.737 138.029 53.56 138.109 53.408 C 138.189 53.257 138.31 53.135 138.468 53.043 C 138.873 52.851 139.246 52.668 139.59 52.492 C 139.676 52.455 139.734 52.393 139.764 52.306 C 139.795 52.219 139.811 52.097 139.811 51.942 C 139.811 51.85 139.811 51.751 139.811 51.646 C 139.811 51.54 139.811 51.441 139.811 51.35 C 139.847 50.533 139.877 49.684 139.901 48.803 C 139.901 48.738 139.901 48.636 139.901 48.499 C 139.901 48.362 139.889 48.183 139.864 47.962 C 139.84 47.797 139.834 47.643 139.845 47.501 C 139.858 47.358 139.864 47.228 139.864 47.108 C 139.79 46.925 139.726 46.766 139.671 46.634 C 139.618 46.501 139.59 46.374 139.59 46.255 C 139.59 46.145 139.602 45.973 139.625 45.738 C 139.651 45.504 139.663 45.337 139.663 45.236 C 139.663 45.108 139.648 44.928 139.618 44.699 C 139.586 44.469 139.571 44.295 139.571 44.176 C 139.571 43.845 139.671 43.528 139.873 43.226 C 140.075 42.922 140.385 42.625 140.802 42.331 C 141.206 42.074 141.619 41.879 142.042 41.745 C 142.464 41.612 142.895 41.546 143.337 41.546 C 143.546 41.546 143.855 41.557 144.266 41.58 C 144.675 41.603 144.997 41.615 145.231 41.615 C 145.389 41.615 145.823 41.716 146.535 41.917 C 146.816 41.936 147.068 41.962 147.288 41.994 C 147.509 42.026 147.686 42.06 147.821 42.097 C 148.127 42.207 148.367 42.292 148.538 42.352 C 148.709 42.412 148.833 42.445 148.905 42.454 C 149.114 42.509 149.294 42.556 149.447 42.593 C 149.601 42.63 149.726 42.675 149.824 42.73 C 149.984 42.785 150.17 42.85 150.385 42.923 C 150.599 42.997 150.84 43.08 151.11 43.171 C 151.552 43.336 151.964 43.528 152.35 43.749 C 152.736 43.969 153.101 44.208 153.443 44.465 C 153.835 44.795 154.13 45.119 154.326 45.436 C 154.522 45.752 154.621 46.068 154.621 46.379 C 154.621 46.47 154.61 46.601 154.593 46.771 C 154.574 46.942 154.541 47.132 154.491 47.343 C 154.454 47.608 154.269 47.895 153.94 48.203 C 153.609 48.511 153.131 48.848 152.506 49.216 C 151.955 49.537 151.441 49.805 150.962 50.021 C 150.485 50.237 150.045 50.391 149.641 50.482 C 149.482 50.565 149.358 50.644 149.273 50.717 C 149.149 50.808 148.892 50.936 148.502 51.101 C 148.11 51.267 147.576 51.474 146.902 51.722 C 145.677 52.171 144.807 52.468 144.293 52.61 C 143.779 52.752 143.523 52.906 143.523 53.071 Z M 141.593 46.434 C 141.826 46.306 142.045 46.179 142.252 46.055 C 142.461 45.93 142.731 45.869 143.062 45.869 C 143.209 45.869 143.39 45.991 143.604 46.234 C 143.819 46.478 143.926 46.659 143.926 46.778 C 143.926 46.843 143.896 46.989 143.833 47.219 C 143.772 47.448 143.673 47.761 143.538 48.156 C 143.257 49.046 143.099 49.604 143.062 49.828 C 143.026 50.053 142.946 50.404 142.823 50.882 C 142.773 51.001 142.724 51.156 142.675 51.35 C 142.675 51.433 142.697 51.492 142.74 51.529 C 142.784 51.565 142.842 51.583 142.914 51.583 C 145.353 50.665 146.615 50.189 146.7 50.151 C 146.799 50.133 146.902 50.108 147.014 50.076 C 147.123 50.044 147.227 50.01 147.324 49.973 L 147.6 49.712 C 148.31 49.372 149.045 49.009 149.805 48.624 C 150.283 48.348 150.637 48.077 150.871 47.811 C 151.105 47.546 151.221 47.279 151.221 47.012 C 151.221 46.673 150.958 46.338 150.431 46.007 C 149.904 45.677 149.114 45.36 148.06 45.058 C 147.166 44.791 146.352 44.596 145.616 44.472 C 144.881 44.347 144.214 44.286 143.613 44.286 C 142.829 44.286 142.239 44.39 141.84 44.596 C 141.442 44.803 141.243 45.108 141.243 45.511 C 141.243 45.823 141.274 46.06 141.335 46.22 C 141.396 46.38 141.481 46.452 141.593 46.434 Z" fill="white"/>
            <path d="M 161.516 58.994 C 162.001 58.994 162.384 59.029 162.666 59.098 C 162.946 59.167 163.119 59.261 163.181 59.38 L 162.949 60.44 C 162.901 60.57 162.871 60.7 162.855 60.834 C 162.837 60.966 162.807 61.096 162.76 61.226 C 162.68 61.345 162.548 61.432 162.36 61.487 C 162.171 61.543 161.914 61.569 161.587 61.569 C 161.335 61.569 160.986 61.604 160.542 61.673 C 160.096 61.741 159.755 61.776 159.519 61.776 C 159.16 61.776 158.891 61.682 158.711 61.494 C 158.53 61.305 158.44 61.014 158.44 60.62 C 158.44 60.252 158.788 59.889 159.484 59.531 C 160.181 59.174 160.858 58.994 161.516 58.994 Z M 161.047 50.403 C 161.219 50.1 161.352 49.834 161.445 49.604 C 161.539 49.375 161.587 49.182 161.587 49.026 C 161.587 48.943 161.567 48.835 161.526 48.703 C 161.489 48.57 161.461 48.251 161.445 47.745 C 161.352 47.765 161.25 47.774 161.14 47.774 L 160.741 47.621 L 160.671 47.429 C 160.671 47.217 160.784 46.91 161.012 46.506 C 161.237 46.102 161.335 45.805 161.304 45.611 L 161.281 44.882 C 161.25 44.753 161.262 44.608 161.316 44.447 C 161.369 44.287 161.461 44.124 161.587 43.959 C 161.712 43.758 161.853 43.595 162.01 43.471 C 162.166 43.346 162.336 43.267 162.524 43.23 C 162.602 43.202 162.693 43.176 162.795 43.154 C 162.898 43.131 162.994 43.111 163.088 43.091 C 163.386 42.954 163.668 42.823 163.935 42.699 C 164.2 42.575 164.443 42.449 164.662 42.321 C 165.052 42.165 165.41 42.04 165.729 41.949 C 166.051 41.857 166.334 41.811 166.587 41.811 C 166.792 41.811 166.935 41.869 167.021 41.983 C 167.107 42.098 167.15 42.27 167.15 42.499 C 167.15 42.636 167.123 42.818 167.066 43.044 C 167.012 43.268 166.922 43.528 166.799 43.822 C 166.672 44.124 166.569 44.386 166.491 44.606 C 166.413 44.827 166.366 45.006 166.35 45.143 C 166.334 45.345 166.265 45.71 166.14 46.238 C 166.016 46.766 165.828 47.443 165.576 48.268 C 165.405 48.82 165.193 49.519 164.944 50.368 C 164.692 51.218 164.404 52.202 164.074 53.323 C 164.074 53.424 164.055 53.543 164.016 53.68 C 163.978 53.817 163.935 53.988 163.887 54.189 C 163.856 54.244 163.817 54.307 163.769 54.375 C 163.724 54.444 163.66 54.516 163.582 54.589 C 163.55 54.653 163.495 54.853 163.416 55.187 C 163.338 55.522 163.254 55.998 163.159 56.613 C 163.112 56.787 162.701 57.074 161.927 57.473 C 161.152 57.873 160.632 58.073 160.365 58.073 C 160.194 58.064 160.085 58.036 160.037 57.989 C 160.037 57.945 160.028 57.857 160.014 57.728 C 159.998 57.6 159.989 57.504 159.989 57.44 L 160.226 56.874 C 160.163 56.544 160.101 56.222 160.037 55.91 C 160.037 55.699 160.05 55.498 160.072 55.305 C 160.095 55.112 160.124 54.923 160.154 54.74 C 160.249 54.529 160.342 54.359 160.435 54.231 C 160.484 54.139 160.522 54.043 160.554 53.942 C 160.586 53.84 160.602 53.758 160.602 53.694 C 160.586 53.455 160.577 53.23 160.577 53.019 C 160.577 53.065 160.581 53.038 160.588 52.937 C 160.597 52.835 160.607 52.675 160.623 52.455 C 160.655 52.371 160.671 52.292 160.671 52.214 C 160.671 52.136 160.671 52.051 160.671 51.959 C 160.843 51.674 160.964 51.404 161.034 51.146 C 161.105 50.89 161.108 50.642 161.047 50.403 Z" fill="white"/>
            <path d="M 174.874 62.217 C 174.8 62.217 174.724 62.217 174.649 62.217 C 174.575 62.217 174.478 62.217 174.358 62.217 C 173.999 62.217 173.694 62.153 173.447 62.023 C 173.199 61.895 173.031 61.694 172.941 61.418 C 172.912 61.335 172.89 61.181 172.874 60.957 C 172.858 60.732 172.852 60.431 172.852 60.054 C 172.852 59.899 172.829 59.656 172.784 59.325 C 172.739 58.994 172.717 58.751 172.717 58.594 C 172.717 58.539 172.735 58.443 172.771 58.306 C 172.809 58.169 172.836 57.98 172.852 57.741 C 172.883 57.522 172.912 57.255 172.941 56.942 C 172.912 56.649 172.86 56.36 172.784 56.076 C 172.889 55.589 173.009 55.093 173.146 54.589 C 173.157 54.516 173.147 54.383 173.111 54.189 C 173.074 53.995 173.056 53.867 173.056 53.803 C 173.056 53.739 173.08 53.646 173.132 53.521 C 173.185 53.397 173.212 53.298 173.212 53.225 C 173.212 53.134 173.185 53.06 173.132 53.005 C 173.08 52.95 173.003 52.923 172.899 52.923 C 172.822 52.941 172.735 52.961 172.639 52.984 C 172.54 53.007 172.439 53.033 172.334 53.06 C 172.245 53.069 172.134 53.088 171.997 53.115 C 171.862 53.142 171.698 53.174 171.501 53.211 L 171.3 53.129 L 171.234 52.991 C 171.369 52.844 171.507 52.702 171.649 52.564 C 171.791 52.427 171.92 52.288 172.041 52.151 C 172.177 52.032 172.343 51.925 172.537 51.834 C 172.732 51.743 172.935 51.651 173.146 51.559 C 173.308 51.504 173.447 51.358 173.558 51.118 C 173.671 50.879 173.758 50.531 173.818 50.072 C 173.879 49.549 173.947 49.122 174.021 48.791 C 174.095 48.461 174.17 48.236 174.246 48.117 C 174.304 48.007 174.381 47.865 174.469 47.69 C 174.469 47.635 174.446 47.548 174.403 47.429 C 174.356 47.31 174.334 47.226 174.334 47.18 C 174.439 46.759 174.543 46.35 174.649 45.955 C 174.828 45.386 175.204 44.817 175.775 44.248 C 176.344 43.678 177.107 43.082 178.065 42.458 C 179.055 41.861 180.487 41.429 182.361 41.164 C 182.57 41.19 182.756 41.219 182.923 41.246 L 183.664 41.08 C 183.738 41.08 183.831 41.094 183.945 41.123 C 184.056 41.149 184.204 41.19 184.383 41.246 C 184.728 41.182 185.028 41.135 185.28 41.108 C 185.536 41.082 185.739 41.067 185.887 41.067 C 186.819 41.067 187.511 41.143 187.969 41.294 C 188.426 41.446 188.654 41.678 188.654 41.989 C 188.654 42.165 188.635 42.362 188.597 42.581 C 188.561 42.802 188.497 43.04 188.407 43.298 C 188.301 43.637 188.182 43.891 188.047 44.062 C 187.912 44.232 187.763 44.326 187.597 44.344 C 187.208 44.233 186.812 44.131 186.407 44.035 C 186.003 43.939 185.582 43.835 185.148 43.725 L 184.337 43.917 C 184.084 43.899 183.807 43.876 183.508 43.849 C 183.251 43.849 182.962 43.864 182.641 43.896 C 182.317 43.928 181.985 43.972 181.639 44.027 C 180.696 44.164 180.148 44.355 179.999 44.599 C 179.851 44.842 179.595 45.17 179.235 45.583 C 179.115 45.675 178.923 46.047 178.662 46.698 C 178.399 47.351 178.051 48.277 177.615 49.48 C 177.602 49.535 177.546 49.632 177.448 49.769 C 177.351 49.907 177.302 50.022 177.302 50.113 C 177.302 50.242 177.341 50.341 177.415 50.409 C 177.489 50.478 177.586 50.518 177.707 50.527 C 177.93 50.462 178.234 50.391 178.617 50.313 C 178.999 50.235 179.459 50.15 179.999 50.058 C 180.479 50.021 180.961 49.973 181.449 49.914 C 181.935 49.854 182.442 49.778 182.968 49.686 C 183.116 49.686 183.304 49.686 183.529 49.686 C 183.754 49.686 184.017 49.686 184.316 49.686 C 184.826 49.631 185.343 49.576 185.867 49.521 C 186.736 49.521 187.387 49.596 187.821 49.749 C 188.256 49.9 188.475 50.113 188.475 50.389 C 188.475 50.444 188.462 50.585 188.44 50.809 C 188.417 51.033 188.385 51.334 188.339 51.71 C 188.144 51.922 187.941 52.137 187.731 52.357 C 187.597 52.357 187.253 52.323 186.698 52.255 C 186.144 52.186 185.357 52.082 184.337 51.945 C 183.978 52 183.587 52.043 183.169 52.075 C 182.75 52.107 182.314 52.124 181.866 52.124 C 181.581 52.124 181.173 52.151 180.639 52.206 C 180.108 52.261 179.7 52.293 179.417 52.302 C 179.219 52.394 179.022 52.461 178.819 52.502 C 178.617 52.543 178.418 52.564 178.222 52.564 C 178.118 52.564 177.887 52.55 177.525 52.523 C 177.332 52.523 177.145 52.63 176.965 52.847 C 176.786 53.062 176.628 53.394 176.493 53.844 L 176.268 54.436 L 176.425 54.863 L 176 56.503 C 176 56.567 176.01 56.642 176.031 56.729 C 176.055 56.817 176.065 56.906 176.065 56.997 C 175.872 57.732 175.732 58.451 175.648 59.153 C 175.567 59.854 175.525 60.554 175.525 61.253 C 175.525 61.4 175.473 61.555 175.368 61.721 C 175.264 61.886 175.099 62.051 174.874 62.217 Z" fill="white"/>
            <path d="M 203.181 55.937 C 203.181 55.827 202.988 55.703 202.602 55.566 C 202.215 55.428 201.622 55.272 200.817 55.098 C 200.334 55.007 199.858 54.92 199.389 54.836 C 198.92 54.753 198.45 54.657 197.981 54.547 C 197.738 54.483 197.557 54.433 197.435 54.395 C 197.148 54.34 196.856 54.288 196.56 54.238 C 196.265 54.188 195.967 54.13 195.664 54.065 C 195.452 53.992 195.294 53.884 195.186 53.742 C 195.08 53.599 195.027 53.408 195.027 53.17 L 194.913 52.839 C 194.913 52.684 195.038 52.478 195.289 52.22 C 195.539 51.963 195.906 51.655 196.391 51.297 C 197.451 50.536 198.469 49.731 199.444 48.881 C 200.421 48.031 201.342 47.148 202.205 46.23 C 202.34 46.111 202.461 45.96 202.568 45.777 C 202.568 45.647 202.432 45.546 202.159 45.473 C 201.886 45.4 201.469 45.363 200.909 45.363 C 200.228 45.363 199.396 45.424 198.412 45.549 C 197.426 45.673 196.277 45.854 194.96 46.093 C 194.551 46.184 194.173 46.271 193.825 46.355 C 193.582 46.4 193.373 46.439 193.199 46.471 C 193.025 46.503 192.871 46.52 192.733 46.52 C 192.462 46.52 192.261 46.479 192.131 46.396 C 192.003 46.312 191.939 46.184 191.939 46.01 C 191.939 45.919 191.977 45.772 192.052 45.569 C 192.129 45.368 192.25 45.106 192.417 44.785 C 192.629 44.372 192.897 44.026 193.222 43.745 C 193.547 43.464 193.938 43.246 194.391 43.091 C 194.664 42.999 195.078 42.914 195.631 42.836 C 196.182 42.758 196.86 42.691 197.662 42.636 C 197.965 42.563 198.323 42.497 198.74 42.438 C 199.157 42.377 199.639 42.339 200.183 42.32 C 200.621 42.311 201.057 42.306 201.488 42.306 C 201.919 42.306 202.355 42.292 202.795 42.265 C 203.309 42.256 203.817 42.29 204.317 42.368 C 204.815 42.447 205.308 42.577 205.792 42.761 C 206.322 42.972 206.72 43.205 206.984 43.463 C 207.25 43.721 207.382 43.991 207.382 44.276 C 207.382 44.569 207.311 44.84 207.167 45.087 C 207.023 45.334 206.814 45.569 206.541 45.789 C 204.194 47.717 202.423 49.202 201.228 50.244 C 200.032 51.286 199.433 51.898 199.433 52.082 C 199.433 52.192 199.615 52.309 199.978 52.433 C 200.343 52.557 200.864 52.697 201.545 52.853 C 202.5 53.055 203.31 53.243 203.976 53.417 C 204.641 53.593 205.157 53.762 205.519 53.927 C 206.261 54.212 206.806 54.531 207.154 54.884 C 207.504 55.237 207.678 55.635 207.678 56.076 C 207.497 57.095 206.073 58.223 203.407 59.462 C 203.256 59.526 203.056 59.62 202.805 59.744 C 202.555 59.869 202.258 59.999 201.909 60.138 C 200.411 60.67 198.956 61.18 197.547 61.666 C 197.336 61.693 197.072 61.73 196.754 61.776 C 196.436 61.822 196.095 61.877 195.731 61.941 C 195.429 62.024 195.186 62.089 195.003 62.133 C 194.822 62.18 194.687 62.203 194.596 62.203 C 194.249 62.203 193.95 62.194 193.7 62.174 C 193.449 62.157 193.24 62.124 193.074 62.078 C 192.575 62.133 192.106 62.189 191.666 62.244 C 191.197 62.244 190.844 62.2 190.611 62.113 C 190.376 62.026 190.258 61.89 190.258 61.707 C 190.258 61.495 190.519 61.298 191.042 61.114 C 191.564 60.931 192.347 60.656 193.394 60.289 C 194.285 59.977 195.39 59.563 196.708 59.049 C 198.026 58.535 199.547 57.924 201.272 57.218 C 201.726 56.952 202.181 56.695 202.636 56.447 C 202.802 56.328 202.935 56.23 203.034 56.151 C 203.131 56.073 203.181 56.001 203.181 55.937 Z" fill="white"/>
            <path d="M77.4465 34.667C73.6889 33.0488 69.7033 31.8651 65.5874 31.1592C65.0118 32.1474 64.5122 33.1248 64.0778 34.1783C59.7447 33.5484 55.2486 33.5484 50.9155 34.1783C50.4811 33.1248 49.9815 32.1474 49.406 31.1592C45.3552 31.8651 41.3804 33.0597 37.5468 34.743C30.1077 45.4835 28.0769 55.9417 29.0869 66.3347C33.4961 69.495 38.4156 71.8842 43.6176 73.4263C44.7687 71.8842 45.8547 70.266 46.7235 68.5827C45.062 67.9529 43.4004 67.1818 41.8148 66.3347C42.2492 66.0524 42.6076 65.77 43.042 65.4876C52.2187 69.7013 62.8398 69.7013 72.0925 65.4876C72.4509 65.77 72.8853 66.1284 73.3197 66.3347C71.7341 67.247 70.1486 68.018 68.411 68.5827C69.2798 70.266 70.3658 71.8842 71.5169 73.4263C76.7189 71.8842 81.6384 69.495 86.0476 66.3347C87.1988 54.3236 83.9516 43.9305 77.4465 34.667ZM47.9507 59.949C45.1271 59.949 42.7488 57.4187 42.7488 54.3996C42.7488 51.3805 44.9968 48.785 47.8856 48.785C50.7743 48.785 53.0875 51.3153 53.0875 54.3996C53.0875 57.4838 50.8395 59.949 47.9507 59.949ZM67.0317 59.949C64.2081 59.949 61.9058 57.4187 61.9058 54.3996C61.9058 51.3805 64.143 48.785 67.0317 48.785C69.9205 48.785 72.2445 51.3153 72.1685 54.3996C72.1685 57.4838 69.9205 59.949 67.0317 59.949Z" fill="white"/>
          </g>
        </g>
      </g>
    </g>
  </g>
  <defs>
    <linearGradient id="paint0_linear_867_91298" x1="72.0919" y1="44.855" x2="770.576" y2="415.699" gradientUnits="userSpaceOnUse">
      <stop stop-color="#16AF63"/>
      <stop offset="0.5" stop-color="#54D788"/>
      <stop offset="1" stop-color="#91FFAD"/>
    </linearGradient>
    <clipPath id="clip0_867_91298">
      <rect x="2" y="3" width="810.5" height="430" rx="44" fill="white"/>
    </clipPath>
    <clipPath id="clip1_867_91298">
      <rect x="2" y="3" width="810.5" height="430" rx="44" fill="white"/>
    </clipPath>
    <clipPath id="clip2_867_91298">
      <rect width="900" height="600" fill="white" transform="translate(-43 -165)"/>
    </clipPath>
  </defs>
</svg>