<svg width="815" height="435" viewBox="0 0 815 435" fill="none" xmlns="http://www.w3.org/2000/svg">
<g clip-path="url(#clip0_4771_48380)">
<mask id="mask0_4771_48380" style="mask-type:luminance" maskUnits="userSpaceOnUse" x="0" y="0" width="815" height="435">
<path d="M0 0H815V435H0V0Z" fill="white"/>
</mask>
<g mask="url(#mask0_4771_48380)">
<path d="M770.011 1.88623H442.105H404.782H43.0332C20.0722 1.88623 1.28516 20.6732 1.28516 43.6342V301.662V314.232V392.083C1.28516 415.044 20.0722 433.83 43.0332 433.83H246.433H371.251C376.924 434.288 382.527 434.585 388.007 434.757C388.057 434.759 388.108 434.76 388.158 434.762L388.627 434.757L478.546 433.83H770.011C773.009 433.83 775.933 433.503 778.756 432.895C797.555 428.847 811.759 412.047 811.759 392.083V297.075V225.731V43.6342C811.759 20.6732 792.972 1.88623 770.011 1.88623Z" fill="url(#paint0_radial_4771_48380)"/>
<g opacity="0.42">
<path d="M600.733 81.7803L572.04 196.149L596.032 189.307L566.488 274.711L598.82 263.674L568.76 351.95L756.797 303.744L690.359 239.185L719.308 231.809L656.018 174.81L677.401 167.974L600.733 81.7803Z" fill="#244942"/>
</g>
<g opacity="0.42">
<path d="M417.797 165.648L341.705 232.232L362.568 238.719L299.802 284.624L328.792 292.094L264.266 339.768L425.167 394.407L407.613 317.978L432.362 326.422L413.473 256.767L432.422 262.032L417.797 165.648Z" fill="#244942"/>
</g>
<g opacity="0.42">
<path d="M148.8 104.667L100.765 178.554L119.386 179.539L77.7766 232.743L103.311 232.786L60.6406 287.896L205.264 299.446L173.963 237.687L196.218 239.497L165.308 183.846L182.083 184.202L148.8 104.667Z" fill="#244942"/>
</g>
<path d="M723.738 80.9152L703.275 185.635L746.006 166.376L727.269 279.088L811.758 278.299V225.731V43.6342C811.758 20.6732 792.971 1.88623 770.01 1.88623H703.275L682.211 97.1642L723.738 80.9152Z" fill="#244942"/>
<path d="M371.253 433.83C376.926 434.288 382.529 434.585 388.009 434.757C388.059 434.759 388.11 434.76 388.16 434.762L388.629 434.757L478.548 433.83H770.013C773.011 433.83 775.935 433.503 778.758 432.895C797.557 428.847 811.761 412.047 811.761 392.083V297.075V250.704C773.286 242.112 681.379 234.864 505.978 287.559C259.272 361.677 183.036 422.03 88.8008 402.971C88.8008 402.971 92.9458 416.783 98.5448 433.83H246.435H371.253Z" fill="#58998C"/>
<path d="M371.253 433.83C376.926 434.288 382.529 434.585 388.009 434.757C388.059 434.759 388.11 434.76 388.16 434.762L388.629 434.757L478.548 433.83H770.013C773.011 433.83 775.935 433.503 778.758 432.895C797.557 428.847 811.761 412.047 811.761 392.083V297.075V250.704C773.286 242.112 681.379 234.864 505.978 287.559C259.272 361.677 183.036 422.03 88.8008 402.971C88.8008 402.971 92.9458 416.783 98.5448 433.83H246.435H371.253Z" fill="url(#paint1_linear_4771_48380)"/>
<path d="M388.006 434.757H388.626L478.545 433.83H371.25C376.923 434.288 382.526 434.585 388.006 434.757Z" fill="#57F287"/>
<path d="M299.856 23.5591L206.68 131.559L236.327 137.206L157.974 213.441L198.915 219.088L118.445 298.147L347.856 348.265L311.15 242.382L346.445 250.147L309.033 154.147L335.856 158.382L299.856 23.5591Z" fill="#244942"/>
<path d="M388.159 434.762L388.628 434.757H388.008C388.058 434.759 388.109 434.76 388.159 434.762Z" fill="#29CC7A"/>
<path d="M1.28516 392.083C1.28516 415.044 20.0722 433.83 43.0332 433.83H246.433H371.251C376.924 434.288 382.527 434.585 388.007 434.757C388.057 434.759 388.108 434.76 388.158 434.762L388.627 434.757L478.546 433.83H767.572C623.625 412.357 435.928 373.376 312.211 317.206C168.799 252.094 47.8472 285.783 1.28516 303.91V314.232V392.083Z" fill="#58998C"/>
<path d="M1.28516 392.083C1.28516 415.044 20.0722 433.83 43.0332 433.83H246.433H371.251C376.924 434.288 382.527 434.585 388.007 434.757C388.057 434.759 388.108 434.76 388.158 434.762L388.627 434.757L478.546 433.83H767.572C623.625 412.357 435.928 373.376 312.211 317.206C168.799 252.094 47.8472 285.783 1.28516 303.91V314.232V392.083Z" fill="url(#paint2_linear_4771_48380)"/>
<path d="M123.741 332.029L68.6822 143.559L124.799 168.971L92.1322 1.88623H43.0332C20.0722 1.88623 1.28516 20.6732 1.28516 43.6342V301.662V314.232V392.083C1.28516 415.044 20.0722 433.83 43.0332 433.83H91.3862L57.0352 310.853L123.741 332.029Z" fill="#244942"/>
<path d="M270.765 67.3641C270.765 69.9831 268.628 72.1071 265.992 72.1071C263.356 72.1071 261.219 69.9831 261.219 67.3641C261.219 64.7451 263.356 62.6221 265.992 62.6221C268.628 62.6221 270.765 64.7451 270.765 67.3641Z" fill="#EFEB70"/>
<path d="M322.257 87.7894C322.257 90.4084 320.12 92.5314 317.484 92.5314C314.848 92.5314 312.711 90.4084 312.711 87.7894C312.711 85.1704 314.848 83.0474 317.484 83.0474C320.12 83.0474 322.257 85.1704 322.257 87.7894Z" fill="#EFEB70"/>
<path d="M256.382 116.212C256.382 118.831 254.245 120.954 251.609 120.954C248.973 120.954 246.836 118.831 246.836 116.212C246.836 113.593 248.973 111.469 251.609 111.469C254.245 111.469 256.382 113.593 256.382 116.212Z" fill="#EFEB70"/>
<path d="M337.507 212.007C337.507 214.626 335.37 216.749 332.734 216.749C330.098 216.749 327.961 214.626 327.961 212.007C327.961 209.388 330.098 207.264 332.734 207.264C335.37 207.264 337.507 209.388 337.507 212.007Z" fill="#EFEB70"/>
<path d="M187.917 201.938C187.917 204.557 185.78 206.68 183.144 206.68C180.508 206.68 178.371 204.557 178.371 201.938C178.371 199.319 180.508 197.196 183.144 197.196C185.78 197.196 187.917 199.319 187.917 201.938Z" fill="#EFEB70"/>
<path d="M252.066 237.897C252.066 240.516 249.929 242.639 247.293 242.639C244.657 242.639 242.52 240.516 242.52 237.897C242.52 235.278 244.657 233.155 247.293 233.155C249.929 233.155 252.066 235.278 252.066 237.897Z" fill="#EFEB70"/>
<path d="M281.698 171.732C281.698 174.351 279.561 176.475 276.925 176.475C274.289 176.475 272.152 174.351 272.152 171.732C272.152 169.113 274.289 166.99 276.925 166.99C279.561 166.99 281.698 169.113 281.698 171.732Z" fill="#EFEB70"/>
<path d="M321.398 266.952C321.398 269.571 319.261 271.694 316.625 271.694C313.989 271.694 311.852 269.571 311.852 266.952C311.852 264.333 313.989 262.21 316.625 262.21C319.261 262.21 321.398 264.333 321.398 266.952Z" fill="#EFEB70"/>
<path d="M186.476 265.514C186.476 268.133 184.339 270.256 181.703 270.256C179.067 270.256 176.93 268.133 176.93 265.514C176.93 262.895 179.067 260.771 181.703 260.771C184.339 260.771 186.476 262.895 186.476 265.514Z" fill="#EFEB70"/>
<path d="M716.058 29.0842C716.058 32.5302 713.247 35.3232 709.779 35.3232C706.311 35.3232 703.5 32.5302 703.5 29.0842C703.5 25.6382 706.311 22.8452 709.779 22.8452C713.247 22.8452 716.058 25.6382 716.058 29.0842Z" fill="#EFEB70"/>
<path d="M795.976 27.4514C795.976 30.8974 793.165 33.6894 789.697 33.6894C786.229 33.6894 783.418 30.8974 783.418 27.4514C783.418 24.0054 786.229 21.2124 789.697 21.2124C793.165 21.2124 795.976 24.0054 795.976 27.4514Z" fill="#EFEB70"/>
<path d="M768.492 83.2063C768.492 86.6523 765.681 89.4453 762.213 89.4453C758.745 89.4453 755.934 86.6523 755.934 83.2063C755.934 79.7603 758.745 76.9673 762.213 76.9673C765.681 76.9673 768.492 79.7603 768.492 83.2063Z" fill="#EFEB70"/>
<path d="M802.321 133.431C802.321 136.877 799.51 139.67 796.042 139.67C792.574 139.67 789.762 136.877 789.762 133.431C789.762 129.985 792.574 127.192 796.042 127.192C799.51 127.192 802.321 129.985 802.321 133.431Z" fill="#EFEB70"/>
<path d="M749.183 210.137C749.183 213.583 746.372 216.376 742.904 216.376C739.436 216.376 736.625 213.583 736.625 210.137C736.625 206.691 739.436 203.899 742.904 203.899C746.372 203.899 749.183 206.691 749.183 210.137Z" fill="#EFEB70"/>
<path d="M809.606 230.278C809.606 233.724 806.795 236.517 803.327 236.517C799.859 236.517 797.047 233.724 797.047 230.278C797.047 226.832 799.859 224.039 803.327 224.039C806.795 224.039 809.606 226.832 809.606 230.278Z" fill="#EFEB70"/>
<path d="M730.421 136.023C730.421 139.469 727.61 142.262 724.142 142.262C720.674 142.262 717.863 139.469 717.863 136.023C717.863 132.577 720.674 129.784 724.142 129.784C727.61 129.784 730.421 132.577 730.421 136.023Z" fill="#EFEB70"/>
<path d="M52.0562 263.424C52.0562 271.729 45.2792 278.462 36.9202 278.462C28.5612 278.462 21.7852 271.729 21.7852 263.424C21.7852 255.119 28.5612 248.385 36.9202 248.385C45.2792 248.385 52.0562 255.119 52.0562 263.424Z" fill="#EFEB70"/>
<path d="M48.1411 123.867C48.1411 132.172 41.3651 138.905 33.0061 138.905C24.6471 138.905 17.8711 132.172 17.8711 123.867C17.8711 115.562 24.6471 108.829 33.0061 108.829C41.3651 108.829 48.1411 115.562 48.1411 123.867Z" fill="#EFEB70"/>
<path d="M102.372 199.613C102.372 207.918 95.5956 214.651 87.2366 214.651C78.8776 214.651 72.1016 207.918 72.1016 199.613C72.1016 191.308 78.8776 184.574 87.2366 184.574C95.5956 184.574 102.372 191.308 102.372 199.613Z" fill="#EFEB70"/>
<path d="M66.939 381.292C66.939 389.597 60.163 396.33 51.804 396.33C43.445 396.33 36.668 389.597 36.668 381.292C36.668 372.987 43.445 366.253 51.804 366.253C60.163 366.253 66.939 372.987 66.939 381.292Z" fill="#EFEB70"/>
</g>
<path d="M538.852 294.522H209.688V274.181H538.852V294.522Z" fill="#332A26"/>
<path d="M572.678 226.006C572.678 226.006 570.163 249.369 562.607 261.628C559.274 267.037 554.513 271.287 548.993 274.376C542.508 278.006 534.92 279.638 532.163 287.388C529.642 294.477 531.862 302.046 535.885 308.11C545.916 323.23 566.899 326.393 587.683 309.254C608.467 292.115 619.499 250.141 612.754 225.055C607.965 207.244 594.156 201.865 587.409 204.307C572.475 209.712 572.678 226.006 572.678 226.006Z" fill="#4E5AE8"/>
<path d="M599.522 332.821C599.522 332.821 599.491 350.047 599.475 358.66C599.46 366.83 599.43 383.17 599.43 383.17C599.43 383.17 586.318 394.013 591.205 404.147C596.091 414.28 624.579 416.945 642.199 410.228C654.916 405.379 653.929 393.975 651.923 382.644C651.018 377.532 650.51 369.199 650.093 362.455C649.525 353.272 649.377 342.775 648.969 334.877C648.227 320.487 649.039 313.578 637.717 305.128C622.028 293.419 599.315 310.775 599.522 332.821Z" fill="#4E5AE8"/>
<path d="M578.865 203.343C578.865 203.343 552.877 260.373 572.372 305.945C586.561 339.113 655.774 344.006 686.324 334.163C724.08 321.997 723.259 281.333 715.747 242.786C708.235 204.239 694.047 182.725 694.047 182.725C694.047 182.725 583.873 185.414 578.865 203.343Z" fill="#698EFF"/>
<path d="M687.451 172.204C694.013 190.418 675.954 213.607 647.115 223.998C618.276 234.388 589.577 228.046 583.015 209.832C576.452 191.617 594.511 168.428 623.35 158.038C652.189 147.648 680.888 153.989 687.451 172.204Z" fill="#4E5AE8"/>
<path d="M694.472 238.19C694.472 238.19 716.05 247.491 725.533 258.329C729.717 263.111 732.372 268.914 733.694 275.099C735.247 282.367 734.566 290.099 741.157 295.021C747.185 299.522 755.073 299.635 762.055 297.582C779.463 292.462 788.678 273.347 778.439 248.43C775.583 241.481 770.659 234.687 764.477 228.481C748.495 212.432 724.114 200.313 705.394 199.62C686.963 198.937 677.746 210.543 678.087 217.71C678.843 233.574 694.472 238.19 694.472 238.19Z" fill="#698EFF"/>
<path d="M641.387 336.978C641.387 336.978 644.395 356.735 645.899 366.613C646.942 373.463 649.027 387.161 649.027 387.161C649.027 387.161 636.234 394.169 640.694 408.665C644.738 421.807 675.249 419.811 692 416.247C706.659 413.127 702.196 397.09 701.5 385.604C701.144 379.735 699.526 371.465 697.832 362.863C696.02 353.658 694.121 344.072 693.592 336.643C692.567 322.27 689.911 314.222 677.194 311.545C663.369 308.634 640.747 314.94 641.387 336.978Z" fill="#698EFF"/>
<path d="M539.33 186.979L550.253 185.619C563.563 183.962 573.145 171.064 571.547 156.956L568.743 132.2C567.144 118.092 554.948 107.905 541.638 109.562L530.714 110.923C517.404 112.58 507.822 125.478 509.42 139.586L512.225 164.342C513.823 178.45 526.02 188.636 539.33 186.979Z" fill="#698EFF"/>
<path d="M536.236 168.001L549.07 166.403C551.332 166.121 552.962 163.929 552.69 161.531L548.727 126.546C548.455 124.141 546.375 122.405 544.106 122.687L531.283 124.284C525.978 124.945 522.159 130.085 522.796 135.708L525.432 158.978C526.069 164.601 530.931 168.661 536.236 168.001Z" fill="#B7CDFF"/>
<path d="M625.352 55.5828C625.352 55.5828 634.981 43.8282 639.056 38.9239C645.329 31.3751 658.634 24.6957 671.574 32.3573C682.557 38.8591 685.796 50.4175 676.994 63.1602C668.318 75.7202 661.972 76.0485 661.972 76.0485L601.188 83.4584L625.352 55.5828Z" fill="#55F186"/>
<path d="M649.374 62.3175C648.404 62.4387 647.391 62.1012 646.648 61.3075C645.367 59.9398 645.374 57.733 646.661 56.3796C662.235 40.0153 663.056 16.1156 663.063 15.8757C663.115 13.9525 664.626 12.4451 666.445 12.5015C668.26 12.5621 669.689 14.1697 669.637 16.0929C669.608 17.1845 668.714 43.0343 651.298 61.3344C650.758 61.9026 650.077 62.23 649.374 62.3175Z" fill="#008C43"/>
<path d="M670.514 75.5306C670.514 75.5306 652.725 64.3686 630.694 40.2913C614.599 22.7015 605.322 13.1504 588.342 19.7086C574.237 25.1558 567.021 38.6593 577.159 57.2591C588.706 78.4453 616.625 87.6942 616.625 87.6942L670.514 75.5306Z" fill="#25CB79"/>
<path d="M615.459 68.9901C614.716 69.0826 613.938 68.9084 613.263 68.4371C599.11 58.5552 592.521 43.301 592.248 42.6563C591.502 40.8998 592.24 38.8385 593.896 38.0533C595.548 37.2689 597.496 38.0533 598.243 39.8073C598.303 39.947 604.369 53.8907 616.873 62.6212C618.391 63.6817 618.814 65.8423 617.817 67.4481C617.264 68.3411 616.388 68.8748 615.459 68.9901Z" fill="#008C43"/>
<path d="M626.02 196.039L628.933 243.584C636.075 241.982 643.9 239.777 652.414 236.816C652.005 219.934 649.925 203.269 648.629 194.292L626.02 196.039Z" fill="#C0001E"/>
<path d="M682.026 192.061L681.867 191.727L662.488 193.223C664.314 203.791 664.353 221.15 664.138 232.416C671.323 229.53 678.942 226.127 687.001 222.13C687.541 203.58 682.026 192.061 682.026 192.061Z" fill="#C0001E"/>
<path d="M567.267 200.575C567.267 200.575 552.414 211.269 562.811 234.439C562.811 234.439 564.594 239.489 570.238 242.757C570.238 242.757 572.408 243.891 576.841 245.034C570.479 220.213 575.882 205.922 575.882 205.922L587.368 202.159C583.906 219.179 587.691 238.078 590.004 247.097C596.652 247.587 605.021 247.486 615.175 246.088C613.711 230.592 613.499 207.92 613.49 197.006L567.267 200.575Z" fill="#C0001E"/>
<path d="M712.798 189.337L695.414 190.68C697.921 198.756 698.083 208.532 697.528 216.704C701.726 214.456 706.03 212.055 710.448 209.487C710.448 209.487 711.546 208.707 713.038 207.181C713.848 199.349 713.207 192.485 712.798 189.337Z" fill="#C0001E"/>
<path d="M587.369 202.159L575.883 205.922C575.883 205.922 570.48 220.213 576.841 245.034C580.037 245.858 584.414 246.684 590.005 247.097C587.692 238.078 583.907 219.179 587.369 202.159Z" fill="#DB5656"/>
<path d="M613.492 197.006C613.501 207.919 613.714 230.592 615.177 246.088C619.446 245.5 624.027 244.684 628.932 243.584L626.018 196.039L613.492 197.006Z" fill="#DB5656"/>
<path d="M662.492 193.221L648.625 194.292C649.921 203.268 652.001 219.934 652.41 236.816C656.184 235.503 660.094 234.041 664.142 232.415C664.357 221.148 664.318 203.789 662.492 193.221Z" fill="#DB5656"/>
<path d="M695.415 190.681L681.871 191.726L682.03 192.061C682.03 192.061 687.546 203.58 687.005 222.13C690.435 220.429 693.939 218.628 697.529 216.705C698.084 208.534 697.921 198.758 695.415 190.681Z" fill="#DB5656"/>
<path d="M712.801 189.338C713.209 192.485 713.85 199.349 713.04 207.182C716.075 204.075 720.746 197.856 721.144 188.693L712.801 189.338Z" fill="#DB5656"/>
<path d="M673.652 273.422C677.836 282.538 682.962 280.523 682.962 280.523C703.712 276.789 711.143 272.228 711.143 272.228C713.944 270.367 714.264 266.543 713.947 263.361C705.411 266.425 687.546 272.32 673.652 273.422Z" fill="black"/>
<path d="M669.688 244.252C669.743 251.315 670.232 257.224 670.7 261.329C679.077 259.671 697.837 255.693 711.359 250.868C710.557 246.596 709.777 241.838 709.048 236.999C691.756 242.382 676.902 243.853 669.688 244.252Z" fill="black"/>
<path d="M671.641 217.927C670.737 223.489 670.205 228.876 669.93 233.921C680.382 233.447 699.389 228.074 707.439 225.673C706.75 220.558 706.145 215.737 705.662 211.735C696.064 214.293 678.933 216.882 671.641 217.927Z" fill="black"/>
<path d="M704.581 202.461C704.477 201.526 704.421 201.008 704.421 201.008C704.124 192.811 698.14 194.039 698.14 194.039C682.556 196.49 678.846 199.867 678.846 199.867C675.585 201.789 674.057 206.263 673.453 208.647C684.138 207.558 698.046 204.161 704.581 202.461Z" fill="black"/>
<path d="M670.699 261.33C671.152 265.299 671.585 267.583 671.585 267.583C672.224 269.917 672.925 271.834 673.653 273.423C687.548 272.321 705.412 266.426 713.948 263.361C713.666 260.542 712.884 258.226 712.884 258.226C712.371 256.035 711.86 253.547 711.358 250.869C697.836 255.694 679.076 259.672 670.699 261.33Z" fill="black"/>
<path d="M669.928 233.921C669.729 237.563 669.663 241.028 669.689 244.252C676.903 243.853 691.757 242.383 709.049 236.999C708.476 233.204 707.934 229.363 707.437 225.672C699.387 228.074 680.38 233.447 669.928 233.921Z" fill="black"/>
<path d="M705.662 211.735C705.155 207.53 704.781 204.235 704.584 202.459C698.049 204.16 684.141 207.557 673.456 208.646C673.217 209.59 673.122 210.206 673.122 210.206C672.543 212.806 672.054 215.385 671.641 217.927C678.933 216.882 696.064 214.293 705.662 211.735Z" fill="black"/>
<path d="M639.398 276.197C641.528 287.868 647.772 287.017 647.772 287.017C671.833 288.65 681.34 285.531 681.34 285.531C684.962 284.192 686.371 279.889 686.896 276.141C676.578 277.225 655.124 278.899 639.398 276.197Z" fill="#C0001E"/>
<path d="M643.042 241.542C641.156 249.675 640.07 256.606 639.457 261.457C649.213 261.943 671.131 262.729 687.47 261.045C687.759 255.908 688.206 250.216 688.73 244.447C668.052 245.696 651.16 243.144 643.042 241.542Z" fill="#C0001E"/>
<path d="M652.467 211.845C649.93 217.98 647.853 224.018 646.156 229.737C657.888 232.177 680.468 231.431 690.065 230.969C690.71 224.894 691.368 219.18 691.936 214.443C680.577 214.643 660.848 212.726 652.467 211.845Z" fill="#C0001E"/>
<path d="M693.295 203.476C693.437 202.372 693.518 201.762 693.518 201.762C695.449 192.256 688.468 191.958 688.468 191.958C670.496 190.324 665.446 193.147 665.446 193.147C661.297 194.423 658.367 199.129 657.039 201.696C669.198 203.496 685.574 203.564 693.295 203.476Z" fill="#C0001E"/>
<path d="M639.457 261.457C638.865 266.149 638.715 268.897 638.715 268.897C638.781 271.762 639.03 274.165 639.401 276.198C655.126 278.9 676.58 277.226 686.899 276.142C687.363 272.822 687.134 269.937 687.134 269.937C687.17 267.272 687.289 264.267 687.47 261.046C671.131 262.73 649.213 261.944 639.457 261.457Z" fill="#DB5656"/>
<path d="M646.157 229.737C644.932 233.867 643.904 237.829 643.043 241.542C651.161 243.144 668.053 245.695 688.731 244.446C689.141 239.922 689.6 235.352 690.065 230.969C680.469 231.43 657.889 232.177 646.157 229.737Z" fill="#DB5656"/>
<path d="M691.937 214.445C692.533 209.468 693.028 205.574 693.299 203.478C685.578 203.566 669.203 203.498 657.043 201.698C656.517 202.715 656.242 203.398 656.242 203.398C654.882 206.22 653.629 209.043 652.469 211.847C660.85 212.728 680.578 214.645 691.937 214.445Z" fill="#DB5656"/>
<path d="M701.118 198.253C675.864 202.65 607.41 211.14 584.875 211.197C562.462 211.253 536.333 194.619 534.027 167.285L531.562 124.695C527.911 84.636 545.417 71.7031 578.714 65.1735C614.28 58.1987 678.882 52.0984 690.946 51.2197C724.029 48.8092 742.249 68.3802 744.555 95.7147L749.564 144.14C752.11 174.319 732.608 192.771 701.118 198.253Z" fill="#698EFF"/>
<path d="M754.749 162.404L743.825 163.764C730.516 165.421 718.319 155.235 716.721 141.127L713.916 116.37C712.318 102.263 721.9 89.365 735.21 87.7077L746.134 86.3476C759.444 84.6904 771.641 94.877 773.239 108.985L776.043 133.74C777.642 147.848 768.059 160.747 754.749 162.404Z" fill="#698EFF"/>
<path d="M753.52 143.194L740.686 144.792C738.424 145.074 736.35 143.341 736.078 140.943L732.116 105.96C731.843 103.555 733.477 101.356 735.746 101.073L748.568 99.4767C753.873 98.816 758.735 102.876 759.372 108.499L762.008 131.769C762.645 137.393 758.825 142.533 753.52 143.194Z" fill="#B7CDFF"/>
<path d="M659.234 179.201C659.234 179.201 662.129 179.015 667.669 176.49C673.084 174.022 674.346 172.444 673.601 173.543C673.601 173.543 668.658 178.416 659.234 179.201Z" fill="#FFACD6"/>
<path d="M647.863 180.669C647.863 180.669 665.402 180.407 674.825 172.554" stroke="#080201" stroke-width="4" stroke-linecap="round" stroke-linejoin="round"/>
<path d="M638.397 172.3L599.43 176.895C584.784 178.622 571.434 167.334 569.767 151.81L567.265 128.519C566.285 119.396 572.526 111.1 581.134 110.085L638.31 103.342C646.574 102.368 654.106 108.736 655.047 117.496L658.118 146.087C659.512 159.061 650.637 170.856 638.397 172.3Z" fill="#B7CDFF"/>
<path d="M631.122 156.264L622.006 157.399C618.878 157.789 616.011 155.394 615.636 152.08L615.607 151.823C615.232 148.509 617.483 145.478 620.611 145.088L629.728 143.954C632.855 143.564 635.721 145.958 636.097 149.272L636.126 149.529C636.501 152.843 634.25 155.874 631.122 156.264Z" fill="#698EFF"/>
<path d="M597.853 160.405L588.736 161.541C585.608 161.93 582.743 159.536 582.367 156.221L582.338 155.965C581.962 152.65 584.214 149.62 587.341 149.23L596.458 148.095C599.586 147.706 602.452 150.099 602.827 153.414L602.857 153.67C603.232 156.985 600.98 160.016 597.853 160.405Z" fill="#698EFF"/>
<path d="M563.322 143.441C564.001 149.437 559.966 154.868 554.309 155.573C548.652 156.277 543.516 151.987 542.836 145.991C542.157 139.995 546.193 134.563 551.85 133.859C557.506 133.154 562.643 137.445 563.322 143.441Z" fill="#080201"/>
<path d="M686.085 128.041C686.764 134.037 682.728 139.469 677.071 140.174C671.415 140.878 666.277 136.587 665.598 130.591C664.919 124.596 668.955 119.163 674.611 118.459C680.268 117.755 685.406 122.045 686.085 128.041Z" fill="#080201"/>
<path d="M243.906 307.871H507.518L502.193 371.769L476.635 401.588H267.067L245.599 372.301L243.906 307.871Z" fill="#96593E"/>
<path d="M343.063 359.422H288.984" stroke="#B2755D" stroke-width="2.595" stroke-linecap="round" stroke-linejoin="round"/>
<path d="M251.77 330.52H287.5" stroke="#B2755D" stroke-width="2.595" stroke-linecap="round" stroke-linejoin="round"/>
<path d="M449.367 333.172H500.549" stroke="#B2755D" stroke-width="2.595" stroke-linecap="round" stroke-linejoin="round"/>
<path d="M403.199 367.412H454.381" stroke="#B2755D" stroke-width="2.595" stroke-linecap="round" stroke-linejoin="round"/>
<path d="M488.533 381.168H251.984V404.194H488.533V381.168Z" fill="#BC973B"/>
<path d="M268.889 400.008H240.469L222.152 309.994H248.842L268.889 400.008Z" fill="#BC973B"/>
<path d="M263.656 400.008H235.236L214.324 309.994H243.609L263.656 400.008Z" fill="#E0B848"/>
<path d="M479.941 400.008H508.361L526.678 309.994H499.988L479.941 400.008Z" fill="#BC973B"/>
<path d="M485.172 400.008H513.592L534.504 309.994H505.218L485.172 400.008Z" fill="#E0B848"/>
<path d="M533.371 315.911H217.583C212.432 315.911 209.771 311.903 208.218 307.134L204.758 294.706C204.758 289.879 208.972 285.931 214.123 285.931H536.831C541.982 285.931 546.196 289.879 546.196 294.706L542.736 307.134C540.444 312.33 538.522 315.911 533.371 315.911Z" fill="#FFD85A"/>
<path d="M509.065 419.044H240.853C235.702 419.044 233.04 414.767 231.487 409.678L228.027 396.415C228.027 391.264 232.242 387.05 237.393 387.05H512.525C517.676 387.05 521.89 391.264 521.89 396.415L518.43 409.678C516.139 415.223 514.216 419.044 509.065 419.044Z" fill="#FFD85A"/>
<path d="M517.885 271.187H222.535L228.501 202.465L257.135 170.395H491.935L515.987 201.893L517.885 271.187Z" fill="#96593E"/>
<path d="M512.532 235.041H458.453" stroke="#B2755D" stroke-width="2.595" stroke-linecap="round" stroke-linejoin="round"/>
<path d="M350.295 217.175H296.215" stroke="#B2755D" stroke-width="2.595" stroke-linecap="round" stroke-linejoin="round"/>
<path d="M423.691 218.14H459.422" stroke="#B2755D" stroke-width="2.595" stroke-linecap="round" stroke-linejoin="round"/>
<path d="M232.48 238.903H268.211" stroke="#B2755D" stroke-width="2.595" stroke-linecap="round" stroke-linejoin="round"/>
<path d="M394.719 180.478H445.901" stroke="#B2755D" stroke-width="2.595" stroke-linecap="round" stroke-linejoin="round"/>
<path d="M246.484 183.375H297.666" stroke="#B2755D" stroke-width="2.595" stroke-linecap="round" stroke-linejoin="round"/>
<path d="M233.689 262.952H243.733C243.733 262.952 237.344 249.74 243.226 207.979C246.13 187.365 257.722 171.486 257.722 171.486L262.743 170.051C262.743 170.051 260.591 166.106 257.722 165.03C254.852 163.954 245.884 167.899 238.711 189.42C231.537 210.942 233.689 262.952 233.689 262.952Z" fill="#BC973B"/>
<path d="M236.915 263.31C236.915 263.31 233.328 241.789 236.557 213.453C238.928 192.632 248.752 170.051 255.209 165.747C255.209 165.747 236.916 165.747 224.003 174.715C219.836 177.608 204.633 209.866 210.372 263.669L236.915 263.31Z" fill="#E0B848"/>
<path d="M514.722 262.952H504.678C504.678 262.952 511.066 249.74 505.184 207.979C502.28 187.365 490.689 171.486 490.689 171.486L485.668 170.051C485.668 170.051 487.82 166.106 490.689 165.03C493.559 163.954 502.526 167.899 509.699 189.42C516.873 210.942 514.722 262.952 514.722 262.952Z" fill="#BC973B"/>
<path d="M511.492 263.31C511.492 263.31 515.079 241.789 511.85 213.453C509.479 192.632 499.656 170.051 493.199 165.747C493.199 165.747 511.492 165.747 524.405 174.715C528.572 177.608 543.774 209.866 538.035 263.669L511.492 263.31Z" fill="#E0B848"/>
<path d="M537.546 282.175H213.408C208.65 282.175 204.758 278.282 204.758 273.525V263.533C204.758 258.776 208.65 254.883 213.408 254.883H537.546C542.303 254.883 546.196 258.776 546.196 263.533V273.525C546.196 278.282 542.303 282.175 537.546 282.175Z" fill="#FFD85A"/>
<path d="M392.616 265.352H368.88C364.123 265.352 360.23 261.459 360.23 256.702V172.121C360.23 167.364 364.123 163.471 368.88 163.471H392.616C397.374 163.471 401.266 167.364 401.266 172.121V256.702C401.266 261.459 397.374 265.352 392.616 265.352Z" fill="#E0B848"/>
<path d="M434.411 286.202C434.411 315.897 410.813 339.97 381.702 339.97C352.591 339.97 328.992 315.897 328.992 286.202C328.992 256.506 352.591 232.433 381.702 232.433C410.813 232.433 434.411 256.506 434.411 286.202Z" fill="#BC973B"/>
<path d="M429.567 286.202C429.567 312.636 408.138 334.065 381.704 334.065C355.269 334.065 333.84 312.636 333.84 286.202C333.84 259.768 355.269 238.339 381.704 238.339C408.138 238.339 429.567 259.768 429.567 286.202Z" fill="#FFD85A"/>
<path d="M351.261 313.844C350.727 311.461 350.445 308.98 350.445 306.431C350.445 288.167 364.925 273.36 382.785 273.36C400.646 273.36 415.124 288.167 415.124 306.431C415.124 308.66 414.909 310.837 414.498 312.942L399.778 313.318C399.999 312.089 400.114 310.82 400.114 309.519C400.114 298.86 392.356 290.22 382.785 290.22C373.214 290.22 365.455 298.86 365.455 309.519C365.455 311.006 365.606 312.454 365.893 313.844H351.261Z" fill="#AFAFAF"/>
<path d="M419.156 311.917C419.771 315.158 420.097 318.532 420.097 321.999C420.097 346.842 408.127 366.982 382.783 366.982C358.328 366.982 345.469 346.842 345.469 321.999C345.469 318.968 345.718 316.007 346.192 313.144L419.156 311.917Z" fill="#635D5A"/>
<path d="M393.716 330.776C393.716 336.46 389.108 341.068 383.425 341.068C377.741 341.068 373.133 336.46 373.133 330.776C373.133 325.092 377.741 320.484 383.425 320.484C389.108 320.484 393.716 325.092 393.716 330.776Z" fill="black"/>
<path d="M396.813 352.258H370.352L379.002 336.147H388.163L396.813 352.258Z" fill="black"/>
<path d="M382.506 299.668C376.758 299.668 372.055 294.965 372.055 289.216V271.796C372.055 266.047 376.758 261.343 382.506 261.343C388.255 261.343 392.959 266.047 392.959 271.796V289.216C392.959 294.965 388.255 299.668 382.506 299.668Z" fill="#BC973B"/>
</g>
<defs>
<radialGradient id="paint0_radial_4771_48380" cx="0" cy="0" r="1" gradientUnits="userSpaceOnUse" gradientTransform="translate(421.619 40.5002) scale(326.262 326.262)">
<stop offset="0.26" stop-color="#58998C"/>
<stop offset="0.63" stop-color="#58998C"/>
<stop offset="1" stop-color="#58998C"/>
</radialGradient>
<linearGradient id="paint1_linear_4771_48380" x1="336.621" y1="94.5" x2="593.803" y2="633.221" gradientUnits="userSpaceOnUse">
<stop stop-color="#EAFFF2"/>
<stop offset="0.5" stop-color="#8EBBA8"/>
<stop offset="1" stop-color="#31775E"/>
</linearGradient>
<linearGradient id="paint2_linear_4771_48380" x1="420.619" y1="188.5" x2="350.928" y2="529.092" gradientUnits="userSpaceOnUse">
<stop stop-color="#EAFFF2"/>
<stop offset="0.5" stop-color="#8EBBA8"/>
<stop offset="1" stop-color="#31775E"/>
</linearGradient>
<clipPath id="clip0_4771_48380">
<rect width="815" height="435" fill="white"/>
</clipPath>
</defs>
</svg>
