<svg width="279" height="176" viewBox="0 0 279 176" fill="none" xmlns="http://www.w3.org/2000/svg">
<mask id="mask0_181_1242" style="mask-type:alpha" maskUnits="userSpaceOnUse" x="0" y="0" width="279" height="176">
<path d="M0 10.1113C0 4.58848 4.47715 0.111328 10 0.111328H269C274.523 0.111328 279 4.58848 279 10.1113V165.111C279 170.634 274.523 175.111 269 175.111H10C4.47715 175.111 0 170.634 0 165.111V10.1113Z" fill="url(#paint0_linear_181_1242)"/>
</mask>
<g mask="url(#mask0_181_1242)">
<rect y="-121.889" width="279" height="298" fill="url(#paint1_linear_181_1242)"/>
</g>
<g clip-path="url(#clip0_181_1242)">
<path d="M236.299 112.282C231.776 106.406 222.807 105.447 215.929 107.108L215.526 105.438C222.944 103.648 232.667 104.753 237.653 111.237L236.291 112.282H236.299Z" fill="#8CD9FF"/>
<path d="M254.905 124.609L245.063 132.208C243.915 133.099 242.261 132.884 241.371 131.736L234.338 122.622C233.866 122.014 233.687 121.226 233.849 120.48L235.674 111.743C235.854 110.895 236.616 110.304 237.481 110.346L246.399 110.792C247.17 110.826 247.881 111.203 248.352 111.811L255.385 120.926C256.276 122.074 256.062 123.727 254.914 124.618L254.905 124.609Z" fill="#8CD9FF"/>
<path d="M241.764 115.825C242.038 114.885 241.498 113.901 240.558 113.627C239.618 113.353 238.633 113.893 238.359 114.833C238.085 115.773 238.625 116.758 239.565 117.032C240.506 117.306 241.49 116.766 241.764 115.825Z" fill="#66BCFF"/>
<path d="M55.3959 133.064C52.3891 133.064 49.1939 132.507 45.8959 131.368L46.4527 129.749C56.7151 133.296 65.8639 130.837 70.9181 123.17L72.3486 124.112C68.4852 129.98 62.4631 133.064 55.3959 133.064Z" fill="#8CD9FF"/>
<path d="M24.5059 130.366L28.2151 118.493C28.6519 117.105 30.1254 116.334 31.5131 116.763L42.5037 120.198C43.2404 120.429 43.8314 120.969 44.1398 121.671L47.652 129.878C47.9947 130.674 47.7034 131.591 46.9753 132.053L39.4112 136.799C38.7602 137.21 37.9635 137.313 37.2268 137.082L26.2362 133.647C24.8485 133.21 24.0775 131.736 24.5059 130.349V130.366Z" fill="#8CD9FF"/>
<path d="M86.5088 117.26C79.6986 120.052 75.2012 129.509 74.9785 139.977L97.6107 133.955L86.5173 117.26H86.5088Z" fill="#6990FF"/>
<path d="M187.377 132.311L170.741 135.566C176.078 147.653 188.019 153.658 188.019 153.658C191.292 145.383 189.758 136.114 187.368 132.311H187.377Z" fill="#6990FF"/>
<path d="M98.8357 37.6441C96.3515 32.196 96.7456 23.9038 105.535 21.8564C115.163 19.6121 119.164 28.6153 127.661 33.4552L98.8357 37.6441Z" fill="#55F186"/>
<path d="M113.878 33.0013C126.591 25.3259 124.201 14.5238 137.341 13.1874C146.413 12.2708 154.251 22.1649 148.358 30.4914L113.878 33.0013Z" fill="#29CC7A"/>
<path d="M112.131 38.578C111.848 38.578 111.565 38.4838 111.325 38.2954C106.802 34.6547 104.335 25.6172 105.32 16.3142C105.398 15.6118 106.031 15.0978 106.734 15.1749C107.436 15.252 107.95 15.8859 107.873 16.5883C106.871 26.0455 109.664 33.661 112.936 36.2994C113.493 36.7449 113.578 37.5501 113.133 38.1069C112.876 38.4239 112.508 38.5866 112.131 38.5866V38.578Z" fill="#008D3C"/>
<path d="M130.951 35.2286C130.403 35.2286 129.889 34.8688 129.726 34.3206C129.52 33.6438 129.906 32.9243 130.582 32.7187C130.805 32.6501 136.211 30.817 137.915 21.8994C138.052 21.2056 138.72 20.743 139.414 20.88C140.108 21.0171 140.571 21.6853 140.434 22.3791C138.429 32.9071 131.619 35.0915 131.328 35.1772C131.199 35.2115 131.079 35.2372 130.951 35.2372V35.2286Z" fill="#008D3C"/>
<path d="M185.621 60.7391C187.12 77.8375 181.8 79.9962 165.91 81.3925L162.612 43.8464C178.502 42.4501 184.122 43.6408 185.621 60.7477V60.7391Z" fill="#4970DE"/>
<path d="M177.697 59.8309C174.579 29.1378 161.909 27.3903 125.991 31.031C98.6044 33.8065 85.0954 36.9589 81.6003 51.8985C68.194 53.0121 63.671 55.5306 64.8532 71.9865C66.0439 88.5452 71.0723 90.2071 86.3375 89.2048C93.2248 100.872 107.034 101.043 132.827 98.4221C168.754 94.7729 180.815 90.524 177.697 59.8224V59.8309Z" fill="url(#paint2_linear_181_1242)"/>
<path d="M157.875 55.522C159.836 57.0554 163.426 54.9481 165.524 54.7768C167.854 54.5883 169.739 55.6762 171.778 54.7082C173.817 53.7403 174.099 50.6906 170.45 48.6776C166.792 46.6645 162.021 47.6068 158.997 50.7335C156.941 52.8579 157.018 54.8453 157.875 55.5135V55.522Z" fill="black"/>
<path d="M138.917 43.0923C124.123 44.5914 113.801 47.4611 117.485 65.6217C121.168 83.7908 129.974 83.234 142.858 81.9234C155.733 80.6127 164.471 79.3878 164.437 60.8503C164.402 42.3128 153.712 41.5846 138.917 43.0837V43.0923Z" fill="#B7CCFF"/>
<path d="M157.875 67.2837L151.27 67.9519C149.822 68.0975 148.769 69.391 148.914 70.8387C149.06 72.2864 150.353 73.3401 151.801 73.1945L158.406 72.5263C159.854 72.3807 160.907 71.0872 160.762 69.6394C160.616 68.1917 159.322 67.1381 157.875 67.2837Z" fill="#6990FF"/>
<path d="M140.588 69.0398L133.983 69.708C132.536 69.8536 131.482 71.1471 131.628 72.5948C131.773 74.0425 133.067 75.0962 134.514 74.9506L141.119 74.2824C142.567 74.1368 143.62 72.8433 143.475 71.3956C143.329 69.9478 142.036 68.8942 140.588 69.0398Z" fill="#6990FF"/>
<path d="M80.5038 61.0903C75.3298 61.9983 74.3104 63.7115 75.2441 71.4641C76.1693 79.2251 77.5656 80.6386 82.8082 80.3045C83.7419 80.2445 84.4358 79.4307 84.3244 78.5056L82.4055 62.4866C82.2942 61.5614 81.4204 60.9361 80.5038 61.0903Z" fill="#B7CCFF"/>
<path d="M97.3624 58.5803C99.324 60.1137 103.196 57.8607 105.063 57.6466C106.931 57.4324 109.227 58.7431 111.265 57.7751C113.304 56.8071 113.45 53.886 109.886 51.7187C106.323 49.5514 101.705 50.1168 98.2533 53.5005C96.1374 55.5735 96.5057 57.9121 97.3624 58.5803Z" fill="black"/>
<path d="M105.201 80.1845C109.158 81.5379 114.289 76.2097 113.655 73.6055C113.261 71.9779 111.454 70.3247 109.244 69.468C105.774 68.1231 102.177 67.7376 100.686 69.4166C99.0671 71.2327 100.643 78.6254 105.192 80.1845H105.201Z" fill="#D11583"/>
<path d="M103.71 73.3142C102.494 73.023 101.294 72.903 100.172 72.9544C100.575 75.7556 102.262 79.1821 105.201 80.193C107.051 80.8269 109.167 79.9874 110.82 78.651C109.886 76.2953 107.205 74.1709 103.71 73.3228V73.3142Z" fill="#FF78B9"/>
<path d="M86.2603 83.4739C84.0674 86.2066 80.1097 86.6349 77.3771 84.4505L75.5867 86.6777C76.9231 87.7485 77.1372 89.693 76.0664 91.0294C74.9956 92.3657 73.0511 92.5799 71.7148 91.5091L70.4127 93.1281C71.749 94.1989 71.9632 96.1435 70.8924 97.4798C69.8216 98.8162 67.877 99.0303 66.5407 97.9595L65.2386 99.5786C66.575 100.649 66.7891 102.594 65.7183 103.93C64.6475 105.267 62.703 105.481 61.3667 104.41L59.5763 106.637C62.3089 108.83 62.7287 112.805 60.5529 115.52L98.8614 146.256L124.577 114.201L86.2689 83.4653L86.2603 83.4739Z" fill="url(#paint3_linear_181_1242)"/>
<path d="M85.952 93.3679C84.9155 92.537 83.3992 92.6997 82.5683 93.7362L69.7702 109.695C68.9479 110.723 69.1106 112.239 70.1471 113.07L103.821 140.08L119.626 120.377L85.952 93.3679Z" fill="url(#paint4_linear_181_1242)"/>
<path d="M89.7297 96.4004L85.9434 93.3679C84.9069 92.537 83.3907 92.6997 82.5597 93.7362L69.7617 109.695C68.9393 110.723 69.1021 112.239 70.1386 113.07L73.9249 116.103L89.7297 96.4004Z" fill="#EB459F"/>
<path d="M140.715 144.847C156.054 144.507 168.213 131.796 167.873 116.457C167.533 101.118 154.823 88.9593 139.484 89.2993C124.145 89.6394 111.986 102.35 112.326 117.689C112.666 133.028 125.376 145.187 140.715 144.847Z" fill="url(#paint5_linear_181_1242)"/>
<path d="M143.363 117.242C145.873 115.64 147.278 112.616 146.644 109.524C145.822 105.515 141.907 102.928 137.889 103.75C133.88 104.573 131.293 108.488 132.116 112.505C132.741 115.538 135.131 117.756 138.001 118.296C133.246 120.6 129.726 126.22 130.745 131.197L155.245 126.177C154.234 121.243 148.657 117.542 143.355 117.251L143.363 117.242Z" fill="white"/>
<path d="M117.527 111.434C123.25 112.111 126.582 110.269 126.582 110.269C126.582 110.269 123.044 108.248 120.586 106.697C121.554 103.185 122.025 97.4628 117.93 93.3681C111.874 87.3203 99.384 89.1791 94.2099 97.4028C89.0359 105.626 93.7988 115.975 102.845 117.225C111.12 118.365 116.165 113.105 117.527 111.434Z" fill="white"/>
<path d="M163.845 103.065C160.907 107.914 155.579 109.19 151.596 106.911C147.612 104.633 146.653 98.5591 149.437 94.1646C152.221 89.7701 157.703 88.7079 161.678 90.9865C165.661 93.2566 166.544 98.6191 163.845 103.065Z" fill="#FF78B9"/>
<path d="M180.944 113.122L171.221 119.135C168.06 113.919 164.248 110.766 161.524 108.873L161.507 108.856C160.35 108.051 159.399 107.477 158.774 107.048C156.787 105.703 156.119 102.465 158.226 99.5785C160.427 96.5632 163.803 96.7174 165.747 97.8824C165.995 98.0194 166.972 98.4735 168.445 99.4586C168.445 99.4671 168.454 99.4671 168.454 99.4671C171.358 101.403 176.181 105.412 180.944 113.122Z" fill="#484689"/>
<path d="M175.71 110.415C167.34 112.205 162.535 116.857 158.766 121.757L184.447 146.71C188.636 142.984 193.511 135.051 194.187 128.104L175.71 110.415Z" fill="url(#paint6_linear_181_1242)"/>
<path d="M175.067 113.233C172.3 119.795 174.622 124.301 174.622 124.301C174.622 124.301 181.158 128.909 189.698 125.911L175.076 113.233H175.067Z" fill="#55F186"/>
<path d="M199.85 149.623C196.012 140.68 193.048 137.407 189.904 133.681C187.283 130.58 187.488 127.471 189.287 125.175C191.438 122.442 196.492 121.842 199.096 124.164C199.541 124.567 207.362 134.092 210.138 142.205L199.85 149.623Z" fill="#484689"/>
<path d="M210.138 142.204L199.85 149.614C198.813 147.207 197.845 145.203 196.92 143.507C196.92 143.498 196.911 143.498 196.911 143.489C196.003 141.631 197.7 138.452 200.492 137.013C203.071 135.685 207.131 135.685 208.048 137.399C208.073 137.45 208.108 137.51 208.133 137.562C208.93 139.112 209.624 140.688 210.138 142.204Z" fill="#484689"/>
<path d="M210.138 142.204L199.85 149.614C198.813 147.207 197.845 145.203 196.92 143.507C196.92 143.498 196.911 143.498 196.911 143.489C196.003 141.631 197.7 138.452 200.492 137.013C203.071 135.685 207.131 135.685 208.048 137.399C208.073 137.45 208.108 137.51 208.133 137.562C208.93 139.112 209.624 140.688 210.138 142.204Z" fill="#5865F2"/>
<path d="M210.684 157.558C215.68 155.11 218.076 149.75 216.035 145.587C213.995 141.423 208.291 140.033 203.295 142.482C198.299 144.93 195.903 150.29 197.943 154.454C199.984 158.617 205.688 160.007 210.684 157.558Z" fill="#FF78B9"/>
<path d="M168.445 99.4586C167.203 98.739 164.376 100.187 162.715 102.482C161.044 104.795 160.573 107.982 161.498 108.856C160.342 108.051 159.391 107.477 158.766 107.048C156.778 105.703 156.11 102.465 158.217 99.5785C160.419 96.5632 163.794 96.7174 165.739 97.8824C165.987 98.0194 166.963 98.4735 168.437 99.4586H168.445Z" fill="#5865F2"/>
<path d="M170.767 129.638L169.405 128.593C169.585 128.353 173.911 122.75 180.353 118.193L181.338 119.589C175.11 123.993 170.801 129.578 170.758 129.629L170.767 129.638Z" fill="white"/>
<path d="M209.641 89.7445C224.658 82.5831 235.246 81.2296 236.685 84.2621C238.012 87.0718 230.543 93.8992 216.888 98.8934L209.649 89.7445H209.641Z" fill="#FF78B9"/>
<path d="M212.887 93.3681C219.955 90.1043 227.193 88.1169 227.87 89.3847C228.504 90.584 221.454 94.4902 215.612 96.8203L212.887 93.3681Z" fill="#FFAED7"/>
<path d="M209.795 89.933C213.496 73.7084 212.493 63.0862 209.213 62.3495C206.18 61.6727 201.16 70.4617 199.276 84.8703L209.795 89.933Z" fill="#FF78B9"/>
<path d="M205.546 87.56C207.182 79.9532 207.534 72.4576 206.146 72.0722C204.844 71.7124 202.574 79.4478 201.58 85.6583L205.546 87.56Z" fill="#FFAED7"/>
<path d="M212.151 117.756C212.151 117.756 217.899 116.814 219.775 112.737C222.662 106.475 219.484 96.5205 207.936 88.2454C196.552 80.0817 186.341 81.0069 183.188 85.6755C180.515 89.616 180.49 93.8478 180.49 93.8478C180.49 93.8478 176.241 94.3189 173.088 98.0196C169.473 102.268 168.968 109.97 179.051 119.984C188.739 129.604 202.317 132.756 208.63 126.922C211.842 123.958 212.142 117.756 212.142 117.756H212.151Z" fill="#FF78B9"/>
<path d="M188.251 104.264C188.705 103.639 190.846 104.376 192.491 105.755C194.607 107.537 195.601 109.447 194.958 110.244C192.5 113.285 188.251 114.638 186.64 113.345C185.03 112.051 185.475 108.119 188.251 104.264Z" fill="#EB459F"/>
<path d="M191.993 96.2081C192.054 93.9854 191 92.153 189.638 92.1154C188.276 92.0779 187.122 93.8493 187.061 96.072C187 98.2948 188.054 100.127 189.416 100.165C190.778 100.202 191.932 98.4308 191.993 96.2081Z" fill="black"/>
<path d="M204.358 110.477C206.604 110.257 208.311 108.922 208.171 107.495C208.031 106.069 206.097 105.091 203.851 105.311C201.605 105.531 199.898 106.866 200.038 108.293C200.178 109.72 202.112 110.698 204.358 110.477Z" fill="black"/>
<path d="M114.529 122.074C107.556 122.905 86.3803 133.03 81.6688 135.711L74.9785 139.986C74.9271 144.672 76.6575 154.283 84.7955 160.1C91.5458 164.922 103.179 160.682 114.555 152.535C124.706 145.263 127.19 140.997 127.164 135.874C127.139 128.687 121.502 121.243 114.529 122.074Z" fill="#6990FF"/>
<path d="M176.712 134.392C171.726 127.967 166.809 121.954 161.13 119.461C156.427 117.388 145.599 121.046 146.404 130.392C147.587 144.115 156.83 154.669 163.631 159.44C171.855 165.205 184.379 162.361 188.02 153.641C188.02 153.641 183.899 143.644 176.712 134.384V134.392Z" fill="#6990FF"/>
<path d="M105.911 100.984C105.911 100.984 101.534 97.9168 99.718 100.658C97.2938 104.307 106.965 111.143 109.449 110.175C111.934 109.207 113.458 97.3514 109.732 96.6233C106.648 96.0237 105.903 100.984 105.903 100.984H105.911Z" fill="#FFAED7"/>
<path d="M44.1313 40.0257C42.1868 38.775 40.8761 36.7448 40.5335 34.449L39.951 30.5514C39.9253 30.3629 39.7539 30.2173 39.5655 30.2173C39.3685 30.2173 39.2057 30.3629 39.18 30.5514L38.5975 34.449C38.2548 36.7362 36.9442 38.7665 34.9996 40.0257L34.4942 40.3512C34.3829 40.4198 34.3143 40.5483 34.3143 40.6767V40.7024C34.3143 40.8395 34.3829 40.9594 34.4942 41.028L34.9996 41.3535C36.9442 42.6042 38.2548 44.6344 38.5975 46.9302L39.18 50.8278C39.2057 51.0163 39.377 51.1619 39.5655 51.1619C39.7625 51.1619 39.9253 51.0163 39.951 50.8278L40.5335 46.9302C40.8761 44.6429 42.1868 42.6127 44.1313 41.3535L44.6367 41.028C44.7481 40.9594 44.8166 40.8309 44.8166 40.7024V40.6767C44.8166 40.5397 44.7481 40.4198 44.6367 40.3512L44.1313 40.0257Z" fill="#FFE75C"/>
<path d="M228.778 24.4178C226.422 22.9016 224.829 20.4431 224.418 17.6676L223.715 12.9475C223.681 12.7162 223.484 12.5449 223.244 12.5449C223.013 12.5449 222.807 12.7162 222.773 12.9475L222.071 17.6676C221.659 20.4431 220.066 22.9016 217.71 24.4178L217.102 24.8119C216.965 24.8975 216.888 25.0517 216.888 25.2145V25.2402C216.888 25.4029 216.974 25.5486 217.102 25.6428L217.71 26.0369C220.066 27.5531 221.659 30.0116 222.071 32.7871L222.773 37.5071C222.807 37.7384 223.004 37.9098 223.244 37.9098C223.476 37.9098 223.681 37.7384 223.715 37.5071L224.418 32.7871C224.829 30.0116 226.422 27.5531 228.778 26.0369L229.386 25.6428C229.523 25.5571 229.6 25.4029 229.6 25.2402V25.2145C229.6 25.0517 229.515 24.9061 229.386 24.8119L228.778 24.4178Z" fill="#8CD9FF"/>
<path d="M240.068 47.2641C238.689 46.3733 237.764 44.9427 237.524 43.3236L237.113 40.5653C237.096 40.4282 236.976 40.3254 236.839 40.3254C236.702 40.3254 236.582 40.4282 236.565 40.5653L236.154 43.3236C235.914 44.9427 234.98 46.3818 233.61 47.2641L233.25 47.4954C233.173 47.5468 233.121 47.6325 233.121 47.7267V47.7439C233.121 47.8381 233.173 47.9238 233.25 47.9752L233.61 48.2064C234.989 49.0973 235.914 50.5279 236.154 52.1469L236.565 54.9053C236.582 55.0424 236.702 55.1452 236.839 55.1452C236.976 55.1452 237.096 55.0424 237.113 54.9053L237.524 52.1469C237.764 50.5279 238.698 49.0888 240.068 48.2064L240.428 47.9752C240.505 47.9238 240.557 47.8381 240.557 47.7439V47.7267C240.557 47.6325 240.505 47.5468 240.428 47.4954L240.068 47.2641Z" fill="#55F186"/>
<path d="M42.1757 131.219C43.1495 131.114 43.854 130.24 43.7495 129.266C43.6449 128.293 42.7707 127.588 41.797 127.693C40.8233 127.797 40.1187 128.671 40.2233 129.645C40.3279 130.619 41.202 131.323 42.1757 131.219Z" fill="#66BCFF"/>
</g>
<defs>
<linearGradient id="paint0_linear_181_1242" x1="11.6593" y1="190.697" x2="267.732" y2="84.8314" gradientUnits="userSpaceOnUse">
<stop stop-color="#FFE75C"/>
<stop offset="0.32" stop-color="#FC78C0"/>
<stop offset="0.92" stop-color="#5221DB"/>
</linearGradient>
<linearGradient id="paint1_linear_181_1242" x1="279" y1="-121.889" x2="193.825" y2="225.913" gradientUnits="userSpaceOnUse">
<stop stop-color="#3736BB"/>
<stop offset="0.339235" stop-color="#4670E8"/>
<stop offset="0.492065" stop-color="#8377EB"/>
<stop offset="0.823236" stop-color="#E782F1"/>
<stop offset="0.899558" stop-color="#DF90AF"/>
</linearGradient>
<linearGradient id="paint2_linear_181_1242" x1="121.316" y1="64.2204" x2="123.309" y2="131.342" gradientUnits="userSpaceOnUse">
<stop stop-color="#6990FF"/>
<stop offset="1" stop-color="#5980EF"/>
</linearGradient>
<linearGradient id="paint3_linear_181_1242" x1="68.4633" y1="95.5392" x2="139.142" y2="152.245" gradientUnits="userSpaceOnUse">
<stop offset="0.07" stop-color="#FF78B9"/>
<stop offset="0.35" stop-color="#FD74B7"/>
<stop offset="0.6" stop-color="#F969B1"/>
<stop offset="0.83" stop-color="#F257A8"/>
<stop offset="1" stop-color="#EB459F"/>
</linearGradient>
<linearGradient id="paint4_linear_181_1242" x1="76.1539" y1="101.709" x2="148.162" y2="159.481" gradientUnits="userSpaceOnUse">
<stop stop-color="#FFAED7"/>
<stop offset="1" stop-color="#FF78B9"/>
</linearGradient>
<linearGradient id="paint5_linear_181_1242" x1="135.911" y1="89.3331" x2="146.311" y2="157.992" gradientUnits="userSpaceOnUse">
<stop stop-color="#FFE75C"/>
<stop offset="0.25" stop-color="#FFDD48"/>
<stop offset="0.74" stop-color="#FFCC25"/>
<stop offset="1" stop-color="#FFC619"/>
</linearGradient>
<linearGradient id="paint6_linear_181_1242" x1="179.736" y1="124.9" x2="155.099" y2="153.418" gradientUnits="userSpaceOnUse">
<stop stop-color="#484689"/>
<stop offset="1" stop-color="#242145"/>
</linearGradient>
<clipPath id="clip0_181_1242">
<rect width="239" height="149.91" fill="white" transform="translate(20 12.5449)"/>
</clipPath>
</defs>
</svg>
