<?xml version="1.0" encoding="utf-8"?>
<svg class="strife-splash-banner-logo" viewBox="0 0 124 34"
    xmlns="http://www.w3.org/2000/svg">
    <g fill="currentColor" transform="matrix(1, 0, 0, 1, 3.552713678800501e-15, 0)">
        <path d="M26.0015 6.9529C24.0021 6.03845 21.8787 5.37198 19.6623 5C19.3833 5.48048 19.0733 6.13144 18.8563 6.64292C16.4989 6.30193 14.1585 6.30193 11.8336 6.64292C11.6166 6.13144 11.2911 5.48048 11.0276 5C8.79575 5.37198 6.67235 6.03845 4.6869 6.9529C0.672601 12.8736 -0.41235 18.6548 0.130124 24.3585C2.79599 26.2959 5.36889 27.4739 7.89682 28.2489C8.51679 27.4119 9.07477 26.5129 9.55525 25.5675C8.64079 25.2265 7.77283 24.808 6.93587 24.312C7.15286 24.1571 7.36986 23.9866 7.57135 23.8161C12.6241 26.1255 18.0969 26.1255 23.0876 23.8161C23.3046 23.9866 23.5061 24.1571 23.7231 24.312C22.8861 24.808 22.0182 25.2265 21.1037 25.5675C21.5842 26.5129 22.1422 27.4119 22.7621 28.2489C25.2885 27.4739 27.8769 26.2959 30.5288 24.3585C31.1952 17.7559 29.4733 12.0212 26.0015 6.9529ZM10.2527 20.8402C8.73376 20.8402 7.49382 19.4608 7.49382 17.7714C7.49382 16.082 8.70276 14.7025 10.2527 14.7025C11.7871 14.7025 13.0425 16.082 13.0115 17.7714C13.0115 19.4608 11.7871 20.8402 10.2527 20.8402ZM20.4373 20.8402C18.9183 20.8402 17.6768 19.4608 17.6768 17.7714C17.6768 16.082 18.8873 14.7025 20.4373 14.7025C21.9717 14.7025 23.2271 16.082 23.1961 17.7714C23.1961 19.4608 21.9872 20.8402 20.4373 20.8402Z"/>
        <path d="M 47.752 17.614 C 47.728 17.571 47.715 17.524 47.715 17.474 C 47.572 17.353 47.35 17.208 47.046 17.039 C 46.742 16.871 46.389 16.662 45.984 16.411 C 45.614 16.197 45.285 15.998 44.992 15.815 C 44.701 15.633 44.461 15.452 44.27 15.272 C 43.948 14.972 43.693 14.73 43.502 14.547 C 43.311 14.365 43.204 14.248 43.18 14.198 C 43.108 14.12 43.062 13.985 43.038 13.795 C 43.014 13.605 43.002 13.36 43.002 13.059 C 43.002 12.931 43.082 12.748 43.244 12.511 C 43.404 12.275 43.652 11.993 43.984 11.663 C 44.413 11.233 44.934 10.83 45.548 10.454 C 46.16 10.078 46.852 9.726 47.627 9.396 C 47.817 9.325 47.966 9.227 48.073 9.101 C 48.181 8.976 48.258 8.824 48.306 8.644 C 48.376 8.358 48.454 8.05 48.538 7.72 L 48.359 7.473 C 48.359 7.323 48.388 7.152 48.448 6.958 C 48.496 6.922 48.584 6.892 48.707 6.866 C 48.831 6.842 49.008 6.819 49.234 6.797 C 49.354 6.819 49.49 6.833 49.644 6.839 C 49.8 6.847 49.983 6.843 50.198 6.829 C 50.341 6.922 50.436 7.001 50.484 7.065 C 50.508 7.101 50.52 7.189 50.52 7.328 C 50.52 7.468 50.52 7.656 50.52 7.892 C 50.52 7.957 50.502 7.989 50.466 7.989 C 50.43 7.989 50.377 8.075 50.306 8.247 C 50.329 8.29 50.353 8.317 50.377 8.327 C 50.401 8.338 50.448 8.343 50.52 8.343 C 51.901 7.964 52.871 7.774 53.432 7.774 C 53.715 7.774 53.936 7.855 54.092 8.016 C 54.246 8.177 54.324 8.422 54.324 8.752 C 54.324 8.917 54.261 9.074 54.135 9.224 C 54.011 9.375 53.818 9.522 53.556 9.665 C 53.329 9.787 53.103 9.899 52.878 10.003 C 52.652 10.107 52.419 10.213 52.18 10.32 C 52.002 10.414 51.765 10.525 51.466 10.653 C 51.168 10.782 50.817 10.918 50.412 11.061 C 50.246 11.126 50.11 11.262 50.002 11.469 C 49.894 11.677 49.84 11.957 49.84 12.307 C 49.84 12.422 49.837 12.558 49.833 12.715 C 49.826 12.873 49.828 13.049 49.84 13.242 C 49.84 13.472 49.84 13.663 49.84 13.817 C 49.84 13.971 49.84 14.095 49.84 14.187 C 49.84 14.352 49.821 14.603 49.778 14.939 C 49.737 15.276 49.716 15.527 49.716 15.691 C 49.788 15.777 49.842 15.835 49.876 15.863 C 50.317 16.121 50.696 16.358 51.011 16.572 C 51.326 16.787 51.567 16.966 51.733 17.109 C 52.08 17.389 52.342 17.654 52.521 17.904 C 52.698 18.155 52.804 18.398 52.84 18.634 C 52.818 18.663 52.8 18.697 52.788 18.736 C 52.776 18.776 52.768 18.828 52.768 18.892 C 52.794 18.936 52.869 18.988 52.992 19.048 C 53.116 19.109 53.281 19.186 53.484 19.279 C 53.52 19.337 53.536 19.419 53.536 19.526 C 53.536 19.576 53.531 19.619 53.519 19.655 C 53.508 19.691 53.484 19.724 53.448 19.752 L 52.126 20.289 C 51.984 20.382 51.808 20.493 51.601 20.622 C 51.393 20.751 51.14 20.898 50.842 21.062 C 50.627 21.184 50.339 21.333 49.976 21.508 C 49.611 21.684 49.191 21.879 48.717 22.093 C 48.467 22.173 48.306 22.515 48.236 23.119 C 48.164 23.725 48.056 24.045 47.913 24.081 C 47.615 24.067 47.389 24.045 47.234 24.016 C 47.078 23.988 47.002 23.941 47.002 23.877 C 47.002 23.763 47.012 23.616 47.029 23.436 C 47.048 23.258 47.086 23.05 47.145 22.813 L 47.055 22.759 C 46.888 22.81 46.707 22.862 46.511 22.915 C 46.316 22.969 46.12 23.028 45.932 23.092 C 45.562 23.207 45.214 23.293 44.884 23.35 C 44.558 23.408 44.258 23.436 43.984 23.436 C 43.449 23.436 43.038 23.367 42.753 23.227 C 42.467 23.087 42.324 22.878 42.324 22.598 C 42.324 22.398 42.724 22.133 43.528 21.803 C 44.331 21.474 45.538 21.087 47.145 20.643 C 47.277 20.607 47.389 20.53 47.483 20.412 C 47.579 20.294 47.632 20.131 47.644 19.923 C 47.668 19.781 47.675 19.634 47.663 19.483 C 47.651 19.333 47.644 19.186 47.644 19.043 C 47.679 18.563 47.715 18.087 47.752 17.614 Z M 47.858 10.803 C 47.56 10.911 47.312 11.04 47.11 11.19 C 46.907 11.341 46.752 11.509 46.645 11.695 C 46.513 12.082 46.389 12.454 46.27 12.812 C 46.366 12.956 46.466 13.099 46.574 13.242 C 46.68 13.386 46.799 13.536 46.93 13.693 C 47.085 13.865 47.234 14.014 47.377 14.139 C 47.52 14.265 47.663 14.356 47.806 14.413 C 47.902 14.385 47.949 14.349 47.949 14.305 L 47.77 13.951 C 47.77 13.787 47.775 13.583 47.787 13.339 C 47.799 13.095 47.811 12.798 47.823 12.447 C 47.847 12.118 47.868 11.828 47.886 11.577 C 47.903 11.327 47.913 11.115 47.913 10.943 L 47.858 10.803 Z M 49.215 18.398 C 49.156 18.42 49.115 18.477 49.091 18.57 C 49.068 18.664 49.056 18.793 49.056 18.957 C 49.056 19.251 49.038 19.485 49.004 19.66 C 48.966 19.836 48.93 19.949 48.894 19.999 C 48.836 20.063 48.788 20.119 48.752 20.165 C 48.717 20.212 48.698 20.253 48.698 20.289 C 48.698 20.325 48.746 20.353 48.841 20.375 C 48.996 20.318 49.149 20.259 49.297 20.197 C 49.444 20.137 49.585 20.078 49.716 20.02 C 49.907 19.934 50.043 19.856 50.126 19.784 C 50.21 19.712 50.253 19.637 50.253 19.558 C 50.253 19.351 50.17 19.151 50.002 18.957 C 49.836 18.764 49.573 18.578 49.215 18.398 Z" style="white-space: pre; fill: currentColor;"/>
        <path d="M 58.946 7.285 C 59.407 7.199 59.908 7.135 60.452 7.091 C 60.995 7.049 61.597 7.027 62.257 7.027 C 62.381 7.027 62.564 7.04 62.805 7.064 C 63.045 7.09 63.237 7.102 63.383 7.102 C 63.596 7.124 63.759 7.145 63.872 7.166 C 63.994 7.188 64.162 7.214 64.376 7.242 L 64.846 7.156 C 64.946 7.163 65.055 7.19 65.174 7.236 C 65.291 7.283 65.434 7.335 65.602 7.392 C 65.692 7.356 65.821 7.313 65.989 7.263 C 66.157 7.263 66.293 7.305 66.4 7.387 C 66.506 7.469 66.577 7.586 66.611 7.736 C 66.611 7.851 66.611 7.964 66.611 8.074 C 66.611 8.186 66.599 8.302 66.577 8.423 C 66.565 8.481 66.571 8.57 66.593 8.692 C 66.616 8.814 66.627 8.907 66.627 8.971 C 66.627 9.05 66.599 9.107 66.544 9.143 C 66.488 9.179 66.415 9.197 66.325 9.197 C 65.899 9.197 65.479 9.174 65.063 9.127 C 64.649 9.081 64.235 9.011 63.82 8.917 C 63.463 8.961 63.148 8.993 62.879 9.014 C 62.667 9.029 62.51 9.05 62.409 9.078 C 62.307 9.107 62.257 9.143 62.257 9.186 C 62.302 9.236 62.363 9.29 62.443 9.347 C 62.522 9.405 62.617 9.458 62.728 9.508 C 62.806 9.544 62.896 9.621 62.997 9.739 C 63.098 9.857 63.205 10.017 63.316 10.217 C 63.361 10.296 63.392 10.371 63.409 10.443 C 63.425 10.515 63.434 10.583 63.434 10.647 C 63.434 10.797 63.411 10.985 63.367 11.211 C 63.321 11.437 63.272 11.621 63.217 11.764 C 63.115 12.044 63.037 12.275 62.98 12.457 C 62.925 12.64 62.879 12.778 62.846 12.87 C 62.823 12.942 62.806 13.028 62.795 13.128 C 62.783 13.229 62.773 13.344 62.762 13.472 C 62.751 13.58 62.705 13.714 62.627 13.875 C 62.549 14.037 62.47 14.221 62.391 14.428 C 62.391 14.522 62.375 14.629 62.342 14.75 C 62.308 14.872 62.264 15.012 62.207 15.169 C 62.174 15.263 62.12 15.368 62.048 15.486 C 61.975 15.604 61.905 15.742 61.838 15.9 C 61.859 16.008 61.876 16.119 61.888 16.233 C 61.843 16.434 61.798 16.642 61.753 16.856 C 61.687 17.164 61.619 17.476 61.551 17.79 C 61.485 18.106 61.423 18.41 61.366 18.703 C 61.3 18.789 61.227 18.886 61.148 18.994 C 61.148 19.044 61.162 19.121 61.19 19.224 C 61.219 19.328 61.232 19.413 61.232 19.477 C 61.232 19.556 61.21 19.672 61.165 19.826 C 61.12 19.98 61.097 20.093 61.097 20.164 C 61.097 20.301 61.091 20.512 61.081 20.798 C 61.07 21.085 61.065 21.3 61.065 21.443 C 61.12 21.565 61.171 21.683 61.215 21.797 C 61.181 21.898 61.145 21.979 61.107 22.039 C 61.067 22.1 61.013 22.148 60.946 22.184 C 60.745 22.263 60.56 22.327 60.392 22.377 C 60.28 22.449 60.188 22.507 60.115 22.549 C 60.043 22.593 59.978 22.614 59.921 22.614 C 59.675 22.614 59.501 22.593 59.401 22.549 C 59.3 22.507 59.249 22.449 59.249 22.377 C 59.272 22.141 59.311 21.912 59.367 21.69 C 59.344 21.662 59.319 21.619 59.29 21.561 C 59.264 21.504 59.222 21.432 59.165 21.346 C 59.109 20.788 59.036 20.215 58.946 19.627 C 58.979 19.205 58.996 18.779 58.996 18.349 C 58.996 18.149 59.011 17.896 59.038 17.592 C 59.067 17.288 59.12 16.935 59.198 16.534 C 59.277 16.133 59.333 15.782 59.367 15.481 C 59.401 15.181 59.417 14.934 59.417 14.74 C 59.417 14.654 59.432 14.545 59.459 14.412 C 59.488 14.28 59.518 14.117 59.552 13.923 C 59.585 13.759 59.619 13.61 59.653 13.477 C 59.686 13.345 59.704 13.226 59.704 13.118 C 59.704 13.061 59.698 13 59.686 12.935 C 59.675 12.871 59.663 12.813 59.653 12.763 C 59.764 12.585 59.848 12.44 59.903 12.328 C 59.96 12.218 59.989 12.144 59.989 12.108 C 59.943 12.015 59.894 11.922 59.839 11.828 C 59.905 11.728 59.978 11.548 60.056 11.286 C 60.134 11.025 60.218 10.683 60.308 10.26 C 60.308 10.174 60.308 10.071 60.308 9.949 C 60.308 9.827 60.314 9.68 60.325 9.508 L 60.225 9.315 C 60.179 9.301 60.099 9.283 59.98 9.261 C 59.863 9.24 59.714 9.222 59.535 9.207 L 59.317 9.304 C 59.171 9.326 59.023 9.347 58.871 9.369 C 58.72 9.391 58.561 9.416 58.393 9.444 C 57.226 9.652 56.072 9.856 54.931 10.056 C 54.841 10.056 54.767 10.033 54.711 9.986 C 54.655 9.94 54.627 9.877 54.627 9.798 C 54.627 9.756 54.655 9.681 54.711 9.573 C 54.767 9.466 54.857 9.326 54.98 9.154 C 55.004 8.904 55.031 8.696 55.065 8.531 C 55.099 8.367 55.137 8.241 55.183 8.155 C 55.271 7.997 55.409 7.865 55.593 7.757 C 55.778 7.65 56 7.568 56.257 7.51 C 56.774 7.403 57.255 7.331 57.703 7.295 C 58.151 7.26 58.565 7.257 58.946 7.285 Z" style="white-space: pre; fill: currentColor;"/>
        <path d="M 72.409 16.607 C 72.409 16.75 72.529 16.941 72.769 17.181 C 73.01 17.421 73.37 17.717 73.851 18.068 C 74.164 18.29 74.486 18.506 74.82 18.717 C 75.153 18.928 75.484 19.142 75.813 19.357 C 75.957 19.457 76.142 19.588 76.37 19.749 C 76.598 19.91 76.864 20.098 77.168 20.313 C 77.387 20.456 77.617 20.599 77.857 20.742 C 78.098 20.885 78.357 21.029 78.636 21.172 C 78.821 21.294 79.028 21.427 79.256 21.57 C 79.484 21.713 79.745 21.866 80.041 22.031 C 80.21 22.117 80.34 22.273 80.433 22.499 C 80.526 22.724 80.581 23.016 80.598 23.374 L 80.484 23.654 L 80.358 23.707 C 80.273 23.707 80.161 23.677 80.022 23.616 C 79.883 23.555 79.708 23.468 79.496 23.353 C 79.454 23.331 79.262 23.252 78.92 23.116 C 78.578 22.98 78.087 22.787 77.446 22.536 C 77.092 22.407 76.767 22.262 76.472 22.101 C 76.176 21.94 75.906 21.77 75.661 21.591 C 75.518 21.484 75.334 21.366 75.111 21.237 C 74.887 21.108 74.623 20.968 74.32 20.818 C 74.007 20.667 73.737 20.524 73.509 20.388 C 73.281 20.252 73.1 20.137 72.965 20.044 C 72.509 19.729 72.138 19.489 71.851 19.324 C 71.565 19.159 71.366 19.077 71.256 19.077 C 71.172 19.178 71.126 19.282 71.117 19.389 C 71.016 19.726 70.908 20.15 70.794 20.662 C 70.68 21.174 70.556 21.77 70.421 22.45 C 70.421 22.572 70.396 22.663 70.345 22.724 C 70.294 22.785 70.218 22.816 70.117 22.816 C 69.788 22.816 69.539 22.748 69.37 22.612 C 69.202 22.475 69.118 22.271 69.118 21.999 C 69.118 21.634 69.145 21.251 69.199 20.85 C 69.254 20.449 69.345 20.026 69.471 19.582 C 69.514 19.389 69.545 19.215 69.567 19.061 C 69.588 18.907 69.598 18.766 69.598 18.637 C 69.598 18.308 69.431 18.025 69.098 17.788 C 68.765 17.552 68.598 17.384 68.598 17.283 C 68.598 17.126 68.625 16.988 68.68 16.87 C 68.735 16.752 68.818 16.657 68.927 16.585 C 69.206 16.435 69.463 16.292 69.7 16.155 C 69.759 16.126 69.799 16.078 69.82 16.01 C 69.841 15.942 69.852 15.847 69.852 15.726 C 69.852 15.654 69.852 15.577 69.852 15.495 C 69.852 15.412 69.852 15.335 69.852 15.264 C 69.877 14.627 69.898 13.964 69.914 13.277 C 69.914 13.226 69.914 13.147 69.914 13.04 C 69.914 12.933 69.906 12.793 69.889 12.621 C 69.872 12.492 69.868 12.372 69.876 12.261 C 69.885 12.15 69.889 12.048 69.889 11.955 C 69.838 11.812 69.794 11.688 69.756 11.585 C 69.719 11.481 69.7 11.382 69.7 11.289 C 69.7 11.203 69.708 11.069 69.724 10.886 C 69.742 10.703 69.75 10.573 69.75 10.494 C 69.75 10.394 69.74 10.254 69.719 10.075 C 69.697 9.896 69.687 9.76 69.687 9.667 C 69.687 9.409 69.756 9.162 69.895 8.926 C 70.034 8.689 70.248 8.457 70.535 8.228 C 70.813 8.027 71.098 7.875 71.389 7.771 C 71.68 7.667 71.977 7.615 72.281 7.615 C 72.425 7.615 72.638 7.624 72.921 7.642 C 73.203 7.66 73.425 7.669 73.586 7.669 C 73.695 7.669 73.994 7.748 74.484 7.905 C 74.678 7.92 74.851 7.94 75.003 7.965 C 75.155 7.99 75.277 8.016 75.37 8.045 C 75.581 8.131 75.746 8.197 75.864 8.244 C 75.982 8.291 76.067 8.317 76.117 8.324 C 76.261 8.367 76.385 8.403 76.49 8.432 C 76.596 8.461 76.682 8.496 76.75 8.539 C 76.86 8.582 76.988 8.633 77.136 8.69 C 77.284 8.747 77.45 8.812 77.636 8.883 C 77.94 9.012 78.224 9.162 78.49 9.334 C 78.756 9.506 79.007 9.692 79.243 9.893 C 79.513 10.15 79.716 10.403 79.851 10.65 C 79.986 10.897 80.054 11.143 80.054 11.386 C 80.054 11.457 80.047 11.559 80.035 11.692 C 80.022 11.825 79.999 11.973 79.965 12.138 C 79.939 12.345 79.812 12.569 79.585 12.809 C 79.357 13.049 79.028 13.312 78.597 13.599 C 78.218 13.85 77.864 14.059 77.534 14.227 C 77.205 14.396 76.902 14.516 76.624 14.587 C 76.514 14.652 76.429 14.713 76.37 14.77 C 76.285 14.841 76.108 14.941 75.839 15.07 C 75.569 15.199 75.201 15.361 74.737 15.554 C 73.893 15.905 73.294 16.136 72.94 16.247 C 72.586 16.358 72.409 16.478 72.409 16.607 Z M 71.08 11.429 C 71.24 11.329 71.391 11.23 71.534 11.133 C 71.678 11.036 71.864 10.988 72.092 10.988 C 72.193 10.988 72.318 11.083 72.465 11.273 C 72.613 11.463 72.687 11.604 72.687 11.697 C 72.687 11.748 72.666 11.862 72.623 12.041 C 72.581 12.22 72.513 12.464 72.42 12.772 C 72.226 13.467 72.117 13.902 72.092 14.077 C 72.067 14.252 72.012 14.526 71.927 14.899 C 71.893 14.992 71.859 15.113 71.825 15.264 C 71.825 15.329 71.84 15.375 71.87 15.404 C 71.9 15.432 71.94 15.446 71.99 15.446 C 73.67 14.73 74.539 14.358 74.598 14.329 C 74.666 14.315 74.737 14.295 74.814 14.27 C 74.889 14.245 74.961 14.219 75.028 14.19 L 75.218 13.986 C 75.707 13.721 76.213 13.438 76.737 13.137 C 77.066 12.922 77.31 12.711 77.471 12.503 C 77.632 12.296 77.712 12.088 77.712 11.88 C 77.712 11.615 77.531 11.354 77.168 11.096 C 76.805 10.838 76.261 10.591 75.535 10.355 C 74.919 10.147 74.358 9.995 73.851 9.898 C 73.345 9.801 72.885 9.753 72.471 9.753 C 71.931 9.753 71.525 9.834 71.25 9.995 C 70.976 10.156 70.839 10.394 70.839 10.709 C 70.839 10.952 70.86 11.137 70.902 11.262 C 70.944 11.387 71.003 11.443 71.08 11.429 Z" style="white-space: pre; fill: currentColor;"/>
        <path d="M 84.804 21.228 C 85.138 21.228 85.402 21.255 85.596 21.309 C 85.789 21.363 85.908 21.436 85.951 21.529 L 85.791 22.356 C 85.758 22.457 85.737 22.559 85.726 22.663 C 85.714 22.766 85.693 22.868 85.661 22.969 C 85.606 23.062 85.515 23.13 85.385 23.173 C 85.255 23.216 85.078 23.237 84.853 23.237 C 84.679 23.237 84.439 23.264 84.133 23.318 C 83.826 23.371 83.591 23.398 83.428 23.398 C 83.181 23.398 82.996 23.325 82.872 23.178 C 82.747 23.031 82.685 22.804 82.685 22.496 C 82.685 22.209 82.925 21.926 83.404 21.647 C 83.884 21.368 84.351 21.228 84.804 21.228 Z M 84.481 14.525 C 84.599 14.289 84.691 14.081 84.755 13.902 C 84.82 13.723 84.853 13.573 84.853 13.451 C 84.853 13.386 84.839 13.302 84.811 13.199 C 84.785 13.095 84.766 12.846 84.755 12.452 C 84.691 12.467 84.621 12.474 84.545 12.474 L 84.27 12.355 L 84.222 12.205 C 84.222 12.04 84.3 11.8 84.457 11.485 C 84.612 11.17 84.679 10.938 84.658 10.787 L 84.642 10.218 C 84.621 10.117 84.629 10.004 84.666 9.879 C 84.703 9.754 84.766 9.627 84.853 9.498 C 84.939 9.341 85.036 9.214 85.144 9.117 C 85.252 9.02 85.369 8.958 85.498 8.929 C 85.552 8.907 85.615 8.887 85.685 8.87 C 85.756 8.852 85.822 8.836 85.887 8.821 C 86.092 8.714 86.286 8.612 86.47 8.515 C 86.653 8.418 86.82 8.32 86.971 8.22 C 87.24 8.098 87.486 8.001 87.706 7.93 C 87.928 7.858 88.123 7.822 88.297 7.822 C 88.438 7.822 88.537 7.867 88.596 7.956 C 88.655 8.046 88.685 8.18 88.685 8.359 C 88.685 8.466 88.666 8.608 88.627 8.784 C 88.59 8.959 88.528 9.162 88.443 9.391 C 88.356 9.627 88.285 9.831 88.231 10.003 C 88.177 10.175 88.145 10.315 88.134 10.422 C 88.123 10.579 88.075 10.864 87.989 11.276 C 87.904 11.688 87.774 12.216 87.601 12.86 C 87.483 13.29 87.337 13.836 87.165 14.498 C 86.992 15.161 86.793 15.929 86.566 16.803 C 86.566 16.882 86.553 16.975 86.526 17.082 C 86.5 17.189 86.47 17.322 86.437 17.479 C 86.416 17.522 86.389 17.571 86.356 17.624 C 86.325 17.678 86.281 17.734 86.227 17.791 C 86.205 17.841 86.167 17.997 86.113 18.258 C 86.059 18.519 86.001 18.89 85.936 19.37 C 85.903 19.506 85.62 19.73 85.087 20.041 C 84.553 20.353 84.195 20.509 84.011 20.509 C 83.893 20.502 83.818 20.48 83.785 20.444 C 83.785 20.409 83.779 20.341 83.769 20.24 C 83.758 20.14 83.752 20.065 83.752 20.015 L 83.915 19.574 C 83.872 19.316 83.829 19.065 83.785 18.822 C 83.785 18.657 83.794 18.5 83.809 18.35 C 83.825 18.199 83.845 18.052 83.866 17.909 C 83.931 17.744 83.995 17.612 84.059 17.512 C 84.093 17.44 84.119 17.365 84.141 17.286 C 84.163 17.207 84.174 17.143 84.174 17.093 C 84.163 16.906 84.157 16.731 84.157 16.566 C 84.157 16.602 84.16 16.581 84.165 16.502 C 84.171 16.423 84.178 16.298 84.189 16.126 C 84.211 16.061 84.222 15.999 84.222 15.938 C 84.222 15.877 84.222 15.811 84.222 15.739 C 84.34 15.517 84.424 15.306 84.472 15.105 C 84.521 14.905 84.523 14.712 84.481 14.525 Z" style="white-space: pre; fill: currentColor;"/>
        <path d="M 94.006 23.742 C 93.955 23.742 93.902 23.742 93.851 23.742 C 93.8 23.742 93.733 23.742 93.65 23.742 C 93.403 23.742 93.193 23.692 93.023 23.591 C 92.852 23.491 92.736 23.334 92.674 23.119 C 92.654 23.054 92.639 22.934 92.628 22.759 C 92.617 22.584 92.613 22.349 92.613 22.055 C 92.613 21.934 92.597 21.744 92.566 21.486 C 92.535 21.228 92.52 21.038 92.52 20.916 C 92.52 20.873 92.532 20.798 92.557 20.691 C 92.583 20.584 92.602 20.437 92.613 20.25 C 92.634 20.079 92.654 19.871 92.674 19.627 C 92.654 19.398 92.618 19.173 92.566 18.951 C 92.638 18.571 92.721 18.184 92.815 17.791 C 92.823 17.734 92.816 17.63 92.791 17.479 C 92.766 17.328 92.753 17.228 92.753 17.178 C 92.753 17.128 92.77 17.055 92.806 16.958 C 92.842 16.861 92.861 16.784 92.861 16.727 C 92.861 16.656 92.842 16.598 92.806 16.555 C 92.77 16.512 92.717 16.491 92.645 16.491 C 92.592 16.505 92.532 16.521 92.466 16.539 C 92.398 16.557 92.328 16.577 92.256 16.598 C 92.195 16.605 92.118 16.62 92.024 16.641 C 91.931 16.662 91.818 16.687 91.682 16.716 L 91.544 16.652 L 91.498 16.544 C 91.591 16.43 91.686 16.319 91.784 16.211 C 91.882 16.104 91.971 15.996 92.054 15.889 C 92.148 15.796 92.262 15.713 92.396 15.642 C 92.53 15.571 92.67 15.499 92.815 15.427 C 92.927 15.384 93.023 15.27 93.099 15.083 C 93.177 14.897 93.237 14.625 93.278 14.267 C 93.32 13.859 93.367 13.526 93.418 13.268 C 93.469 13.01 93.521 12.835 93.573 12.742 C 93.613 12.656 93.666 12.545 93.727 12.409 C 93.727 12.366 93.711 12.298 93.681 12.205 C 93.649 12.112 93.634 12.047 93.634 12.011 C 93.706 11.682 93.778 11.363 93.851 11.055 C 93.974 10.611 94.233 10.167 94.626 9.723 C 95.018 9.279 95.544 8.814 96.204 8.327 C 96.886 7.861 97.872 7.524 99.163 7.317 C 99.307 7.338 99.435 7.36 99.55 7.381 L 100.061 7.252 C 100.112 7.252 100.176 7.263 100.254 7.285 C 100.331 7.306 100.433 7.338 100.556 7.381 C 100.794 7.331 101 7.295 101.174 7.274 C 101.35 7.253 101.49 7.242 101.592 7.242 C 102.234 7.242 102.711 7.301 103.026 7.419 C 103.341 7.537 103.498 7.718 103.498 7.961 C 103.498 8.098 103.485 8.252 103.459 8.423 C 103.434 8.595 103.39 8.781 103.328 8.982 C 103.255 9.247 103.173 9.445 103.08 9.578 C 102.987 9.711 102.884 9.784 102.77 9.798 C 102.502 9.712 102.229 9.632 101.95 9.557 C 101.672 9.482 101.382 9.401 101.083 9.315 L 100.524 9.465 C 100.35 9.451 100.159 9.433 99.953 9.412 C 99.776 9.412 99.577 9.424 99.356 9.449 C 99.133 9.474 98.904 9.508 98.666 9.551 C 98.016 9.658 97.639 9.807 97.536 9.997 C 97.434 10.187 97.258 10.443 97.01 10.765 C 96.927 10.837 96.795 11.127 96.615 11.635 C 96.434 12.144 96.194 12.867 95.894 13.805 C 95.885 13.848 95.846 13.924 95.779 14.031 C 95.712 14.138 95.678 14.228 95.678 14.299 C 95.678 14.4 95.705 14.477 95.756 14.53 C 95.807 14.584 95.874 14.615 95.957 14.622 C 96.111 14.571 96.32 14.516 96.584 14.455 C 96.847 14.394 97.164 14.328 97.536 14.256 C 97.867 14.227 98.199 14.19 98.535 14.144 C 98.87 14.097 99.219 14.038 99.581 13.966 C 99.683 13.966 99.813 13.966 99.968 13.966 C 100.123 13.966 100.304 13.966 100.51 13.966 C 100.861 13.923 101.217 13.88 101.578 13.837 C 102.177 13.837 102.625 13.896 102.924 14.015 C 103.224 14.133 103.375 14.299 103.375 14.514 C 103.375 14.557 103.366 14.667 103.351 14.842 C 103.335 15.017 103.313 15.252 103.281 15.545 C 103.147 15.71 103.007 15.878 102.862 16.05 C 102.77 16.05 102.533 16.023 102.151 15.97 C 101.769 15.916 101.227 15.835 100.524 15.728 C 100.277 15.771 100.008 15.805 99.72 15.83 C 99.431 15.855 99.131 15.868 98.822 15.868 C 98.626 15.868 98.345 15.889 97.977 15.932 C 97.611 15.975 97.33 16 97.135 16.007 C 96.999 16.079 96.863 16.131 96.723 16.163 C 96.584 16.195 96.447 16.211 96.312 16.211 C 96.24 16.211 96.081 16.2 95.832 16.179 C 95.699 16.179 95.57 16.263 95.446 16.432 C 95.323 16.6 95.214 16.859 95.121 17.21 L 94.966 17.672 L 95.074 18.005 L 94.781 19.284 C 94.781 19.334 94.788 19.393 94.803 19.461 C 94.819 19.529 94.826 19.599 94.826 19.67 C 94.693 20.243 94.597 20.804 94.539 21.352 C 94.483 21.899 94.454 22.445 94.454 22.99 C 94.454 23.105 94.418 23.226 94.346 23.355 C 94.274 23.484 94.161 23.613 94.006 23.742 Z" style="white-space: pre; fill: currentColor;"/>
        <path d="M 113.505 18.843 C 113.505 18.757 113.372 18.66 113.106 18.553 C 112.84 18.446 112.431 18.324 111.877 18.188 C 111.544 18.117 111.216 18.049 110.893 17.984 C 110.57 17.919 110.246 17.844 109.923 17.758 C 109.756 17.708 109.631 17.669 109.547 17.64 C 109.349 17.597 109.148 17.556 108.944 17.517 C 108.741 17.478 108.536 17.433 108.327 17.382 C 108.181 17.325 108.072 17.241 107.998 17.13 C 107.925 17.019 107.888 16.87 107.888 16.684 L 107.81 16.426 C 107.81 16.305 107.896 16.144 108.069 15.943 C 108.241 15.742 108.494 15.502 108.828 15.223 C 109.558 14.629 110.259 14.001 110.931 13.338 C 111.604 12.675 112.238 11.986 112.833 11.27 C 112.926 11.177 113.009 11.059 113.083 10.916 C 113.083 10.815 112.989 10.736 112.801 10.679 C 112.613 10.622 112.326 10.593 111.94 10.593 C 111.471 10.593 110.898 10.641 110.22 10.738 C 109.541 10.835 108.749 10.976 107.842 11.163 C 107.56 11.234 107.3 11.302 107.06 11.367 C 106.893 11.402 106.749 11.433 106.629 11.458 C 106.509 11.483 106.403 11.496 106.308 11.496 C 106.121 11.496 105.983 11.464 105.893 11.399 C 105.805 11.334 105.761 11.234 105.761 11.098 C 105.761 11.027 105.787 10.912 105.839 10.754 C 105.892 10.597 105.975 10.393 106.09 10.142 C 106.236 9.82 106.421 9.55 106.645 9.331 C 106.869 9.112 107.138 8.942 107.45 8.821 C 107.638 8.749 107.923 8.683 108.304 8.622 C 108.684 8.561 109.151 8.509 109.703 8.466 C 109.912 8.409 110.159 8.357 110.446 8.311 C 110.733 8.264 111.065 8.234 111.44 8.219 C 111.742 8.212 112.042 8.208 112.339 8.208 C 112.636 8.208 112.936 8.197 113.239 8.176 C 113.593 8.169 113.943 8.196 114.288 8.257 C 114.631 8.318 114.97 8.42 115.304 8.563 C 115.669 8.728 115.943 8.91 116.125 9.111 C 116.308 9.312 116.399 9.523 116.399 9.745 C 116.399 9.974 116.35 10.185 116.251 10.378 C 116.152 10.571 116.008 10.754 115.82 10.926 C 114.203 12.43 112.983 13.588 112.16 14.401 C 111.336 15.214 110.923 15.692 110.923 15.835 C 110.923 15.921 111.049 16.012 111.299 16.109 C 111.55 16.206 111.909 16.315 112.378 16.437 C 113.036 16.594 113.594 16.741 114.053 16.877 C 114.511 17.014 114.866 17.146 115.116 17.275 C 115.627 17.497 116.002 17.746 116.242 18.021 C 116.483 18.297 116.603 18.607 116.603 18.951 C 116.478 19.746 115.497 20.626 113.661 21.593 C 113.557 21.643 113.419 21.716 113.246 21.813 C 113.074 21.91 112.869 22.012 112.629 22.12 C 111.597 22.535 110.595 22.933 109.624 23.312 C 109.479 23.333 109.297 23.362 109.078 23.398 C 108.859 23.434 108.624 23.477 108.373 23.527 C 108.165 23.592 107.998 23.642 107.872 23.677 C 107.747 23.713 107.654 23.731 107.591 23.731 C 107.352 23.731 107.146 23.724 106.974 23.709 C 106.801 23.695 106.657 23.67 106.543 23.634 C 106.199 23.677 105.876 23.72 105.573 23.763 C 105.25 23.763 105.007 23.729 104.846 23.661 C 104.684 23.593 104.603 23.487 104.603 23.344 C 104.603 23.179 104.783 23.025 105.143 22.882 C 105.503 22.739 106.042 22.524 106.763 22.238 C 107.377 21.995 108.138 21.672 109.046 21.271 C 109.954 20.87 111.002 20.393 112.19 19.842 C 112.503 19.635 112.816 19.434 113.13 19.241 C 113.244 19.148 113.336 19.071 113.404 19.01 C 113.471 18.949 113.505 18.893 113.505 18.843 Z" style="white-space: pre; fill: currentColor;"/>
    </g>
</svg>