<svg width="222" height="132" viewBox="0 0 222 132" fill="none" xmlns="http://www.w3.org/2000/svg">
<rect width="222" height="132" rx="8" fill="#111214"/>
<path d="M25.488 13.256C25.24 13.256 25.044 13.184 24.9 13.04C24.756 12.888 24.684 12.692 24.684 12.452C24.684 12.204 24.756 12.008 24.9 11.864C25.044 11.712 25.24 11.636 25.488 11.636C25.736 11.636 25.932 11.712 26.076 11.864C26.228 12.008 26.304 12.204 26.304 12.452C26.304 12.692 26.228 12.888 26.076 13.04C25.932 13.184 25.736 13.256 25.488 13.256ZM24.36 22.448C24.136 22.448 23.96 22.432 23.832 22.4V21.128C23.952 21.2 24.1 21.236 24.276 21.236C24.452 21.236 24.588 21.168 24.684 21.032C24.78 20.904 24.828 20.712 24.828 20.456V14.36H26.148V20.552C26.148 21.144 25.988 21.608 25.668 21.944C25.356 22.28 24.92 22.448 24.36 22.448ZM29.6286 20.168C29.0206 20.168 28.5646 19.996 28.2606 19.652C27.9566 19.3 27.8046 18.816 27.8046 18.2V14.36H29.1246V18.02C29.1246 18.34 29.2006 18.592 29.3526 18.776C29.5126 18.96 29.7446 19.052 30.0486 19.052C30.3126 19.052 30.5526 18.98 30.7686 18.836C30.9846 18.684 31.1686 18.48 31.3206 18.224V14.36H32.6406V20H31.4406L31.3206 19.232C31.1526 19.504 30.9206 19.728 30.6246 19.904C30.3366 20.08 30.0046 20.168 29.6286 20.168ZM36.2048 20.168C35.7248 20.168 35.2808 20.072 34.8728 19.88C34.4648 19.688 34.1408 19.4 33.9008 19.016L34.8008 18.284C34.9848 18.572 35.1968 18.784 35.4368 18.92C35.6768 19.056 35.9648 19.124 36.3008 19.124C36.5648 19.124 36.7808 19.064 36.9488 18.944C37.1168 18.816 37.2008 18.644 37.2008 18.428C37.2008 18.22 37.1168 18.06 36.9488 17.948C36.7808 17.828 36.5048 17.728 36.1208 17.648L35.7728 17.576C35.2608 17.472 34.8528 17.296 34.5488 17.048C34.2528 16.8 34.1048 16.428 34.1048 15.932C34.1048 15.364 34.3008 14.932 34.6928 14.636C35.0928 14.34 35.6128 14.192 36.2528 14.192C36.7408 14.192 37.1488 14.276 37.4768 14.444C37.8048 14.612 38.0888 14.856 38.3288 15.176L37.4648 15.92C37.1288 15.464 36.7088 15.236 36.2048 15.236C35.9568 15.236 35.7448 15.292 35.5688 15.404C35.3928 15.508 35.3048 15.656 35.3048 15.848C35.3048 16.048 35.3968 16.2 35.5808 16.304C35.7648 16.408 36.0768 16.504 36.5168 16.592L36.8048 16.652C37.9168 16.852 38.4728 17.4 38.4728 18.296C38.4728 18.888 38.2648 19.348 37.8488 19.676C37.4408 20.004 36.8928 20.168 36.2048 20.168ZM41.8736 20.168C41.2896 20.168 40.8496 20.016 40.5536 19.712C40.2656 19.4 40.1216 18.92 40.1216 18.272V15.488H39.0536V14.36H40.1216V12.824L41.4536 12.416V14.36H43.0016V15.488H41.4536V18.176C41.4536 18.424 41.5016 18.632 41.5976 18.8C41.7016 18.96 41.9056 19.04 42.2096 19.04C42.3616 19.04 42.4936 19.02 42.6056 18.98C42.7256 18.94 42.8576 18.872 43.0016 18.776V19.88C42.6976 20.072 42.3216 20.168 41.8736 20.168ZM47.7628 16.808H43.9828V15.656H47.7628V16.808ZM51.6633 20.168C51.1433 20.168 50.6713 20.052 50.2473 19.82C49.8233 19.588 49.4873 19.248 49.2393 18.8C48.9913 18.344 48.8673 17.8 48.8673 17.168C48.8673 16.528 48.9913 15.988 49.2393 15.548C49.4953 15.1 49.8353 14.764 50.2593 14.54C50.6913 14.308 51.1673 14.192 51.6873 14.192C52.7673 14.192 53.5433 14.628 54.0153 15.5L53.0073 16.208C52.8553 15.928 52.6713 15.712 52.4553 15.56C52.2473 15.408 51.9833 15.332 51.6633 15.332C51.2313 15.332 50.8793 15.492 50.6073 15.812C50.3353 16.124 50.1993 16.576 50.1993 17.168C50.1993 17.768 50.3353 18.228 50.6073 18.548C50.8793 18.868 51.2313 19.028 51.6633 19.028C52.0153 19.028 52.3033 18.948 52.5273 18.788C52.7513 18.62 52.9433 18.392 53.1033 18.104L54.0513 18.848C53.8193 19.264 53.4953 19.588 53.0793 19.82C52.6713 20.052 52.1993 20.168 51.6633 20.168ZM55.285 20V11.24H56.605V15.152C56.765 14.872 56.993 14.644 57.289 14.468C57.585 14.284 57.929 14.192 58.321 14.192C58.913 14.192 59.377 14.376 59.713 14.744C60.057 15.104 60.229 15.592 60.229 16.208V20H58.909V16.352C58.909 16.024 58.821 15.768 58.645 15.584C58.477 15.4 58.237 15.308 57.925 15.308C57.645 15.308 57.389 15.384 57.157 15.536C56.933 15.68 56.749 15.888 56.605 16.16V20H55.285ZM62.5427 13.256C62.2947 13.256 62.0987 13.184 61.9547 13.04C61.8107 12.888 61.7387 12.692 61.7387 12.452C61.7387 12.204 61.8107 12.008 61.9547 11.864C62.0987 11.712 62.2947 11.636 62.5427 11.636C62.7907 11.636 62.9867 11.712 63.1307 11.864C63.2827 12.008 63.3587 12.204 63.3587 12.452C63.3587 12.692 63.2827 12.888 63.1307 13.04C62.9867 13.184 62.7907 13.256 62.5427 13.256ZM63.2027 20H61.8827V14.36H63.2027V20ZM66.4313 20.144C65.3833 20.144 64.8593 19.56 64.8593 18.392V11.24H66.1793V18.284C66.1793 18.532 66.2193 18.712 66.2993 18.824C66.3873 18.928 66.5273 18.98 66.7193 18.98C66.8953 18.98 67.0313 18.944 67.1273 18.872V20C66.9513 20.096 66.7193 20.144 66.4313 20.144ZM69.8414 20.144C68.7934 20.144 68.2694 19.56 68.2694 18.392V11.24H69.5894V18.284C69.5894 18.532 69.6294 18.712 69.7094 18.824C69.7974 18.928 69.9374 18.98 70.1294 18.98C70.3054 18.98 70.4414 18.944 70.5374 18.872V20C70.3614 20.096 70.1294 20.144 69.8414 20.144ZM72.3396 13.256C72.0916 13.256 71.8956 13.184 71.7516 13.04C71.6076 12.888 71.5356 12.692 71.5356 12.452C71.5356 12.204 71.6076 12.008 71.7516 11.864C71.8956 11.712 72.0916 11.636 72.3396 11.636C72.5876 11.636 72.7836 11.712 72.9276 11.864C73.0796 12.008 73.1556 12.204 73.1556 12.452C73.1556 12.692 73.0796 12.888 72.9276 13.04C72.7836 13.184 72.5876 13.256 72.3396 13.256ZM72.9996 20H71.6796V14.36H72.9996V20ZM74.6561 20V14.36H75.8561L75.9761 15.128C76.1521 14.848 76.3841 14.624 76.6721 14.456C76.9601 14.28 77.2921 14.192 77.6681 14.192C78.2761 14.192 78.7321 14.368 79.0361 14.72C79.3401 15.064 79.4921 15.544 79.4921 16.16V20H78.1721V16.34C78.1721 16.02 78.0921 15.768 77.9321 15.584C77.7801 15.4 77.5521 15.308 77.2481 15.308C76.9841 15.308 76.7441 15.384 76.5281 15.536C76.3121 15.68 76.1281 15.88 75.9761 16.136V20H74.6561Z" fill="#F2F3F5"/>
<path fill-rule="evenodd" clip-rule="evenodd" d="M13.1927 11.9143C12.9872 11.8288 12.7475 11.8759 12.5891 12.0298L10.2132 14.5136H8.55223C8.24829 14.5136 8 14.753 8 15.0394V18.2115C8 18.498 8.24829 18.7374 8.55223 18.7374H10.2132L12.5891 21.2212C12.7475 21.3751 12.9872 21.4221 13.1927 21.3366C13.3982 21.2597 13.5352 21.0673 13.5352 20.8493V12.3974C13.5352 12.1922 13.4024 11.9913 13.1927 11.9143ZM14.6439 12.9318V13.9792C16.1679 13.9792 17.4136 15.1677 17.4136 16.6169C17.4136 18.0747 16.1722 19.2632 14.6439 19.2632V20.3106C16.7801 20.3106 18.5181 18.6604 18.5181 16.6127C18.5181 14.582 16.7801 12.9318 14.6439 12.9318ZM14.6439 15.0394C15.56 15.0394 16.3049 15.7491 16.3049 16.6212C16.3049 17.5019 15.56 18.2115 14.6439 18.2115V17.1556C14.9478 17.1556 15.1961 16.9162 15.1961 16.6212C15.1961 16.3348 14.9478 16.0954 14.6439 16.0954V15.0394Z" fill="#B9BBBE"/>
<g clip-path="url(#clip0_108_514)">
<path d="M146 38H8V123.981H146V38Z" fill="#A8BFFF"/>
<path d="M87.8986 98.2352C92.658 84.1615 106.047 81.9247 112.986 85.4383C112.023 77.9166 121.699 62.3044 140.034 71.8301H146V121.395H88.5533L87.8986 98.2352Z" fill="#C2D2FF"/>
<path d="M27.5254 99.2404C26.2224 95.5717 20.4521 86.3789 8 87.9434V114.976H55.9245C55.8026 101.325 40.6964 93.9038 27.5254 99.2404Z" fill="#C2D2FF"/>
<path d="M8 123.981H146V92.4782H122.251V117.451H113.586V109.6H93.7622L57.8918 92.8628H42.0828V87.3064H34.2585V107.098L30.2501 105.805L24.7847 111.707H8V123.981Z" fill="#648AE8"/>
<path d="M24.7879 115.677H8V117.451H24.7879V115.677Z" fill="#7B6EB3"/>
<path d="M30.9824 124L37.1956 117.742H50.7228V123.981L30.9824 124Z" fill="#6273E3"/>
<path d="M140.034 121.395H104.629V124H140.034V121.395Z" fill="#6273E3"/>
<path d="M86.9031 57.6137C87.9293 57.6137 88.7613 56.7758 88.7613 55.7421C88.7613 54.7085 87.9293 53.8706 86.9031 53.8706C85.8769 53.8706 85.0449 54.7085 85.0449 55.7421C85.0449 56.7758 85.8769 57.6137 86.9031 57.6137Z" fill="#7D2952"/>
<path d="M74.2117 61.9389C75.2379 61.9389 76.0699 61.101 76.0699 60.0673C76.0699 59.0337 75.2379 58.1958 74.2117 58.1958C73.1855 58.1958 72.3535 59.0337 72.3535 60.0673C72.3535 61.101 73.1855 61.9389 74.2117 61.9389Z" fill="#7D2952"/>
<path d="M57.8756 66.3349C58.9019 66.3349 59.7338 65.4969 59.7338 64.4633C59.7338 63.4297 58.9019 62.5918 57.8756 62.5918C56.8494 62.5918 56.0175 63.4297 56.0175 64.4633C56.0175 65.4969 56.8494 66.3349 57.8756 66.3349Z" fill="#7D2952"/>
<path d="M46.1745 68.5329C47.2008 68.5329 48.0327 67.6949 48.0327 66.6613C48.0327 65.6277 47.2008 64.7898 46.1745 64.7898C45.1483 64.7898 44.3163 65.6277 44.3163 66.6613C44.3163 67.6949 45.1483 68.5329 46.1745 68.5329Z" fill="#7D2952"/>
<path d="M33.4168 69.9452C34.443 69.9452 35.275 69.1073 35.275 68.0737C35.275 67.0401 34.443 66.2021 33.4168 66.2021C32.3905 66.2021 31.5586 67.0401 31.5586 68.0737C31.5586 69.1073 32.3905 69.9452 33.4168 69.9452Z" fill="#7D2952"/>
<path d="M21.3211 69.6125C22.3473 69.6125 23.1793 68.7745 23.1793 67.7409C23.1793 66.7073 22.3473 65.8694 21.3211 65.8694C20.2948 65.8694 19.4629 66.7073 19.4629 67.7409C19.4629 68.7745 20.2948 69.6125 21.3211 69.6125Z" fill="#7D2952"/>
<path d="M136.333 98.1186C137.359 98.1186 138.191 97.2806 138.191 96.247C138.191 95.2134 137.359 94.3755 136.333 94.3755C135.307 94.3755 134.475 95.2134 134.475 96.247C134.475 97.2806 135.307 98.1186 136.333 98.1186Z" fill="#7D2952"/>
<path d="M143.433 38H8V62.9796C35.2534 70.2783 80.4436 59.2075 105.402 43.4562C113.878 85.1794 146 98.1476 146 98.1476V40.5859C146 39.1572 144.851 38 143.433 38Z" fill="#7D2952"/>
<path d="M8 38V43.0651C39.9614 61.0758 82.0418 51.4143 99.6994 38H8Z" fill="#70254A"/>
<path d="M146.001 38H118.594C119.662 62.9667 131.052 82.4416 146.001 92.4781V38Z" fill="#70254A"/>
<path d="M101.563 91.6635C99.9553 95.4777 97.0605 102.763 97.0605 102.763L104.403 107.376C107.356 100.426 108.357 96.7383 108.839 94.8086C109.317 92.8756 109.625 90.988 107.138 89.4526C104.651 87.9172 103.258 87.6489 101.563 91.6635Z" fill="#F073AB"/>
<path d="M108.003 103.336L103.597 113.534C102.136 116.918 98.205 118.437 94.8705 116.905L78.4453 109.367L86.6355 96.3862L96.6453 102.001L98.1087 97.5919C103.269 99.6768 106.036 101.5 108.003 103.336Z" fill="#F7E5BC"/>
<path d="M88.8965 98.3899C95.5334 99.4857 96.1271 100.879 97.9051 104.36L90.7932 103.565L88.8965 98.3899Z" fill="#F7E5BC"/>
<path d="M57.7631 43.0198C55.0352 43.8732 53.437 46.7176 54.1174 49.5104L60.6964 76.5522L72.4585 74.1021L64.5476 46.695C63.7068 43.7762 60.6483 42.118 57.7631 43.0198Z" fill="#D6569B"/>
<path d="M64.3371 70.2234L68.9681 70.023L64.045 53.7255C63.7498 52.7429 62.6875 52.2224 61.7343 52.5877C60.9127 52.9045 60.4506 53.7869 60.656 54.6499L64.3371 70.2234Z" fill="#E374B0"/>
<path d="M61.8287 70.0227C59.0526 59.4173 56.3504 49.3776 55.1277 44.8491C54.1296 46.1227 53.7059 47.8261 54.1167 49.5134L59.1361 70.1391L61.8287 70.0227Z" fill="#F06EA8"/>
<path d="M85.0327 42.8876C87.7702 43.7118 89.3941 46.5369 88.7458 49.3393L82.446 76.4491L70.6582 74.125L78.2835 46.6371C79.0987 43.7054 82.1379 42.0148 85.0327 42.8876Z" fill="#D6569B"/>
<path d="M72.2031 68.5621L73.2943 70.6987C73.2943 70.6987 77.4792 52.1029 79.4433 44.5037C78.9202 45.1016 78.5126 45.8192 78.2847 46.637L72.2031 68.5621Z" fill="#F06EA8"/>
<path d="M80.5744 70.1587L75.9434 70.0068L80.6963 53.6575C80.982 52.6716 82.0378 52.1383 82.9942 52.4971C83.819 52.8074 84.2908 53.6834 84.095 54.5464L80.5744 70.1587Z" fill="#E374B0"/>
<path d="M87.6735 85.9841L53.6934 87.4484C48.8153 87.6585 44.6945 83.8475 44.4859 78.9344L44.4731 78.6661C44.2645 73.7529 48.0482 69.6026 52.9264 69.3925L86.9065 67.9282C91.7846 67.7181 95.9054 71.5291 96.114 76.4422L96.1268 76.7105C96.3322 81.6205 92.5484 85.774 87.6735 85.9841Z" fill="#F06EA8"/>
<path d="M57.7504 118.577C55.7413 116.715 53.8061 114.953 53.3857 114.268C52.9653 113.583 53.6681 113.363 54.6791 113.01C55.69 112.658 56.5565 113.883 57.5706 116.004C58.5848 118.127 59.5732 120.267 57.7504 118.577Z" fill="#F2C591"/>
<path d="M93.7625 109.6L91.8208 115.732L91.5769 116.508L89.2053 124H45.0485C44.6024 122.378 45.1319 122.051 46.2616 120.215C47.2212 118.654 46.7975 118.845 46.9741 114.377C47.096 111.261 48.2 108.343 52.2309 104.719C53.444 103.646 53.7457 103.223 54.9973 102.059C55.1193 101.946 55.2412 101.833 55.3632 101.723C55.4338 101.661 55.5044 101.597 55.575 101.532C55.6488 101.464 55.7258 101.396 55.8028 101.325L85.9767 96.5251L85.9799 96.5284L92.0551 106.733L93.7625 109.6Z" fill="#F7E5BC"/>
<path d="M90.7974 109.623C92.662 104.632 92.7358 104.199 93.3841 105.644C94.0324 107.089 94.3886 107.018 91.3013 111.068C88.2107 115.121 89.9887 111.785 90.7974 109.623Z" fill="#E8C282"/>
<path d="M91.8207 115.731C91.6409 118.682 91.3682 121.462 91.0601 124H58.5948C58.6365 122.678 58.6846 121.032 58.7392 119.022C58.7456 118.818 58.752 118.611 58.7584 118.401C58.7713 117.971 58.7777 117.548 58.7777 117.137C58.7777 116.717 58.7713 116.303 58.7584 115.899C58.5595 109.997 56.8649 105.95 52.2307 104.719C53.078 103.852 53.9926 102.967 54.9971 102.058C55.1191 101.945 55.241 101.832 55.363 101.722C55.5074 101.593 55.655 101.46 55.8059 101.328L85.9797 96.5278C88.3578 97.4232 89.94 98.0341 91.7436 99.8765C91.9298 102.194 92.0261 104.489 92.0549 106.732C92.0935 109.848 92.0004 112.871 91.8207 115.731Z" fill="#1F3A70"/>
<path d="M85.9789 96.5278L85.5584 96.5957C85.321 96.8543 85.1669 97.0385 85.1669 97.0385C83.6264 103.513 80.3594 110.294 80.3594 110.294C80.3594 110.294 80.5295 111.962 82.7631 108.743C84.6759 105.982 86.9609 101.784 87.898 98.2345C87.2626 97.6592 86.6239 97.0903 85.9789 96.5278Z" fill="#172E5C"/>
<path d="M59.1855 101.348C65.0136 108.43 67.0098 110.03 69.1793 111.485C71.1659 112.817 69.5355 110.767 67.2762 107.412C65.0168 104.057 62.3981 99.8645 62.3981 99.8645L59.1855 101.348Z" fill="#172E5C"/>
<path d="M91.7073 116.462C91.5469 119.103 91.3158 121.631 91.043 124H58.5938C58.6355 122.678 58.6836 121.033 58.7382 119.022C58.7446 118.818 58.751 118.612 58.7574 118.402C58.7703 117.972 58.7767 117.548 58.7767 117.138C58.7767 116.821 58.7703 116.511 58.7606 116.2C58.7574 116.1 58.7574 116 58.7542 115.9H58.7574C65.7762 117.606 75.0093 120.693 77.1082 121.417L91.5757 116.507L91.7073 116.462Z" fill="#172E5C"/>
<path d="M61.5031 105.456C61.5031 105.456 61.211 106.054 59.953 106.91C58.695 107.767 58.3612 108.168 58.2136 107.877C57.193 105.837 55.5819 104.431 53.1621 103.788C53.9965 102.928 54.9176 102.055 55.9093 101.137C60.4023 103.064 61.5031 105.456 61.5031 105.456Z" fill="#244AB0"/>
<path d="M83.3199 96.5251L77.2383 119.507L61.625 97.2039L83.3199 96.5251Z" fill="#D4BF9B"/>
<path d="M80.4662 107.301L70.0713 104.557C68.1971 104.063 69.1438 104.719 70.0713 105.882C70.8512 106.862 76.538 113.423 78.3064 115.466L80.4662 107.301Z" fill="#CCAC89"/>
<path d="M65.0156 100.889C65.0156 100.889 77.6571 102.612 79.2746 102.809C80.892 103.006 80.9113 101.27 81.7393 97.8601L66.386 98.985L65.0156 100.889Z" fill="#CF518A"/>
<path d="M89.686 100.268L54.7335 101.774C50.1249 101.971 46.232 98.3707 46.0331 93.7322C45.8373 89.0906 49.4125 85.1697 54.0178 84.9693L88.9703 83.463C93.5789 83.2659 97.4718 86.8667 97.6707 91.5051C97.8697 96.1468 94.2946 100.071 89.686 100.268Z" fill="#F06EA8"/>
<path d="M89.494 100.278C93.9741 100.084 97.6552 96.441 97.6809 91.9254C97.7002 88.4216 95.6109 85.4575 92.6583 84.1613C94.8728 82.4546 96.2528 79.7298 96.1244 76.7107L96.1115 76.4425C95.9061 71.5325 91.7822 67.7183 86.9073 67.9284L56.5633 69.2343C53.8354 74.4934 54.2109 80.15 56.2199 84.2195C56.8297 85.4575 56.881 86.8894 56.3964 88.1824C53.4663 96.0176 57.3303 101.661 57.3271 101.661L89.494 100.278Z" fill="#E05FA3"/>
<path d="M72.3307 124H52.5806C52.5614 123.616 52.5646 123.26 52.5935 122.93C52.5967 122.904 52.5999 122.882 52.5999 122.856C52.6127 122.746 52.6256 122.643 52.6416 122.539C52.6705 122.342 52.7122 122.154 52.7603 121.977C52.7924 121.867 52.8277 121.757 52.8662 121.653C52.9272 121.498 52.9946 121.35 53.0684 121.211C53.1455 121.068 53.2289 120.936 53.3188 120.813C53.3797 120.729 53.4471 120.648 53.5145 120.571C53.5498 120.532 53.5851 120.493 53.6204 120.458C54.0858 119.969 54.702 119.598 55.4529 119.278C56.3548 118.89 57.3561 118.796 58.3253 118.954C58.4633 118.977 58.6013 119 58.7393 119.022C62.5808 119.646 65.9024 120.16 68.7106 120.894C68.8486 120.929 68.9834 120.971 69.1117 121.026C69.5033 121.169 69.8499 121.366 70.1708 121.608C70.235 121.657 70.296 121.705 70.3602 121.757C70.4211 121.809 70.4821 121.86 70.5431 121.915C70.6041 121.967 70.665 122.022 70.7228 122.08C70.7838 122.138 70.8416 122.197 70.8993 122.255C70.9571 122.316 71.0149 122.374 71.0726 122.439C71.1304 122.5 71.1849 122.562 71.2427 122.626C71.5251 122.95 71.8043 123.299 72.09 123.667C72.1798 123.784 72.2601 123.893 72.3307 124Z" fill="#FF8FB1"/>
<path d="M64.9798 84.3826C65.7565 83.8697 65.804 82.5595 65.0858 81.4562C64.3676 80.3529 63.1558 79.8743 62.379 80.3872C61.6023 80.9001 61.5549 82.2103 62.273 83.3136C62.9912 84.4169 64.2031 84.8955 64.9798 84.3826Z" fill="#1B1926"/>
<path d="M80.2017 82.0652C80.5334 80.8705 80.1327 79.7133 79.3065 79.4806C78.4804 79.2479 77.5418 80.0278 77.21 81.2226C76.8783 82.4174 77.2791 83.5746 78.1052 83.8073C78.9313 84.04 79.87 83.26 80.2017 82.0652Z" fill="#1B1926"/>
<path d="M49.8948 85.1764C47.9949 84.4362 47.5167 84.239 46.1816 83.8059C47.2407 85.2734 48.5629 86.1235 49.4712 86.5663C49.3364 86.6665 49.2144 86.7797 49.0861 86.8863C50.1195 86.9575 50.787 87.0609 51.7241 87.0253C53.5502 86.9607 53.8583 86.7183 49.8948 85.1764Z" fill="#E05FA3"/>
<path d="M50.5034 74.6838C51.912 73.3915 52.6505 71.8978 52.1528 71.3474C51.655 70.7971 50.1096 71.3985 48.701 72.6908C47.2923 73.9831 46.5539 75.4769 47.0516 76.0273C47.5493 76.5776 49.0947 75.9761 50.5034 74.6838Z" fill="#F792C0"/>
<path d="M48.2604 119.452C50.9433 118.347 51.8708 117.907 52.7855 117.578C53.7001 117.248 52.9138 116.908 50.8599 116.007C48.8059 115.105 48.3181 114.765 48.1705 116.533C48.0229 118.302 47.3778 119.818 48.2604 119.452Z" fill="#FAD596"/>
<path d="M53.5627 118.531C48.9669 119.788 48.922 120.415 48.8033 121.22C48.6171 122.49 48.7904 122.756 50.5042 121.463C52.218 120.17 54.1468 119.074 55.0229 118.686C55.899 118.301 55.4465 118.017 53.5627 118.531Z" fill="#F7D08D"/>
<path d="M59.535 118.495C60.4143 113.828 60.2988 112.561 60.7096 112.483C61.1204 112.406 61.8232 113.531 62.5292 115.008C63.2353 116.485 59.535 118.495 59.535 118.495Z" fill="#172E5C"/>
<path d="M58.3245 118.954C56.8547 119.139 54.0273 119.178 53.7063 124H52.5831C52.5414 123.202 52.6023 122.539 52.7596 121.977C52.7917 121.867 52.827 121.757 52.8655 121.653C52.9265 121.498 52.9939 121.35 53.0677 121.211C53.1447 121.068 53.2282 120.936 53.318 120.813C53.379 120.729 53.4464 120.648 53.5138 120.571C53.5491 120.532 53.5844 120.493 53.6197 120.458C54.085 119.969 54.7012 119.598 55.4522 119.278C56.354 118.89 57.3553 118.796 58.3245 118.954Z" fill="#F278B0"/>
<path d="M69.1948 124C69.8527 122.539 70.0677 121.569 69.1113 121.026C69.7339 121.259 70.2506 121.627 70.7224 122.08C70.7834 122.138 70.8411 122.196 70.8989 122.254C70.9567 122.316 71.0144 122.374 71.0722 122.439C71.13 122.5 71.1845 122.561 71.2423 122.626C71.5247 122.949 71.8039 123.298 72.0896 123.667C72.1794 123.783 72.2596 123.893 72.3303 124H69.1948Z" fill="#F278B0"/>
<path d="M68.3436 88.3374C70.465 91.9544 73.5683 92.7755 75.6608 88.1112C75.7443 87.9269 75.6063 87.7168 75.4073 87.7233L68.5683 87.9237C68.3596 87.9302 68.2377 88.1597 68.3436 88.3374Z" fill="#751B40"/>
<path d="M62.0664 85.1991C63.5459 82.3417 66.4118 83.5441 66.4118 83.5441L64.9965 86.7215L62.0664 85.1991Z" fill="#E05FA3"/>
<path d="M76.5059 82.8751C79.468 81.663 80.8833 84.446 80.8833 84.446L77.7607 85.9458L76.5059 82.8751Z" fill="#E05FA3"/>
<path d="M72.6068 87.804L68.5598 87.9203C68.3544 87.9268 68.2357 88.1531 68.3384 88.3308C70.1581 91.4371 72.703 92.4844 74.7121 89.7725C74.3558 89.1518 73.7236 88.4181 72.6068 87.804Z" fill="#9C2455"/>
<path d="M96.6667 103.726C96.6667 103.726 98.7656 108.808 99.4652 110.873C100.165 112.942 99.1796 112.67 98.066 112.493C96.9524 112.312 96.8304 110.86 96.6667 108.171C96.5063 105.478 96.0281 102.411 96.6667 103.726Z" fill="#FAD596"/>
<path d="M98.8719 102.363C99.2089 104.57 100.335 106.6 100.563 107.153C100.791 107.706 102.437 107.337 103.901 106.969C105.364 106.6 104.45 106.093 102.665 104.619C100.884 103.145 98.5991 100.565 98.8719 102.363Z" fill="#FAD596"/>
<path d="M33.8543 114.287L31.7105 113.327C31.672 113.311 31.672 113.256 31.7105 113.236L33.8543 112.276C33.864 112.27 33.8736 112.263 33.88 112.25L34.8332 110.091C34.8492 110.052 34.9038 110.052 34.923 110.091L35.8762 112.25C35.8826 112.26 35.889 112.27 35.9019 112.276L38.0457 113.236C38.0842 113.252 38.0842 113.307 38.0457 113.327L35.9019 114.287C35.8922 114.293 35.8826 114.3 35.8762 114.313L34.923 116.472C34.907 116.511 34.8524 116.511 34.8332 116.472L33.88 114.313C33.8736 114.3 33.8672 114.29 33.8543 114.287Z" fill="#3366E0"/>
<path d="M102.774 70.6311L101.766 70.1786C101.747 70.1689 101.747 70.1463 101.766 70.1366L102.774 69.684C102.781 69.6808 102.784 69.6776 102.787 69.6711L103.236 68.6561C103.243 68.6368 103.268 68.6368 103.278 68.6561L103.727 69.6711C103.73 69.6776 103.734 69.6808 103.74 69.684L104.748 70.1366C104.767 70.1463 104.767 70.1689 104.748 70.1786L103.74 70.6311C103.734 70.6344 103.73 70.6376 103.727 70.644L103.278 71.659C103.272 71.6784 103.246 71.6784 103.236 71.659L102.787 70.644C102.784 70.6376 102.781 70.6311 102.774 70.6311Z" fill="#FAFAFA"/>
<path d="M41.9128 58.0215L40.9051 57.569C40.8858 57.5593 40.8858 57.5366 40.9051 57.5269L41.9128 57.0744C41.9192 57.0712 41.9224 57.068 41.9256 57.0615L42.3749 56.0465C42.3846 56.0271 42.407 56.0271 42.4166 56.0465L42.866 57.0615C42.8692 57.068 42.8724 57.0712 42.8788 57.0744L43.8865 57.5269C43.9058 57.5366 43.9058 57.5593 43.8865 57.569L42.8788 58.0215C42.8724 58.0247 42.8692 58.028 42.866 58.0344L42.4166 59.0494C42.4102 59.0688 42.3846 59.0688 42.3749 59.0494L41.9256 58.0344C41.9224 58.028 41.9192 58.0215 41.9128 58.0215Z" fill="#F7E5BC"/>
<path d="M136.337 38H131.33V124H136.337V38Z" fill="#783837"/>
<path d="M20.9714 38H15.9649V124H20.9714V38Z" fill="#783837"/>
<path d="M136.337 38H131.33V103.513H136.337V38Z" fill="#571E2F"/>
<path d="M20.9714 38H15.9649V77.0953H20.9714V38Z" fill="#571E2F"/>
<path d="M105.028 54.7729C106.054 54.7729 106.886 53.9349 106.886 52.9013C106.886 51.8677 106.054 51.0298 105.028 51.0298C104.002 51.0298 103.17 51.8677 103.17 52.9013C103.17 53.9349 104.002 54.7729 105.028 54.7729Z" fill="#7D2952"/>
<path d="M94.3308 54.4171C95.3571 54.4171 96.189 53.5792 96.189 52.5456C96.189 51.512 95.3571 50.6741 94.3308 50.6741C93.3046 50.6741 92.4727 51.512 92.4727 52.5456C92.4727 53.5792 93.3046 54.4171 94.3308 54.4171Z" fill="#7D2952"/>
<path d="M8 64.4634V68.2032C9.02698 68.2032 9.85819 67.366 9.85819 66.3317C9.85819 65.2973 9.02698 64.4634 8 64.4634Z" fill="#7D2952"/>
<path d="M107.26 62.7602C108.287 62.7602 109.119 61.9222 109.119 60.8886C109.119 59.855 108.287 59.0171 107.26 59.0171C106.234 59.0171 105.402 59.855 105.402 60.8886C105.402 61.9222 106.234 62.7602 107.26 62.7602Z" fill="#7D2952"/>
<path d="M118.592 81.5597C119.619 81.5597 120.451 80.7218 120.451 79.6882C120.451 78.6546 119.619 77.8167 118.592 77.8167C117.566 77.8167 116.734 78.6546 116.734 79.6882C116.734 80.7218 117.566 81.5597 118.592 81.5597Z" fill="#7D2952"/>
<path d="M125.21 89.1781C126.236 89.1781 127.068 88.3402 127.068 87.3066C127.068 86.273 126.236 85.4351 125.21 85.4351C124.184 85.4351 123.352 86.273 123.352 87.3066C123.352 88.3402 124.184 89.1781 125.21 89.1781Z" fill="#7D2952"/>
<path d="M111.897 71.465C112.923 71.465 113.755 70.6271 113.755 69.5935C113.755 68.5598 112.923 67.7219 111.897 67.7219C110.871 67.7219 110.039 68.5598 110.039 69.5935C110.039 70.6271 110.871 71.465 111.897 71.465Z" fill="#7D2952"/>
<path d="M127.697 98.4192H126.426V100.957H127.697V98.4192Z" fill="#5177D6"/>
<path d="M141.304 106.742H140.033V109.28H141.304V106.742Z" fill="#5177D6"/>
<path d="M130.269 108.776H128.998V111.313H130.269V108.776Z" fill="#5177D6"/>
<path d="M127.062 115.677H125.791V118.214H127.062V115.677Z" fill="#5177D6"/>
<path d="M108.509 116.944H107.238V119.481H108.509V116.944Z" fill="#5177D6"/>
<path d="M44.9525 102.143H43.6816V104.68H44.9525V102.143Z" fill="#5177D6"/>
<path d="M27.4096 116.944H26.1387V119.481H27.4096V116.944Z" fill="#5177D6"/>
<path d="M42.6791 86.1362H33.6289V87.3096H42.6791V86.1362Z" fill="#8F80CF"/>
<path d="M119.674 115.677H113.586V117.451H119.674V115.677Z" fill="#8F80CF"/>
</g>
<g clip-path="url(#clip1_108_514)">
<path d="M214 43H150V80H214V43Z" fill="#5E87F9"/>
<path d="M150 61.5006C155.946 59.9023 162.961 62.0017 165.094 66.7149C171.479 64.7119 178.865 68.4287 182.341 72.7898H150V61.5006Z" fill="#6E94FF"/>
<path d="M214 54.7541C210.114 54.1098 205.529 54.9557 204.135 56.8579C199.961 56.05 195.135 57.549 192.863 59.308H214V54.7541Z" fill="#7A9DFF"/>
<path d="M198.776 74.9038C197.577 72.4157 197.613 72.3105 195.496 71.5625L198.311 75.5233L198.776 74.9038Z" fill="#FF707E"/>
<path d="M166.125 52.8764C166.165 52.9158 166.209 52.9567 166.254 52.9962C166.346 53.0838 166.443 53.1671 166.537 53.2519C166.574 53.2811 166.607 53.3132 166.644 53.3424C166.726 53.4111 166.8 53.4769 166.867 53.5353C171.827 57.7211 178.206 59.4977 182.516 60.7673C188.081 62.408 192.714 62.8828 196.188 62.8974C200.691 62.8536 201.601 60.5423 199.702 57.7985L198.622 56.5041L193.119 49.9295C193.03 49.82 192.938 49.7148 192.848 49.6081C189.226 45.3785 185.96 43.485 179.102 44.9446L168.67 47.1624C168.659 47.1653 168.647 47.1653 168.637 47.1697C164.992 47.9572 163.283 50.1224 166.125 52.8764Z" fill="url(#paint0_linear_108_514)"/>
<path d="M178.135 45.7556C173.966 46.7651 166.823 48.8106 166.823 48.8106L165.094 49.0531C165.696 48.1852 166.961 47.5307 168.637 47.1684C168.648 47.1655 168.66 47.1655 168.67 47.1611L179.102 44.9433C182.339 44.2551 184.771 44.3209 186.824 45.0192C183.646 44.2756 181.805 44.8673 178.135 45.7556Z" fill="#FFFDC4"/>
<path d="M182.213 61.3007C178.55 60.2224 170.722 57.1762 167.684 54.1943C168.395 54.8927 167.693 53.6348 169.064 54.2907C176.267 57.7373 192.632 62.3979 196.188 62.899C192.7 63.0992 185.94 62.3993 182.213 61.3007Z" fill="#FFFDC4"/>
<path d="M165.281 48.812C168.499 47.8696 175.748 48.7214 183.779 51.1905C192.163 53.7677 198.823 57.3151 200.605 59.9288C200.815 61.6411 199.446 62.8654 196.186 62.8976C192.712 62.883 188.08 62.4096 182.514 60.7674C178.205 59.4978 171.826 57.7227 166.865 53.5354C166.798 53.477 166.724 53.4112 166.642 53.3426C166.605 53.3134 166.572 53.2812 166.535 53.252C166.442 53.1687 166.346 53.084 166.252 52.9963C166.207 52.9569 166.163 52.916 166.122 52.8765C164.464 51.2694 164.359 49.8625 165.281 48.812Z" fill="url(#paint1_linear_108_514)"/>
<path d="M196.245 60.7519C196.714 59.2835 190.768 56.1483 182.965 53.7493C175.163 51.3503 168.457 50.5959 167.989 52.0643C167.52 53.5328 173.466 56.6679 181.269 59.067C189.071 61.466 195.777 62.2204 196.245 60.7519Z" fill="#6B3143"/>
<path d="M168.057 52.5988C167.961 52.4016 167.935 52.2233 167.987 52.0626C168.013 51.9793 168.057 51.9063 168.124 51.8362L176.182 55.2272L170.144 51.3219C170.39 51.3117 170.649 51.3117 170.928 51.3219L176.526 54.9919C176.752 54.9496 177.095 54.9525 177.525 54.9934L174.459 51.6974C174.831 51.7558 175.216 51.8245 175.611 51.8975L177.967 55.0445C178.443 55.1103 178.995 55.2111 179.606 55.3484L177.855 52.368C178.198 52.4483 178.543 52.5287 178.896 52.6163L180.046 55.4492C180.399 55.534 180.768 55.6289 181.148 55.7341L180.348 52.9918C180.761 53.1014 181.18 53.2183 181.605 53.3425L181.984 55.9503H181.896C181.996 55.9796 182.094 56.0088 182.195 56.0395L183.044 53.7691C183.364 53.867 183.675 53.9663 183.987 54.0686L182.517 56.1403C182.768 56.2192 183.016 56.2995 183.255 56.3813L185.37 54.5273C185.75 54.6588 186.125 54.7903 186.488 54.9218L183.877 56.5976C184.147 56.694 184.403 56.7904 184.651 56.8869L187.884 55.4463C188.353 55.6289 188.81 55.8116 189.247 55.9927L185.245 57.1279C185.589 57.2711 185.909 57.4128 186.19 57.5502L191.849 57.1644C192.336 57.4011 192.79 57.6393 193.209 57.8716H186.809C186.979 57.968 187.125 58.06 187.248 58.1462L195.045 59.0345C195.435 59.3297 195.74 59.6102 195.948 59.8658L187.628 58.4837C187.685 58.5626 187.705 58.6342 187.686 58.6941C187.668 58.7482 187.615 58.7905 187.537 58.8227L196.156 60.9192C196.015 61.1048 195.747 61.248 195.365 61.3458H195.362L186.719 58.8957C186.342 58.8782 185.873 58.8198 185.328 58.7248L192.217 61.4291C191.882 61.4043 191.529 61.3634 191.158 61.3195H191.151L184.446 58.5509C184.367 58.5334 184.285 58.5144 184.203 58.4954L188.52 60.9002C187.862 60.7731 187.179 60.63 186.466 60.4663H186.463L183.353 58.2909C182.816 58.1535 182.251 57.9943 181.669 57.8146C180.96 57.5969 180.292 57.369 179.677 57.1396L177.026 57.6247C176.142 57.2959 175.306 56.9614 174.523 56.6297L178.577 56.7057C178.571 56.7028 178.564 56.6998 178.556 56.6969L172.356 55.6406L172.353 55.6377C171.655 55.2944 171.022 54.9554 170.473 54.6311L177.328 56.1242C177.163 56.0365 177.017 55.9533 176.886 55.8729L168.057 52.5988Z" fill="#7A384C"/>
<path d="M204.03 80H167.953C168.586 79.3673 169.369 78.9773 170.596 78.4089L173.39 78.0378L174.417 77.899L176.648 77.601L178.336 77.3775H178.34L179.348 77.243L179.789 77.1846L183.962 76.628L184.937 76.4965L186.51 76.2875L187.132 76.2028L188.356 76.0406L188.65 76.0027L191.356 75.6432L197.788 74.7856L198.125 74.7389C198.326 74.7345 198.515 74.7345 198.7 74.7389C201.744 74.8178 202.814 76.1546 204.03 80Z" fill="#2347A1"/>
<path d="M198.605 78.6106L197.477 80H190.883L194.553 76.3855L196.15 77.2621L198.605 78.6106Z" fill="#2A52C2"/>
<path d="M198.125 74.7402C198.125 74.7402 198.058 74.8293 197.936 74.9944C197.885 75.0601 197.83 75.1332 197.763 75.2223C197.704 75.2954 197.641 75.3801 197.567 75.4765C197.229 75.9134 196.745 76.527 196.152 77.2604C195.735 77.763 195.266 78.3226 194.755 78.9201C194.607 79.094 194.452 79.2722 194.296 79.4534C194.138 79.6316 193.981 79.8128 193.816 79.9983H170.857C170.672 79.0297 170.598 78.4073 170.598 78.4073V78.4029C170.598 78.0946 170.767 77.8039 171.043 77.6505L173.135 76.4729V76.4685H173.14L173.128 76.3181C173.123 76.2684 173.12 76.2172 173.12 76.172C173.104 75.9324 173.089 75.7161 173.082 75.5393L173.07 75.3465C173.062 75.2267 173.058 75.1376 173.053 75.0835C173.049 75.0411 173.049 75.0178 173.049 75.0178L172.975 73.8007C172.943 73.3025 173.164 72.8277 173.564 72.5224L176.341 70.4024L176.588 70.2096L177.352 69.631L179.272 68.1642L180.369 68.0064C180.369 68.0064 180.369 68.0064 180.373 68.0064L181.824 67.7902H181.841L183.797 67.5082L184.367 67.4234L185.834 67.2116L186.534 67.1079L186.651 67.0918L187.032 67.1502L187.532 67.2277L188.571 67.3898C189.476 67.533 190.274 68.0429 190.77 68.7997L191.895 70.5179H191.899L191.981 70.5442H191.986L192.694 70.7487L195.026 71.4251L195.498 71.5639C195.608 71.6019 195.714 71.6414 195.812 71.6794C195.82 71.6794 195.829 71.6837 195.836 71.6867C196.461 71.9526 196.973 72.4318 197.275 73.0381L198.125 74.7402Z" fill="#EF6270"/>
<path d="M192.693 70.7504C192.135 69.3917 191.846 67.7787 188.353 67.092L185.781 66.7151L185.985 68.7736L190.86 71.928L192.693 70.7504Z" fill="#FF707E"/>
<path d="M198.125 74.7402C198.125 74.7402 198.058 74.8293 197.936 74.9944C197.886 75.0601 197.831 75.1332 197.764 75.2223C197.704 75.2954 197.642 75.3801 197.567 75.4765C197.229 75.9134 196.746 76.527 196.152 77.2604C195.735 77.763 195.266 78.3226 194.756 78.9201C194.607 79.094 194.452 79.2722 194.296 79.4534C194.138 79.6316 193.977 79.8157 193.812 79.9983H183.045C183.297 79.1334 183.67 77.8171 183.844 77.0676C183.88 76.9127 183.919 76.7666 183.962 76.6278C184.221 75.7044 184.434 75.1449 182.865 74.9023L183.026 74.1032L183.737 70.5471C183.742 70.5515 183.742 70.5471 183.742 70.5471L183.926 69.6091C183.926 69.6047 183.926 69.6047 183.926 69.6018L184.068 68.9224V68.9181L184.304 67.7449V67.7405L184.367 67.4234L185.834 67.2116L186.534 67.1079L186.652 67.0918L187.033 67.1502L187.533 67.2277L188.572 67.3898C189.476 67.533 190.274 68.0429 190.77 68.7997L191.898 70.5179L191.98 70.5442H191.984L192.693 70.7487L195.025 71.4251L195.497 71.5639C195.607 71.6019 195.713 71.6414 195.811 71.6794C195.818 71.6794 195.827 71.6837 195.835 71.6867C196.46 71.9526 196.972 72.4318 197.274 73.0381L198.125 74.7402Z" fill="#E05164"/>
<path d="M188.2 70.9464C189.956 69.6505 189.837 69.7513 188.867 69.1246C187.898 68.4978 186.877 68.4949 186.877 68.4949L188.2 70.9464Z" fill="#BD3C53"/>
<path d="M188.648 76.0036L185.784 79.9995H183.617C184.797 78.7562 186.028 77.4281 187.13 76.2038C188.7 74.455 189.998 72.9253 190.485 72.1802L190.336 73.1269L190.23 73.799L188.648 76.0036Z" fill="#E05164"/>
<path d="M192.351 78.4749C191.941 78.8606 191.324 79.3588 190.466 80.0002H187.775C189.046 79.483 190.706 78.7218 191.788 78.0541C193.436 77.0343 193.22 77.6684 192.351 78.4749Z" fill="#E05164"/>
<path d="M175.817 71.3525C173.878 73.021 172.9 72.5768 177.503 78.7627L178.612 78.0527L181.817 74.5126L177.74 69.4751L175.817 71.3525Z" fill="#C74153"/>
<path d="M176.418 54.7417C176.531 54.3677 179.174 54.8104 182.32 55.7308C185.467 56.6513 187.926 57.7003 187.813 58.0743C187.168 63.22 187.262 67.7768 188.201 70.9458L178.613 78.0536C174.585 68.5585 175.812 60.1416 176.418 54.7417Z" fill="#FFB685"/>
<path d="M180.653 67.8138L184.361 67.7466L184.769 69.8782C183.315 71.3173 181.174 70.7446 180.097 69.8008C178.66 71.0149 177.27 71.0046 176.288 69.9322C176.281 69.9235 176.27 69.9118 176.26 69.9016C176.163 69.3084 176.083 68.7225 176.016 68.1454C177.541 67.7086 180.653 67.8138 180.653 67.8138Z" fill="#FE9B77"/>
<path d="M184.361 73.5428C183.441 67.354 183.654 59.9204 183.775 56.1816C186.189 56.9706 187.908 57.761 187.813 58.0751C187.168 63.2208 187.262 67.7777 188.201 70.9466L184.361 73.5428Z" fill="#FE9B77"/>
<path opacity="0.4" d="M176.418 54.7417C176.531 54.3677 179.174 54.8104 182.321 55.7308C185.467 56.6513 187.926 57.7003 187.813 58.0743C187.731 58.7332 187.659 59.3819 187.601 60.0204C184.177 59.6171 179.421 60.1372 175.816 61.2213C175.935 58.7639 176.212 56.5782 176.418 54.7417Z" fill="#A8387E"/>
<path d="M179.932 46.9409L178.143 47.2769L178.668 48.1039L179.932 46.9409Z" fill="#FFCD8F"/>
<path d="M182.995 64.9862C183.206 64.615 183.155 64.1918 182.88 64.0412C182.605 63.8905 182.211 64.0693 182 64.4405C181.788 64.8118 181.84 65.2349 182.115 65.3856C182.39 65.5363 182.784 65.3575 182.995 64.9862Z" fill="#543247"/>
<path d="M184.766 45.2208C184.766 45.2208 183.853 45.1507 183.445 45.456C183.901 45.9747 184.766 45.2208 184.766 45.2208Z" fill="#FFD08F"/>
<path d="M181.821 45.2108C179.852 44.7521 179.686 45.7616 179.686 45.7616L181.821 45.2108Z" fill="#FFFDC4"/>
<path d="M196.269 57.1262C196.172 57.8275 194.57 58.2819 194.57 58.2819L195.227 58.7742C196.886 58.7362 197.31 57.9152 197.31 57.9152C197.31 57.9152 197.02 57.5616 196.269 57.1262Z" fill="#D4655B"/>
<path d="M200.495 60.1699C200.229 60.934 196.826 60.4753 196.826 60.4753L196.715 60.8683C199.227 61.3051 200.317 61.086 200.317 61.086C200.317 61.086 200.464 60.861 200.495 60.1699Z" fill="#D4655B"/>
<path d="M187.953 52.9987C187.764 53.9045 186.627 54.5094 186.627 54.5094L184.781 53.9513C185.301 53.231 185.529 52.2258 185.529 52.2258C185.529 52.2258 186.794 52.5575 187.953 52.9987Z" fill="#DC7363"/>
<path d="M175.765 79.9736C175.753 79.9809 175.736 79.9925 175.726 79.9999H173.837C173.699 79.4359 173.531 78.7142 173.389 78.0377C173.263 77.4241 173.161 76.8558 173.133 76.4744V76.4701C173.129 76.4204 173.126 76.3663 173.126 76.3196C173.121 76.2699 173.118 76.2188 173.118 76.1735C173.102 75.9339 173.087 75.7176 173.08 75.5409L173.068 75.348C173.06 75.2282 173.056 75.1391 173.051 75.085C173.047 75.0427 173.047 75.0193 173.047 75.0193C173.382 76.004 173.892 77.015 174.416 77.9004C174.907 78.7419 175.407 79.471 175.765 79.9736Z" fill="#D14658"/>
<path d="M195.025 71.4239C194.128 72.6292 192.787 74.1458 191.355 75.6447C189.82 77.2548 188.185 78.8414 186.887 80H185.361C186.183 78.9729 187.26 77.5718 188.354 76.0421C189.027 75.0998 189.707 74.1078 190.337 73.1274C190.651 72.6453 190.95 72.1617 191.23 71.6913V71.6869C191.467 71.2895 191.69 70.9038 191.898 70.521C191.915 70.5371 191.937 70.5444 191.98 70.5444H191.985L192.693 70.7489L195.025 71.4239Z" fill="#CC4355"/>
<path d="M190.032 70.5193L185.283 75.0192L184.361 78.9581L189.577 72.4785L190.032 70.5193Z" fill="#E65568"/>
<path d="M178.318 77.3325L188.107 70.6119L188.274 70.4731C188.558 70.2261 188.783 70.2335 188.201 70.945L178.613 78.0528C178.51 77.8132 178.415 77.5721 178.318 77.3325Z" fill="#BD3C53"/>
<path d="M202.331 50.1311L201.097 49.592C201.074 49.5818 201.074 49.5511 201.097 49.5423L202.331 49.0032C202.337 49.0003 202.343 48.9959 202.346 48.9886L202.895 47.7774C202.905 47.7555 202.936 47.7555 202.945 47.7774L203.495 48.9886C203.498 48.9944 203.502 49.0003 203.509 49.0032L204.743 49.5423C204.766 49.5525 204.766 49.5832 204.743 49.592L203.509 50.1311C203.504 50.134 203.498 50.1384 203.495 50.1457L202.945 51.3569C202.935 51.3788 202.904 51.3788 202.895 51.3569L202.346 50.1457C202.341 50.1399 202.337 50.134 202.331 50.1311Z" fill="#FF99B9"/>
<path d="M159.924 69.0584L158.691 68.5192C158.668 68.509 158.668 68.4783 158.691 68.4696L159.924 67.9305C159.93 67.9275 159.936 67.9232 159.939 67.9158L160.489 66.7047C160.499 66.6828 160.53 66.6828 160.539 66.7047L161.088 67.9158C161.091 67.9217 161.096 67.9275 161.103 67.9305L162.337 68.4696C162.359 68.4798 162.359 68.5105 162.337 68.5192L161.103 69.0584C161.097 69.0613 161.091 69.0657 161.088 69.073L160.539 70.2841C160.529 70.3061 160.497 70.3061 160.489 70.2841L159.939 69.073C159.935 69.0657 159.93 69.0598 159.924 69.0584Z" fill="#5580F9"/>
<path d="M196.154 53.5577C194.179 51.7942 192.518 51.0623 192.518 51.0623C194.374 51.429 195.689 52.028 196.154 53.5577Z" fill="#EB9363"/>
<path d="M176.067 45.7613L172.916 46.4275C173.287 45.7335 173.705 45.6064 176.067 45.7613Z" fill="#FFFDC4"/>
<path d="M181.744 69.5147C180.46 69.5235 179.224 69.4913 178.829 69.8142C178.431 70.1371 179.056 70.8778 180.012 71.5835C180.417 71.883 180.615 71.9151 181.619 71.0531C182.346 70.4307 182.738 69.5074 181.744 69.5147Z" fill="#C74153"/>
<path d="M181.219 69.5769L182.304 69.7493C182.454 70.0634 182.115 70.6274 181.619 71.0525C180.614 71.9131 180.416 71.8824 180.012 71.5829C179.851 71.4645 179.705 71.3462 179.568 71.2278C179.735 70.8538 180.257 69.8764 181.219 69.5769Z" fill="#A82C3C"/>
<path d="M179.273 69.6316C179.847 69.5045 180.78 69.522 181.743 69.5147C182.291 69.5103 182.416 69.7894 182.298 70.1444C181.706 70.159 179.578 70.2101 179.347 70.2101C179.18 70.2101 179.219 69.8829 179.273 69.6316Z" fill="white"/>
<path d="M174.971 67.8398C174.68 67.3197 174.845 66.503 175.48 66.0852C175.345 66.3803 175.488 66.9194 176.016 67.0173C176.367 67.0816 177.031 66.9486 177.308 66.8449C178.104 66.5454 178.99 66.5337 180.07 67.0728C181.52 66.3058 182.51 66.9808 183.838 66.9808C184.201 66.9808 184.559 66.9253 184.908 66.8318C186.024 66.5118 185.997 65.9829 185.756 65.4233C187.344 65.7959 187.274 67.4556 186.57 68.1905C186.161 68.6975 185.379 68.9298 184.352 68.6902C182.747 70.0226 181.952 70.1234 180.072 68.9254C178.534 70.195 177.058 70.0518 176.186 68.4842C176.183 68.4842 175.287 68.4053 174.971 67.8398Z" fill="#6B3143"/>
<path d="M180.069 68.9256C178.531 70.1953 177.055 70.0521 176.183 68.4844C176.183 68.4844 174.794 68.369 174.833 67.3215C174.998 67.7335 175.729 68.1294 176.419 67.9789C177.525 68.8672 178.698 68.5969 179.804 67.7715C179.804 67.7715 182.127 68.9943 183.788 67.6429C185.676 68.1075 187.018 67.2513 186.79 66.0854C187.237 66.7458 187.052 67.6867 186.569 68.1908C186.159 68.6977 185.378 68.93 184.351 68.6904C182.745 70.0229 181.949 70.1237 180.069 68.9256Z" fill="#5E2737"/>
<path d="M178.578 65.3971C178.853 65.2819 178.946 64.8877 178.785 64.5166C178.624 64.1454 178.27 63.938 177.994 64.0531C177.719 64.1683 177.627 64.5626 177.788 64.9337C177.949 65.3048 178.303 65.5123 178.578 65.3971Z" fill="#543247"/>
</g>
<g clip-path="url(#clip2_108_514)">
<path d="M214 84H150V121.976H214V84Z" fill="#F7E5BC"/>
<path d="M214 105.223V121.976H150V102.166C157.233 96.0848 166.67 100.616 167.311 105.809C175.829 102.696 182.342 105.892 184.078 110.292C190.575 106.295 197.626 106.537 201.291 110.292C204.404 105.958 211.139 104.152 214 105.223Z" fill="#6ADBC6"/>
<path d="M189.312 109.309C196.36 109.35 202.385 112.74 205.29 122H184.078L189.312 109.309Z" fill="#44C9C5"/>
<path d="M196.582 121.976H214V113.833C209.773 114.258 202.113 115.888 196.582 121.976Z" fill="#44C9C5"/>
<path d="M200.967 118.133H162.954C160.551 120.43 160.428 121.976 160.428 121.976H203.8C203.8 121.976 202.631 119.437 200.967 118.133Z" fill="#FAFAFA"/>
<path d="M201.851 119.808C202.11 119.59 202.177 119.216 202.002 118.926C201.446 118.007 201.269 117.292 200.025 116.632C198.572 115.863 197.962 115.168 194.15 114.676C193.375 112.666 193.53 112.063 187.774 111.601H171.846C169.235 112.033 169.052 112.033 168.597 113.583C168.141 115.134 168.141 114.949 166.772 115.501C165.402 116.053 163.282 116.17 162.458 117.996C162.189 118.592 162.082 119.022 163.642 121.975H198.742C200.08 121.229 201.238 120.322 201.851 119.808Z" fill="#CC4F79"/>
<path d="M189.312 112.247C192.058 112.731 191.963 112.731 190.091 114.931C188.218 117.131 185.869 119.185 183.202 120.274C179.039 121.974 175.464 120.38 173.299 117.834C170.143 114.124 168.78 112.245 171.45 112.245C175.025 112.247 189.312 112.247 189.312 112.247Z" fill="#590942"/>
<path d="M197.536 91.3855L196.302 90.8322C196.279 90.8217 196.279 90.7902 196.302 90.7812L197.536 90.2279C197.542 90.2249 197.548 90.2204 197.551 90.2129L198.1 88.9698C198.11 88.9473 198.141 88.9473 198.15 88.9698L198.7 90.2129C198.703 90.2189 198.707 90.2249 198.714 90.2279L199.948 90.7812C199.971 90.7917 199.971 90.8232 199.948 90.8322L198.714 91.3855C198.708 91.3885 198.703 91.393 198.7 91.4005L198.15 92.6436C198.14 92.6661 198.109 92.6661 198.1 92.6436L197.551 91.4005C197.548 91.393 197.543 91.3885 197.536 91.3855Z" fill="#FAFAFA"/>
<path d="M162.858 93.1529L162.048 92.79C162.033 92.784 162.033 92.763 162.048 92.757L162.858 92.3941C162.862 92.3926 162.865 92.3896 162.867 92.3851L163.227 91.5694C163.233 91.5544 163.254 91.5544 163.26 91.5694L163.62 92.3851C163.621 92.3896 163.624 92.3926 163.629 92.3941L164.439 92.757C164.453 92.763 164.453 92.784 164.439 92.79L163.629 93.1529C163.624 93.1544 163.621 93.1574 163.62 93.1619L163.26 93.9776C163.254 93.9926 163.233 93.9926 163.227 93.9776L162.867 93.1619C162.865 93.1589 162.862 93.1559 162.858 93.1529Z" fill="#F7D78D"/>
<path d="M173.644 100.083C172.572 97.0805 170.71 94.8822 169.811 94.4803C168.912 94.0784 169.143 94.5883 169.981 97.1165C170.819 99.6463 170.828 103.812 172.374 103.836C173.921 103.86 173.644 100.083 173.644 100.083Z" fill="#2E64E8"/>
<path d="M171.687 100.862C171.048 99.5742 171.003 98.9489 170.752 97.9742C170.619 97.4569 170.417 96.7131 170.258 96.1343C171.036 97.5319 172.383 100.634 172.669 101.615C172.958 102.635 172.33 102.152 171.687 100.862Z" fill="#1C4BBA"/>
<path d="M187.78 100.273C189.291 97.076 191.715 94.8072 192.842 94.4308C193.969 94.0545 193.653 94.5928 192.46 97.2905C191.266 99.9882 190.979 104.526 189.084 104.448C187.191 104.368 187.78 100.273 187.78 100.273Z" fill="#2E64E8"/>
<path d="M182.12 91.7105C183.853 91.7105 185.257 90.2953 185.257 88.5495C185.257 86.8037 183.853 85.3884 182.12 85.3884C180.387 85.3884 178.982 86.8037 178.982 88.5495C178.982 90.2953 180.387 91.7105 182.12 91.7105Z" fill="#201E2F"/>
<path d="M185.129 89.3796C185.236 88.5668 183.93 87.722 182.212 87.4926C180.495 87.2632 179.015 87.7361 178.908 88.5489C178.802 89.3616 180.107 90.2065 181.825 90.4359C183.543 90.6653 185.022 90.1924 185.129 89.3796Z" fill="#41314A"/>
<path d="M187.369 91.0819C184.13 88.0183 178.797 87.6254 175.14 90.2751C171.647 92.8063 172.237 97.0711 172.838 101.618L188.327 102.068C188.966 99.5918 190.607 94.1469 187.369 91.0819Z" fill="#4D7AE8"/>
<path d="M188.678 100.714L173.028 100.26C170.157 106.618 167.3 118.443 180.208 118.818C192.503 119.175 191.556 107.894 188.678 100.714Z" fill="#4D7AE8"/>
<path d="M188.678 100.715C189.36 97.9532 190.104 93.669 187.37 91.0838C187.276 90.9953 187.173 90.9159 187.076 90.8304L186.259 90.8064C186.259 90.8064 186.608 96.1628 186.317 98.2846C186.026 100.406 186.134 100.639 186.782 100.933C187.594 101.302 188.022 101.561 187.894 104.286C187.767 107.01 187.609 107.375 188.203 110.612C188.795 113.839 188.005 115.918 186.316 117.635C192.012 114.6 190.951 106.384 188.678 100.715Z" fill="#2E64E8"/>
<path d="M176.59 112.974C178.275 115.265 182.862 115.853 184.73 113.059C185.663 111.663 183.194 111.587 180.695 111.602C178.198 111.617 175.669 111.722 176.59 112.974Z" fill="#3366E0"/>
<path d="M183.019 101.05C183.057 99.7023 182.058 98.5798 180.787 98.5429C179.516 98.506 178.454 99.5687 178.415 100.916C178.377 102.264 179.376 103.387 180.647 103.423C181.918 103.46 182.98 102.398 183.019 101.05Z" fill="#DBE7FF"/>
<path d="M181.594 101.367C181.619 100.849 181.241 100.41 180.751 100.387C180.261 100.364 179.844 100.765 179.819 101.283C179.795 101.8 180.173 102.239 180.663 102.262C181.153 102.286 181.57 101.885 181.594 101.367Z" fill="#201E2F"/>
<path d="M178.232 96.7521C179.207 94.7082 182.77 94.9166 183.598 96.908L178.232 96.7521Z" fill="#201E2F"/>
<path d="M177.337 105.276C177.489 105.32 177.634 105.366 177.773 105.421L178.207 105.537L178.638 105.639C178.782 105.666 178.929 105.679 179.072 105.703C179.651 105.772 180.239 105.795 180.82 105.699C181.407 105.655 181.979 105.486 182.537 105.287L182.954 105.122L183.357 104.924L183.761 104.714C183.886 104.631 184.017 104.552 184.156 104.477L184.206 104.45C184.746 104.159 185.419 104.364 185.707 104.909C185.899 105.27 185.873 105.693 185.675 106.02C185.206 106.789 184.53 107.434 183.746 107.884C182.967 108.349 182.088 108.629 181.187 108.75C180.284 108.852 179.352 108.792 178.478 108.515C177.602 108.254 176.792 107.762 176.176 107.107C175.753 106.659 175.772 105.951 176.217 105.526C176.511 105.246 176.916 105.159 177.279 105.26L177.337 105.276Z" fill="#400015"/>
<path d="M176.865 107.702C177.35 108.057 177.897 108.341 178.477 108.513C179.352 108.79 180.284 108.85 181.186 108.748C182.086 108.627 182.966 108.348 183.744 107.882C184.306 107.559 184.807 107.135 185.221 106.639C184.453 105.901 183.701 105.404 182.981 105.104L182.951 105.119L182.534 105.284C181.975 105.485 181.403 105.655 180.817 105.697C180.236 105.793 179.648 105.77 179.07 105.701C178.927 105.679 178.779 105.664 178.635 105.637L178.589 105.626C177.839 106.18 177.246 106.928 176.865 107.702Z" fill="#590942"/>
<path d="M184.909 105.87L184.952 104.345C184.706 104.294 184.444 104.321 184.205 104.448L184.156 104.475C184.016 104.55 183.885 104.63 183.76 104.712L183.356 104.922L182.953 105.12L182.536 105.285C181.977 105.486 181.405 105.655 180.819 105.697C180.238 105.793 179.65 105.771 179.071 105.702C178.929 105.679 178.781 105.664 178.637 105.637L178.207 105.535L177.772 105.42C177.634 105.365 177.488 105.317 177.336 105.275L177.278 105.258C177.132 105.218 176.982 105.216 176.833 105.236L176.811 106.017C179.771 107.462 183.115 106.65 184.909 105.87Z" fill="#DBE7FF"/>
<path d="M177.905 105.455L177.774 105.421C177.636 105.365 177.49 105.318 177.338 105.276L177.28 105.259C177.134 105.219 176.984 105.217 176.835 105.237L176.812 106.018C177.122 106.169 177.436 106.289 177.75 106.394L177.905 105.455Z" fill="#B5CDFF"/>
<path d="M183.254 106.437C183.886 106.272 184.449 106.07 184.91 105.87L184.953 104.345C184.708 104.294 184.446 104.321 184.206 104.449L184.157 104.476C184.017 104.551 183.886 104.63 183.761 104.713L183.358 104.923L183.203 104.999L183.254 106.437Z" fill="#B5CDFF"/>
<path d="M184.395 103.103L186.682 104.251C186.724 102.86 185.567 102.704 184.395 103.103Z" fill="#3366E0"/>
<path d="M174.394 106.18L176.514 104.077C174.901 104.038 174.263 105.12 174.394 106.18Z" fill="#3366E0"/>
<path d="M175.652 108.327C176.377 109.341 177.105 110.29 177.105 110.29C175.642 110.164 175.652 108.327 175.652 108.327Z" fill="#3366E0"/>
<path d="M187.368 91.0819C184.13 88.0183 178.797 87.6254 175.14 90.2751C173.458 91.4942 172.727 93.1183 172.484 94.9792C174.506 96.5282 174.727 93.817 175.568 90.9949C178.573 93.4616 183.131 93.4826 186.05 91.2993C186.05 91.2993 186.05 91.2993 186.175 93.6821C186.295 95.9989 187.849 96.2613 189.238 95.0377C189.059 93.5786 188.526 92.178 187.368 91.0819Z" fill="#201E2F"/>
<path d="M177.309 94.7629C177.69 94.3725 177.834 93.8936 177.632 93.6934C177.43 93.4931 176.957 93.6473 176.576 94.0377C176.195 94.4281 176.051 94.907 176.253 95.1072C176.455 95.3075 176.928 95.1533 177.309 94.7629Z" fill="#618AED"/>
<path d="M191.918 95.968C190.647 97.8425 190.145 98.8726 189.761 99.6449C189.377 100.417 189.765 100.519 189.891 101.465C190.014 102.412 190.3 101.963 190.693 100.365C191.086 98.7662 191.29 98.1814 191.672 97.3101C192.055 96.4374 192.717 94.7909 191.918 95.968Z" fill="#1C4BBA"/>
<path d="M193.87 115.434C193.14 117.398 191.208 121.976 191.208 121.976H185.539C188.544 119.866 190.827 117.489 191.854 115.649C192.832 113.898 193.087 112.737 193.864 114.777C193.944 114.988 193.948 115.222 193.87 115.434Z" fill="#BA3B66"/>
<path d="M192.822 121.976C195.549 118.727 196.44 117.618 197.174 117.196C197.908 116.773 199.115 116.138 197.804 118.146C196.492 120.154 194.29 121.976 194.29 121.976H192.822Z" fill="#BA3B66"/>
<path d="M174.02 121.976C171.903 119.409 170.452 116.885 169.903 115.492C169.355 114.099 169.183 113.751 169.052 114.535C168.922 115.318 168.62 115.669 168.879 116.756C169.138 117.843 170.035 120.758 170.58 121.977H174.02V121.976Z" fill="#BA3B66"/>
<path d="M165.313 121.981L164.477 121.976C163.523 119.54 163.134 118.44 163.099 117.637C163.064 116.837 164.014 119.523 165.313 121.981Z" fill="#BA3B66"/>
<path d="M168.782 122L167.022 121.993C166.563 118.472 166.563 117.78 166.67 116.791C166.777 115.801 167.271 116.656 167.628 118.436C167.98 120.216 168.782 122 168.782 122Z" fill="#BA3B66"/>
<path d="M161.728 115.096C163.284 112.553 164.966 111.305 167.019 110.187C169.071 109.068 169.324 108.416 167.808 107.895C166.291 107.376 165.014 107.589 163.216 108.332C161.418 109.074 160.129 109.522 159.584 111.653C159.038 113.784 159.802 115.068 161.728 115.096Z" fill="#542113"/>
<path d="M162.245 112.433C163.217 108.333 163.878 105.239 164.504 102.45C165.129 99.661 165.829 98.031 164.745 97.5332C163.662 97.0353 163.102 97.2228 161.679 100.4C160.256 103.578 159.648 105.878 159.182 107.519C158.714 109.162 157.172 113.665 162.245 112.433Z" fill="#542113"/>
<path d="M160.225 106.02L159.292 105.874C159.788 100.449 160.066 98.138 160.182 96.58C160.298 95.022 159.658 94.9905 158.679 94.941C157.699 94.8915 157.339 95.3129 156.9 97.3523C156.46 99.3932 155.948 102.922 155.766 104.312C155.585 105.7 155.238 108.915 155.263 109.944C155.287 110.973 160.224 111.433 160.225 106.02Z" fill="#542113"/>
<path d="M155.672 107.379C155.824 105.263 155.501 99.6278 155.475 98.5826C155.45 97.5374 155.071 97.6394 154.185 97.6139C153.299 97.5884 152.92 97.9963 152.793 100.469C152.667 102.942 152.49 105.618 152.515 106.869C151.908 108.526 151.629 110.386 151.807 112.35C151.984 114.314 152.237 114.848 152.591 115.46C152.945 116.072 155.071 116.76 157.803 117.04C160.536 117.321 160.77 116.921 161.728 115.094C162.687 113.268 160.89 108.397 160.89 108.397L155.672 107.379Z" fill="#542113"/>
<path d="M151.986 113.764C151.582 114.703 150.782 116.952 150.02 119.157C150.191 120.742 151.523 121.976 153.141 121.976H160.777C160.763 121.734 160.55 118.122 161.263 115.945C161.263 115.945 152.891 111.66 151.986 113.764Z" fill="#542113"/>
<path d="M161.263 109.534C159.503 110.654 159.026 111.208 158.594 111.977C158.161 112.746 157.734 112.838 156.147 112.869C154.56 112.901 154.529 112.931 154.072 111.025C153.615 109.119 154.296 108.311 156.025 108.381C158.314 108.473 162.321 108.938 161.263 109.534Z" fill="#4A1A0D"/>
<path d="M153.252 106.252H159.133C157.314 105.418 154.752 105.521 153.252 106.252Z" fill="#4A1A0D"/>
<path d="M160.199 106.517C161.067 106.845 162.792 107.576 162.792 107.576C161.539 105.721 160.199 106.517 160.199 106.517Z" fill="#4A1A0D"/>
<path d="M161.148 102.534C162.058 102.717 163.878 103.156 163.878 103.156C162.344 101.531 161.148 102.534 161.148 102.534Z" fill="#4A1A0D"/>
<path d="M156.707 101.243C157.56 101.317 159.277 101.536 159.277 101.536C157.627 100.116 156.707 101.243 156.707 101.243Z" fill="#4A1A0D"/>
<path d="M153.105 102.558C153.817 102.465 155.262 102.335 155.262 102.335C153.643 101.459 153.105 102.558 153.105 102.558Z" fill="#4A1A0D"/>
<path d="M168.623 108.328C167.245 109.375 165.213 109.583 163.268 110.587C161.321 111.591 160.974 112.649 160.428 114.124C160.083 115.055 159.769 116.303 159.584 117.096C160.72 116.979 161.038 116.406 161.727 115.094C163.284 112.551 164.966 111.303 167.018 110.185C168.544 109.356 169.074 108.781 168.623 108.328Z" fill="#732D1A"/>
<path d="M161.263 115.945C161.407 115.705 161.556 115.425 161.727 115.096C161.821 114.943 161.914 114.795 162.01 114.651C162.01 114.651 162.01 114.651 162.008 114.652C161.047 115.949 158.512 116.233 156.345 116.374C154.178 116.513 152.38 115.826 151.984 113.768C151.727 114.369 150.819 116.686 150 118.851V121.976H160.777C160.762 121.735 160.55 118.124 161.263 115.945Z" fill="#4A1A0D"/>
<path d="M164.764 97.5452C164.884 97.929 164.935 98.4614 164.79 99.1482C164.505 100.514 163.877 103.156 162.512 108.622L163.186 108.361C163.688 106.144 164.103 104.233 164.503 102.45C165.124 99.6805 165.816 98.0565 164.764 97.5452Z" fill="#732D1A"/>
<path d="M160.181 96.5801C160.063 98.1306 159.785 100.524 159.289 105.885L158.889 105.793L159.541 95.0491C160.003 95.1915 160.255 95.5514 160.181 96.5801Z" fill="#732D1A"/>
<path d="M205.49 112.247L210.21 108.795C208.717 108.644 205.789 108.795 205.49 112.247Z" fill="#44C9C5"/>
</g>
<defs>
<linearGradient id="paint0_linear_108_514" x1="179.041" y1="46.0166" x2="185.334" y2="62.5335" gradientUnits="userSpaceOnUse">
<stop stop-color="#FFC285"/>
<stop offset="1" stop-color="#DB8D6B"/>
</linearGradient>
<linearGradient id="paint1_linear_108_514" x1="200.627" y1="55.6678" x2="164.701" y2="55.6678" gradientUnits="userSpaceOnUse">
<stop stop-color="#D67569"/>
<stop offset="1" stop-color="#E39E7F"/>
</linearGradient>
<clipPath id="clip0_108_514">
<rect x="8" y="38" width="138" height="86" rx="4" fill="white"/>
</clipPath>
<clipPath id="clip1_108_514">
<rect x="150" y="43" width="64" height="37" rx="4" fill="white"/>
</clipPath>
<clipPath id="clip2_108_514">
<rect x="150" y="84" width="64" height="38" rx="4" fill="white"/>
</clipPath>
</defs>
</svg>
