<svg width="279" height="176" viewBox="0 0 279 176" fill="none" xmlns="http://www.w3.org/2000/svg">
<mask id="mask0_181_1437" style="mask-type:alpha" maskUnits="userSpaceOnUse" x="0" y="0" width="279" height="176">
<path d="M0 10.1113C0 4.58848 4.47715 0.111328 10 0.111328H269C274.523 0.111328 279 4.58848 279 10.1113V165.111C279 170.634 274.523 175.111 269 175.111H10C4.47715 175.111 0 170.634 0 165.111V10.1113Z" fill="url(#paint0_linear_181_1437)"/>
</mask>
<g mask="url(#mask0_181_1437)">
<rect y="-121.889" width="279" height="298" fill="url(#paint1_linear_181_1437)"/>
</g>
<g clip-path="url(#clip0_181_1437)">
<g clip-path="url(#clip1_181_1437)">
<g clip-path="url(#clip2_181_1437)">
<path d="M18.2206 174.889C46.0312 162.885 54.6281 143.217 35.0984 129.181C65.3414 124.632 76.4674 101.162 55.9804 87.4431C86.6186 82.2863 88.1817 65.9183 72.5684 49.3039C96.9191 53.8007 104.375 47.7375 105.349 27.9903C121.252 47.8695 137.77 45.1591 144.769 20.8975C151.364 40.4775 168.347 40.1079 186.34 22.1207C181.255 41.4807 187.306 48.9079 209.066 46.9543C195.367 65.4871 201.751 88.7015 229.07 91.9839C212.684 109.601 212.912 126.541 245.465 129.472C220.973 149.025 236.235 168.852 260.779 174.889H18.2206Z" fill="url(#paint2_linear_181_1437)"/>
<path d="M77.6178 174.889L97.7183 60.6294L171.095 44.5254L210.857 174.889H77.6178Z" fill="url(#paint3_linear_181_1437)"/>
<path opacity="0.6" d="M188.386 128.786C173.431 109.118 178.797 94.9319 183.117 83.9407L176.083 60.8847C170.648 60.0839 163.903 60.8231 157.651 58.7815C151.961 56.9247 148.194 53.3959 144.795 50.2983L121.042 55.5079C119.601 62.1607 120.049 70.3183 115.501 75.7919C109.837 82.6031 103.777 84.8647 104.375 94.7999C105.06 106.046 122.622 111.661 122.429 123.118C122.21 135.808 111.461 145.303 112.866 157.28C114.078 167.62 123.527 165.869 131.983 161.979C137.911 159.26 142.538 156.708 155.113 163.695C171.35 172.706 182.494 171.853 190.239 164.276C198.239 156.462 199.284 143.121 188.386 128.786ZM160.382 156.708C151.653 150.61 141.546 152.581 130.815 154.499C121.797 156.118 119.707 150.398 124.089 142.769C128.629 134.849 133.16 128.539 131.693 120.329C130.13 111.546 117.696 105.906 113.156 100.142C107.571 93.0399 107.966 87.7247 114.596 83.1751C120.848 78.8895 126.038 74.9119 128.084 63.5687C129.876 53.6423 137.674 54.6719 142.134 57.6023C150.477 63.0759 161.076 64.8271 170.92 66.4991C186.015 69.0775 170.024 86.3519 171.42 102.289C173.098 121.526 185.163 129.622 186.726 145.312C188.017 158.239 175.407 167.215 160.382 156.708Z" fill="url(#paint4_linear_181_1437)"/>
<path d="M141.046 110.719C134.372 113.368 128.62 117.02 117.23 115.383C113.323 114.82 110.987 116.307 110.539 119.211C110.091 122.115 111.637 125.67 120.488 127.36C124.414 128.108 133.66 127.967 141.651 123.602L141.037 110.71L141.046 110.719Z" fill="url(#paint5_linear_181_1437)"/>
<path d="M102.768 64.4751L118.539 78.2559C119.004 78.6871 119.505 79.3295 119.566 80.2359C120.26 91.2007 118.223 107.463 114.025 124.183C107.624 149.694 107.826 165.693 107.975 174.88H61.1351L102.768 64.4663V64.4751Z" fill="url(#paint6_linear_181_1437)"/>
<path d="M114.061 107.674C115.51 101.875 113.788 95.8207 111.014 94.9055C108.028 93.9199 103.453 97.8887 101.354 105.413C99.6944 111.353 101.135 114.266 102.18 115.63C102.18 115.63 92.4585 140.586 90.6759 144.828C90.0876 146.236 89.3938 148.392 91.7209 148.392H97.9381C99.8788 148.392 101.029 146.236 101.459 144.502C101.89 142.769 106.667 116.73 106.667 116.73C109.231 115.586 112.743 112.954 114.061 107.674Z" fill="url(#paint7_linear_181_1437)"/>
<path d="M98.0081 144.238C99.3253 137.832 104.085 115.348 104.085 115.348C106.991 113.896 110.434 110.728 111.233 107.173C112.664 100.828 110.943 96.1376 108.309 95.2048C108.309 95.2048 108.291 95.2048 108.282 95.2048C105.701 96.3752 102.864 99.9568 101.345 105.43C99.6853 111.37 101.125 114.283 102.17 115.647C102.17 115.647 92.4495 140.604 90.6669 144.846C90.0785 146.254 89.3848 148.41 91.7119 148.41H94.6361C95.6635 148.41 97.4724 146.834 97.9993 144.247L98.0081 144.238Z" fill="black"/>
<path d="M98.9126 59.6615C98.9126 59.6615 95.7337 90.6815 83.1061 116.765C75.5454 132.376 62.4172 155.098 62.4172 174.898H71.3567C73.4554 153.575 84.2214 135.174 90.8601 117.698C98.5086 97.5455 101.74 82.4447 104.12 66.0943C104.155 65.8743 104.331 65.6983 104.55 65.6631C130.324 61.7119 153.638 56.9511 173.519 51.4247L171.982 44.0239L98.9038 59.6703L98.9126 59.6615Z" fill="url(#paint8_linear_181_1437)"/>
<path d="M193.163 96.6039C186.594 81.9871 180.448 65.3727 175.196 43.5663C174.652 41.3135 172.342 39.9759 170.129 40.6271C143.188 48.5911 120.664 52.5423 97.7886 55.6487C96.5416 55.8159 95.1015 56.7751 94.8117 58.1391C91.7558 72.4479 87.2597 89.7399 81.4728 103.882C71.8572 127.369 53.2495 155.282 53.2495 174.889H64.7531C65.28 162.569 72.4192 145.532 79.6726 129.78C92.2563 102.438 97.3495 83.7031 100.88 63.6303C101.011 62.8823 101.6 62.3103 102.346 62.1959C125.072 58.9047 149.792 53.4311 167.293 48.7759C167.758 48.6527 168.233 48.9343 168.347 49.4007C173.44 68.9719 178.516 85.3487 185.251 102.183C195.086 126.77 203.235 148.234 205.641 174.88H218.717C212.86 141.387 201.391 114.926 193.154 96.5951L193.163 96.6039Z" fill="url(#paint9_linear_181_1437)"/>
<path d="M158.907 105.571C173.115 101.655 176.039 98.6717 185.172 90.3205C186.48 89.1237 188.869 88.1909 190.608 90.9189C191.503 92.3269 193.066 95.8117 188.79 102.526C184.513 109.24 177.313 112.752 169.155 116.439L158.916 105.562L158.907 105.571Z" fill="#6990FF"/>
<path d="M137.454 174.888C134.899 174.888 133.555 169.221 140.088 166.722C141.713 160.87 144.224 148.937 145.261 143.208L158.187 145.602C158.187 145.602 155.948 160.395 153.55 168.139C151.864 173.586 148.466 174.888 146.464 174.888H137.445H137.454Z" fill="url(#paint10_linear_181_1437)"/>
<path d="M140.088 110.719L162.63 103.169C162.63 103.169 175.275 119.721 175.995 129.621C176.715 139.521 168.514 144.502 159.978 145.681C149.774 147.089 140.87 145.083 138.798 135.28C137.085 127.166 140.088 110.71 140.088 110.71V110.719Z" fill="#6990FF"/>
<path d="M140.282 111.379C141.019 112.919 144.479 116.122 151.601 113.333C157.958 110.842 161.506 105.413 161.506 105.413L140.282 111.379Z" fill="#3D58D9"/>
<path d="M243.159 57.628L235.65 62.522L238.097 66.2916L245.605 61.3977L243.159 57.628Z" fill="#FF8C19"/>
<path d="M236.429 68.4438L240.029 73.9878C240.389 74.5422 241.127 74.7006 241.68 74.3398L243.621 73.0726C244.174 72.7118 244.332 71.9726 243.972 71.4182L242.821 69.6494C242.584 69.2798 242.69 68.787 243.059 68.5494L245.667 66.851C246.035 66.6134 246.527 66.719 246.764 67.0886L247.915 68.8574C248.275 69.4118 249.012 69.5702 249.566 69.2094L251.506 67.9422C252.059 67.5814 252.218 66.8422 251.857 66.2878L248.257 60.7438C247.897 60.1894 247.159 60.031 246.606 60.3918L236.789 66.7894C236.235 67.1502 236.077 67.8894 236.437 68.4438H236.429Z" fill="url(#paint11_linear_181_1437)"/>
<path d="M203.727 78.2009L243.279 52.4214C243.831 52.0616 244.572 52.2189 244.931 52.7721L246.305 54.8893C246.665 55.4426 246.508 56.1853 245.955 56.5451L206.403 82.3246L203.731 78.2083L203.727 78.2009Z" fill="url(#paint12_linear_181_1437)"/>
<path d="M213.904 100.907C212.71 101.602 211.173 101.127 210.427 99.9653L209.848 99.0765C209.303 98.2317 208.118 98.0557 207.345 98.7597C206.739 99.3141 206.677 100.256 207.125 100.951L209.013 103.864C209.804 105.078 209.426 106.724 208.153 107.463C206.958 108.149 205.422 107.683 204.675 106.521L201.654 101.866C201.11 101.021 199.925 100.845 199.152 101.549C198.546 102.104 198.484 103.045 198.932 103.741L199.064 103.943C199.854 105.157 199.477 106.803 198.203 107.542C197.009 108.229 195.472 107.762 194.726 106.601L185.725 92.7405H185.743C182.283 87.3901 181.94 80.3501 185.462 74.6741C190.283 66.8949 200.504 64.6597 208.293 69.6757C216.082 74.6917 218.48 85.0581 213.659 92.8373C213.659 92.8373 213.659 92.8461 213.659 92.8549C213.132 93.6997 213.105 94.7645 213.659 95.6005L214.774 97.3165C215.564 98.5309 215.187 100.177 213.913 100.916L213.904 100.907ZM209.198 108.853C208.03 109.61 207.705 111.177 208.46 112.347C209.215 113.517 210.778 113.843 211.946 113.086C213.114 112.329 213.439 110.763 212.684 109.593C211.929 108.422 210.366 108.097 209.198 108.853Z" fill="url(#paint13_linear_181_1437)"/>
<path d="M191.503 78.5639C188.746 83.0167 190.116 88.9567 194.577 91.8255C199.038 94.6943 204.886 93.4183 207.652 88.9655C210.409 84.5127 209.04 78.5727 204.579 75.7039C200.118 72.8351 194.269 74.1111 191.503 78.5639Z" fill="#FF8C19"/>
<path d="M193.075 83.6503C192.979 83.8439 192.996 84.0727 193.11 84.2487L196.482 89.4407C196.596 89.6167 196.798 89.7223 197.018 89.7135L203.016 89.4759C203.235 89.4671 203.437 89.3351 203.534 89.1415L206.186 83.7383C206.282 83.5447 206.265 83.3159 206.151 83.1399L202.779 77.9479C202.664 77.7719 202.462 77.6663 202.243 77.6751L196.245 77.9127C196.026 77.9215 195.824 78.0535 195.727 78.2471L193.075 83.6503Z" fill="url(#paint14_linear_181_1437)"/>
<path d="M186.744 76.8127C188.526 73.2047 192.013 71.7351 191.89 72.5623C191.767 73.3895 190.388 74.8151 188.667 77.6839C187.069 80.3415 186.41 82.4447 185.655 82.3303C185.163 82.2599 185.286 79.7607 186.744 76.8127Z" fill="#FFCE2A"/>
<path d="M179.736 174.889C182.81 174.889 184.039 169.169 178.867 167.259C178.042 163.237 175.012 147.309 172.887 138.369L160.373 144.432C160.373 144.432 163.104 160.615 165.133 168.218C166.608 173.771 167.6 174.889 170.367 174.889H179.736Z" fill="#6990FF"/>
<path d="M184.689 90.7606C187.762 88.1206 190.625 91.8518 187.385 95.3982C184.382 98.6806 181.616 93.4006 184.689 90.7606Z" fill="#6990FF"/>
<path d="M155.122 79.0125C156.632 74.3221 154.551 70.8197 150.977 71.9373C146.025 73.4861 145.989 78.7485 141.713 81.0981L155.122 79.0125Z" fill="#55F186"/>
<path d="M147.254 80.0685C142.828 79.8749 142.538 72.3773 136.365 71.9637C130.359 71.5589 126.881 78.8189 132.677 84.3893L147.245 80.0685H147.254Z" fill="#29CC7A"/>
<path d="M151.574 68.5142C151.934 71.8406 151.548 78.5374 147.052 80.7374" stroke="#008D3C" stroke-width="2" stroke-linecap="round" stroke-linejoin="round"/>
<path d="M135.057 77.2085C136.549 82.1629 139.491 83.1749 139.491 83.1749" stroke="#008D3C" stroke-width="2" stroke-linecap="round" stroke-linejoin="round"/>
<path d="M121.972 101.47C123.983 108.871 126.548 108.95 133.406 107.076L128.989 90.8223C122.122 92.6967 119.962 94.0607 121.972 101.47Z" fill="#4970DE"/>
<path d="M142.433 80.2005C157.959 75.9589 163.658 75.8005 167.276 89.1061C170.893 102.412 165.396 105.685 150.328 109.821C135.548 113.878 129.138 113.808 125.52 100.502C121.902 87.1965 126.899 84.4421 142.424 80.2005H142.433Z" fill="#6990FF"/>
<path d="M137.235 84.8557C144.286 82.9285 149.528 82.4181 151.048 91.4293C152.567 100.44 148.422 101.743 142.284 103.415C136.146 105.087 131.913 106.072 128.664 97.5365C125.415 89.0005 130.192 86.7741 137.243 84.8557H137.235Z" fill="#B7CCFF"/>
<path d="M133.081 97.9149L135.9 97.1493C136.69 96.9293 137.507 97.4045 137.726 98.1965C137.946 98.9885 137.472 99.8069 136.681 100.027L133.862 100.792C133.072 101.012 132.255 100.537 132.036 99.7453C131.816 98.9533 132.291 98.1349 133.081 97.9149Z" fill="#6990FF"/>
<path d="M141.731 95.5565L144.549 94.7909C145.34 94.5709 146.156 95.0461 146.376 95.8381C146.595 96.6301 146.121 97.4485 145.331 97.6685L142.512 98.4341C141.722 98.6541 140.905 98.1789 140.686 97.3869C140.466 96.5949 140.94 95.7765 141.731 95.5565Z" fill="#6990FF"/>
<path d="M173.862 87.0997C175.872 94.5005 174.02 95.7853 168.066 97.4133L163.649 81.1597C169.603 79.5317 171.851 79.6989 173.862 87.0997Z" fill="#6990FF"/>
<path d="M165.186 83.9583C167.478 83.4655 168.18 84.0023 169.102 87.3727C170.015 90.7431 169.682 91.5615 167.46 92.3007C167.065 92.4327 166.643 92.2127 166.529 91.8079L164.641 84.8471C164.536 84.4423 164.79 84.0375 165.194 83.9495L165.186 83.9583Z" fill="#B7CCFF"/>
<path d="M156.414 89.243C157.435 88.9647 157.929 87.515 157.519 86.005C157.109 84.495 155.949 83.4965 154.929 83.7749C153.909 84.0532 153.414 85.5029 153.825 87.0129C154.235 88.5229 155.394 89.5213 156.414 89.243Z" fill="black"/>
<path d="M160.672 98.9006C159.653 99.5078 158.564 99.2702 157.607 98.6806C157.353 96.9998 158.134 95.1518 159.636 94.1926C160.145 93.867 160.681 93.6822 161.208 93.6118C161.919 95.3014 162.463 97.8182 160.672 98.9006Z" fill="#EB459F"/>
<path d="M160.672 98.9005C158.433 100.247 155.833 97.4397 155.052 96.0229C154.534 95.0813 155.017 94.4917 156.729 93.2245C158.793 91.6933 160.189 91.6757 160.733 92.6437C161.568 94.1133 162.858 97.5893 160.672 98.9005Z" fill="#EB459F"/>
<path d="M160.672 98.9006C159.653 99.5078 158.564 99.2702 157.607 98.6806C157.353 96.9998 158.134 95.1518 159.636 94.1926C160.145 93.867 160.681 93.6822 161.208 93.6118C161.919 95.3014 162.463 97.8182 160.672 98.9006Z" fill="#FFAED7"/>
<path d="M38.4002 80.4383C35.8273 78.7751 34.0974 76.0911 33.6407 73.0551L32.868 67.8983C32.8328 67.6431 32.6133 67.4583 32.3587 67.4583C32.104 67.4583 31.8845 67.6431 31.8493 67.8983L31.0766 73.0551C30.6199 76.0823 28.89 78.7751 26.3171 80.4383L25.6497 80.8695C25.5004 80.9663 25.4126 81.1335 25.4126 81.3095V81.3447C25.4126 81.5207 25.5004 81.6879 25.6497 81.7847L26.3171 82.2159C28.89 83.8791 30.6199 86.5631 31.0766 89.5991L31.8493 94.7559C31.8845 95.0111 32.104 95.1959 32.3587 95.1959C32.6133 95.1959 32.8328 95.0111 32.868 94.7559L33.6407 89.5991C34.0974 86.5719 35.8273 83.8791 38.4002 82.2159L39.0676 81.7847C39.2169 81.6879 39.3047 81.5207 39.3047 81.3447V81.3095C39.3047 81.1335 39.2169 80.9663 39.0676 80.8695L38.4002 80.4383Z" fill="#8CD9FF"/>
<path d="M51.1771 55.1734C49.8072 54.2934 48.8851 52.859 48.648 51.2486L48.2353 48.503C48.2177 48.371 48.1036 48.2654 47.9631 48.2654C47.8226 48.2654 47.7084 48.3622 47.6909 48.503L47.2781 51.2486C47.041 52.859 46.119 54.2934 44.7491 55.1734L44.3978 55.4022C44.3188 55.455 44.2749 55.543 44.2749 55.631V55.6486C44.2749 55.7454 44.3188 55.8334 44.3978 55.8774L44.7491 56.1062C46.119 56.9862 47.041 58.4206 47.2781 60.031L47.6909 62.7766C47.7084 62.9086 47.8226 63.0142 47.9631 63.0142C48.1036 63.0142 48.2177 62.9174 48.2353 62.7766L48.648 60.031C48.8851 58.4206 49.8072 56.9862 51.1771 56.1062L51.5283 55.8774C51.6073 55.8246 51.6512 55.7366 51.6512 55.6486V55.631C51.6512 55.5342 51.6073 55.4462 51.5283 55.4022L51.1771 55.1734Z" fill="#FF78B9"/>
<path d="M230.255 32.6982C228.745 31.7214 227.726 30.1462 227.463 28.3686L227.006 25.3414C226.98 25.1918 226.857 25.0862 226.708 25.0862C226.558 25.0862 226.427 25.2006 226.409 25.3414L225.953 28.3686C225.689 30.1462 224.67 31.7302 223.16 32.6982L222.765 32.9534C222.677 33.0062 222.624 33.103 222.624 33.2086V33.2262C222.624 33.3318 222.677 33.4286 222.765 33.4814L223.16 33.7366C224.67 34.7134 225.689 36.2886 225.953 38.0662L226.409 41.0934C226.435 41.243 226.558 41.3486 226.708 41.3486C226.857 41.3486 226.989 41.2342 227.006 41.0934L227.463 38.0662C227.726 36.2886 228.745 34.7046 230.255 33.7366L230.651 33.4814C230.738 33.4286 230.791 33.3318 230.791 33.2262V33.2086C230.791 33.103 230.738 33.0062 230.651 32.9534L230.255 32.6982Z" fill="#57F287"/>
</g>
</g>
</g>
<defs>
<linearGradient id="paint0_linear_181_1437" x1="11.6593" y1="190.697" x2="267.732" y2="84.8314" gradientUnits="userSpaceOnUse">
<stop stop-color="#FFE75C"/>
<stop offset="0.32" stop-color="#FC78C0"/>
<stop offset="0.92" stop-color="#5221DB"/>
</linearGradient>
<linearGradient id="paint1_linear_181_1437" x1="279" y1="-121.889" x2="193.825" y2="225.913" gradientUnits="userSpaceOnUse">
<stop stop-color="#3736BB"/>
<stop offset="0.339235" stop-color="#4670E8"/>
<stop offset="0.492065" stop-color="#8377EB"/>
<stop offset="0.823236" stop-color="#E782F1"/>
<stop offset="0.899558" stop-color="#DF90AF"/>
</linearGradient>
<linearGradient id="paint2_linear_181_1437" x1="139.5" y1="20.5455" x2="139.5" y2="173.023" gradientUnits="userSpaceOnUse">
<stop stop-color="#FFE75C" stop-opacity="0.5"/>
<stop offset="1" stop-color="#FFE75C" stop-opacity="0.7"/>
</linearGradient>
<linearGradient id="paint3_linear_181_1437" x1="144.207" y1="174.572" x2="131.27" y2="46.3877" gradientUnits="userSpaceOnUse">
<stop offset="0.41"/>
<stop offset="1" stop-color="#8547C6"/>
</linearGradient>
<linearGradient id="paint4_linear_181_1437" x1="150.363" y1="168.755" x2="150.363" y2="55.0591" gradientUnits="userSpaceOnUse">
<stop stop-color="#8547C6"/>
<stop offset="0.97" stop-color="#B845C1"/>
</linearGradient>
<linearGradient id="paint5_linear_181_1437" x1="115.606" y1="120.584" x2="131.667" y2="119.375" gradientUnits="userSpaceOnUse">
<stop offset="0.23" stop-color="#4970DE"/>
<stop offset="1" stop-color="#6990FF"/>
</linearGradient>
<linearGradient id="paint6_linear_181_1437" x1="90.421" y1="50.3775" x2="90.421" y2="175.232" gradientUnits="userSpaceOnUse">
<stop stop-color="#FFCE2A"/>
<stop offset="1" stop-color="#FFB819"/>
</linearGradient>
<linearGradient id="paint7_linear_181_1437" x1="108.871" y1="95.1959" x2="95.7247" y2="156.899" gradientUnits="userSpaceOnUse">
<stop stop-color="#FF8C19"/>
<stop offset="0.48" stop-color="#FE8917"/>
<stop offset="0.69" stop-color="#FB8213"/>
<stop offset="0.84" stop-color="#F6760C"/>
<stop offset="0.97" stop-color="#EF6403"/>
<stop offset="1" stop-color="#ED5F00"/>
</linearGradient>
<linearGradient id="paint8_linear_181_1437" x1="127.513" y1="64.3079" x2="99.5896" y2="198.924" gradientUnits="userSpaceOnUse">
<stop stop-color="#FF8C19"/>
<stop offset="0.48" stop-color="#FE8917"/>
<stop offset="0.69" stop-color="#FB8213"/>
<stop offset="0.84" stop-color="#F6760C"/>
<stop offset="0.97" stop-color="#EF6403"/>
<stop offset="1" stop-color="#ED5F00"/>
</linearGradient>
<linearGradient id="paint9_linear_181_1437" x1="135.988" y1="50.3687" x2="135.988" y2="174.158" gradientUnits="userSpaceOnUse">
<stop stop-color="#FFCE2A"/>
<stop offset="1" stop-color="#FFB819"/>
</linearGradient>
<linearGradient id="paint10_linear_181_1437" x1="143.601" y1="174.536" x2="149.632" y2="146.435" gradientUnits="userSpaceOnUse">
<stop stop-color="#4970DE"/>
<stop offset="0.37" stop-color="#5178E6"/>
<stop offset="0.96" stop-color="#6990FF"/>
</linearGradient>
<linearGradient id="paint11_linear_181_1437" x1="250.09" y1="63.6436" x2="211.416" y2="87.6359" gradientUnits="userSpaceOnUse">
<stop stop-color="#FFC619"/>
<stop offset="1" stop-color="#FFA919"/>
</linearGradient>
<linearGradient id="paint12_linear_181_1437" x1="245.514" y1="54.2486" x2="204.832" y2="79.938" gradientUnits="userSpaceOnUse">
<stop stop-color="#FFC619"/>
<stop offset="1" stop-color="#FFA919"/>
</linearGradient>
<linearGradient id="paint13_linear_181_1437" x1="217.429" y1="81.2857" x2="189.791" y2="98.3375" gradientUnits="userSpaceOnUse">
<stop stop-color="#FFC619"/>
<stop offset="1" stop-color="#FFA919"/>
</linearGradient>
<linearGradient id="paint14_linear_181_1437" x1="212.954" y1="75.8373" x2="186.104" y2="91.6074" gradientUnits="userSpaceOnUse">
<stop stop-color="#FFC619"/>
<stop offset="1" stop-color="#FFA919"/>
</linearGradient>
<clipPath id="clip0_181_1437">
<rect width="279" height="174.889" fill="white"/>
</clipPath>
<clipPath id="clip1_181_1437">
<rect width="271" height="174.889" fill="white" transform="translate(4)"/>
</clipPath>
<clipPath id="clip2_181_1437">
<rect width="245" height="154" fill="white" transform="translate(17 20.8887)"/>
</clipPath>
</defs>
</svg>
